<svg width="298" height="404" viewBox="0 0 298 404" fill="none" xmlns="http://www.w3.org/2000/svg">
<mask id="mask0_565_5465" style="mask-type:alpha" maskUnits="userSpaceOnUse" x="3" y="3" width="291" height="399">
<path d="M69.6095 13.3491C71.746 11.0405 71.7799 7.26241 69.6853 4.9103C67.5907 2.55818 64.1608 2.52278 62.0242 4.83132C59.8877 7.13986 59.8538 10.918 61.9484 13.2701C64.043 15.6222 67.4729 15.6576 69.6095 13.3491Z" fill="#CFBD9A"/>
<path d="M60.2346 62.4899C62.3712 60.1814 62.4051 56.4033 60.3105 54.0511C58.2157 51.6988 54.7858 51.6634 52.6492 53.9719C50.5127 56.2805 50.4788 60.0586 52.5735 62.4109C54.6682 64.7631 58.0981 64.7984 60.2346 62.4899Z" fill="#CFBD9A"/>
<path d="M78.2888 42.9821C80.4254 40.6735 80.4593 36.8954 78.3647 34.5433C76.2699 32.191 72.84 32.1556 70.7034 34.4641C68.5669 36.7727 68.533 40.5508 70.6277 42.9031C72.7224 45.2553 76.1523 45.2906 78.2888 42.9821Z" fill="#CFBD9A"/>
<path d="M96.343 23.4743C98.4796 21.1657 98.5135 17.3876 96.4189 15.0355C94.3241 12.6832 90.8942 12.6478 88.7576 14.9563C86.6211 17.2649 86.5872 21.043 88.6819 23.3953C90.7766 25.7475 94.2065 25.7828 96.343 23.4743Z" fill="#CFBD9A"/>
<path d="M50.8512 111.63C52.9877 109.321 53.0217 105.543 50.927 103.191C48.8324 100.839 45.4025 100.804 43.2659 103.112C41.1294 105.421 41.0954 109.199 43.1901 111.551C45.2847 113.903 48.7146 113.938 50.8512 111.63Z" fill="#CFBD9A"/>
<path d="M68.9054 92.122C71.0419 89.8135 71.0759 86.0354 68.9812 83.6832C66.8866 81.3311 63.4567 81.2957 61.3201 83.6043C59.1836 85.9128 59.1496 89.6909 61.2443 92.0431C63.3389 94.3952 66.7688 94.4306 68.9054 92.122Z" fill="#CFBD9A"/>
<path d="M86.9596 72.6142C89.0961 70.3057 89.1301 66.5276 87.0354 64.1754C84.9408 61.8233 81.5109 61.7879 79.3744 64.0964C77.2378 66.405 77.2038 70.1831 79.2985 72.5352C81.3931 74.8874 84.823 74.9227 86.9596 72.6142Z" fill="#CFBD9A"/>
<path d="M105.014 53.1069C107.151 50.7984 107.185 47.0203 105.09 44.6681C102.995 42.3159 99.5656 42.2806 97.429 44.5891C95.2925 46.8977 95.2585 50.6758 97.3532 53.0279C99.4478 55.3801 102.878 55.4154 105.014 53.1069Z" fill="#CFBD9A"/>
<path d="M123.068 33.5991C125.205 31.2905 125.239 27.5124 123.144 25.1603C121.05 22.8081 117.62 22.7728 115.483 25.0813C113.347 27.3899 113.313 31.168 115.407 33.5201C117.502 35.8723 120.932 35.9076 123.068 33.5991Z" fill="#CFBD9A"/>
<path d="M23.4137 180.278C25.5502 177.969 25.5842 174.191 23.4895 171.839C21.3949 169.487 17.965 169.451 15.8284 171.76C13.6919 174.069 13.6579 177.847 15.7526 180.199C17.8472 182.551 21.2771 182.586 23.4137 180.278Z" fill="#CFBD9A"/>
<path d="M41.4679 160.77C43.6044 158.461 43.6384 154.683 41.5437 152.331C39.4491 149.979 36.0192 149.944 33.8827 152.252C31.7461 154.561 31.7121 158.339 33.8068 160.691C35.9014 163.043 39.3313 163.079 41.4679 160.77Z" fill="#CFBD9A"/>
<path d="M59.5221 141.262C61.6586 138.954 61.6926 135.176 59.5979 132.823C57.5033 130.471 54.0734 130.436 51.9368 132.744C49.8003 135.053 49.7663 138.831 51.861 141.183C53.9556 143.535 57.3855 143.571 59.5221 141.262Z" fill="#CFBD9A"/>
<path d="M77.5763 121.754C79.7128 119.446 79.7468 115.668 77.6521 113.316C75.5575 110.963 72.1276 110.928 69.991 113.237C67.8545 115.545 67.8205 119.323 69.9152 121.675C72.0098 124.028 75.4397 124.063 77.5763 121.754Z" fill="#CFBD9A"/>
<path d="M95.6349 102.242C97.7714 99.9336 97.8054 96.1555 95.7107 93.8034C93.6161 91.4512 90.1862 91.4158 88.0496 93.7244C85.9131 96.0329 85.8791 99.811 87.9738 102.163C90.0684 104.515 93.4983 104.551 95.6349 102.242Z" fill="#CFBD9A"/>
<path d="M113.689 82.7343C115.826 80.4258 115.86 76.6477 113.765 74.2955C111.67 71.9434 108.24 71.908 106.104 74.2166C103.967 76.5251 103.933 80.3032 106.028 82.6554C108.123 85.0075 111.553 85.0429 113.689 82.7343Z" fill="#CFBD9A"/>
<path d="M131.743 63.227C133.88 60.9185 133.914 57.1404 131.819 54.7882C129.724 52.4361 126.295 52.4007 124.158 54.7093C122.021 57.0178 121.988 60.7959 124.082 63.148C126.177 65.5002 129.607 65.5356 131.743 63.227Z" fill="#CFBD9A"/>
<path d="M149.798 43.7192C151.935 41.4106 151.968 37.6325 149.874 35.2804C147.779 32.9282 144.349 32.8929 142.213 35.2014C140.076 37.51 140.042 41.2881 142.137 43.6402C144.231 45.9924 147.661 46.0277 149.798 43.7192Z" fill="#CFBD9A"/>
<path d="M14.0304 229.418C16.1669 227.109 16.2009 223.331 14.1062 220.979C12.0116 218.627 8.58169 218.592 6.44514 220.9C4.3086 223.209 4.27464 226.987 6.36927 229.339C8.46391 231.691 11.8938 231.726 14.0304 229.418Z" fill="#CFBD9A"/>
<path d="M32.0846 209.91C34.2211 207.602 34.2551 203.823 32.1604 201.471C30.0658 199.119 26.6359 199.084 24.4993 201.392C22.3628 203.701 22.3288 207.479 24.4235 209.831C26.5181 212.183 29.948 212.219 32.0846 209.91Z" fill="#CFBD9A"/>
<path d="M50.1388 190.402C52.2753 188.094 52.3093 184.316 50.2146 181.964C48.12 179.611 44.6901 179.576 42.5535 181.885C40.417 184.193 40.383 187.971 42.4777 190.323C44.5723 192.675 48.0022 192.711 50.1388 190.402Z" fill="#CFBD9A"/>
<path d="M68.1974 170.89C70.3339 168.582 70.3679 164.803 68.2732 162.451C66.1786 160.099 62.7487 160.064 60.6121 162.372C58.4756 164.681 58.4416 168.459 60.5363 170.811C62.6309 173.163 66.0608 173.199 68.1974 170.89Z" fill="#CFBD9A"/>
<path d="M86.2516 151.382C88.3881 149.074 88.4221 145.296 86.3274 142.944C84.2328 140.591 80.8029 140.556 78.6663 142.865C76.5298 145.173 76.4958 148.951 78.5905 151.303C80.6851 153.655 84.115 153.691 86.2516 151.382Z" fill="#CFBD9A"/>
<path d="M104.306 131.875C106.442 129.566 106.476 125.788 104.382 123.436C102.287 121.084 98.8571 121.049 96.7205 123.357C94.584 125.666 94.55 129.444 96.6447 131.796C98.7393 134.148 102.169 134.184 104.306 131.875Z" fill="#CFBD9A"/>
<path d="M122.36 112.367C124.497 110.059 124.53 106.281 122.436 103.928C120.341 101.576 116.911 101.541 114.775 103.849C112.638 106.158 112.604 109.936 114.699 112.288C116.794 114.64 120.223 114.676 122.36 112.367Z" fill="#CFBD9A"/>
<path d="M140.415 92.8593C142.551 90.5508 142.585 86.7727 140.491 84.4206C138.396 82.0684 134.966 82.033 132.829 84.3416C130.693 86.6501 130.659 90.4282 132.754 92.7804C134.848 95.1325 138.278 95.1679 140.415 92.8593Z" fill="#CFBD9A"/>
<path d="M158.469 73.3515C160.605 71.043 160.639 67.2649 158.545 64.9127C156.45 62.5606 153.02 62.5252 150.884 64.8338C148.747 67.1423 148.713 70.9204 150.808 73.2726C152.902 75.6247 156.332 75.6601 158.469 73.3515Z" fill="#CFBD9A"/>
<path d="M176.527 53.8393C178.663 51.5308 178.697 47.7527 176.603 45.4005C174.508 43.0484 171.078 43.013 168.942 45.3216C166.805 47.6301 166.771 51.4082 168.866 53.7604C170.96 56.1125 174.39 56.1479 176.527 53.8393Z" fill="#CFBD9A"/>
<path d="M22.7013 259.05C24.8378 256.742 24.8714 252.963 22.7771 250.611C20.6825 248.259 17.2526 248.224 15.116 250.532C12.9795 252.841 12.9455 256.619 15.0402 258.971C17.1344 261.323 20.5647 261.359 22.7013 259.05Z" fill="#CFBD9A"/>
<path d="M40.7594 239.538C42.8959 237.23 42.9295 233.451 40.8352 231.099C38.7406 228.747 35.3107 228.712 33.1741 231.02C31.0376 233.329 31.0036 237.107 33.0983 239.459C35.1925 241.811 38.6228 241.847 40.7594 239.538Z" fill="#CFBD9A"/>
<path d="M58.8141 220.03C60.9506 217.722 60.9842 213.943 58.8899 211.591C56.7953 209.239 53.3654 209.204 51.2288 211.512C49.0923 213.821 49.0583 217.599 51.153 219.951C53.2472 222.303 56.6775 222.339 58.8141 220.03Z" fill="#CFBD9A"/>
<path d="M76.8683 200.522C79.0048 198.214 79.0384 194.435 76.9441 192.084C74.8495 189.731 71.4196 189.696 69.283 192.005C67.1465 194.313 67.1125 198.091 69.2072 200.443C71.3014 202.795 74.7317 202.831 76.8683 200.522Z" fill="#CFBD9A"/>
<path d="M94.9225 181.015C97.059 178.707 97.0926 174.928 94.9983 172.576C92.9037 170.224 89.4738 170.189 87.3372 172.497C85.2007 174.806 85.1667 178.584 87.2614 180.936C89.3556 183.288 92.7859 183.324 94.9225 181.015Z" fill="#CFBD9A"/>
<path d="M112.977 161.507C115.113 159.199 115.147 155.42 113.053 153.068C110.958 150.716 107.528 150.681 105.391 152.99C103.255 155.298 103.221 159.076 105.316 161.428C107.41 163.78 110.84 163.816 112.977 161.507Z" fill="#CFBD9A"/>
<path d="M131.035 141.995C133.172 139.687 133.205 135.908 131.111 133.556C129.016 131.204 125.587 131.169 123.45 133.477C121.313 135.786 121.28 139.564 123.374 141.916C125.468 144.268 128.899 144.304 131.035 141.995Z" fill="#CFBD9A"/>
<path d="M149.089 122.487C151.226 120.179 151.26 116.4 149.165 114.048C147.071 111.696 143.641 111.661 141.504 113.97C139.368 116.278 139.334 120.056 141.428 122.408C143.523 124.76 146.953 124.796 149.089 122.487Z" fill="#CFBD9A"/>
<path d="M167.144 102.979C169.28 100.671 169.314 96.8924 167.22 94.5407C165.125 92.1885 161.695 92.1532 159.558 94.4617C157.422 96.7702 157.388 100.548 159.483 102.9C161.577 105.252 165.007 105.288 167.144 102.979Z" fill="#CFBD9A"/>
<path d="M185.198 83.4716C187.335 81.1631 187.368 77.3845 185.274 75.0328C183.18 72.6807 179.75 72.6453 177.613 74.9539C175.477 77.2624 175.443 81.0405 177.537 83.3927C179.631 85.7444 183.062 85.7802 185.198 83.4716Z" fill="#CFBD9A"/>
<path d="M203.253 63.9638C205.389 61.6553 205.423 57.8767 203.328 55.525C201.234 53.1729 197.804 53.1375 195.667 55.4461C193.531 57.7546 193.497 61.5327 195.591 63.8849C197.686 66.2366 201.116 66.2724 203.253 63.9638Z" fill="#CFBD9A"/>
<path d="M13.3219 308.186C15.4584 305.877 15.4924 302.099 13.3977 299.747C11.3031 297.395 7.87319 297.36 5.73665 299.668C3.60011 301.977 3.56613 305.755 5.66077 308.107C7.75541 310.459 11.1853 310.495 13.3219 308.186Z" fill="#CFBD9A"/>
<path d="M31.3761 288.678C33.5126 286.37 33.5466 282.592 31.4519 280.239C29.3573 277.887 25.9274 277.852 23.7908 280.16C21.6543 282.469 21.6203 286.247 23.715 288.599C25.8096 290.951 29.2395 290.987 31.3761 288.678Z" fill="#CFBD9A"/>
<path d="M49.4307 269.17C51.5673 266.862 51.6013 263.084 49.5066 260.732C47.412 258.379 43.9821 258.344 41.8455 260.653C39.709 262.961 39.675 266.739 41.7697 269.091C43.8643 271.444 47.2942 271.479 49.4307 269.17Z" fill="#CFBD9A"/>
<path d="M67.485 249.663C69.6215 247.354 69.6555 243.576 67.5608 241.224C65.4662 238.872 62.0363 238.836 59.8997 241.145C57.7632 243.453 57.7292 247.231 59.8239 249.584C61.9185 251.936 65.3484 251.971 67.485 249.663Z" fill="#CFBD9A"/>
<path d="M85.5391 230.155C87.6757 227.846 87.7097 224.068 85.615 221.716C83.5204 219.364 80.0905 219.328 77.9539 221.637C75.8174 223.946 75.7834 227.724 77.8781 230.076C79.9727 232.428 83.4026 232.463 85.5391 230.155Z" fill="#CFBD9A"/>
<path d="M103.598 210.643C105.734 208.334 105.768 204.556 103.674 202.204C101.579 199.852 98.1491 199.817 96.0125 202.125C93.876 204.434 93.842 208.212 95.9367 210.564C98.0313 212.916 101.461 212.952 103.598 210.643Z" fill="#CFBD9A"/>
<path d="M121.652 191.135C123.788 188.827 123.822 185.049 121.728 182.696C119.633 180.344 116.203 180.309 114.067 182.617C111.93 184.926 111.896 188.704 113.991 191.056C116.085 193.408 119.515 193.444 121.652 191.135Z" fill="#CFBD9A"/>
<path d="M139.706 171.627C141.843 169.319 141.877 165.541 139.782 163.189C137.687 160.836 134.257 160.801 132.121 163.11C129.984 165.418 129.95 169.196 132.045 171.548C134.14 173.901 137.57 173.936 139.706 171.627Z" fill="#CFBD9A"/>
<path d="M157.76 152.12C159.897 149.811 159.931 146.033 157.836 143.681C155.742 141.329 152.312 141.293 150.175 143.602C148.039 145.91 148.005 149.688 150.099 152.041C152.194 154.393 155.624 154.428 157.76 152.12Z" fill="#CFBD9A"/>
<path d="M175.815 132.612C177.952 130.303 177.986 126.525 175.891 124.173C173.796 121.821 170.366 121.785 168.23 124.094C166.093 126.403 166.059 130.181 168.154 132.533C170.249 134.885 173.678 134.92 175.815 132.612Z" fill="#CFBD9A"/>
<path d="M193.869 113.104C196.006 110.795 196.04 107.017 193.945 104.665C191.85 102.313 188.421 102.278 186.284 104.586C184.147 106.895 184.113 110.673 186.208 113.025C188.303 115.377 191.733 115.413 193.869 113.104Z" fill="#CFBD9A"/>
<path d="M211.927 93.5918C214.064 91.2832 214.098 87.5051 212.003 85.153C209.909 82.8008 206.479 82.7655 204.342 85.074C202.206 87.3825 202.172 91.1606 204.266 93.5128C206.361 95.8649 209.791 95.9003 211.927 93.5918Z" fill="#CFBD9A"/>
<path d="M229.982 74.0839C232.119 71.7754 232.153 67.9973 230.058 65.6452C227.963 63.293 224.533 63.2576 222.397 65.5662C220.26 67.8747 220.226 71.6528 222.321 74.005C224.416 76.3571 227.845 76.3925 229.982 74.0839Z" fill="#CFBD9A"/>
<path d="M21.997 337.823C24.1336 335.514 24.1671 331.736 22.0729 329.384C19.9783 327.032 16.5484 326.997 14.4118 329.305C12.2753 331.614 12.2414 335.392 14.3361 337.744C16.4303 340.095 19.8605 340.131 21.997 337.823Z" fill="#CFBD9A"/>
<path d="M40.0514 318.315C42.1879 316.007 42.2215 312.228 40.1272 309.877C38.0326 307.524 34.6027 307.489 32.4661 309.798C30.3296 312.106 30.2956 315.884 32.3903 318.236C34.4845 320.588 37.9148 320.624 40.0514 318.315Z" fill="#CFBD9A"/>
<path d="M58.1056 298.808C60.2421 296.499 60.2757 292.72 58.1814 290.369C56.0868 288.017 52.6569 287.981 50.5203 290.29C48.3838 292.598 48.3498 296.376 50.4445 298.729C52.5387 301.08 55.969 301.116 58.1056 298.808Z" fill="#CFBD9A"/>
<path d="M76.1642 279.295C78.3007 276.987 78.3343 273.208 76.24 270.857C74.1454 268.504 70.7155 268.469 68.5789 270.778C66.4424 273.086 66.4084 276.864 68.5031 279.216C70.5973 281.568 74.0276 281.604 76.1642 279.295Z" fill="#CFBD9A"/>
<path d="M94.2184 259.788C96.3549 257.479 96.3885 253.7 94.2942 251.349C92.1996 248.997 88.7697 248.961 86.6331 251.27C84.4966 253.578 84.4626 257.356 86.5573 259.709C88.6515 262.06 92.0818 262.096 94.2184 259.788Z" fill="#CFBD9A"/>
<path d="M112.273 240.28C114.409 237.971 114.443 234.193 112.348 231.841C110.254 229.489 106.824 229.453 104.687 231.762C102.551 234.071 102.517 237.849 104.611 240.201C106.706 242.552 110.136 242.588 112.273 240.28Z" fill="#CFBD9A"/>
<path d="M130.327 220.772C132.463 218.463 132.497 214.685 130.403 212.333C128.308 209.981 124.878 209.946 122.742 212.254C120.605 214.563 120.571 218.341 122.666 220.693C124.76 223.045 128.19 223.08 130.327 220.772Z" fill="#CFBD9A"/>
<path d="M148.381 201.264C150.518 198.956 150.552 195.177 148.457 192.825C146.363 190.473 142.933 190.438 140.796 192.746C138.66 195.055 138.626 198.833 140.72 201.185C142.815 203.537 146.245 203.573 148.381 201.264Z" fill="#CFBD9A"/>
<path d="M166.44 181.752C168.576 179.443 168.61 175.665 166.515 173.313C164.421 170.961 160.991 170.926 158.854 173.234C156.718 175.543 156.684 179.321 158.778 181.673C160.873 184.025 164.303 184.06 166.44 181.752Z" fill="#CFBD9A"/>
<path d="M184.494 162.245C186.63 159.936 186.664 156.158 184.57 153.806C182.475 151.454 179.045 151.418 176.909 153.727C174.772 156.035 174.738 159.813 176.833 162.166C178.927 164.517 182.357 164.553 184.494 162.245Z" fill="#CFBD9A"/>
<path d="M202.548 142.737C204.685 140.428 204.719 136.65 202.624 134.298C200.53 131.946 197.1 131.91 194.963 134.219C192.827 136.528 192.793 140.306 194.887 142.658C196.982 145.01 200.412 145.045 202.548 142.737Z" fill="#CFBD9A"/>
<path d="M220.603 123.229C222.739 120.92 222.773 117.142 220.679 114.79C218.584 112.438 215.154 112.403 213.017 114.711C210.881 117.02 210.847 120.798 212.942 123.15C215.036 125.502 218.466 125.537 220.603 123.229Z" fill="#CFBD9A"/>
<path d="M238.657 103.721C240.793 101.413 240.827 97.6341 238.733 95.2824C236.638 92.9302 233.208 92.8949 231.072 95.2034C228.935 97.5119 228.901 101.29 230.996 103.642C233.09 105.994 236.52 106.03 238.657 103.721Z" fill="#CFBD9A"/>
<path d="M256.711 84.2138C258.847 81.9053 258.881 78.1267 256.786 75.775C254.692 73.4229 251.262 73.3875 249.125 75.6961C246.989 78.0046 246.955 81.7827 249.049 84.1349C251.144 86.4866 254.574 86.5224 256.711 84.2138Z" fill="#CFBD9A"/>
<path d="M12.6139 386.963C14.7504 384.654 14.7844 380.876 12.6897 378.524C10.5951 376.172 7.16514 376.137 5.02864 378.445C2.89214 380.754 2.85813 384.532 4.95276 386.884C7.0474 389.236 10.4774 389.271 12.6139 386.963Z" fill="#CFBD9A"/>
<path d="M30.672 367.451C32.8085 365.142 32.8425 361.364 30.7478 359.012C28.6532 356.66 25.2232 356.624 23.0867 358.933C20.9502 361.241 20.9162 365.02 23.0109 367.372C25.1055 369.724 28.5355 369.759 30.672 367.451Z" fill="#CFBD9A"/>
<path d="M48.7262 347.943C50.8627 345.634 50.8967 341.856 48.802 339.504C46.7074 337.152 43.2775 337.117 41.1409 339.425C39.0044 341.734 38.9704 345.512 41.0651 347.864C43.1597 350.216 46.5896 350.251 48.7262 347.943Z" fill="#CFBD9A"/>
<path d="M66.7808 328.436C68.9174 326.127 68.9514 322.349 66.8567 319.997C64.7621 317.645 61.3322 317.609 59.1956 319.918C57.0591 322.226 57.0251 326.004 59.1198 328.357C61.2144 330.709 64.6443 330.744 66.7808 328.436Z" fill="#CFBD9A"/>
<path d="M84.835 308.928C86.9716 306.619 87.0056 302.841 84.9109 300.489C82.8163 298.137 79.3864 298.101 77.2498 300.41C75.1133 302.718 75.0793 306.497 77.174 308.849C79.2686 311.201 82.6985 311.236 84.835 308.928Z" fill="#CFBD9A"/>
<path d="M102.889 289.42C105.026 287.111 105.06 283.333 102.965 280.981C100.87 278.629 97.4406 278.594 95.304 280.902C93.1675 283.211 93.1335 286.989 95.2282 289.341C97.3228 291.693 100.753 291.728 102.889 289.42Z" fill="#CFBD9A"/>
<path d="M120.943 269.912C123.08 267.604 123.114 263.825 121.019 261.473C118.925 259.121 115.495 259.086 113.358 261.394C111.222 263.703 111.188 267.481 113.282 269.833C115.377 272.185 118.807 272.221 120.943 269.912Z" fill="#CFBD9A"/>
<path d="M139.002 250.4C141.139 248.091 141.173 244.313 139.078 241.961C136.983 239.609 133.553 239.574 131.417 241.882C129.28 244.191 129.246 247.969 131.341 250.321C133.436 252.673 136.865 252.708 139.002 250.4Z" fill="#CFBD9A"/>
<path d="M157.056 230.892C159.193 228.584 159.227 224.805 157.132 222.453C155.037 220.101 151.608 220.066 149.471 222.374C147.334 224.683 147.301 228.461 149.395 230.813C151.49 233.165 154.92 233.201 157.056 230.892Z" fill="#CFBD9A"/>
<path d="M175.11 211.384C177.247 209.076 177.281 205.298 175.186 202.945C173.092 200.593 169.662 200.558 167.525 202.866C165.389 205.175 165.355 208.953 167.449 211.305C169.544 213.657 172.974 213.693 175.11 211.384Z" fill="#CFBD9A"/>
<path d="M193.165 191.876C195.302 189.568 195.336 185.79 193.241 183.438C191.146 181.085 187.716 181.05 185.58 183.359C183.443 185.667 183.409 189.445 185.504 191.797C187.599 194.15 191.029 194.185 193.165 191.876Z" fill="#CFBD9A"/>
<path d="M211.219 172.369C213.356 170.061 213.39 166.282 211.295 163.93C209.201 161.578 205.771 161.543 203.634 163.851C201.498 166.16 201.464 169.938 203.558 172.29C205.653 174.642 209.083 174.678 211.219 172.369Z" fill="#CFBD9A"/>
<path d="M229.274 152.861C231.41 150.553 231.444 146.775 229.349 144.422C227.255 142.07 223.825 142.035 221.688 144.344C219.552 146.652 219.518 150.43 221.612 152.782C223.707 155.134 227.137 155.17 229.274 152.861Z" fill="#CFBD9A"/>
<path d="M247.332 133.349C249.469 131.041 249.503 127.262 247.408 124.91C245.313 122.558 241.883 122.523 239.747 124.831C237.61 127.14 237.576 130.918 239.671 133.27C241.766 135.622 245.196 135.658 247.332 133.349Z" fill="#CFBD9A"/>
<path d="M265.386 113.842C267.522 111.533 267.556 107.755 265.462 105.403C263.367 103.051 259.937 103.015 257.801 105.324C255.664 107.633 255.63 111.411 257.725 113.763C259.819 116.115 263.249 116.15 265.386 113.842Z" fill="#CFBD9A"/>
<path d="M283.44 94.3339C285.577 92.0254 285.611 88.2473 283.516 85.8952C281.421 83.543 277.991 83.5076 275.855 85.8162C273.718 88.1247 273.684 91.9028 275.779 94.255C277.874 96.6071 281.303 96.6425 283.44 94.3339Z" fill="#CFBD9A"/>
<path d="M39.3433 397.083C41.4799 394.774 41.5139 390.996 39.4192 388.644C37.3246 386.292 33.8946 386.257 31.7581 388.565C29.6216 390.874 29.5876 394.652 31.6823 397.004C33.7769 399.356 37.2068 399.391 39.3433 397.083Z" fill="#CFBD9A"/>
<path d="M57.3974 377.575C59.534 375.267 59.5679 371.489 57.4733 369.136C55.3787 366.784 51.9488 366.749 49.8122 369.058C47.6757 371.366 47.6418 375.144 49.7365 377.496C51.8311 379.848 55.2609 379.884 57.3974 377.575Z" fill="#CFBD9A"/>
<path d="M75.4518 358.068C77.5883 355.759 77.6223 351.981 75.5276 349.629C73.433 347.277 70.0031 347.242 67.8665 349.55C65.73 351.859 65.696 355.637 67.7907 357.989C69.8853 360.341 73.3152 360.376 75.4518 358.068Z" fill="#CFBD9A"/>
<path d="M93.5059 338.56C95.6425 336.251 95.6765 332.473 93.5818 330.121C91.4872 327.769 88.0573 327.734 85.9207 330.042C83.7842 332.351 83.7502 336.129 85.8449 338.481C87.9395 340.833 91.3694 340.869 93.5059 338.56Z" fill="#CFBD9A"/>
<path d="M111.565 319.048C113.701 316.739 113.735 312.961 111.64 310.609C109.546 308.257 106.116 308.222 103.979 310.53C101.843 312.839 101.809 316.617 103.903 318.969C105.998 321.321 109.428 321.356 111.565 319.048Z" fill="#CFBD9A"/>
<path d="M129.619 299.54C131.755 297.231 131.789 293.453 129.695 291.101C127.6 288.749 124.17 288.714 122.034 291.022C119.897 293.331 119.863 297.109 121.958 299.461C124.052 301.813 127.482 301.849 129.619 299.54Z" fill="#CFBD9A"/>
<path d="M147.673 280.032C149.809 277.724 149.843 273.946 147.749 271.593C145.654 269.241 142.224 269.206 140.088 271.514C137.951 273.823 137.917 277.601 140.012 279.953C142.106 282.305 145.536 282.341 147.673 280.032Z" fill="#CFBD9A"/>
<path d="M165.727 260.524C167.864 258.216 167.898 254.438 165.803 252.086C163.708 249.733 160.278 249.698 158.142 252.007C156.005 254.315 155.971 258.093 158.066 260.445C160.161 262.798 163.591 262.833 165.727 260.524Z" fill="#CFBD9A"/>
<path d="M183.782 241.017C185.918 238.709 185.952 234.93 183.858 232.578C181.763 230.226 178.333 230.191 176.197 232.499C174.06 234.808 174.026 238.586 176.121 240.938C178.215 243.29 181.645 243.326 183.782 241.017Z" fill="#CFBD9A"/>
<path d="M201.84 221.505C203.976 219.196 204.01 215.418 201.916 213.066C199.821 210.714 196.391 210.679 194.255 212.987C192.118 215.296 192.084 219.074 194.179 221.426C196.273 223.778 199.703 223.813 201.84 221.505Z" fill="#CFBD9A"/>
<path d="M219.894 201.997C222.031 199.688 222.065 195.91 219.97 193.558C217.875 191.206 214.445 191.171 212.309 193.479C210.172 195.788 210.138 199.566 212.233 201.918C214.328 204.27 217.758 204.306 219.894 201.997Z" fill="#CFBD9A"/>
<path d="M237.949 182.489C240.085 180.181 240.119 176.403 238.025 174.05C235.93 171.698 232.5 171.663 230.364 173.971C228.227 176.28 228.193 180.058 230.288 182.41C232.382 184.762 235.812 184.798 237.949 182.489Z" fill="#CFBD9A"/>
<path d="M256.003 162.982C258.139 160.673 258.173 156.895 256.078 154.543C253.984 152.191 250.554 152.156 248.417 154.464C246.281 156.773 246.247 160.551 248.341 162.903C250.436 165.255 253.866 165.29 256.003 162.982Z" fill="#CFBD9A"/>
<path d="M274.057 143.474C276.193 141.166 276.227 137.387 274.133 135.035C272.038 132.683 268.608 132.648 266.472 134.956C264.335 137.265 264.301 141.043 266.396 143.395C268.49 145.747 271.92 145.783 274.057 143.474Z" fill="#CFBD9A"/>
<path d="M292.111 123.966C294.247 121.658 294.281 117.88 292.187 115.527C290.092 113.175 286.662 113.14 284.526 115.449C282.389 117.757 282.355 121.535 284.45 123.887C286.544 126.239 289.974 126.275 292.111 123.966Z" fill="#CFBD9A"/>
<path d="M84.1266 387.696C86.2631 385.387 86.2967 381.609 84.2024 379.257C82.1078 376.905 78.6779 376.869 76.5413 379.178C74.4048 381.487 74.3708 385.265 76.4655 387.617C78.5597 389.968 81.99 390.004 84.1266 387.696Z" fill="#CFBD9A"/>
<path d="M102.181 368.188C104.318 365.879 104.351 362.101 102.257 359.749C100.162 357.397 96.7326 357.362 94.596 359.67C92.4595 361.979 92.4255 365.757 94.5201 368.109C96.6144 370.461 100.045 370.497 102.181 368.188Z" fill="#CFBD9A"/>
<path d="M120.235 348.68C122.372 346.372 122.406 342.593 120.311 340.241C118.217 337.889 114.787 337.854 112.65 340.162C110.514 342.471 110.48 346.249 112.574 348.601C114.669 350.953 118.099 350.989 120.235 348.68Z" fill="#CFBD9A"/>
<path d="M138.29 329.172C140.426 326.864 140.46 323.085 138.366 320.734C136.271 318.381 132.841 318.346 130.704 320.655C128.568 322.963 128.534 326.741 130.629 329.093C132.723 331.445 136.153 331.481 138.29 329.172Z" fill="#CFBD9A"/>
<path d="M156.344 309.665C158.48 307.356 158.514 303.578 156.42 301.226C154.325 298.874 150.895 298.839 148.759 301.147C146.622 303.456 146.588 307.234 148.683 309.586C150.777 311.938 154.207 311.974 156.344 309.665Z" fill="#CFBD9A"/>
<path d="M174.402 290.153C176.539 287.844 176.573 284.066 174.478 281.714C172.384 279.362 168.954 279.326 166.817 281.635C164.681 283.944 164.647 287.722 166.741 290.074C168.836 292.426 172.266 292.461 174.402 290.153Z" fill="#CFBD9A"/>
<path d="M192.457 270.645C194.593 268.336 194.627 264.558 192.533 262.206C190.438 259.854 187.008 259.819 184.871 262.127C182.735 264.436 182.701 268.214 184.796 270.566C186.89 272.918 190.32 272.954 192.457 270.645Z" fill="#CFBD9A"/>
<path d="M210.511 251.137C212.647 248.829 212.681 245.05 210.587 242.698C208.492 240.346 205.062 240.311 202.926 242.619C200.789 244.928 200.755 248.706 202.85 251.058C204.944 253.41 208.374 253.446 210.511 251.137Z" fill="#CFBD9A"/>
<path d="M228.566 231.629C230.702 229.321 230.736 225.542 228.641 223.191C226.547 220.838 223.117 220.803 220.98 223.112C218.844 225.42 218.81 229.198 220.904 231.55C222.999 233.902 226.429 233.938 228.566 231.629Z" fill="#CFBD9A"/>
<path d="M246.62 212.122C248.756 209.813 248.79 206.034 246.696 203.683C244.601 201.331 241.171 201.295 239.034 203.604C236.898 205.912 236.864 209.69 238.959 212.043C241.053 214.394 244.483 214.43 246.62 212.122Z" fill="#CFBD9A"/>
<path d="M264.673 192.614C266.81 190.306 266.844 186.527 264.749 184.175C262.655 181.823 259.225 181.788 257.088 184.096C254.952 186.405 254.918 190.183 257.012 192.535C259.107 194.887 262.537 194.923 264.673 192.614Z" fill="#CFBD9A"/>
<path d="M282.732 173.102C284.869 170.793 284.902 167.015 282.808 164.663C280.713 162.311 277.283 162.276 275.147 164.584C273.01 166.893 272.976 170.671 275.071 173.023C277.165 175.375 280.595 175.411 282.732 173.102Z" fill="#CFBD9A"/>
<path d="M110.852 397.82C112.989 395.512 113.022 391.733 110.928 389.381C108.833 387.029 105.403 386.994 103.267 389.303C101.13 391.611 101.096 395.389 103.191 397.741C105.285 400.093 108.716 400.129 110.852 397.82Z" fill="#CFBD9A"/>
<path d="M128.906 378.312C131.043 376.004 131.076 372.225 128.982 369.874C126.888 367.522 123.458 367.486 121.321 369.795C119.185 372.103 119.151 375.881 121.245 378.233C123.339 380.585 126.77 380.621 128.906 378.312Z" fill="#CFBD9A"/>
<path d="M146.965 358.8C149.101 356.492 149.135 352.713 147.041 350.361C144.946 348.009 141.516 347.974 139.38 350.282C137.243 352.591 137.209 356.369 139.304 358.721C141.398 361.073 144.828 361.109 146.965 358.8Z" fill="#CFBD9A"/>
<path d="M165.019 339.292C167.156 336.984 167.189 333.205 165.095 330.854C163 328.501 159.57 328.466 157.434 330.775C155.297 333.083 155.263 336.861 157.358 339.213C159.452 341.565 162.883 341.601 165.019 339.292Z" fill="#CFBD9A"/>
<path d="M183.073 319.785C185.21 317.476 185.243 313.698 183.149 311.346C181.055 308.994 177.625 308.958 175.488 311.267C173.352 313.575 173.318 317.354 175.412 319.706C177.506 322.057 180.937 322.093 183.073 319.785Z" fill="#CFBD9A"/>
<path d="M201.128 300.277C203.264 297.969 203.298 294.19 201.203 291.839C199.109 289.486 195.679 289.451 193.542 291.76C191.406 294.068 191.372 297.846 193.466 300.198C195.561 302.55 198.991 302.586 201.128 300.277Z" fill="#CFBD9A"/>
<path d="M219.182 280.769C221.319 278.461 221.352 274.682 219.258 272.331C217.163 269.979 213.734 269.943 211.597 272.252C209.46 274.56 209.426 278.338 211.521 280.691C213.615 283.042 217.046 283.078 219.182 280.769Z" fill="#CFBD9A"/>
<path d="M237.24 261.257C239.377 258.949 239.41 255.17 237.316 252.818C235.222 250.466 231.792 250.431 229.655 252.74C227.519 255.048 227.485 258.826 229.579 261.178C231.673 263.53 235.104 263.566 237.24 261.257Z" fill="#CFBD9A"/>
<path d="M255.294 241.75C257.431 239.441 257.464 235.663 255.37 233.311C253.275 230.959 249.845 230.924 247.709 233.232C245.572 235.541 245.538 239.319 247.633 241.671C249.727 244.023 253.157 244.059 255.294 241.75Z" fill="#CFBD9A"/>
<path d="M273.349 222.242C275.485 219.934 275.519 216.155 273.425 213.803C271.33 211.451 267.9 211.416 265.764 213.724C263.627 216.033 263.593 219.811 265.688 222.163C267.782 224.515 271.212 224.551 273.349 222.242Z" fill="#CFBD9A"/>
<path d="M291.403 202.734C293.539 200.426 293.573 196.647 291.479 194.296C289.384 191.943 285.954 191.908 283.818 194.217C281.681 196.525 281.647 200.303 283.742 202.655C285.836 205.007 289.266 205.043 291.403 202.734Z" fill="#CFBD9A"/>
<path d="M155.636 388.433C157.772 386.124 157.806 382.346 155.712 379.994C153.617 377.642 150.187 377.606 148.051 379.915C145.914 382.223 145.88 386.001 147.975 388.354C150.069 390.706 153.499 390.741 155.636 388.433Z" fill="#CFBD9A"/>
<path d="M173.69 368.925C175.827 366.617 175.861 362.839 173.766 360.486C171.671 358.134 168.241 358.099 166.105 360.407C163.968 362.716 163.934 366.494 166.029 368.846C168.124 371.198 171.553 371.234 173.69 368.925Z" fill="#CFBD9A"/>
<path d="M191.744 349.417C193.881 347.109 193.915 343.331 191.82 340.979C189.725 338.626 186.296 338.591 184.159 340.9C182.022 343.208 181.988 346.986 184.083 349.338C186.178 351.691 189.608 351.726 191.744 349.417Z" fill="#CFBD9A"/>
<path d="M209.803 329.905C211.939 327.597 211.973 323.819 209.879 321.466C207.784 319.114 204.354 319.079 202.218 321.387C200.081 323.696 200.047 327.474 202.142 329.826C204.236 332.178 207.666 332.214 209.803 329.905Z" fill="#CFBD9A"/>
<path d="M227.857 310.397C229.994 308.089 230.028 304.311 227.933 301.959C225.838 299.606 222.408 299.571 220.272 301.88C218.135 304.188 218.101 307.966 220.196 310.318C222.291 312.671 225.72 312.706 227.857 310.397Z" fill="#CFBD9A"/>
<path d="M245.911 290.89C248.048 288.581 248.082 284.803 245.987 282.451C243.892 280.099 240.463 280.063 238.326 282.372C236.189 284.68 236.155 288.458 238.25 290.811C240.345 293.163 243.775 293.198 245.911 290.89Z" fill="#CFBD9A"/>
<path d="M263.965 271.382C266.102 269.074 266.136 265.296 264.041 262.943C261.947 260.591 258.517 260.556 256.38 262.865C254.244 265.173 254.21 268.951 256.304 271.303C258.399 273.655 261.829 273.691 263.965 271.382Z" fill="#CFBD9A"/>
<path d="M282.02 251.874C284.156 249.566 284.19 245.788 282.095 243.436C280.001 241.084 276.571 241.048 274.434 243.357C272.298 245.665 272.264 249.443 274.359 251.796C276.453 254.148 279.883 254.183 282.02 251.874Z" fill="#CFBD9A"/>
<path d="M182.369 398.558C184.506 396.249 184.54 392.471 182.445 390.119C180.35 387.767 176.921 387.731 174.784 390.04C172.647 392.348 172.613 396.126 174.708 398.479C176.803 400.831 180.233 400.866 182.369 398.558Z" fill="#CFBD9A"/>
<path d="M200.423 379.05C202.56 376.741 202.594 372.963 200.499 370.611C198.405 368.259 194.975 368.223 192.838 370.532C190.702 372.841 190.668 376.619 192.762 378.971C194.857 381.323 198.287 381.358 200.423 379.05Z" fill="#CFBD9A"/>
<path d="M218.478 359.542C220.614 357.233 220.648 353.455 218.554 351.103C216.459 348.751 213.029 348.716 210.892 351.024C208.756 353.333 208.722 357.111 210.817 359.463C212.911 361.815 216.341 361.851 218.478 359.542Z" fill="#CFBD9A"/>
<path d="M236.532 340.034C238.669 337.726 238.703 333.948 236.608 331.595C234.514 329.243 231.084 329.208 228.947 331.516C226.811 333.825 226.777 337.603 228.871 339.955C230.966 342.307 234.396 342.343 236.532 340.034Z" fill="#CFBD9A"/>
<path d="M254.586 320.527C256.723 318.218 256.757 314.44 254.662 312.088C252.567 309.736 249.137 309.701 247.001 312.009C244.864 314.318 244.83 318.096 246.925 320.448C249.02 322.8 252.45 322.835 254.586 320.527Z" fill="#CFBD9A"/>
<path d="M272.644 301.015C274.781 298.706 274.815 294.928 272.72 292.576C270.625 290.224 267.195 290.188 265.059 292.497C262.922 294.805 262.888 298.583 264.983 300.936C267.078 303.288 270.508 303.323 272.644 301.015Z" fill="#CFBD9A"/>
<path d="M290.699 281.507C292.835 279.198 292.869 275.42 290.775 273.068C288.68 270.716 285.25 270.68 283.114 272.989C280.977 275.298 280.943 279.076 283.038 281.428C285.132 283.78 288.562 283.815 290.699 281.507Z" fill="#CFBD9A"/>
<path d="M227.149 389.175C229.286 386.866 229.319 383.088 227.225 380.736C225.13 378.384 221.7 378.348 219.564 380.657C217.427 382.966 217.393 386.744 219.488 389.096C221.582 391.447 225.012 391.483 227.149 389.175Z" fill="#CFBD9A"/>
<path d="M245.207 369.662C247.344 367.354 247.377 363.575 245.283 361.223C243.188 358.871 239.758 358.836 237.622 361.144C235.485 363.453 235.451 367.231 237.546 369.583C239.64 371.935 243.071 371.971 245.207 369.662Z" fill="#CFBD9A"/>
<path d="M263.261 350.155C265.398 347.846 265.431 344.068 263.337 341.716C261.243 339.364 257.813 339.328 255.676 341.637C253.54 343.946 253.506 347.724 255.6 350.076C257.694 352.427 261.125 352.463 263.261 350.155Z" fill="#CFBD9A"/>
<path d="M281.316 330.647C283.452 328.338 283.486 324.56 281.391 322.208C279.297 319.856 275.867 319.821 273.73 322.129C271.594 324.438 271.56 328.216 273.654 330.568C275.749 332.92 279.179 332.955 281.316 330.647Z" fill="#CFBD9A"/>
<path d="M253.878 399.295C256.014 396.986 256.048 393.208 253.953 390.856C251.859 388.504 248.429 388.469 246.292 390.777C244.156 393.086 244.122 396.864 246.216 399.216C248.311 401.568 251.741 401.603 253.878 399.295Z" fill="#CFBD9A"/>
<path d="M271.932 379.788C274.069 377.479 274.103 373.701 272.008 371.349C269.913 368.997 266.484 368.961 264.347 371.27C262.21 373.578 262.176 377.356 264.271 379.709C266.366 382.061 269.796 382.096 271.932 379.788Z" fill="#CFBD9A"/>
<path d="M289.986 360.28C292.123 357.971 292.157 354.193 290.062 351.841C287.968 349.489 284.538 349.453 282.401 351.762C280.265 354.071 280.231 357.849 282.325 360.201C284.42 362.553 287.85 362.588 289.986 360.28Z" fill="#CFBD9A"/>
</mask>
<g mask="url(#mask0_565_5465)">
<path d="M78.2427 37.349C81.0153 23.0497 95.3763 14.139 109.42 18.0042L290.745 67.911C301.68 70.9207 309.219 80.9144 309.109 92.2555L306.579 355.004C306.446 368.81 295.146 379.895 281.339 379.762L42.3678 377.46C26.7502 377.31 15.0927 363.035 18.0657 347.702L78.2427 37.349Z" fill="#F4F4F4"/>
</g>
</svg>
