<svg width="1044" height="760" viewBox="0 0 1044 760" fill="none" xmlns="http://www.w3.org/2000/svg">
<mask id="mask0_602_19907" style="mask-type:alpha" maskUnits="userSpaceOnUse" x="0" y="0" width="1044" height="760">
<rect width="1044" height="760" fill="#D9D9D9"/>
</mask>
<g mask="url(#mask0_602_19907)">
<path d="M-70 -22.1666C-70 -75.0939 -27.094 -118 25.8333 -118H947.757C1011.48 -118 1057.46 -56.9543 1039.86 4.29608L853.039 654.567C839.678 701.071 793.747 730.321 745.956 722.76L10.8577 606.459C-35.7089 599.092 -70 558.949 -70 511.803V-22.1666Z" fill="#18283B"/>
</g>
<mask id="mask1_602_19907" style="mask-type:alpha" maskUnits="userSpaceOnUse" x="453" y="261" width="396" height="335">
<path d="M839.525 293.673C842.217 295.572 845.937 294.931 847.835 292.241C849.732 289.552 849.089 285.832 846.398 283.933C843.707 282.034 839.987 282.675 838.089 285.365C836.191 288.055 836.834 291.774 839.525 293.673Z" fill="#CFBD9A"/>
<path d="M789.375 292.34C792.066 294.239 795.786 293.598 797.684 290.908C799.582 288.218 798.939 284.499 796.248 282.6C793.557 280.701 789.837 281.342 787.939 284.032C786.041 286.721 786.684 290.441 789.375 292.34Z" fill="#CFBD9A"/>
<path d="M812.116 308.386C814.807 310.285 818.527 309.644 820.425 306.954C822.323 304.264 821.68 300.545 818.989 298.646C816.298 296.747 812.578 297.388 810.68 300.078C808.782 302.768 809.425 306.487 812.116 308.386Z" fill="#CFBD9A"/>
<path d="M834.857 324.432C837.549 326.331 841.269 325.69 843.166 323C845.064 320.311 844.421 316.591 841.73 314.692C839.039 312.793 835.319 313.434 833.421 316.124C831.523 318.814 832.166 322.533 834.857 324.432Z" fill="#CFBD9A"/>
<path d="M739.224 290.998C741.915 292.897 745.635 292.255 747.533 289.566C749.431 286.876 748.788 283.156 746.096 281.257C743.405 279.359 739.685 280 737.787 282.689C735.889 285.379 736.533 289.099 739.224 290.998Z" fill="#CFBD9A"/>
<path d="M761.965 307.044C764.656 308.943 768.376 308.302 770.274 305.612C772.172 302.922 771.529 299.203 768.838 297.304C766.146 295.405 762.426 296.046 760.529 298.735C758.631 301.425 759.274 305.145 761.965 307.044Z" fill="#CFBD9A"/>
<path d="M784.706 323.09C787.397 324.989 791.117 324.348 793.015 321.658C794.913 318.968 794.27 315.249 791.579 313.35C788.888 311.451 785.168 312.092 783.27 314.782C781.372 317.471 782.015 321.191 784.706 323.09Z" fill="#CFBD9A"/>
<path d="M807.446 339.136C810.138 341.035 813.858 340.394 815.755 337.704C817.653 335.015 817.01 331.295 814.319 329.396C811.628 327.497 807.908 328.138 806.01 330.828C804.112 333.518 804.755 337.237 807.446 339.136Z" fill="#CFBD9A"/>
<path d="M830.188 355.182C832.879 357.081 836.599 356.44 838.497 353.75C840.395 351.061 839.751 347.341 837.06 345.442C834.369 343.543 830.649 344.184 828.751 346.874C826.853 349.564 827.496 353.283 830.188 355.182Z" fill="#CFBD9A"/>
<path d="M666.33 273.609C669.021 275.508 672.741 274.867 674.639 272.177C676.537 269.488 675.894 265.768 673.203 263.869C670.512 261.97 666.792 262.611 664.894 265.301C662.996 267.991 663.639 271.71 666.33 273.609Z" fill="#CFBD9A"/>
<path d="M689.071 289.655C691.763 291.554 695.483 290.913 697.38 288.223C699.278 285.534 698.635 281.814 695.944 279.915C693.253 278.016 689.533 278.657 687.635 281.347C685.737 284.037 686.38 287.756 689.071 289.655Z" fill="#CFBD9A"/>
<path d="M711.813 305.701C714.504 307.6 718.224 306.959 720.122 304.27C722.019 301.58 721.376 297.86 718.685 295.961C715.994 294.062 712.274 294.703 710.376 297.393C708.478 300.083 709.121 303.803 711.813 305.701Z" fill="#CFBD9A"/>
<path d="M734.554 321.748C737.245 323.646 740.965 323.005 742.863 320.316C744.761 317.626 744.118 313.906 741.426 312.007C738.735 310.109 735.015 310.75 733.117 313.439C731.22 316.129 731.863 319.849 734.554 321.748Z" fill="#CFBD9A"/>
<path d="M757.3 337.797C759.991 339.696 763.711 339.055 765.609 336.366C767.507 333.676 766.864 329.956 764.173 328.057C761.481 326.158 757.761 326.799 755.863 329.489C753.966 332.179 754.609 335.898 757.3 337.797Z" fill="#CFBD9A"/>
<path d="M780.041 353.844C782.732 355.743 786.452 355.101 788.35 352.412C790.248 349.722 789.605 346.002 786.914 344.103C784.223 342.205 780.503 342.846 778.605 345.535C776.707 348.225 777.35 351.945 780.041 353.844Z" fill="#CFBD9A"/>
<path d="M802.782 369.89C805.473 371.789 809.193 371.148 811.091 368.458C812.989 365.768 812.346 362.049 809.655 360.15C806.964 358.251 803.244 358.892 801.346 361.581C799.448 364.271 800.091 367.991 802.782 369.89Z" fill="#CFBD9A"/>
<path d="M825.524 385.936C828.215 387.835 831.935 387.194 833.833 384.504C835.73 381.814 835.087 378.095 832.396 376.196C829.705 374.297 825.985 374.938 824.087 377.628C822.189 380.317 822.832 384.037 825.524 385.936Z" fill="#CFBD9A"/>
<path d="M616.179 272.267C618.87 274.166 622.59 273.525 624.488 270.835C626.386 268.145 625.743 264.426 623.051 262.527C620.36 260.628 616.64 261.269 614.742 263.958C612.845 266.648 613.488 270.368 616.179 272.267Z" fill="#CFBD9A"/>
<path d="M638.92 288.313C641.611 290.212 645.331 289.571 647.229 286.881C649.127 284.191 648.484 280.472 645.793 278.573C643.101 276.674 639.381 277.315 637.484 280.005C635.586 282.694 636.229 286.414 638.92 288.313Z" fill="#CFBD9A"/>
<path d="M661.661 304.359C664.352 306.258 668.072 305.617 669.97 302.927C671.868 300.238 671.225 296.518 668.534 294.619C665.843 292.72 662.123 293.361 660.225 296.051C658.327 298.741 658.97 302.46 661.661 304.359Z" fill="#CFBD9A"/>
<path d="M684.407 320.409C687.098 322.308 690.818 321.667 692.716 318.977C694.614 316.287 693.971 312.568 691.28 310.669C688.589 308.77 684.869 309.411 682.971 312.101C681.073 314.79 681.716 318.51 684.407 320.409Z" fill="#CFBD9A"/>
<path d="M707.149 336.455C709.84 338.354 713.56 337.713 715.458 335.023C717.355 332.334 716.712 328.614 714.021 326.715C711.33 324.816 707.61 325.457 705.712 328.147C703.814 330.837 704.457 334.556 707.149 336.455Z" fill="#CFBD9A"/>
<path d="M729.89 352.501C732.581 354.4 736.301 353.759 738.199 351.069C740.097 348.38 739.454 344.66 736.762 342.761C734.071 340.862 730.351 341.503 728.453 344.193C726.555 346.883 727.199 350.602 729.89 352.501Z" fill="#CFBD9A"/>
<path d="M752.631 368.547C755.322 370.446 759.042 369.805 760.94 367.116C762.838 364.426 762.195 360.706 759.504 358.807C756.812 356.908 753.092 357.549 751.195 360.239C749.297 362.929 749.94 366.649 752.631 368.547Z" fill="#CFBD9A"/>
<path d="M775.372 384.594C778.063 386.492 781.783 385.851 783.681 383.162C785.579 380.472 784.936 376.752 782.245 374.853C779.554 372.955 775.834 373.596 773.936 376.285C772.038 378.975 772.681 382.695 775.372 384.594Z" fill="#CFBD9A"/>
<path d="M798.113 400.64C800.805 402.539 804.525 401.898 806.422 399.208C808.32 396.518 807.677 392.798 804.986 390.9C802.295 389.001 798.575 389.642 796.677 392.331C794.779 395.021 795.422 398.741 798.113 400.64Z" fill="#CFBD9A"/>
<path d="M820.859 416.69C823.551 418.588 827.271 417.947 829.168 415.258C831.066 412.568 830.423 408.848 827.732 406.949C825.041 405.051 821.321 405.692 819.423 408.381C817.525 411.071 818.168 414.791 820.859 416.69Z" fill="#CFBD9A"/>
<path d="M588.769 286.971C591.46 288.869 595.18 288.228 597.078 285.539C598.976 282.849 598.332 279.129 595.641 277.23C592.95 275.332 589.23 275.973 587.332 278.662C585.435 281.351 586.077 285.072 588.769 286.971Z" fill="#CFBD9A"/>
<path d="M611.515 303.02C614.206 304.919 617.926 304.278 619.824 301.589C621.722 298.899 621.079 295.179 618.387 293.28C615.696 291.381 611.976 292.022 610.078 294.712C608.181 297.401 608.824 301.122 611.515 303.02Z" fill="#CFBD9A"/>
<path d="M634.256 319.067C636.947 320.965 640.667 320.324 642.565 317.635C644.463 314.945 643.82 311.225 641.129 309.326C638.437 307.428 634.717 308.069 632.82 310.758C630.922 313.448 631.565 317.168 634.256 319.067Z" fill="#CFBD9A"/>
<path d="M656.997 335.113C659.688 337.012 663.409 336.37 665.306 333.681C667.204 330.991 666.561 327.272 663.87 325.373C661.179 323.474 657.459 324.115 655.561 326.804C653.663 329.494 654.306 333.214 656.997 335.113Z" fill="#CFBD9A"/>
<path d="M679.738 351.159C682.43 353.058 686.15 352.416 688.047 349.727C689.945 347.037 689.302 343.318 686.611 341.419C683.92 339.52 680.2 340.161 678.302 342.851C676.404 345.54 677.047 349.26 679.738 351.159Z" fill="#CFBD9A"/>
<path d="M702.48 367.205C705.171 369.104 708.891 368.462 710.789 365.773C712.686 363.083 712.043 359.364 709.352 357.465C706.661 355.566 702.941 356.207 701.043 358.897C699.146 361.586 699.788 365.306 702.48 367.205Z" fill="#CFBD9A"/>
<path d="M725.226 383.255C727.917 385.154 731.637 384.512 733.535 381.823C735.433 379.133 734.789 375.414 732.098 373.515C729.407 371.616 725.687 372.257 723.789 374.947C721.892 377.636 722.534 381.356 725.226 383.255Z" fill="#CFBD9A"/>
<path d="M747.967 399.301C750.658 401.2 754.378 400.558 756.276 397.869C758.174 395.179 757.531 391.46 754.84 389.561C752.148 387.662 748.428 388.303 746.53 390.993C744.633 393.682 745.276 397.402 747.967 399.301Z" fill="#CFBD9A"/>
<path d="M770.708 415.347C773.399 417.246 777.12 416.605 779.017 413.915C780.915 411.226 780.272 407.506 777.581 405.607C774.89 403.708 771.17 404.349 769.272 407.039C767.374 409.728 768.017 413.448 770.708 415.347Z" fill="#CFBD9A"/>
<path d="M793.449 431.393C796.14 433.292 799.861 432.651 801.758 429.961C803.656 427.272 803.013 423.552 800.322 421.653C797.631 419.754 793.911 420.395 792.013 423.085C790.115 425.774 790.758 429.494 793.449 431.393Z" fill="#CFBD9A"/>
<path d="M816.19 447.44C818.882 449.338 822.602 448.697 824.5 446.008C826.397 443.318 825.754 439.598 823.063 437.699C820.372 435.8 816.652 436.442 814.754 439.131C812.857 441.82 813.499 445.541 816.19 447.44Z" fill="#CFBD9A"/>
<path d="M538.622 285.632C541.313 287.531 545.033 286.89 546.931 284.2C548.829 281.51 548.186 277.791 545.495 275.892C542.804 273.993 539.084 274.634 537.186 277.324C535.288 280.013 535.931 283.733 538.622 285.632Z" fill="#CFBD9A"/>
<path d="M561.363 301.678C564.055 303.577 567.775 302.936 569.672 300.246C571.57 297.556 570.927 293.837 568.236 291.938C565.545 290.039 561.825 290.68 559.927 293.37C558.029 296.059 558.672 299.779 561.363 301.678Z" fill="#CFBD9A"/>
<path d="M584.105 317.724C586.796 319.623 590.516 318.982 592.414 316.292C594.311 313.603 593.668 309.883 590.977 307.984C588.286 306.085 584.566 306.726 582.668 309.416C580.77 312.106 581.413 315.825 584.105 317.724Z" fill="#CFBD9A"/>
<path d="M606.846 333.77C609.537 335.669 613.257 335.028 615.155 332.338C617.053 329.649 616.41 325.929 613.718 324.03C611.027 322.131 607.307 322.772 605.409 325.462C603.512 328.152 604.155 331.871 606.846 333.77Z" fill="#CFBD9A"/>
<path d="M629.586 349.816C632.277 351.715 635.997 351.074 637.895 348.385C639.793 345.695 639.15 341.975 636.459 340.076C633.767 338.177 630.047 338.819 628.15 341.508C626.252 344.198 626.895 347.918 629.586 349.816Z" fill="#CFBD9A"/>
<path d="M652.333 365.866C655.024 367.765 658.744 367.124 660.642 364.434C662.54 361.745 661.897 358.025 659.206 356.126C656.515 354.227 652.795 354.868 650.897 357.558C648.999 360.248 649.642 363.967 652.333 365.866Z" fill="#CFBD9A"/>
<path d="M675.074 381.913C677.765 383.811 681.485 383.17 683.383 380.481C685.281 377.791 684.638 374.071 681.947 372.172C679.256 370.273 675.536 370.915 673.638 373.604C671.74 376.294 672.383 380.014 675.074 381.913Z" fill="#CFBD9A"/>
<path d="M697.815 397.959C700.506 399.858 704.226 399.217 706.124 396.527C708.021 393.837 707.378 390.117 704.687 388.219C701.996 386.32 698.276 386.961 696.378 389.65C694.48 392.34 695.123 396.06 697.815 397.959Z" fill="#CFBD9A"/>
<path d="M720.556 414.005C723.247 415.904 726.967 415.263 728.865 412.573C730.763 409.883 730.12 406.164 727.428 404.265C724.737 402.366 721.017 403.007 719.119 405.697C717.221 408.386 717.865 412.106 720.556 414.005Z" fill="#CFBD9A"/>
<path d="M743.297 430.051C745.988 431.95 749.708 431.309 751.606 428.619C753.504 425.929 752.861 422.21 750.17 420.311C747.478 418.412 743.758 419.053 741.861 421.743C739.963 424.432 740.606 428.152 743.297 430.051Z" fill="#CFBD9A"/>
<path d="M766.038 446.097C768.729 447.996 772.449 447.355 774.347 444.665C776.245 441.976 775.602 438.256 772.911 436.357C770.22 434.458 766.5 435.099 764.602 437.789C762.704 440.479 763.347 444.198 766.038 446.097Z" fill="#CFBD9A"/>
<path d="M788.785 462.147C791.476 464.046 795.196 463.405 797.094 460.715C798.992 458.025 798.349 454.306 795.658 452.407C792.967 450.508 789.247 451.149 787.349 453.839C785.451 456.528 786.094 460.248 788.785 462.147Z" fill="#CFBD9A"/>
<path d="M811.525 478.193C814.217 480.092 817.937 479.451 819.835 476.761C821.732 474.072 821.089 470.352 818.398 468.453C815.707 466.554 811.987 467.195 810.089 469.885C808.191 472.575 808.834 476.294 811.525 478.193Z" fill="#CFBD9A"/>
<path d="M511.208 300.341C513.899 302.24 517.619 301.598 519.517 298.909C521.415 296.219 520.772 292.5 518.081 290.601C515.389 288.702 511.67 289.343 509.772 292.033C507.874 294.722 508.517 298.442 511.208 300.341Z" fill="#CFBD9A"/>
<path d="M533.948 316.387C536.639 318.286 540.36 317.644 542.257 314.955C544.155 312.265 543.512 308.546 540.821 306.647C538.13 304.748 534.41 305.389 532.512 308.079C530.614 310.768 531.257 314.488 533.948 316.387Z" fill="#CFBD9A"/>
<path d="M556.69 332.433C559.381 334.332 563.101 333.691 564.999 331.001C566.896 328.312 566.253 324.592 563.562 322.693C560.871 320.794 557.151 321.435 555.253 324.125C553.356 326.814 553.998 330.534 556.69 332.433Z" fill="#CFBD9A"/>
<path d="M579.437 348.483C582.128 350.382 585.848 349.74 587.746 347.051C589.644 344.361 589 340.642 586.309 338.743C583.618 336.844 579.898 337.485 578 340.175C576.103 342.864 576.745 346.584 579.437 348.483Z" fill="#CFBD9A"/>
<path d="M602.178 364.529C604.869 366.428 608.589 365.787 610.487 363.097C612.385 360.408 611.742 356.688 609.05 354.789C606.359 352.89 602.639 353.531 600.741 356.221C598.844 358.91 599.487 362.63 602.178 364.529Z" fill="#CFBD9A"/>
<path d="M624.918 380.575C627.609 382.474 631.33 381.833 633.227 379.143C635.125 376.454 634.482 372.734 631.791 370.835C629.1 368.936 625.38 369.577 623.482 372.267C621.584 374.956 622.227 378.676 624.918 380.575Z" fill="#CFBD9A"/>
<path d="M647.659 396.622C650.35 398.52 654.071 397.879 655.968 395.19C657.866 392.5 657.223 388.78 654.532 386.881C651.841 384.982 648.121 385.624 646.223 388.313C644.325 391.002 644.968 394.723 647.659 396.622Z" fill="#CFBD9A"/>
<path d="M670.4 412.668C673.092 414.567 676.812 413.925 678.71 411.236C680.607 408.546 679.964 404.826 677.273 402.928C674.582 401.029 670.862 401.67 668.964 404.359C667.067 407.049 667.709 410.769 670.4 412.668Z" fill="#CFBD9A"/>
<path d="M693.147 428.718C695.838 430.616 699.558 429.975 701.456 427.286C703.353 424.596 702.71 420.876 700.019 418.977C697.328 417.078 693.608 417.72 691.71 420.409C689.813 423.098 690.455 426.819 693.147 428.718Z" fill="#CFBD9A"/>
<path d="M715.888 444.764C718.579 446.663 722.299 446.021 724.197 443.332C726.095 440.642 725.452 436.922 722.76 435.024C720.069 433.125 716.349 433.766 714.451 436.455C712.554 439.145 713.197 442.865 715.888 444.764Z" fill="#CFBD9A"/>
<path d="M738.629 460.81C741.32 462.709 745.041 462.067 746.938 459.378C748.836 456.688 748.193 452.969 745.502 451.07C742.81 449.171 739.09 449.812 737.193 452.502C735.295 455.191 735.938 458.911 738.629 460.81Z" fill="#CFBD9A"/>
<path d="M761.37 476.856C764.061 478.755 767.782 478.113 769.679 475.424C771.577 472.734 770.934 469.015 768.243 467.116C765.552 465.217 761.832 465.858 759.934 468.548C758.036 471.237 758.679 474.957 761.37 476.856Z" fill="#CFBD9A"/>
<path d="M784.111 492.902C786.803 494.801 790.523 494.16 792.42 491.47C794.318 488.781 793.675 485.061 790.984 483.162C788.293 481.263 784.573 481.904 782.675 484.594C780.778 487.283 781.42 491.003 784.111 492.902Z" fill="#CFBD9A"/>
<path d="M806.853 508.948C809.544 510.847 813.264 510.205 815.162 507.516C817.06 504.826 816.416 501.107 813.725 499.208C811.034 497.309 807.314 497.95 805.416 500.64C803.519 503.329 804.161 507.049 806.853 508.948Z" fill="#CFBD9A"/>
<path d="M461.056 298.999C463.747 300.897 467.467 300.256 469.365 297.567C471.263 294.877 470.62 291.157 467.928 289.258C465.237 287.36 461.517 288.001 459.619 290.69C457.721 293.38 458.365 297.1 461.056 298.999Z" fill="#CFBD9A"/>
<path d="M483.803 315.048C486.494 316.947 490.214 316.306 492.112 313.617C494.01 310.927 493.367 307.207 490.675 305.308C487.984 303.409 484.264 304.05 482.366 306.74C480.469 309.43 481.112 313.15 483.803 315.048Z" fill="#CFBD9A"/>
<path d="M506.543 331.095C509.234 332.993 512.954 332.352 514.852 329.663C516.75 326.973 516.107 323.253 513.416 321.354C510.725 319.456 507.005 320.097 505.107 322.786C503.209 325.476 503.852 329.196 506.543 331.095Z" fill="#CFBD9A"/>
<path d="M529.284 347.141C531.975 349.04 535.695 348.399 537.593 345.709C539.491 343.019 538.848 339.299 536.157 337.401C533.466 335.502 529.746 336.143 527.848 338.832C525.95 341.522 526.593 345.242 529.284 347.141Z" fill="#CFBD9A"/>
<path d="M552.025 363.187C554.717 365.086 558.437 364.445 560.335 361.755C562.232 359.065 561.589 355.346 558.898 353.447C556.207 351.548 552.487 352.189 550.589 354.879C548.691 357.568 549.334 361.288 552.025 363.187Z" fill="#CFBD9A"/>
<path d="M574.767 379.233C577.458 381.132 581.178 380.491 583.076 377.801C584.974 375.111 584.331 371.392 581.639 369.493C578.948 367.594 575.228 368.235 573.33 370.925C571.432 373.614 572.076 377.334 574.767 379.233Z" fill="#CFBD9A"/>
<path d="M597.508 395.279C600.199 397.178 603.919 396.537 605.817 393.847C607.715 391.158 607.072 387.438 604.381 385.539C601.689 383.64 597.969 384.281 596.071 386.971C594.174 389.661 594.817 393.38 597.508 395.279Z" fill="#CFBD9A"/>
<path d="M620.254 411.329C622.945 413.228 626.665 412.587 628.563 409.897C630.461 407.207 629.818 403.488 627.127 401.589C624.435 399.69 620.715 400.331 618.818 403.021C616.92 405.71 617.563 409.43 620.254 411.329Z" fill="#CFBD9A"/>
<path d="M642.995 427.375C645.686 429.274 649.406 428.633 651.304 425.943C653.202 423.254 652.559 419.534 649.868 417.635C647.177 415.736 643.457 416.377 641.559 419.067C639.661 421.757 640.304 425.476 642.995 427.375Z" fill="#CFBD9A"/>
<path d="M665.736 443.421C668.428 445.32 672.148 444.679 674.045 441.989C675.943 439.3 675.3 435.58 672.609 433.681C669.918 431.782 666.198 432.423 664.3 435.113C662.402 437.803 663.045 441.522 665.736 443.421Z" fill="#CFBD9A"/>
<path d="M688.478 459.467C691.169 461.366 694.889 460.725 696.787 458.036C698.685 455.346 698.041 451.626 695.35 449.727C692.659 447.828 688.939 448.469 687.041 451.159C685.143 453.849 685.786 457.569 688.478 459.467Z" fill="#CFBD9A"/>
<path d="M711.219 475.514C713.91 477.413 717.63 476.771 719.528 474.082C721.426 471.392 720.783 467.672 718.091 465.773C715.4 463.875 711.68 464.516 709.782 467.205C707.885 469.895 708.528 473.615 711.219 475.514Z" fill="#CFBD9A"/>
<path d="M733.96 491.56C736.651 493.459 740.371 492.818 742.269 490.128C744.167 487.438 743.524 483.719 740.833 481.82C738.142 479.921 734.422 480.562 732.524 483.251C730.626 485.941 731.269 489.661 733.96 491.56Z" fill="#CFBD9A"/>
<path d="M756.706 507.61C759.397 509.509 763.117 508.867 765.015 506.178C766.913 503.488 766.27 499.768 763.579 497.869C760.888 495.971 757.168 496.612 755.27 499.301C753.372 501.991 754.015 505.711 756.706 507.61Z" fill="#CFBD9A"/>
<path d="M779.447 523.655C782.139 525.554 785.859 524.913 787.756 522.224C789.654 519.534 789.011 515.814 786.32 513.915C783.629 512.016 779.909 512.657 778.011 515.347C776.113 518.037 776.756 521.756 779.447 523.655Z" fill="#CFBD9A"/>
<path d="M802.189 539.701C804.88 541.6 808.6 540.959 810.498 538.27C812.395 535.58 811.752 531.86 809.061 529.961C806.37 528.062 802.65 528.704 800.752 531.393C798.854 534.083 799.497 537.803 802.189 539.701Z" fill="#CFBD9A"/>
<path d="M456.392 329.752C459.083 331.651 462.803 331.01 464.701 328.32C466.599 325.631 465.955 321.911 463.264 320.012C460.573 318.113 456.853 318.754 454.955 321.444C453.057 324.134 453.701 327.853 456.392 329.752Z" fill="#CFBD9A"/>
<path d="M479.133 345.798C481.824 347.697 485.544 347.056 487.442 344.366C489.34 341.677 488.697 337.957 486.005 336.058C483.314 334.159 479.594 334.8 477.696 337.49C475.799 340.18 476.442 343.899 479.133 345.798Z" fill="#CFBD9A"/>
<path d="M501.874 361.844C504.565 363.743 508.285 363.102 510.183 360.413C512.081 357.723 511.438 354.003 508.747 352.104C506.056 350.205 502.336 350.847 500.438 353.536C498.54 356.226 499.183 359.946 501.874 361.844Z" fill="#CFBD9A"/>
<path d="M524.615 377.891C527.306 379.79 531.026 379.148 532.924 376.459C534.822 373.769 534.179 370.049 531.488 368.151C528.797 366.252 525.077 366.893 523.179 369.582C521.281 372.272 521.924 375.992 524.615 377.891Z" fill="#CFBD9A"/>
<path d="M547.361 393.94C550.053 395.839 553.773 395.198 555.67 392.509C557.568 389.819 556.925 386.099 554.234 384.2C551.543 382.301 547.823 382.942 545.925 385.632C544.027 388.322 544.67 392.042 547.361 393.94Z" fill="#CFBD9A"/>
<path d="M570.103 409.987C572.794 411.886 576.514 411.244 578.412 408.555C580.31 405.865 579.666 402.145 576.975 400.246C574.284 398.348 570.564 398.989 568.666 401.678C566.768 404.368 567.411 408.088 570.103 409.987Z" fill="#CFBD9A"/>
<path d="M592.844 426.033C595.535 427.932 599.255 427.291 601.153 424.601C603.051 421.911 602.408 418.192 599.716 416.293C597.025 414.394 593.305 415.035 591.407 417.725C589.51 420.414 590.153 424.134 592.844 426.033Z" fill="#CFBD9A"/>
<path d="M615.585 442.079C618.276 443.978 621.996 443.337 623.894 440.647C625.792 437.957 625.149 434.238 622.458 432.339C619.767 430.44 616.047 431.081 614.149 433.771C612.251 436.46 612.894 440.18 615.585 442.079Z" fill="#CFBD9A"/>
<path d="M638.326 458.125C641.017 460.024 644.737 459.383 646.635 456.693C648.533 454.004 647.89 450.284 645.199 448.385C642.508 446.486 638.788 447.127 636.89 449.817C634.992 452.507 635.635 456.226 638.326 458.125Z" fill="#CFBD9A"/>
<path d="M661.072 474.175C663.764 476.074 667.484 475.433 669.381 472.743C671.279 470.053 670.636 466.334 667.945 464.435C665.254 462.536 661.534 463.177 659.636 465.867C657.738 468.556 658.381 472.276 661.072 474.175Z" fill="#CFBD9A"/>
<path d="M683.814 490.221C686.505 492.12 690.225 491.479 692.123 488.789C694.02 486.1 693.377 482.38 690.686 480.481C687.995 478.582 684.275 479.223 682.377 481.913C680.479 484.603 681.122 488.322 683.814 490.221Z" fill="#CFBD9A"/>
<path d="M706.555 506.267C709.246 508.166 712.966 507.525 714.864 504.835C716.762 502.146 716.119 498.426 713.427 496.527C710.736 494.628 707.016 495.269 705.118 497.959C703.221 500.649 703.864 504.368 706.555 506.267Z" fill="#CFBD9A"/>
<path d="M729.295 522.313C731.986 524.212 735.706 523.571 737.604 520.881C739.502 518.191 738.859 514.472 736.168 512.573C733.476 510.674 729.756 511.315 727.859 514.005C725.961 516.694 726.604 520.414 729.295 522.313Z" fill="#CFBD9A"/>
<path d="M752.036 538.359C754.727 540.258 758.447 539.617 760.345 536.927C762.243 534.238 761.6 530.518 758.909 528.619C756.218 526.72 752.498 527.361 750.6 530.051C748.702 532.741 749.345 536.46 752.036 538.359Z" fill="#CFBD9A"/>
<path d="M774.777 554.405C777.469 556.304 781.189 555.663 783.086 552.973C784.984 550.284 784.341 546.564 781.65 544.665C778.959 542.766 775.239 543.407 773.341 546.097C771.443 548.787 772.086 552.506 774.777 554.405Z" fill="#CFBD9A"/>
<path d="M474.469 376.552C477.16 378.451 480.88 377.809 482.778 375.12C484.676 372.43 484.033 368.711 481.341 366.812C478.65 364.913 474.93 365.554 473.032 368.244C471.135 370.933 471.778 374.653 474.469 376.552Z" fill="#CFBD9A"/>
<path d="M497.21 392.598C499.901 394.497 503.622 393.855 505.519 391.166C507.417 388.477 506.774 384.757 504.083 382.858C501.392 380.959 497.672 381.6 495.774 384.29C493.876 386.979 494.519 390.699 497.21 392.598Z" fill="#CFBD9A"/>
<path d="M519.951 408.644C522.642 410.543 526.363 409.902 528.26 407.212C530.158 404.523 529.515 400.803 526.824 398.904C524.133 397.005 520.413 397.646 518.515 400.336C516.617 403.025 517.26 406.745 519.951 408.644Z" fill="#CFBD9A"/>
<path d="M542.691 424.69C545.383 426.589 549.103 425.948 551.001 423.259C552.898 420.569 552.255 416.849 549.564 414.95C546.873 413.051 543.153 413.692 541.255 416.382C539.358 419.071 540 422.792 542.691 424.69Z" fill="#CFBD9A"/>
<path d="M565.433 440.737C568.124 442.635 571.844 441.994 573.742 439.305C575.64 436.615 574.997 432.895 572.305 430.996C569.614 429.098 565.894 429.739 563.996 432.428C562.099 435.118 562.742 438.838 565.433 440.737Z" fill="#CFBD9A"/>
<path d="M588.18 456.786C590.871 458.685 594.591 458.044 596.489 455.355C598.387 452.665 597.744 448.945 595.052 447.046C592.361 445.147 588.641 445.788 586.743 448.478C584.846 451.167 585.489 454.888 588.18 456.786Z" fill="#CFBD9A"/>
<path d="M610.92 472.833C613.611 474.732 617.332 474.09 619.229 471.401C621.127 468.711 620.484 464.991 617.793 463.092C615.101 461.194 611.381 461.835 609.484 464.524C607.586 467.214 608.229 470.934 610.92 472.833Z" fill="#CFBD9A"/>
<path d="M633.661 488.879C636.352 490.778 640.073 490.136 641.97 487.447C643.868 484.757 643.225 481.038 640.534 479.139C637.843 477.24 634.123 477.881 632.225 480.57C630.327 483.26 630.97 486.98 633.661 488.879Z" fill="#CFBD9A"/>
<path d="M656.402 504.925C659.094 506.824 662.814 506.182 664.711 503.493C666.609 500.803 665.966 497.084 663.275 495.185C660.584 493.286 656.864 493.927 654.966 496.617C653.069 499.306 653.711 503.026 656.402 504.925Z" fill="#CFBD9A"/>
<path d="M679.144 520.971C681.835 522.87 685.555 522.228 687.453 519.539C689.351 516.85 688.707 513.13 686.016 511.231C683.325 509.332 679.605 509.973 677.707 512.663C675.81 515.352 676.452 519.072 679.144 520.971Z" fill="#CFBD9A"/>
<path d="M701.885 537.017C704.576 538.916 708.296 538.274 710.194 535.585C712.092 532.895 711.449 529.176 708.757 527.277C706.066 525.378 702.346 526.019 700.448 528.709C698.551 531.398 699.194 535.118 701.885 537.017Z" fill="#CFBD9A"/>
<path d="M724.631 553.067C727.322 554.966 731.042 554.324 732.94 551.635C734.838 548.945 734.195 545.225 731.504 543.327C728.812 541.428 725.092 542.069 723.195 544.758C721.297 547.448 721.94 551.168 724.631 553.067Z" fill="#CFBD9A"/>
<path d="M469.799 407.302C472.49 409.201 476.21 408.559 478.108 405.87C480.006 403.18 479.363 399.461 476.672 397.562C473.98 395.663 470.26 396.304 468.363 398.994C466.465 401.683 467.108 405.403 469.799 407.302Z" fill="#CFBD9A"/>
<path d="M492.54 423.348C495.231 425.247 498.952 424.605 500.849 421.916C502.747 419.227 502.104 415.507 499.413 413.608C496.722 411.709 493.002 412.35 491.104 415.04C489.206 417.729 489.849 421.449 492.54 423.348Z" fill="#CFBD9A"/>
<path d="M515.286 439.398C517.977 441.297 521.698 440.655 523.595 437.966C525.493 435.276 524.85 431.557 522.159 429.658C519.468 427.759 515.748 428.4 513.85 431.09C511.952 433.779 512.595 437.499 515.286 439.398Z" fill="#CFBD9A"/>
<path d="M538.027 455.444C540.719 457.343 544.439 456.701 546.336 454.012C548.234 451.323 547.591 447.603 544.9 445.704C542.209 443.805 538.489 444.446 536.591 447.136C534.694 449.825 535.336 453.545 538.027 455.444Z" fill="#CFBD9A"/>
<path d="M560.769 471.49C563.46 473.389 567.18 472.748 569.078 470.058C570.976 467.369 570.332 463.649 567.641 461.75C564.95 459.851 561.23 460.492 559.332 463.182C557.435 465.871 558.077 469.591 560.769 471.49Z" fill="#CFBD9A"/>
<path d="M583.51 487.536C586.201 489.435 589.921 488.794 591.819 486.104C593.717 483.415 593.074 479.695 590.382 477.796C587.691 475.897 583.971 476.538 582.073 479.228C580.176 481.917 580.819 485.637 583.51 487.536Z" fill="#CFBD9A"/>
<path d="M606.251 503.583C608.942 505.481 612.663 504.84 614.56 502.151C616.458 499.461 615.815 495.741 613.124 493.842C610.433 491.944 606.713 492.585 604.815 495.274C602.917 497.964 603.56 501.684 606.251 503.583Z" fill="#CFBD9A"/>
<path d="M628.997 519.632C631.688 521.531 635.409 520.89 637.306 518.201C639.204 515.511 638.561 511.791 635.87 509.892C633.179 507.993 629.459 508.634 627.561 511.324C625.663 514.013 626.306 517.733 628.997 519.632Z" fill="#CFBD9A"/>
<path d="M651.738 535.678C654.43 537.577 658.15 536.935 660.047 534.246C661.945 531.557 661.302 527.837 658.611 525.938C655.92 524.039 652.2 524.68 650.302 527.37C648.404 530.059 649.047 533.779 651.738 535.678Z" fill="#CFBD9A"/>
<path d="M674.48 551.724C677.171 553.623 680.891 552.982 682.789 550.292C684.686 547.603 684.043 543.883 681.352 541.984C678.661 540.085 674.941 540.726 673.043 543.416C671.146 546.105 671.788 549.825 674.48 551.724Z" fill="#CFBD9A"/>
<path d="M697.221 567.77C699.912 569.669 703.632 569.028 705.53 566.339C707.428 563.649 706.785 559.929 704.093 558.03C701.402 556.131 697.682 556.772 695.784 559.462C693.887 562.151 694.53 565.872 697.221 567.77Z" fill="#CFBD9A"/>
<path d="M487.876 454.102C490.567 456.001 494.287 455.36 496.185 452.67C498.083 449.98 497.44 446.261 494.749 444.362C492.058 442.463 488.338 443.104 486.44 445.793C484.542 448.483 485.185 452.203 487.876 454.102Z" fill="#CFBD9A"/>
<path d="M510.617 470.148C513.308 472.047 517.028 471.406 518.926 468.716C520.824 466.026 520.181 462.307 517.49 460.408C514.799 458.509 511.079 459.15 509.181 461.84C507.283 464.529 507.926 468.249 510.617 470.148Z" fill="#CFBD9A"/>
<path d="M533.358 486.194C536.05 488.093 539.77 487.452 541.668 484.762C543.565 482.072 542.922 478.353 540.231 476.454C537.54 474.555 533.82 475.196 531.922 477.886C530.024 480.576 530.667 484.295 533.358 486.194Z" fill="#CFBD9A"/>
<path d="M556.105 502.244C558.796 504.143 562.516 503.502 564.414 500.812C566.311 498.122 565.668 494.403 562.977 492.504C560.286 490.605 556.566 491.246 554.668 493.936C552.77 496.625 553.413 500.345 556.105 502.244Z" fill="#CFBD9A"/>
<path d="M578.846 518.29C581.537 520.189 585.257 519.548 587.155 516.858C589.053 514.168 588.41 510.449 585.718 508.55C583.027 506.651 579.307 507.292 577.409 509.982C575.512 512.671 576.155 516.391 578.846 518.29Z" fill="#CFBD9A"/>
<path d="M601.587 534.336C604.278 536.235 607.998 535.594 609.896 532.904C611.794 530.215 611.151 526.495 608.46 524.596C605.768 522.697 602.048 523.338 600.151 526.028C598.253 528.718 598.896 532.437 601.587 534.336Z" fill="#CFBD9A"/>
<path d="M624.327 550.382C627.018 552.281 630.738 551.64 632.636 548.95C634.534 546.26 633.891 542.541 631.2 540.642C628.509 538.743 624.789 539.384 622.891 542.074C620.993 544.763 621.636 548.483 624.327 550.382Z" fill="#CFBD9A"/>
<path d="M647.068 566.428C649.76 568.327 653.48 567.686 655.377 564.996C657.275 562.307 656.632 558.587 653.941 556.688C651.25 554.789 647.53 555.43 645.632 558.12C643.734 560.81 644.377 564.529 647.068 566.428Z" fill="#CFBD9A"/>
<path d="M483.208 484.861C485.899 486.759 489.619 486.118 491.517 483.429C493.415 480.739 492.772 477.019 490.081 475.12C487.39 473.222 483.67 473.863 481.772 476.552C479.874 479.242 480.517 482.962 483.208 484.861Z" fill="#CFBD9A"/>
<path d="M505.949 500.907C508.64 502.806 512.36 502.165 514.258 499.475C516.156 496.785 515.513 493.065 512.822 491.167C510.131 489.268 506.411 489.909 504.513 492.598C502.615 495.288 503.258 499.008 505.949 500.907Z" fill="#CFBD9A"/>
<path d="M528.691 516.953C531.382 518.852 535.102 518.211 537 515.521C538.897 512.831 538.254 509.112 535.563 507.213C532.872 505.314 529.152 505.955 527.254 508.645C525.356 511.334 525.999 515.054 528.691 516.953Z" fill="#CFBD9A"/>
<path d="M551.432 532.999C554.123 534.898 557.843 534.257 559.741 531.567C561.639 528.877 560.996 525.158 558.304 523.259C555.613 521.36 551.893 522.001 549.995 524.691C548.097 527.38 548.741 531.1 551.432 532.999Z" fill="#CFBD9A"/>
<path d="M574.172 549.045C576.863 550.944 580.583 550.303 582.481 547.613C584.379 544.923 583.736 541.204 581.045 539.305C578.353 537.406 574.633 538.047 572.736 540.737C570.838 543.426 571.481 547.146 574.172 549.045Z" fill="#CFBD9A"/>
<path d="M596.919 565.095C599.61 566.993 603.33 566.352 605.228 563.663C607.126 560.973 606.483 557.253 603.792 555.354C601.1 553.456 597.38 554.097 595.483 556.786C593.585 559.476 594.228 563.196 596.919 565.095Z" fill="#CFBD9A"/>
<path d="M619.66 581.141C622.351 583.04 626.071 582.399 627.969 579.709C629.867 577.019 629.224 573.299 626.533 571.401C623.842 569.502 620.122 570.143 618.224 572.832C616.326 575.522 616.969 579.242 619.66 581.141Z" fill="#CFBD9A"/>
<path d="M501.279 531.657C503.971 533.556 507.691 532.914 509.588 530.225C511.486 527.535 510.843 523.815 508.152 521.917C505.461 520.018 501.741 520.659 499.843 523.348C497.945 526.038 498.588 529.758 501.279 531.657Z" fill="#CFBD9A"/>
<path d="M524.026 547.707C526.718 549.605 530.438 548.964 532.335 546.275C534.233 543.585 533.59 539.865 530.899 537.966C528.208 536.068 524.488 536.709 522.59 539.398C520.693 542.087 521.335 545.808 524.026 547.707Z" fill="#CFBD9A"/>
<path d="M546.767 563.752C549.458 565.651 553.178 565.01 555.076 562.32C556.974 559.631 556.331 555.911 553.639 554.012C550.948 552.113 547.228 552.754 545.33 555.444C543.433 558.133 544.075 561.853 546.767 563.752Z" fill="#CFBD9A"/>
<path d="M569.508 579.798C572.199 581.697 575.919 581.056 577.817 578.367C579.715 575.677 579.072 571.957 576.381 570.058C573.689 568.159 569.969 568.8 568.071 571.49C566.174 574.179 566.817 577.9 569.508 579.798Z" fill="#CFBD9A"/>
<path d="M496.615 562.41C499.307 564.309 503.027 563.668 504.924 560.978C506.822 558.288 506.179 554.569 503.488 552.67C500.797 550.771 497.077 551.412 495.179 554.102C493.281 556.791 493.924 560.511 496.615 562.41Z" fill="#CFBD9A"/>
<path d="M519.357 578.456C522.048 580.355 525.768 579.714 527.666 577.024C529.563 574.334 528.92 570.615 526.229 568.716C523.538 566.817 519.818 567.458 517.92 570.148C516.022 572.837 516.665 576.557 519.357 578.456Z" fill="#CFBD9A"/>
<path d="M542.098 594.502C544.789 596.401 548.509 595.76 550.407 593.07C552.305 590.381 551.662 586.661 548.97 584.762C546.279 582.863 542.559 583.504 540.661 586.194C538.763 588.884 539.407 592.603 542.098 594.502Z" fill="#CFBD9A"/>
</mask>
<g mask="url(#mask1_602_19907)">
<path d="M816.215 299.694C830.78 299.854 842.125 312.381 840.844 326.89L824.31 514.23C823.313 525.528 814.836 534.739 803.659 536.668L544.728 581.361C531.122 583.71 518.188 574.584 515.84 560.978L475.191 325.478C472.534 310.087 484.483 296.056 500.101 296.227L816.215 299.694Z" fill="#24364C"/>
</g>
</svg>
