<svg width="1145" height="678" viewBox="0 0 1145 678" fill="none" xmlns="http://www.w3.org/2000/svg">
<mask id="mask0_153_3828" style="mask-type:alpha" maskUnits="userSpaceOnUse" x="0" y="-97" width="1145" height="775">
<rect y="-97" width="1145" height="775" fill="#D9D9D9"/>
</mask>
<g mask="url(#mask0_153_3828)">
<path d="M-133 -103.167C-133 -156.094 -90.094 -199 -37.1667 -199H884.757C948.485 -199 994.461 -137.954 976.864 -76.7039L790.039 573.567C776.678 620.071 730.747 649.321 682.956 641.76L-52.1423 525.459C-98.7089 518.092 -133 477.949 -133 430.803V-103.167Z" fill="#18283B"/>
<mask id="mask1_153_3828" style="mask-type:alpha" maskUnits="userSpaceOnUse" x="410" y="210" width="396" height="335">
<path d="M796.509 242.673C799.2 244.572 802.92 243.931 804.818 241.241C806.716 238.552 806.073 234.832 803.382 232.933C800.69 231.034 796.97 231.675 795.072 234.365C793.175 237.055 793.818 240.774 796.509 242.673Z" fill="#CFBD9A"/>
<path d="M746.358 241.34C749.05 243.239 752.77 242.598 754.667 239.908C756.565 237.218 755.922 233.499 753.231 231.6C750.54 229.701 746.82 230.342 744.922 233.032C743.024 235.721 743.667 239.441 746.358 241.34Z" fill="#CFBD9A"/>
<path d="M769.1 257.386C771.791 259.285 775.511 258.644 777.409 255.954C779.307 253.264 778.664 249.545 775.972 247.646C773.281 245.747 769.561 246.388 767.663 249.078C765.765 251.768 766.408 255.487 769.1 257.386Z" fill="#CFBD9A"/>
<path d="M791.841 273.432C794.532 275.331 798.252 274.69 800.15 272C802.048 269.311 801.405 265.591 798.714 263.692C796.022 261.793 792.302 262.434 790.404 265.124C788.506 267.814 789.15 271.533 791.841 273.432Z" fill="#CFBD9A"/>
<path d="M696.207 239.998C698.898 241.897 702.618 241.255 704.516 238.566C706.414 235.876 705.771 232.156 703.08 230.257C700.389 228.359 696.669 229 694.771 231.689C692.873 234.379 693.516 238.099 696.207 239.998Z" fill="#CFBD9A"/>
<path d="M718.948 256.044C721.64 257.943 725.36 257.302 727.257 254.612C729.155 251.922 728.512 248.203 725.821 246.304C723.13 244.405 719.41 245.046 717.512 247.736C715.614 250.425 716.257 254.145 718.948 256.044Z" fill="#CFBD9A"/>
<path d="M741.69 272.09C744.381 273.989 748.101 273.348 749.999 270.658C751.896 267.968 751.253 264.249 748.562 262.35C745.871 260.451 742.151 261.092 740.253 263.782C738.355 266.471 738.998 270.191 741.69 272.09Z" fill="#CFBD9A"/>
<path d="M764.43 288.136C767.121 290.035 770.841 289.394 772.739 286.704C774.637 284.015 773.994 280.295 771.302 278.396C768.611 276.497 764.891 277.138 762.993 279.828C761.096 282.518 761.739 286.237 764.43 288.136Z" fill="#CFBD9A"/>
<path d="M787.171 304.182C789.862 306.081 793.582 305.44 795.48 302.75C797.378 300.061 796.735 296.341 794.044 294.442C791.352 292.543 787.632 293.184 785.735 295.874C783.837 298.564 784.48 302.283 787.171 304.182Z" fill="#CFBD9A"/>
<path d="M623.314 222.609C626.005 224.508 629.725 223.867 631.623 221.177C633.52 218.488 632.877 214.768 630.186 212.869C627.495 210.97 623.775 211.611 621.877 214.301C619.979 216.991 620.622 220.71 623.314 222.609Z" fill="#CFBD9A"/>
<path d="M646.055 238.655C648.746 240.554 652.466 239.913 654.364 237.223C656.262 234.534 655.619 230.814 652.927 228.915C650.236 227.016 646.516 227.657 644.618 230.347C642.721 233.037 643.364 236.756 646.055 238.655Z" fill="#CFBD9A"/>
<path d="M668.796 254.701C671.487 256.6 675.207 255.959 677.105 253.27C679.003 250.58 678.36 246.86 675.669 244.961C672.977 243.062 669.257 243.703 667.36 246.393C665.462 249.083 666.105 252.803 668.796 254.701Z" fill="#CFBD9A"/>
<path d="M691.537 270.748C694.228 272.647 697.948 272.005 699.846 269.316C701.744 266.626 701.101 262.906 698.41 261.007C695.719 259.109 691.999 259.75 690.101 262.439C688.203 265.129 688.846 268.849 691.537 270.748Z" fill="#CFBD9A"/>
<path d="M714.283 286.797C716.974 288.696 720.694 288.055 722.592 285.366C724.49 282.676 723.847 278.956 721.156 277.057C718.465 275.158 714.745 275.799 712.847 278.489C710.949 281.179 711.592 284.899 714.283 286.797Z" fill="#CFBD9A"/>
<path d="M737.024 302.844C739.716 304.743 743.436 304.101 745.334 301.412C747.231 298.722 746.588 295.002 743.897 293.103C741.206 291.205 737.486 291.846 735.588 294.535C733.69 297.225 734.333 300.945 737.024 302.844Z" fill="#CFBD9A"/>
<path d="M759.766 318.89C762.457 320.789 766.177 320.148 768.075 317.458C769.973 314.768 769.33 311.049 766.638 309.15C763.947 307.251 760.227 307.892 758.329 310.582C756.431 313.271 757.075 316.991 759.766 318.89Z" fill="#CFBD9A"/>
<path d="M782.507 334.936C785.198 336.835 788.918 336.194 790.816 333.504C792.714 330.814 792.071 327.095 789.38 325.196C786.688 323.297 782.968 323.938 781.071 326.628C779.173 329.317 779.816 333.037 782.507 334.936Z" fill="#CFBD9A"/>
<path d="M573.162 221.267C575.853 223.166 579.573 222.525 581.471 219.835C583.369 217.145 582.726 213.426 580.035 211.527C577.344 209.628 573.624 210.269 571.726 212.959C569.828 215.648 570.471 219.368 573.162 221.267Z" fill="#CFBD9A"/>
<path d="M595.903 237.313C598.595 239.212 602.315 238.571 604.212 235.881C606.11 233.191 605.467 229.472 602.776 227.573C600.085 225.674 596.365 226.315 594.467 229.005C592.569 231.694 593.212 235.414 595.903 237.313Z" fill="#CFBD9A"/>
<path d="M618.645 253.359C621.336 255.258 625.056 254.617 626.954 251.927C628.852 249.238 628.208 245.518 625.517 243.619C622.826 241.72 619.106 242.361 617.208 245.051C615.31 247.741 615.953 251.46 618.645 253.359Z" fill="#CFBD9A"/>
<path d="M641.391 269.409C644.082 271.308 647.802 270.667 649.7 267.977C651.598 265.287 650.955 261.568 648.263 259.669C645.572 257.77 641.852 258.411 639.954 261.101C638.056 263.79 638.7 267.51 641.391 269.409Z" fill="#CFBD9A"/>
<path d="M664.132 285.455C666.823 287.354 670.543 286.713 672.441 284.023C674.339 281.334 673.696 277.614 671.005 275.715C668.313 273.816 664.593 274.457 662.696 277.147C660.798 279.837 661.441 283.556 664.132 285.455Z" fill="#CFBD9A"/>
<path d="M686.873 301.501C689.564 303.4 693.284 302.759 695.182 300.069C697.08 297.38 696.437 293.66 693.746 291.761C691.055 289.862 687.335 290.503 685.437 293.193C683.539 295.883 684.182 299.602 686.873 301.501Z" fill="#CFBD9A"/>
<path d="M709.614 317.547C712.306 319.446 716.026 318.805 717.923 316.116C719.821 313.426 719.178 309.706 716.487 307.807C713.796 305.908 710.076 306.549 708.178 309.239C706.28 311.929 706.923 315.649 709.614 317.547Z" fill="#CFBD9A"/>
<path d="M732.356 333.594C735.047 335.492 738.767 334.851 740.665 332.162C742.562 329.472 741.919 325.752 739.228 323.853C736.537 321.955 732.817 322.596 730.919 325.285C729.021 327.975 729.664 331.695 732.356 333.594Z" fill="#CFBD9A"/>
<path d="M755.097 349.64C757.788 351.539 761.508 350.898 763.406 348.208C765.304 345.518 764.661 341.798 761.969 339.9C759.278 338.001 755.558 338.642 753.66 341.331C751.762 344.021 752.406 347.741 755.097 349.64Z" fill="#CFBD9A"/>
<path d="M777.843 365.69C780.534 367.588 784.254 366.947 786.152 364.258C788.05 361.568 787.407 357.848 784.715 355.949C782.024 354.051 778.304 354.692 776.406 357.381C774.509 360.071 775.152 363.791 777.843 365.69Z" fill="#CFBD9A"/>
<path d="M545.752 235.971C548.443 237.869 552.164 237.228 554.061 234.539C555.959 231.849 555.316 228.129 552.625 226.23C549.933 224.332 546.213 224.973 544.316 227.662C542.418 230.351 543.061 234.072 545.752 235.971Z" fill="#CFBD9A"/>
<path d="M568.498 252.02C571.189 253.919 574.91 253.278 576.807 250.589C578.705 247.899 578.062 244.179 575.371 242.28C572.68 240.381 568.96 241.022 567.062 243.712C565.164 246.401 565.807 250.122 568.498 252.02Z" fill="#CFBD9A"/>
<path d="M591.239 268.067C593.931 269.966 597.651 269.324 599.548 266.635C601.446 263.945 600.803 260.225 598.112 258.326C595.421 256.428 591.701 257.069 589.803 259.758C587.905 262.448 588.548 266.168 591.239 268.067Z" fill="#CFBD9A"/>
<path d="M613.981 284.113C616.672 286.012 620.392 285.37 622.29 282.681C624.187 279.991 623.544 276.272 620.853 274.373C618.162 272.474 614.442 273.115 612.544 275.804C610.647 278.494 611.289 282.214 613.981 284.113Z" fill="#CFBD9A"/>
<path d="M636.722 300.159C639.413 302.058 643.133 301.416 645.031 298.727C646.929 296.037 646.286 292.318 643.594 290.419C640.903 288.52 637.183 289.161 635.285 291.851C633.388 294.54 634.031 298.26 636.722 300.159Z" fill="#CFBD9A"/>
<path d="M659.463 316.205C662.154 318.104 665.875 317.462 667.772 314.773C669.67 312.083 669.027 308.364 666.336 306.465C663.644 304.566 659.924 305.207 658.027 307.897C656.129 310.586 656.772 314.306 659.463 316.205Z" fill="#CFBD9A"/>
<path d="M682.209 332.255C684.9 334.154 688.621 333.512 690.518 330.823C692.416 328.133 691.773 324.414 689.082 322.515C686.391 320.616 682.671 321.257 680.773 323.947C678.875 326.636 679.518 330.356 682.209 332.255Z" fill="#CFBD9A"/>
<path d="M704.95 348.301C707.641 350.2 711.362 349.558 713.259 346.869C715.157 344.179 714.514 340.46 711.823 338.561C709.132 336.662 705.412 337.303 703.514 339.993C701.616 342.682 702.259 346.402 704.95 348.301Z" fill="#CFBD9A"/>
<path d="M727.691 364.347C730.383 366.246 734.103 365.605 736.001 362.915C737.898 360.226 737.255 356.506 734.564 354.607C731.873 352.708 728.153 353.349 726.255 356.039C724.358 358.728 725 362.448 727.691 364.347Z" fill="#CFBD9A"/>
<path d="M750.433 380.393C753.124 382.292 756.844 381.651 758.742 378.962C760.64 376.272 759.997 372.552 757.305 370.653C754.614 368.754 750.894 369.395 748.996 372.085C747.099 374.774 747.742 378.494 750.433 380.393Z" fill="#CFBD9A"/>
<path d="M773.174 396.44C775.865 398.338 779.585 397.697 781.483 395.008C783.381 392.318 782.738 388.598 780.047 386.699C777.355 384.8 773.635 385.442 771.738 388.131C769.84 390.82 770.483 394.541 773.174 396.44Z" fill="#CFBD9A"/>
<path d="M495.606 234.632C498.297 236.531 502.017 235.89 503.915 233.2C505.812 230.51 505.169 226.791 502.478 224.892C499.787 222.993 496.067 223.634 494.169 226.324C492.271 229.013 492.914 232.733 495.606 234.632Z" fill="#CFBD9A"/>
<path d="M518.347 250.678C521.038 252.577 524.758 251.936 526.656 249.246C528.554 246.556 527.911 242.837 525.219 240.938C522.528 239.039 518.808 239.68 516.91 242.37C515.012 245.059 515.656 248.779 518.347 250.678Z" fill="#CFBD9A"/>
<path d="M541.088 266.724C543.779 268.623 547.499 267.982 549.397 265.292C551.295 262.603 550.652 258.883 547.961 256.984C545.269 255.085 541.549 255.726 539.652 258.416C537.754 261.106 538.397 264.825 541.088 266.724Z" fill="#CFBD9A"/>
<path d="M563.829 282.77C566.52 284.669 570.24 284.028 572.138 281.338C574.036 278.649 573.393 274.929 570.702 273.03C568.011 271.131 564.291 271.772 562.393 274.462C560.495 277.152 561.138 280.871 563.829 282.77Z" fill="#CFBD9A"/>
<path d="M586.569 298.817C589.261 300.715 592.981 300.074 594.878 297.385C596.776 294.695 596.133 290.975 593.442 289.076C590.751 287.177 587.031 287.819 585.133 290.508C583.235 293.198 583.878 296.918 586.569 298.817Z" fill="#CFBD9A"/>
<path d="M609.316 314.866C612.008 316.765 615.728 316.124 617.626 313.435C619.523 310.745 618.88 307.025 616.189 305.126C613.498 303.227 609.778 303.868 607.88 306.558C605.982 309.248 606.625 312.967 609.316 314.866Z" fill="#CFBD9A"/>
<path d="M632.058 330.913C634.749 332.811 638.469 332.17 640.367 329.481C642.265 326.791 641.622 323.071 638.93 321.172C636.239 319.273 632.519 319.915 630.621 322.604C628.723 325.294 629.367 329.014 632.058 330.913Z" fill="#CFBD9A"/>
<path d="M654.798 346.959C657.489 348.858 661.209 348.217 663.107 345.527C665.005 342.837 664.362 339.117 661.671 337.219C658.979 335.32 655.259 335.961 653.362 338.65C651.464 341.34 652.107 345.06 654.798 346.959Z" fill="#CFBD9A"/>
<path d="M677.539 363.005C680.23 364.904 683.95 364.263 685.848 361.573C687.746 358.883 687.103 355.164 684.412 353.265C681.721 351.366 678.001 352.007 676.103 354.697C674.205 357.386 674.848 361.106 677.539 363.005Z" fill="#CFBD9A"/>
<path d="M700.28 379.051C702.972 380.95 706.692 380.309 708.589 377.619C710.487 374.929 709.844 371.21 707.153 369.311C704.462 367.412 700.742 368.053 698.844 370.743C696.946 373.432 697.589 377.152 700.28 379.051Z" fill="#CFBD9A"/>
<path d="M723.022 395.097C725.713 396.996 729.433 396.355 731.331 393.665C733.229 390.976 732.585 387.256 729.894 385.357C727.203 383.458 723.483 384.099 721.585 386.789C719.687 389.479 720.33 393.198 723.022 395.097Z" fill="#CFBD9A"/>
<path d="M745.769 411.147C748.46 413.046 752.18 412.405 754.078 409.715C755.976 407.025 755.332 403.306 752.641 401.407C749.95 399.508 746.23 400.149 744.332 402.839C742.434 405.528 743.077 409.248 745.769 411.147Z" fill="#CFBD9A"/>
<path d="M768.509 427.193C771.2 429.092 774.92 428.451 776.818 425.761C778.716 423.072 778.073 419.352 775.382 417.453C772.69 415.554 768.97 416.195 767.072 418.885C765.175 421.575 765.818 425.294 768.509 427.193Z" fill="#CFBD9A"/>
<path d="M468.191 249.341C470.883 251.24 474.603 250.598 476.5 247.909C478.398 245.219 477.755 241.5 475.064 239.601C472.373 237.702 468.653 238.343 466.755 241.033C464.858 243.722 465.5 247.442 468.191 249.341Z" fill="#CFBD9A"/>
<path d="M490.932 265.387C493.623 267.286 497.343 266.644 499.241 263.955C501.139 261.266 500.496 257.546 497.804 255.647C495.113 253.748 491.393 254.389 489.495 257.079C487.598 259.768 488.241 263.488 490.932 265.387Z" fill="#CFBD9A"/>
<path d="M513.673 281.433C516.364 283.332 520.084 282.691 521.982 280.001C523.88 277.312 523.237 273.592 520.546 271.693C517.854 269.794 514.134 270.435 512.237 273.125C510.339 275.814 510.982 279.534 513.673 281.433Z" fill="#CFBD9A"/>
<path d="M536.42 297.483C539.111 299.382 542.832 298.74 544.729 296.051C546.627 293.361 545.984 289.642 543.293 287.743C540.601 285.844 536.881 286.485 534.984 289.175C533.086 291.864 533.729 295.584 536.42 297.483Z" fill="#CFBD9A"/>
<path d="M559.161 313.529C561.852 315.428 565.573 314.787 567.47 312.097C569.368 309.408 568.725 305.688 566.034 303.789C563.343 301.89 559.623 302.531 557.725 305.221C555.827 307.91 556.47 311.63 559.161 313.529Z" fill="#CFBD9A"/>
<path d="M581.901 329.575C584.593 331.474 588.313 330.833 590.211 328.144C592.108 325.454 591.465 321.734 588.774 319.835C586.083 317.936 582.363 318.577 580.465 321.267C578.568 323.956 579.21 327.676 581.901 329.575Z" fill="#CFBD9A"/>
<path d="M604.643 345.622C607.334 347.52 611.054 346.879 612.952 344.19C614.85 341.5 614.206 337.78 611.515 335.881C608.824 333.983 605.104 334.624 603.206 337.313C601.309 340.002 601.951 343.723 604.643 345.622Z" fill="#CFBD9A"/>
<path d="M627.384 361.668C630.075 363.567 633.795 362.925 635.693 360.236C637.591 357.546 636.948 353.826 634.257 351.928C631.565 350.029 627.845 350.67 625.947 353.359C624.05 356.049 624.693 359.769 627.384 361.668Z" fill="#CFBD9A"/>
<path d="M650.13 377.718C652.821 379.616 656.542 378.975 658.439 376.286C660.337 373.596 659.694 369.876 657.003 367.977C654.311 366.079 650.591 366.72 648.694 369.409C646.796 372.098 647.439 375.819 650.13 377.718Z" fill="#CFBD9A"/>
<path d="M672.871 393.764C675.562 395.663 679.283 395.021 681.18 392.332C683.078 389.642 682.435 385.922 679.744 384.024C677.053 382.125 673.333 382.766 671.435 385.455C669.537 388.145 670.18 391.865 672.871 393.764Z" fill="#CFBD9A"/>
<path d="M695.612 409.81C698.304 411.709 702.024 411.067 703.921 408.378C705.819 405.688 705.176 401.969 702.485 400.07C699.794 398.171 696.074 398.812 694.176 401.502C692.278 404.191 692.921 407.911 695.612 409.81Z" fill="#CFBD9A"/>
<path d="M718.354 425.856C721.045 427.755 724.765 427.113 726.663 424.424C728.561 421.734 727.917 418.015 725.226 416.116C722.535 414.217 718.815 414.858 716.917 417.548C715.02 420.237 715.662 423.957 718.354 425.856Z" fill="#CFBD9A"/>
<path d="M741.095 441.902C743.786 443.801 747.506 443.16 749.404 440.47C751.302 437.781 750.659 434.061 747.967 432.162C745.276 430.263 741.556 430.904 739.658 433.594C737.761 436.283 738.404 440.003 741.095 441.902Z" fill="#CFBD9A"/>
<path d="M763.836 457.948C766.527 459.847 770.248 459.205 772.145 456.516C774.043 453.826 773.4 450.107 770.709 448.208C768.017 446.309 764.297 446.95 762.4 449.64C760.502 452.329 761.145 456.049 763.836 457.948Z" fill="#CFBD9A"/>
<path d="M418.039 247.999C420.73 249.898 424.45 249.256 426.348 246.567C428.246 243.877 427.603 240.157 424.912 238.259C422.221 236.36 418.501 237.001 416.603 239.69C414.705 242.38 415.348 246.1 418.039 247.999Z" fill="#CFBD9A"/>
<path d="M440.786 264.048C443.477 265.947 447.197 265.306 449.095 262.617C450.993 259.927 450.35 256.207 447.659 254.308C444.968 252.409 441.248 253.05 439.35 255.74C437.452 258.43 438.095 262.15 440.786 264.048Z" fill="#CFBD9A"/>
<path d="M463.526 280.095C466.218 281.993 469.938 281.352 471.835 278.663C473.733 275.973 473.09 272.253 470.399 270.354C467.708 268.456 463.988 269.097 462.09 271.786C460.192 274.476 460.835 278.196 463.526 280.095Z" fill="#CFBD9A"/>
<path d="M486.268 296.141C488.959 298.04 492.679 297.399 494.577 294.709C496.475 292.019 495.831 288.299 493.14 286.401C490.449 284.502 486.729 285.143 484.831 287.832C482.933 290.522 483.576 294.242 486.268 296.141Z" fill="#CFBD9A"/>
<path d="M509.009 312.187C511.7 314.086 515.42 313.445 517.318 310.755C519.216 308.065 518.573 304.346 515.882 302.447C513.19 300.548 509.47 301.189 507.572 303.879C505.675 306.568 506.318 310.288 509.009 312.187Z" fill="#CFBD9A"/>
<path d="M531.75 328.233C534.441 330.132 538.161 329.491 540.059 326.801C541.957 324.111 541.314 320.392 538.623 318.493C535.932 316.594 532.212 317.235 530.314 319.925C528.416 322.614 529.059 326.334 531.75 328.233Z" fill="#CFBD9A"/>
<path d="M554.491 344.279C557.182 346.178 560.902 345.537 562.8 342.847C564.698 340.158 564.055 336.438 561.364 334.539C558.673 332.64 554.953 333.281 553.055 335.971C551.157 338.661 551.8 342.38 554.491 344.279Z" fill="#CFBD9A"/>
<path d="M577.237 360.329C579.929 362.228 583.649 361.587 585.546 358.897C587.444 356.207 586.801 352.488 584.11 350.589C581.419 348.69 577.699 349.331 575.801 352.021C573.903 354.71 574.546 358.43 577.237 360.329Z" fill="#CFBD9A"/>
<path d="M599.979 376.375C602.67 378.274 606.39 377.633 608.288 374.943C610.186 372.254 609.542 368.534 606.851 366.635C604.16 364.736 600.44 365.377 598.542 368.067C596.644 370.757 597.287 374.476 599.979 376.375Z" fill="#CFBD9A"/>
<path d="M622.72 392.421C625.411 394.32 629.131 393.679 631.029 390.989C632.927 388.3 632.284 384.58 629.592 382.681C626.901 380.782 623.181 381.423 621.283 384.113C619.386 386.803 620.029 390.522 622.72 392.421Z" fill="#CFBD9A"/>
<path d="M645.461 408.467C648.152 410.366 651.872 409.725 653.77 407.036C655.668 404.346 655.025 400.626 652.334 398.727C649.642 396.828 645.922 397.469 644.025 400.159C642.127 402.849 642.77 406.569 645.461 408.467Z" fill="#CFBD9A"/>
<path d="M668.202 424.514C670.893 426.413 674.613 425.771 676.511 423.082C678.409 420.392 677.766 416.672 675.075 414.773C672.384 412.875 668.664 413.516 666.766 416.205C664.868 418.895 665.511 422.615 668.202 424.514Z" fill="#CFBD9A"/>
<path d="M690.943 440.56C693.635 442.459 697.355 441.818 699.253 439.128C701.15 436.438 700.507 432.719 697.816 430.82C695.125 428.921 691.405 429.562 689.507 432.252C687.609 434.941 688.252 438.661 690.943 440.56Z" fill="#CFBD9A"/>
<path d="M713.69 456.61C716.381 458.509 720.101 457.867 721.999 455.178C723.896 452.488 723.253 448.768 720.562 446.87C717.871 444.971 714.151 445.612 712.253 448.301C710.355 450.991 710.998 454.711 713.69 456.61Z" fill="#CFBD9A"/>
<path d="M736.431 472.655C739.122 474.554 742.842 473.913 744.74 471.224C746.638 468.534 745.995 464.814 743.303 462.915C740.612 461.016 736.892 461.657 734.994 464.347C733.096 467.037 733.74 470.757 736.431 472.655Z" fill="#CFBD9A"/>
<path d="M759.172 488.701C761.863 490.6 765.583 489.959 767.481 487.27C769.379 484.58 768.736 480.86 766.045 478.961C763.353 477.062 759.633 477.704 757.736 480.393C755.838 483.083 756.481 486.803 759.172 488.701Z" fill="#CFBD9A"/>
<path d="M413.375 278.752C416.066 280.651 419.786 280.01 421.684 277.32C423.582 274.631 422.939 270.911 420.248 269.012C417.557 267.113 413.837 267.754 411.939 270.444C410.041 273.134 410.684 276.853 413.375 278.752Z" fill="#CFBD9A"/>
<path d="M436.116 294.798C438.807 296.697 442.527 296.056 444.425 293.366C446.323 290.677 445.68 286.957 442.989 285.058C440.298 283.159 436.578 283.8 434.68 286.49C432.782 289.18 433.425 292.899 436.116 294.798Z" fill="#CFBD9A"/>
<path d="M458.858 310.845C461.549 312.743 465.269 312.102 467.167 309.413C469.064 306.723 468.421 303.003 465.73 301.104C463.039 299.205 459.319 299.847 457.421 302.536C455.523 305.226 456.166 308.946 458.858 310.845Z" fill="#CFBD9A"/>
<path d="M481.599 326.891C484.29 328.79 488.01 328.149 489.908 325.459C491.806 322.769 491.163 319.049 488.471 317.151C485.78 315.252 482.06 315.893 480.162 318.582C478.264 321.272 478.908 324.992 481.599 326.891Z" fill="#CFBD9A"/>
<path d="M504.345 342.94C507.036 344.839 510.756 344.198 512.654 341.509C514.552 338.819 513.909 335.099 511.217 333.2C508.526 331.301 504.806 331.942 502.908 334.632C501.011 337.322 501.654 341.042 504.345 342.94Z" fill="#CFBD9A"/>
<path d="M527.086 358.987C529.777 360.886 533.497 360.244 535.395 357.555C537.293 354.865 536.65 351.145 533.959 349.246C531.267 347.348 527.547 347.989 525.65 350.678C523.752 353.368 524.395 357.088 527.086 358.987Z" fill="#CFBD9A"/>
<path d="M549.827 375.033C552.518 376.932 556.238 376.291 558.136 373.601C560.034 370.911 559.391 367.192 556.7 365.293C554.009 363.394 550.289 364.035 548.391 366.725C546.493 369.414 547.136 373.134 549.827 375.033Z" fill="#CFBD9A"/>
<path d="M572.568 391.079C575.26 392.978 578.98 392.337 580.877 389.647C582.775 386.957 582.132 383.238 579.441 381.339C576.75 379.44 573.03 380.081 571.132 382.771C569.234 385.46 569.877 389.18 572.568 391.079Z" fill="#CFBD9A"/>
<path d="M595.31 407.125C598.001 409.024 601.721 408.383 603.619 405.693C605.517 403.004 604.873 399.284 602.182 397.385C599.491 395.486 595.771 396.127 593.873 398.817C591.975 401.507 592.618 405.226 595.31 407.125Z" fill="#CFBD9A"/>
<path d="M618.056 423.175C620.747 425.074 624.467 424.433 626.365 421.743C628.263 419.053 627.62 415.334 624.928 413.435C622.237 411.536 618.517 412.177 616.619 414.867C614.721 417.556 615.365 421.276 618.056 423.175Z" fill="#CFBD9A"/>
<path d="M640.797 439.221C643.488 441.12 647.208 440.479 649.106 437.789C651.004 435.1 650.361 431.38 647.67 429.481C644.978 427.582 641.258 428.223 639.361 430.913C637.463 433.603 638.106 437.322 640.797 439.221Z" fill="#CFBD9A"/>
<path d="M663.538 455.267C666.229 457.166 669.949 456.525 671.847 453.835C673.745 451.146 673.102 447.426 670.411 445.527C667.72 443.628 664 444.269 662.102 446.959C660.204 449.649 660.847 453.368 663.538 455.267Z" fill="#CFBD9A"/>
<path d="M686.278 471.313C688.97 473.212 692.69 472.571 694.587 469.881C696.485 467.191 695.842 463.472 693.151 461.573C690.46 459.674 686.74 460.315 684.842 463.005C682.944 465.694 683.587 469.414 686.278 471.313Z" fill="#CFBD9A"/>
<path d="M709.02 487.359C711.711 489.258 715.431 488.617 717.329 485.927C719.227 483.238 718.583 479.518 715.892 477.619C713.201 475.72 709.481 476.361 707.583 479.051C705.685 481.741 706.328 485.46 709.02 487.359Z" fill="#CFBD9A"/>
<path d="M731.761 503.405C734.452 505.304 738.172 504.663 740.07 501.973C741.968 499.284 741.325 495.564 738.633 493.665C735.942 491.766 732.222 492.407 730.324 495.097C728.427 497.787 729.07 501.506 731.761 503.405Z" fill="#CFBD9A"/>
<path d="M431.452 325.552C434.143 327.451 437.864 326.809 439.761 324.12C441.659 321.43 441.016 317.711 438.325 315.812C435.634 313.913 431.914 314.554 430.016 317.244C428.118 319.933 428.761 323.653 431.452 325.552Z" fill="#CFBD9A"/>
<path d="M454.193 341.598C456.885 343.497 460.605 342.855 462.502 340.166C464.4 337.477 463.757 333.757 461.066 331.858C458.375 329.959 454.655 330.6 452.757 333.29C450.86 335.979 451.502 339.699 454.193 341.598Z" fill="#CFBD9A"/>
<path d="M476.935 357.644C479.626 359.543 483.346 358.902 485.244 356.212C487.142 353.523 486.498 349.803 483.807 347.904C481.116 346.005 477.396 346.646 475.498 349.336C473.601 352.025 474.243 355.745 476.935 357.644Z" fill="#CFBD9A"/>
<path d="M499.675 373.69C502.366 375.589 506.086 374.948 507.984 372.259C509.882 369.569 509.239 365.849 506.548 363.95C503.856 362.051 500.136 362.692 498.238 365.382C496.341 368.071 496.984 371.792 499.675 373.69Z" fill="#CFBD9A"/>
<path d="M522.416 389.737C525.107 391.636 528.828 390.994 530.725 388.305C532.623 385.615 531.98 381.895 529.289 379.996C526.598 378.098 522.878 378.739 520.98 381.428C519.082 384.118 519.725 387.838 522.416 389.737Z" fill="#CFBD9A"/>
<path d="M545.163 405.786C547.854 407.685 551.575 407.044 553.472 404.355C555.37 401.665 554.727 397.945 552.036 396.046C549.345 394.147 545.625 394.788 543.727 397.478C541.829 400.167 542.472 403.888 545.163 405.786Z" fill="#CFBD9A"/>
<path d="M567.903 421.833C570.595 423.732 574.315 423.09 576.212 420.401C578.11 417.711 577.467 413.991 574.776 412.092C572.085 410.194 568.365 410.835 566.467 413.524C564.57 416.214 565.212 419.934 567.903 421.833Z" fill="#CFBD9A"/>
<path d="M590.645 437.879C593.336 439.778 597.056 439.136 598.954 436.447C600.852 433.757 600.208 430.038 597.517 428.139C594.826 426.24 591.106 426.881 589.208 429.571C587.311 432.26 587.953 435.98 590.645 437.879Z" fill="#CFBD9A"/>
<path d="M613.386 453.925C616.077 455.824 619.797 455.182 621.695 452.493C623.593 449.803 622.95 446.084 620.258 444.185C617.567 442.286 613.847 442.927 611.949 445.617C610.052 448.306 610.695 452.026 613.386 453.925Z" fill="#CFBD9A"/>
<path d="M636.127 469.971C638.818 471.87 642.539 471.228 644.436 468.539C646.334 465.85 645.691 462.13 643 460.231C640.308 458.332 636.588 458.973 634.691 461.663C632.793 464.352 633.436 468.072 636.127 469.971Z" fill="#CFBD9A"/>
<path d="M658.868 486.017C661.559 487.916 665.28 487.274 667.177 484.585C669.075 481.895 668.432 478.176 665.741 476.277C663.05 474.378 659.33 475.019 657.432 477.709C655.534 480.398 656.177 484.118 658.868 486.017Z" fill="#CFBD9A"/>
<path d="M681.614 502.067C684.306 503.966 688.026 503.324 689.923 500.635C691.821 497.945 691.178 494.225 688.487 492.327C685.796 490.428 682.076 491.069 680.178 493.758C678.28 496.448 678.923 500.168 681.614 502.067Z" fill="#CFBD9A"/>
<path d="M426.782 356.302C429.473 358.201 433.194 357.559 435.091 354.87C436.989 352.18 436.346 348.461 433.655 346.562C430.964 344.663 427.244 345.304 425.346 347.994C423.448 350.683 424.091 354.403 426.782 356.302Z" fill="#CFBD9A"/>
<path d="M449.524 372.348C452.215 374.247 455.935 373.605 457.833 370.916C459.73 368.227 459.087 364.507 456.396 362.608C453.705 360.709 449.985 361.35 448.087 364.04C446.19 366.729 446.832 370.449 449.524 372.348Z" fill="#CFBD9A"/>
<path d="M472.27 388.398C474.961 390.297 478.681 389.655 480.579 386.966C482.477 384.276 481.833 380.557 479.142 378.658C476.451 376.759 472.731 377.4 470.833 380.09C468.936 382.779 469.578 386.499 472.27 388.398Z" fill="#CFBD9A"/>
<path d="M495.011 404.444C497.702 406.343 501.422 405.701 503.32 403.012C505.218 400.323 504.575 396.603 501.883 394.704C499.192 392.805 495.472 393.446 493.574 396.136C491.677 398.825 492.32 402.545 495.011 404.444Z" fill="#CFBD9A"/>
<path d="M517.752 420.49C520.443 422.389 524.164 421.748 526.061 419.058C527.959 416.369 527.316 412.649 524.625 410.75C521.934 408.851 518.213 409.492 516.316 412.182C514.418 414.871 515.061 418.591 517.752 420.49Z" fill="#CFBD9A"/>
<path d="M540.493 436.536C543.184 438.435 546.905 437.794 548.802 435.104C550.7 432.415 550.057 428.695 547.366 426.796C544.675 424.897 540.955 425.538 539.057 428.228C537.159 430.917 537.802 434.637 540.493 436.536Z" fill="#CFBD9A"/>
<path d="M563.234 452.583C565.926 454.481 569.646 453.84 571.544 451.151C573.441 448.461 572.798 444.741 570.107 442.842C567.416 440.944 563.696 441.585 561.798 444.274C559.901 446.964 560.543 450.684 563.234 452.583Z" fill="#CFBD9A"/>
<path d="M585.981 468.632C588.672 470.531 592.392 469.89 594.29 467.201C596.187 464.511 595.544 460.791 592.853 458.892C590.162 456.993 586.442 457.634 584.544 460.324C582.647 463.013 583.289 466.734 585.981 468.632Z" fill="#CFBD9A"/>
<path d="M608.722 484.678C611.413 486.577 615.133 485.935 617.031 483.246C618.929 480.557 618.286 476.837 615.594 474.938C612.903 473.039 609.183 473.68 607.285 476.37C605.388 479.059 606.031 482.779 608.722 484.678Z" fill="#CFBD9A"/>
<path d="M631.463 500.724C634.154 502.623 637.875 501.982 639.772 499.292C641.67 496.603 641.027 492.883 638.336 490.984C635.644 489.085 631.924 489.726 630.027 492.416C628.129 495.105 628.772 498.825 631.463 500.724Z" fill="#CFBD9A"/>
<path d="M654.204 516.77C656.895 518.669 660.616 518.028 662.513 515.339C664.411 512.649 663.768 508.929 661.077 507.03C658.386 505.131 654.666 505.772 652.768 508.462C650.87 511.151 651.513 514.872 654.204 516.77Z" fill="#CFBD9A"/>
<path d="M444.859 403.102C447.551 405.001 451.271 404.36 453.169 401.67C455.066 398.98 454.423 395.261 451.732 393.362C449.041 391.463 445.321 392.104 443.423 394.793C441.525 397.483 442.168 401.203 444.859 403.102Z" fill="#CFBD9A"/>
<path d="M467.601 419.148C470.292 421.047 474.012 420.406 475.91 417.716C477.808 415.026 477.165 411.307 474.473 409.408C471.782 407.509 468.062 408.15 466.164 410.84C464.266 413.529 464.909 417.249 467.601 419.148Z" fill="#CFBD9A"/>
<path d="M490.342 435.194C493.033 437.093 496.753 436.452 498.651 433.762C500.549 431.073 499.906 427.353 497.215 425.454C494.523 423.555 490.803 424.196 488.905 426.886C487.008 429.576 487.651 433.295 490.342 435.194Z" fill="#CFBD9A"/>
<path d="M513.088 451.244C515.779 453.143 519.499 452.502 521.397 449.812C523.295 447.122 522.652 443.403 519.961 441.504C517.269 439.605 513.549 440.246 511.652 442.936C509.754 445.625 510.397 449.345 513.088 451.244Z" fill="#CFBD9A"/>
<path d="M535.829 467.29C538.52 469.189 542.24 468.548 544.138 465.858C546.036 463.168 545.393 459.449 542.702 457.55C540.011 455.651 536.291 456.292 534.393 458.982C532.495 461.671 533.138 465.391 535.829 467.29Z" fill="#CFBD9A"/>
<path d="M558.57 483.336C561.262 485.235 564.982 484.594 566.879 481.904C568.777 479.215 568.134 475.495 565.443 473.596C562.752 471.697 559.032 472.338 557.134 475.028C555.236 477.718 555.879 481.437 558.57 483.336Z" fill="#CFBD9A"/>
<path d="M581.311 499.382C584.002 501.281 587.722 500.64 589.62 497.95C591.518 495.26 590.874 491.541 588.183 489.642C585.492 487.743 581.772 488.384 579.874 491.074C577.976 493.763 578.619 497.483 581.311 499.382Z" fill="#CFBD9A"/>
<path d="M604.052 515.428C606.743 517.327 610.463 516.686 612.361 513.996C614.259 511.307 613.616 507.587 610.924 505.688C608.233 503.789 604.513 504.43 602.615 507.12C600.718 509.81 601.361 513.529 604.052 515.428Z" fill="#CFBD9A"/>
<path d="M440.191 433.861C442.883 435.759 446.603 435.118 448.501 432.429C450.398 429.739 449.755 426.019 447.064 424.12C444.373 422.222 440.653 422.863 438.755 425.552C436.857 428.242 437.5 431.962 440.191 433.861Z" fill="#CFBD9A"/>
<path d="M462.933 449.907C465.624 451.806 469.344 451.165 471.242 448.475C473.14 445.785 472.497 442.065 469.805 440.167C467.114 438.268 463.394 438.909 461.496 441.598C459.598 444.288 460.241 448.008 462.933 449.907Z" fill="#CFBD9A"/>
<path d="M485.674 465.953C488.365 467.852 492.085 467.211 493.983 464.521C495.881 461.831 495.238 458.112 492.547 456.213C489.855 454.314 486.135 454.955 484.238 457.645C482.34 460.334 482.983 464.054 485.674 465.953Z" fill="#CFBD9A"/>
<path d="M508.415 481.999C511.106 483.898 514.826 483.257 516.724 480.567C518.622 477.877 517.979 474.158 515.288 472.259C512.597 470.36 508.877 471.001 506.979 473.691C505.081 476.38 505.724 480.1 508.415 481.999Z" fill="#CFBD9A"/>
<path d="M531.155 498.045C533.847 499.944 537.567 499.303 539.464 496.613C541.362 493.923 540.719 490.204 538.028 488.305C535.337 486.406 531.617 487.047 529.719 489.737C527.821 492.426 528.464 496.146 531.155 498.045Z" fill="#CFBD9A"/>
<path d="M553.902 514.095C556.594 515.993 560.314 515.352 562.211 512.663C564.109 509.973 563.466 506.253 560.775 504.354C558.084 502.456 554.364 503.097 552.466 505.786C550.568 508.476 551.211 512.196 553.902 514.095Z" fill="#CFBD9A"/>
<path d="M576.644 530.141C579.335 532.04 583.055 531.399 584.953 528.709C586.851 526.019 586.207 522.3 583.516 520.401C580.825 518.502 577.105 519.143 575.207 521.832C573.309 524.522 573.952 528.242 576.644 530.141Z" fill="#CFBD9A"/>
<path d="M458.263 480.657C460.954 482.556 464.674 481.914 466.572 479.225C468.47 476.535 467.827 472.816 465.135 470.917C462.444 469.018 458.724 469.659 456.826 472.348C454.929 475.038 455.572 478.758 458.263 480.657Z" fill="#CFBD9A"/>
<path d="M481.01 496.707C483.701 498.605 487.421 497.964 489.319 495.275C491.217 492.585 490.574 488.865 487.882 486.966C485.191 485.068 481.471 485.709 479.573 488.398C477.676 491.087 478.319 494.808 481.01 496.707Z" fill="#CFBD9A"/>
<path d="M503.75 512.752C506.441 514.651 510.162 514.01 512.059 511.32C513.957 508.631 513.314 504.911 510.623 503.012C507.932 501.113 504.212 501.754 502.314 504.444C500.416 507.133 501.059 510.853 503.75 512.752Z" fill="#CFBD9A"/>
<path d="M526.491 528.798C529.182 530.697 532.903 530.056 534.8 527.367C536.698 524.677 536.055 520.957 533.364 519.058C530.673 517.159 526.953 517.8 525.055 520.49C523.157 523.179 523.8 526.9 526.491 528.798Z" fill="#CFBD9A"/>
<path d="M453.599 511.41C456.29 513.309 460.01 512.668 461.908 509.978C463.806 507.288 463.163 503.569 460.471 501.67C457.78 499.771 454.06 500.412 452.162 503.102C450.264 505.791 450.908 509.511 453.599 511.41Z" fill="#CFBD9A"/>
<path d="M476.34 527.456C479.031 529.355 482.751 528.714 484.649 526.024C486.547 523.334 485.904 519.615 483.213 517.716C480.521 515.817 476.801 516.458 474.904 519.148C473.006 521.837 473.649 525.557 476.34 527.456Z" fill="#CFBD9A"/>
<path d="M499.081 543.502C501.772 545.401 505.492 544.76 507.39 542.07C509.288 539.381 508.645 535.661 505.954 533.762C503.263 531.863 499.543 532.504 497.645 535.194C495.747 537.884 496.39 541.603 499.081 543.502Z" fill="#CFBD9A"/>
</mask>
<g mask="url(#mask1_153_3828)">
<path d="M773.2 248.694C787.765 248.854 799.109 261.381 797.829 275.89L781.295 463.23C780.297 474.528 771.82 483.739 760.644 485.668L501.712 530.361C488.106 532.71 475.173 523.584 472.824 509.978L432.175 274.478C429.519 259.087 441.468 245.056 457.085 245.227L773.2 248.694Z" fill="#24364C"/>
</g>
</g>
</svg>
