<svg width="1044" height="760" viewBox="0 0 1044 760" fill="none" xmlns="http://www.w3.org/2000/svg">
<mask id="mask0_581_19906" style="mask-type:alpha" maskUnits="userSpaceOnUse" x="0" y="0" width="1044" height="760">
<rect width="1044" height="760" fill="#D9D9D9"/>
</mask>
<g mask="url(#mask0_581_19906)">
<path d="M-70 -22.1666C-70 -75.0939 -27.094 -118 25.8333 -118H947.757C1011.48 -118 1057.46 -56.9543 1039.86 4.29608L853.039 654.567C839.678 701.071 793.747 730.321 745.956 722.76L10.8577 606.459C-35.7089 599.092 -70 558.949 -70 511.803V-22.1666Z" fill="#18283B"/>
</g>
<mask id="mask1_581_19906" style="mask-type:alpha" maskUnits="userSpaceOnUse" x="473" y="91" width="396" height="335">
<path d="M859.516 123.673C862.207 125.572 865.927 124.931 867.825 122.241C869.723 119.552 869.08 115.832 866.388 113.933C863.697 112.034 859.977 112.675 858.079 115.365C856.181 118.055 856.825 121.774 859.516 123.673Z" fill="#CFBD9A"/>
<path d="M809.365 122.34C812.056 124.239 815.776 123.598 817.674 120.908C819.572 118.218 818.929 114.499 816.238 112.6C813.547 110.701 809.827 111.342 807.929 114.032C806.031 116.721 806.674 120.441 809.365 122.34Z" fill="#CFBD9A"/>
<path d="M832.106 138.386C834.798 140.285 838.518 139.644 840.415 136.954C842.313 134.264 841.67 130.545 838.979 128.646C836.288 126.747 832.568 127.388 830.67 130.078C828.772 132.768 829.415 136.487 832.106 138.386Z" fill="#CFBD9A"/>
<path d="M854.848 154.432C857.539 156.331 861.259 155.69 863.157 153C865.055 150.311 864.412 146.591 861.72 144.692C859.029 142.793 855.309 143.434 853.411 146.124C851.513 148.814 852.156 152.533 854.848 154.432Z" fill="#CFBD9A"/>
<path d="M759.214 120.998C761.905 122.897 765.625 122.256 767.523 119.566C769.421 116.876 768.778 113.156 766.087 111.258C763.395 109.359 759.675 110 757.778 112.689C755.88 115.379 756.523 119.099 759.214 120.998Z" fill="#CFBD9A"/>
<path d="M781.955 137.044C784.646 138.943 788.366 138.302 790.264 135.612C792.162 132.922 791.519 129.203 788.828 127.304C786.137 125.405 782.417 126.046 780.519 128.736C778.621 131.425 779.264 135.145 781.955 137.044Z" fill="#CFBD9A"/>
<path d="M804.696 153.09C807.388 154.989 811.108 154.348 813.005 151.658C814.903 148.968 814.26 145.249 811.569 143.35C808.878 141.451 805.158 142.092 803.26 144.782C801.362 147.471 802.005 151.191 804.696 153.09Z" fill="#CFBD9A"/>
<path d="M827.437 169.136C830.128 171.035 833.848 170.394 835.746 167.704C837.644 165.015 837 161.295 834.309 159.396C831.618 157.497 827.898 158.138 826 160.828C824.102 163.518 824.745 167.237 827.437 169.136Z" fill="#CFBD9A"/>
<path d="M850.178 185.182C852.869 187.081 856.589 186.44 858.487 183.751C860.385 181.061 859.742 177.341 857.05 175.442C854.359 173.543 850.639 174.184 848.741 176.874C846.844 179.564 847.487 183.283 850.178 185.182Z" fill="#CFBD9A"/>
<path d="M686.32 103.609C689.012 105.508 692.732 104.867 694.629 102.177C696.527 99.4877 695.884 95.768 693.193 93.8691C690.502 91.9702 686.782 92.6113 684.884 95.301C682.986 97.9907 683.629 101.71 686.32 103.609Z" fill="#CFBD9A"/>
<path d="M709.062 119.655C711.753 121.554 715.473 120.913 717.371 118.223C719.269 115.534 718.625 111.814 715.934 109.915C713.243 108.016 709.523 108.657 707.625 111.347C705.727 114.037 706.37 117.756 709.062 119.655Z" fill="#CFBD9A"/>
<path d="M731.803 135.701C734.494 137.6 738.214 136.959 740.112 134.27C742.01 131.58 741.367 127.86 738.675 125.961C735.984 124.062 732.264 124.703 730.366 127.393C728.469 130.083 729.112 133.803 731.803 135.701Z" fill="#CFBD9A"/>
<path d="M754.544 151.748C757.235 153.647 760.955 153.006 762.853 150.316C764.751 147.626 764.108 143.906 761.417 142.008C758.725 140.109 755.005 140.75 753.108 143.439C751.21 146.129 751.853 149.849 754.544 151.748Z" fill="#CFBD9A"/>
<path d="M777.29 167.797C779.981 169.696 783.701 169.055 785.599 166.366C787.497 163.676 786.854 159.956 784.163 158.057C781.472 156.158 777.752 156.799 775.854 159.489C773.956 162.179 774.599 165.899 777.29 167.797Z" fill="#CFBD9A"/>
<path d="M800.031 183.844C802.723 185.743 806.443 185.101 808.34 182.412C810.238 179.722 809.595 176.002 806.904 174.103C804.213 172.205 800.493 172.846 798.595 175.535C796.697 178.225 797.34 181.945 800.031 183.844Z" fill="#CFBD9A"/>
<path d="M822.773 199.89C825.464 201.789 829.184 201.148 831.082 198.458C832.979 195.768 832.336 192.049 829.645 190.15C826.954 188.251 823.234 188.892 821.336 191.581C819.438 194.271 820.081 197.991 822.773 199.89Z" fill="#CFBD9A"/>
<path d="M845.514 215.936C848.205 217.835 851.925 217.194 853.823 214.504C855.721 211.814 855.078 208.095 852.386 206.196C849.695 204.297 845.975 204.938 844.077 207.628C842.179 210.317 842.823 214.037 845.514 215.936Z" fill="#CFBD9A"/>
<path d="M636.169 102.267C638.86 104.166 642.58 103.525 644.478 100.835C646.376 98.1453 645.733 94.4256 643.042 92.5267C640.35 90.6278 636.63 91.2689 634.733 93.9586C632.835 96.6483 633.478 100.368 636.169 102.267Z" fill="#CFBD9A"/>
<path d="M658.91 118.313C661.601 120.212 665.321 119.571 667.219 116.881C669.117 114.191 668.474 110.472 665.783 108.573C663.092 106.674 659.372 107.315 657.474 110.005C655.576 112.694 656.219 116.414 658.91 118.313Z" fill="#CFBD9A"/>
<path d="M681.651 134.359C684.343 136.258 688.063 135.617 689.961 132.927C691.858 130.238 691.215 126.518 688.524 124.619C685.833 122.72 682.113 123.361 680.215 126.051C678.317 128.741 678.96 132.46 681.651 134.359Z" fill="#CFBD9A"/>
<path d="M704.398 150.409C707.089 152.308 710.809 151.667 712.707 148.977C714.604 146.287 713.961 142.568 711.27 140.669C708.579 138.77 704.859 139.411 702.961 142.101C701.063 144.79 701.706 148.51 704.398 150.409Z" fill="#CFBD9A"/>
<path d="M727.139 166.455C729.83 168.354 733.55 167.713 735.448 165.023C737.346 162.333 736.703 158.614 734.011 156.715C731.32 154.816 727.6 155.457 725.702 158.147C723.804 160.837 724.448 164.556 727.139 166.455Z" fill="#CFBD9A"/>
<path d="M749.88 182.501C752.571 184.4 756.291 183.759 758.189 181.069C760.087 178.38 759.444 174.66 756.753 172.761C754.061 170.862 750.341 171.503 748.444 174.193C746.546 176.883 747.189 180.602 749.88 182.501Z" fill="#CFBD9A"/>
<path d="M772.621 198.547C775.312 200.446 779.032 199.805 780.93 197.116C782.828 194.426 782.185 190.706 779.494 188.807C776.803 186.908 773.083 187.55 771.185 190.239C769.287 192.929 769.93 196.649 772.621 198.547Z" fill="#CFBD9A"/>
<path d="M795.362 214.594C798.054 216.493 801.774 215.851 803.671 213.162C805.569 210.472 804.926 206.752 802.235 204.853C799.544 202.955 795.824 203.596 793.926 206.285C792.028 208.975 792.671 212.695 795.362 214.594Z" fill="#CFBD9A"/>
<path d="M818.104 230.64C820.795 232.539 824.515 231.898 826.413 229.208C828.311 226.518 827.667 222.799 824.976 220.9C822.285 219.001 818.565 219.642 816.667 222.332C814.769 225.021 815.412 228.741 818.104 230.64Z" fill="#CFBD9A"/>
<path d="M840.85 246.69C843.541 248.588 847.261 247.947 849.159 245.258C851.057 242.568 850.414 238.848 847.722 236.949C845.031 235.051 841.311 235.692 839.413 238.381C837.515 241.071 838.159 244.791 840.85 246.69Z" fill="#CFBD9A"/>
<path d="M608.759 116.971C611.45 118.869 615.17 118.228 617.068 115.539C618.966 112.849 618.323 109.129 615.632 107.23C612.94 105.332 609.22 105.973 607.322 108.662C605.425 111.351 606.068 115.072 608.759 116.971Z" fill="#CFBD9A"/>
<path d="M631.505 133.021C634.196 134.919 637.917 134.278 639.814 131.589C641.712 128.899 641.069 125.179 638.378 123.28C635.686 121.381 631.966 122.023 630.069 124.712C628.171 127.401 628.814 131.122 631.505 133.021Z" fill="#CFBD9A"/>
<path d="M654.246 149.067C656.937 150.966 660.658 150.324 662.555 147.635C664.453 144.945 663.81 141.225 661.119 139.327C658.428 137.428 654.708 138.069 652.81 140.758C650.912 143.448 651.555 147.168 654.246 149.067Z" fill="#CFBD9A"/>
<path d="M676.987 165.113C679.679 167.012 683.399 166.37 685.296 163.681C687.194 160.991 686.551 157.272 683.86 155.373C681.169 153.474 677.449 154.115 675.551 156.805C673.653 159.494 674.296 163.214 676.987 165.113Z" fill="#CFBD9A"/>
<path d="M699.729 181.159C702.42 183.058 706.14 182.416 708.038 179.727C709.936 177.037 709.292 173.318 706.601 171.419C703.91 169.52 700.19 170.161 698.292 172.851C696.395 175.54 697.037 179.26 699.729 181.159Z" fill="#CFBD9A"/>
<path d="M722.47 197.205C725.161 199.104 728.881 198.462 730.779 195.773C732.677 193.083 732.034 189.364 729.342 187.465C726.651 185.566 722.931 186.207 721.033 188.897C719.136 191.586 719.779 195.306 722.47 197.205Z" fill="#CFBD9A"/>
<path d="M745.216 213.255C747.907 215.154 751.627 214.512 753.525 211.823C755.423 209.133 754.78 205.414 752.089 203.515C749.397 201.616 745.677 202.257 743.779 204.947C741.882 207.636 742.525 211.356 745.216 213.255Z" fill="#CFBD9A"/>
<path d="M767.957 229.301C770.648 231.2 774.369 230.558 776.266 227.869C778.164 225.179 777.521 221.46 774.83 219.561C772.139 217.662 768.419 218.303 766.521 220.993C764.623 223.682 765.266 227.402 767.957 229.301Z" fill="#CFBD9A"/>
<path d="M790.698 245.347C793.389 247.246 797.11 246.605 799.007 243.915C800.905 241.226 800.262 237.506 797.571 235.607C794.88 233.708 791.16 234.349 789.262 237.039C787.364 239.728 788.007 243.448 790.698 245.347Z" fill="#CFBD9A"/>
<path d="M813.44 261.393C816.131 263.292 819.851 262.651 821.749 259.962C823.646 257.272 823.003 253.552 820.312 251.653C817.621 249.754 813.901 250.395 812.003 253.085C810.106 255.774 810.748 259.494 813.44 261.393Z" fill="#CFBD9A"/>
<path d="M836.181 277.44C838.872 279.338 842.592 278.697 844.49 276.008C846.388 273.318 845.745 269.598 843.053 267.699C840.362 265.8 836.642 266.442 834.744 269.131C832.847 271.82 833.49 275.541 836.181 277.44Z" fill="#CFBD9A"/>
<path d="M558.612 115.632C561.304 117.531 565.024 116.89 566.921 114.2C568.819 111.51 568.176 107.791 565.485 105.892C562.794 103.993 559.074 104.634 557.176 107.324C555.278 110.013 555.921 113.733 558.612 115.632Z" fill="#CFBD9A"/>
<path d="M581.354 131.678C584.045 133.577 587.765 132.936 589.663 130.246C591.561 127.557 590.917 123.837 588.226 121.938C585.535 120.039 581.815 120.68 579.917 123.37C578.019 126.06 578.662 129.779 581.354 131.678Z" fill="#CFBD9A"/>
<path d="M604.095 147.724C606.786 149.623 610.506 148.982 612.404 146.292C614.302 143.603 613.659 139.883 610.967 137.984C608.276 136.085 604.556 136.726 602.658 139.416C600.761 142.106 601.404 145.825 604.095 147.724Z" fill="#CFBD9A"/>
<path d="M626.836 163.77C629.527 165.669 633.247 165.028 635.145 162.339C637.043 159.649 636.4 155.929 633.709 154.03C631.017 152.131 627.297 152.772 625.4 155.462C623.502 158.152 624.145 161.871 626.836 163.77Z" fill="#CFBD9A"/>
<path d="M649.576 179.817C652.267 181.715 655.987 181.074 657.885 178.385C659.783 175.695 659.14 171.975 656.449 170.076C653.758 168.177 650.038 168.819 648.14 171.508C646.242 174.198 646.885 177.918 649.576 179.817Z" fill="#CFBD9A"/>
<path d="M672.323 195.866C675.015 197.765 678.735 197.124 680.632 194.435C682.53 191.745 681.887 188.025 679.196 186.126C676.505 184.227 672.785 184.868 670.887 187.558C668.989 190.248 669.632 193.968 672.323 195.866Z" fill="#CFBD9A"/>
<path d="M695.065 211.913C697.756 213.811 701.476 213.17 703.374 210.481C705.271 207.791 704.628 204.071 701.937 202.172C699.246 200.274 695.526 200.915 693.628 203.604C691.73 206.294 692.373 210.014 695.065 211.913Z" fill="#CFBD9A"/>
<path d="M717.805 227.959C720.496 229.858 724.216 229.217 726.114 226.527C728.012 223.837 727.369 220.117 724.677 218.219C721.986 216.32 718.266 216.961 716.368 219.65C714.471 222.34 715.114 226.06 717.805 227.959Z" fill="#CFBD9A"/>
<path d="M740.546 244.005C743.237 245.904 746.957 245.263 748.855 242.573C750.753 239.883 750.11 236.164 747.419 234.265C744.727 232.366 741.007 233.007 739.11 235.697C737.212 238.386 737.855 242.106 740.546 244.005Z" fill="#CFBD9A"/>
<path d="M763.287 260.051C765.978 261.95 769.698 261.309 771.596 258.619C773.494 255.929 772.851 252.21 770.16 250.311C767.469 248.412 763.749 249.053 761.851 251.743C759.953 254.432 760.596 258.152 763.287 260.051Z" fill="#CFBD9A"/>
<path d="M786.028 276.097C788.72 277.996 792.44 277.355 794.337 274.665C796.235 271.976 795.592 268.256 792.901 266.357C790.21 264.458 786.49 265.099 784.592 267.789C782.694 270.479 783.337 274.198 786.028 276.097Z" fill="#CFBD9A"/>
<path d="M808.775 292.147C811.467 294.046 815.187 293.405 817.085 290.715C818.982 288.025 818.339 284.306 815.648 282.407C812.957 280.508 809.237 281.149 807.339 283.839C805.441 286.528 806.084 290.248 808.775 292.147Z" fill="#CFBD9A"/>
<path d="M831.516 308.193C834.207 310.092 837.927 309.451 839.825 306.761C841.723 304.072 841.08 300.352 838.388 298.453C835.697 296.554 831.977 297.195 830.079 299.885C828.181 302.575 828.825 306.294 831.516 308.193Z" fill="#CFBD9A"/>
<path d="M531.198 130.341C533.889 132.24 537.61 131.598 539.507 128.909C541.405 126.219 540.762 122.5 538.071 120.601C535.38 118.702 531.66 119.343 529.762 122.033C527.864 124.722 528.507 128.442 531.198 130.341Z" fill="#CFBD9A"/>
<path d="M553.939 146.387C556.63 148.286 560.35 147.644 562.248 144.955C564.145 142.265 563.502 138.546 560.811 136.647C558.12 134.748 554.4 135.389 552.502 138.079C550.605 140.768 551.247 144.488 553.939 146.387Z" fill="#CFBD9A"/>
<path d="M576.68 162.433C579.371 164.332 583.091 163.691 584.989 161.001C586.887 158.312 586.244 154.592 583.552 152.693C580.861 150.794 577.141 151.435 575.243 154.125C573.346 156.814 573.989 160.534 576.68 162.433Z" fill="#CFBD9A"/>
<path d="M599.427 178.483C602.118 180.382 605.838 179.74 607.736 177.051C609.634 174.361 608.991 170.642 606.299 168.743C603.608 166.844 599.888 167.485 597.99 170.175C596.093 172.864 596.736 176.584 599.427 178.483Z" fill="#CFBD9A"/>
<path d="M622.168 194.529C624.859 196.428 628.58 195.787 630.477 193.097C632.375 190.408 631.732 186.688 629.041 184.789C626.35 182.89 622.63 183.531 620.732 186.221C618.834 188.91 619.477 192.63 622.168 194.529Z" fill="#CFBD9A"/>
<path d="M644.908 210.575C647.599 212.474 651.32 211.833 653.217 209.144C655.115 206.454 654.472 202.734 651.781 200.835C649.09 198.936 645.37 199.577 643.472 202.267C641.574 204.956 642.217 208.677 644.908 210.575Z" fill="#CFBD9A"/>
<path d="M667.649 226.622C670.341 228.52 674.061 227.879 675.959 225.19C677.856 222.5 677.213 218.78 674.522 216.881C671.831 214.983 668.111 215.624 666.213 218.313C664.316 221.002 664.958 224.723 667.649 226.622Z" fill="#CFBD9A"/>
<path d="M690.391 242.668C693.082 244.567 696.802 243.925 698.7 241.236C700.598 238.546 699.955 234.826 697.263 232.928C694.572 231.029 690.852 231.67 688.954 234.359C687.057 237.049 687.7 240.769 690.391 242.668Z" fill="#CFBD9A"/>
<path d="M713.137 258.718C715.828 260.616 719.548 259.975 721.446 257.286C723.344 254.596 722.701 250.876 720.009 248.977C717.318 247.079 713.598 247.72 711.7 250.409C709.803 253.099 710.446 256.819 713.137 258.718Z" fill="#CFBD9A"/>
<path d="M735.878 274.764C738.569 276.663 742.29 276.021 744.187 273.332C746.085 270.642 745.442 266.922 742.751 265.024C740.059 263.125 736.339 263.766 734.442 266.455C732.544 269.145 733.187 272.865 735.878 274.764Z" fill="#CFBD9A"/>
<path d="M758.619 290.81C761.31 292.709 765.031 292.067 766.928 289.378C768.826 286.688 768.183 282.969 765.492 281.07C762.801 279.171 759.081 279.812 757.183 282.502C755.285 285.191 755.928 288.911 758.619 290.81Z" fill="#CFBD9A"/>
<path d="M781.36 306.856C784.052 308.755 787.772 308.113 789.67 305.424C791.567 302.734 790.924 299.015 788.233 297.116C785.542 295.217 781.822 295.858 779.924 298.548C778.027 301.237 778.669 304.957 781.36 306.856Z" fill="#CFBD9A"/>
<path d="M804.102 322.902C806.793 324.801 810.513 324.16 812.411 321.47C814.309 318.781 813.665 315.061 810.974 313.162C808.283 311.263 804.563 311.904 802.665 314.594C800.768 317.283 801.41 321.003 804.102 322.902Z" fill="#CFBD9A"/>
<path d="M826.843 338.948C829.534 340.847 833.254 340.205 835.152 337.516C837.05 334.826 836.407 331.107 833.715 329.208C831.024 327.309 827.304 327.95 825.406 330.64C823.509 333.329 824.152 337.049 826.843 338.948Z" fill="#CFBD9A"/>
<path d="M481.046 128.999C483.737 130.898 487.457 130.256 489.355 127.567C491.253 124.877 490.61 121.157 487.919 119.259C485.227 117.36 481.507 118.001 479.61 120.69C477.712 123.38 478.355 127.1 481.046 128.999Z" fill="#CFBD9A"/>
<path d="M503.793 145.048C506.484 146.947 510.204 146.306 512.102 143.617C514 140.927 513.357 137.207 510.666 135.308C507.975 133.409 504.255 134.05 502.357 136.74C500.459 139.43 501.102 143.15 503.793 145.048Z" fill="#CFBD9A"/>
<path d="M526.533 161.095C529.224 162.993 532.944 162.352 534.842 159.663C536.74 156.973 536.097 153.253 533.406 151.354C530.715 149.456 526.995 150.097 525.097 152.786C523.199 155.476 523.842 159.196 526.533 161.095Z" fill="#CFBD9A"/>
<path d="M549.274 177.141C551.966 179.04 555.686 178.399 557.584 175.709C559.481 173.019 558.838 169.3 556.147 167.401C553.456 165.502 549.736 166.143 547.838 168.832C545.94 171.522 546.583 175.242 549.274 177.141Z" fill="#CFBD9A"/>
<path d="M572.016 193.187C574.707 195.086 578.427 194.445 580.325 191.755C582.223 189.065 581.58 185.346 578.888 183.447C576.197 181.548 572.477 182.189 570.579 184.879C568.681 187.568 569.325 191.288 572.016 193.187Z" fill="#CFBD9A"/>
<path d="M594.757 209.233C597.448 211.132 601.168 210.491 603.066 207.801C604.964 205.111 604.321 201.392 601.63 199.493C598.938 197.594 595.218 198.235 593.321 200.925C591.423 203.614 592.066 207.334 594.757 209.233Z" fill="#CFBD9A"/>
<path d="M617.498 225.279C620.189 227.178 623.909 226.537 625.807 223.847C627.705 221.158 627.062 217.438 624.371 215.539C621.68 213.64 617.96 214.281 616.062 216.971C614.164 219.661 614.807 223.38 617.498 225.279Z" fill="#CFBD9A"/>
<path d="M640.244 241.329C642.935 243.228 646.655 242.587 648.553 239.897C650.451 237.207 649.808 233.488 647.117 231.589C644.426 229.69 640.706 230.331 638.808 233.021C636.91 235.71 637.553 239.43 640.244 241.329Z" fill="#CFBD9A"/>
<path d="M662.985 257.375C665.677 259.274 669.397 258.633 671.294 255.943C673.192 253.254 672.549 249.534 669.858 247.635C667.167 245.736 663.447 246.377 661.549 249.067C659.651 251.757 660.294 255.476 662.985 257.375Z" fill="#CFBD9A"/>
<path d="M685.727 273.421C688.418 275.32 692.138 274.679 694.036 271.989C695.934 269.3 695.29 265.58 692.599 263.681C689.908 261.782 686.188 262.423 684.29 265.113C682.392 267.803 683.035 271.522 685.727 273.421Z" fill="#CFBD9A"/>
<path d="M708.468 289.467C711.159 291.366 714.879 290.725 716.777 288.036C718.675 285.346 718.032 281.626 715.341 279.727C712.649 277.828 708.929 278.469 707.031 281.159C705.134 283.849 705.777 287.569 708.468 289.467Z" fill="#CFBD9A"/>
<path d="M731.209 305.514C733.9 307.413 737.62 306.772 739.518 304.082C741.416 301.392 740.773 297.672 738.082 295.774C735.391 293.875 731.671 294.516 729.773 297.205C727.875 299.895 728.518 303.615 731.209 305.514Z" fill="#CFBD9A"/>
<path d="M753.95 321.56C756.641 323.459 760.361 322.818 762.259 320.128C764.157 317.438 763.514 313.719 760.823 311.82C758.132 309.921 754.412 310.562 752.514 313.252C750.616 315.941 751.259 319.661 753.95 321.56Z" fill="#CFBD9A"/>
<path d="M776.696 337.61C779.388 339.509 783.108 338.868 785.005 336.178C786.903 333.488 786.26 329.768 783.569 327.87C780.878 325.971 777.158 326.612 775.26 329.301C773.362 331.991 774.005 335.711 776.696 337.61Z" fill="#CFBD9A"/>
<path d="M799.438 353.655C802.129 355.554 805.849 354.913 807.747 352.224C809.644 349.534 809.001 345.814 806.31 343.915C803.619 342.016 799.899 342.657 798.001 345.347C796.103 348.037 796.746 351.757 799.438 353.655Z" fill="#CFBD9A"/>
<path d="M822.179 369.702C824.87 371.6 828.59 370.959 830.488 368.27C832.386 365.58 831.743 361.86 829.051 359.961C826.36 358.062 822.64 358.704 820.742 361.393C818.845 364.083 819.488 367.803 822.179 369.702Z" fill="#CFBD9A"/>
<path d="M476.382 159.752C479.073 161.651 482.793 161.01 484.691 158.32C486.589 155.631 485.946 151.911 483.255 150.012C480.563 148.113 476.843 148.754 474.946 151.444C473.048 154.134 473.691 157.853 476.382 159.752Z" fill="#CFBD9A"/>
<path d="M499.123 175.798C501.814 177.697 505.534 177.056 507.432 174.366C509.33 171.677 508.687 167.957 505.996 166.058C503.304 164.159 499.585 164.8 497.687 167.49C495.789 170.18 496.432 173.899 499.123 175.798Z" fill="#CFBD9A"/>
<path d="M521.864 191.844C524.556 193.743 528.276 193.102 530.173 190.413C532.071 187.723 531.428 184.003 528.737 182.104C526.046 180.205 522.326 180.846 520.428 183.536C518.53 186.226 519.173 189.946 521.864 191.844Z" fill="#CFBD9A"/>
<path d="M544.606 207.891C547.297 209.79 551.017 209.149 552.915 206.459C554.812 203.769 554.169 200.05 551.478 198.151C548.787 196.252 545.067 196.893 543.169 199.582C541.271 202.272 541.914 205.992 544.606 207.891Z" fill="#CFBD9A"/>
<path d="M567.352 223.941C570.043 225.839 573.763 225.198 575.661 222.509C577.559 219.819 576.915 216.099 574.224 214.2C571.533 212.302 567.813 212.943 565.915 215.632C564.017 218.322 564.66 222.042 567.352 223.941Z" fill="#CFBD9A"/>
<path d="M590.093 239.987C592.784 241.886 596.504 241.244 598.402 238.555C600.3 235.865 599.657 232.145 596.965 230.246C594.274 228.348 590.554 228.989 588.656 231.678C586.759 234.368 587.402 238.088 590.093 239.987Z" fill="#CFBD9A"/>
<path d="M612.834 256.033C615.525 257.932 619.245 257.291 621.143 254.601C623.041 251.911 622.398 248.192 619.707 246.293C617.016 244.394 613.296 245.035 611.398 247.725C609.5 250.414 610.143 254.134 612.834 256.033Z" fill="#CFBD9A"/>
<path d="M635.575 272.079C638.266 273.978 641.986 273.337 643.884 270.647C645.782 267.957 645.139 264.238 642.448 262.339C639.757 260.44 636.037 261.081 634.139 263.771C632.241 266.46 632.884 270.18 635.575 272.079Z" fill="#CFBD9A"/>
<path d="M658.316 288.125C661.008 290.024 664.728 289.383 666.626 286.693C668.523 284.004 667.88 280.284 665.189 278.385C662.498 276.486 658.778 277.127 656.88 279.817C654.982 282.507 655.625 286.226 658.316 288.125Z" fill="#CFBD9A"/>
<path d="M681.063 304.175C683.754 306.074 687.474 305.433 689.372 302.743C691.269 300.053 690.626 296.334 687.935 294.435C685.244 292.536 681.524 293.177 679.626 295.867C677.728 298.556 678.371 302.276 681.063 304.175Z" fill="#CFBD9A"/>
<path d="M703.804 320.221C706.495 322.12 710.215 321.479 712.113 318.789C714.011 316.1 713.368 312.38 710.676 310.481C707.985 308.582 704.265 309.223 702.367 311.913C700.47 314.603 701.113 318.322 703.804 320.221Z" fill="#CFBD9A"/>
<path d="M726.545 336.267C729.236 338.166 732.956 337.525 734.854 334.835C736.752 332.146 736.109 328.426 733.418 326.527C730.726 324.628 727.006 325.269 725.109 327.959C723.211 330.649 723.854 334.368 726.545 336.267Z" fill="#CFBD9A"/>
<path d="M749.285 352.313C751.976 354.212 755.696 353.571 757.594 350.881C759.492 348.191 758.849 344.472 756.158 342.573C753.467 340.674 749.747 341.315 747.849 344.005C745.951 346.694 746.594 350.414 749.285 352.313Z" fill="#CFBD9A"/>
<path d="M772.026 368.359C774.718 370.258 778.438 369.617 780.335 366.927C782.233 364.238 781.59 360.518 778.899 358.619C776.208 356.72 772.488 357.361 770.59 360.051C768.692 362.741 769.335 366.46 772.026 368.359Z" fill="#CFBD9A"/>
<path d="M794.768 384.405C797.459 386.304 801.179 385.663 803.077 382.974C804.975 380.284 804.331 376.564 801.64 374.665C798.949 372.766 795.229 373.407 793.331 376.097C791.433 378.787 792.076 382.506 794.768 384.405Z" fill="#CFBD9A"/>
<path d="M494.459 206.552C497.15 208.451 500.871 207.809 502.768 205.12C504.666 202.43 504.023 198.711 501.332 196.812C498.641 194.913 494.921 195.554 493.023 198.244C491.125 200.933 491.768 204.653 494.459 206.552Z" fill="#CFBD9A"/>
<path d="M517.2 222.598C519.891 224.497 523.612 223.855 525.509 221.166C527.407 218.477 526.764 214.757 524.073 212.858C521.382 210.959 517.662 211.6 515.764 214.29C513.866 216.979 514.509 220.699 517.2 222.598Z" fill="#CFBD9A"/>
<path d="M539.941 238.644C542.633 240.543 546.353 239.902 548.251 237.212C550.148 234.523 549.505 230.803 546.814 228.904C544.123 227.005 540.403 227.646 538.505 230.336C536.608 233.025 537.25 236.745 539.941 238.644Z" fill="#CFBD9A"/>
<path d="M562.682 254.69C565.373 256.589 569.093 255.948 570.991 253.259C572.889 250.569 572.246 246.849 569.554 244.95C566.863 243.051 563.143 243.692 561.245 246.382C559.348 249.071 559.991 252.792 562.682 254.69Z" fill="#CFBD9A"/>
<path d="M585.423 270.737C588.114 272.636 591.834 271.994 593.732 269.305C595.63 266.615 594.987 262.895 592.296 260.996C589.604 259.098 585.884 259.739 583.987 262.428C582.089 265.118 582.732 268.838 585.423 270.737Z" fill="#CFBD9A"/>
<path d="M608.17 286.787C610.861 288.685 614.582 288.044 616.479 285.355C618.377 282.665 617.734 278.945 615.043 277.046C612.351 275.147 608.631 275.789 606.734 278.478C604.836 281.167 605.479 284.888 608.17 286.787Z" fill="#CFBD9A"/>
<path d="M630.91 302.833C633.601 304.732 637.322 304.09 639.219 301.401C641.117 298.711 640.474 294.991 637.783 293.092C635.092 291.194 631.372 291.835 629.474 294.524C627.576 297.214 628.219 300.934 630.91 302.833Z" fill="#CFBD9A"/>
<path d="M653.651 318.879C656.343 320.778 660.063 320.136 661.96 317.447C663.858 314.757 663.215 311.038 660.524 309.139C657.833 307.24 654.113 307.881 652.215 310.571C650.318 313.26 650.96 316.98 653.651 318.879Z" fill="#CFBD9A"/>
<path d="M676.393 334.925C679.084 336.824 682.804 336.182 684.702 333.493C686.6 330.803 685.957 327.084 683.265 325.185C680.574 323.286 676.854 323.927 674.956 326.617C673.059 329.306 673.701 333.026 676.393 334.925Z" fill="#CFBD9A"/>
<path d="M699.134 350.971C701.825 352.87 705.545 352.228 707.443 349.539C709.341 346.85 708.698 343.13 706.007 341.231C703.315 339.332 699.595 339.973 697.697 342.663C695.8 345.352 696.443 349.072 699.134 350.971Z" fill="#CFBD9A"/>
<path d="M721.875 367.017C724.566 368.916 728.287 368.274 730.184 365.585C732.082 362.895 731.439 359.176 728.748 357.277C726.057 355.378 722.337 356.019 720.439 358.709C718.541 361.398 719.184 365.118 721.875 367.017Z" fill="#CFBD9A"/>
<path d="M744.621 383.067C747.312 384.966 751.033 384.324 752.93 381.635C754.828 378.945 754.185 375.225 751.494 373.327C748.803 371.428 745.083 372.069 743.185 374.758C741.287 377.448 741.93 381.168 744.621 383.067Z" fill="#CFBD9A"/>
<path d="M489.789 237.302C492.48 239.201 496.201 238.559 498.098 235.87C499.996 233.18 499.353 229.461 496.662 227.562C493.971 225.663 490.251 226.304 488.353 228.994C486.455 231.683 487.098 235.403 489.789 237.302Z" fill="#CFBD9A"/>
<path d="M512.53 253.348C515.222 255.247 518.942 254.605 520.839 251.916C522.737 249.227 522.094 245.507 519.403 243.608C516.712 241.709 512.992 242.35 511.094 245.04C509.196 247.729 509.839 251.449 512.53 253.348Z" fill="#CFBD9A"/>
<path d="M535.276 269.398C537.968 271.297 541.688 270.655 543.586 267.966C545.483 265.276 544.84 261.557 542.149 259.658C539.458 257.759 535.738 258.4 533.84 261.09C531.943 263.779 532.585 267.499 535.276 269.398Z" fill="#CFBD9A"/>
<path d="M558.018 285.444C560.709 287.343 564.429 286.701 566.327 284.012C568.225 281.323 567.581 277.603 564.89 275.704C562.199 273.805 558.479 274.446 556.581 277.136C554.684 279.825 555.326 283.545 558.018 285.444Z" fill="#CFBD9A"/>
<path d="M580.759 301.49C583.45 303.389 587.17 302.748 589.068 300.058C590.966 297.369 590.323 293.649 587.632 291.75C584.94 289.851 581.22 290.492 579.322 293.182C577.425 295.871 578.068 299.591 580.759 301.49Z" fill="#CFBD9A"/>
<path d="M603.5 317.536C606.191 319.435 609.912 318.794 611.809 316.104C613.707 313.415 613.064 309.695 610.373 307.796C607.682 305.897 603.962 306.538 602.064 309.228C600.166 311.917 600.809 315.637 603.5 317.536Z" fill="#CFBD9A"/>
<path d="M626.241 333.583C628.932 335.482 632.653 334.84 634.55 332.151C636.448 329.461 635.805 325.741 633.114 323.842C630.423 321.944 626.703 322.585 624.805 325.274C622.907 327.964 623.55 331.684 626.241 333.583Z" fill="#CFBD9A"/>
<path d="M648.987 349.632C651.679 351.531 655.399 350.89 657.296 348.201C659.194 345.511 658.551 341.791 655.86 339.892C653.169 337.993 649.449 338.634 647.551 341.324C645.653 344.013 646.296 347.734 648.987 349.632Z" fill="#CFBD9A"/>
<path d="M671.729 365.678C674.42 367.577 678.14 366.935 680.038 364.246C681.936 361.557 681.292 357.837 678.601 355.938C675.91 354.039 672.19 354.68 670.292 357.37C668.395 360.059 669.037 363.779 671.729 365.678Z" fill="#CFBD9A"/>
<path d="M694.47 381.724C697.161 383.623 700.881 382.982 702.779 380.292C704.677 377.603 704.034 373.883 701.342 371.984C698.651 370.085 694.931 370.726 693.033 373.416C691.136 376.105 691.779 379.825 694.47 381.724Z" fill="#CFBD9A"/>
<path d="M717.211 397.771C719.902 399.669 723.623 399.028 725.52 396.339C727.418 393.649 726.775 389.929 724.084 388.03C721.393 386.131 717.672 386.773 715.775 389.462C713.877 392.151 714.52 395.872 717.211 397.771Z" fill="#CFBD9A"/>
<path d="M507.866 284.102C510.557 286.001 514.277 285.36 516.175 282.67C518.073 279.98 517.43 276.261 514.739 274.362C512.048 272.463 508.328 273.104 506.43 275.794C504.532 278.483 505.175 282.203 507.866 284.102Z" fill="#CFBD9A"/>
<path d="M530.608 300.148C533.299 302.047 537.019 301.406 538.917 298.716C540.814 296.026 540.171 292.307 537.48 290.408C534.789 288.509 531.069 289.15 529.171 291.84C527.273 294.529 527.916 298.249 530.608 300.148Z" fill="#CFBD9A"/>
<path d="M553.349 316.194C556.04 318.093 559.76 317.452 561.658 314.762C563.556 312.073 562.913 308.353 560.221 306.454C557.53 304.555 553.81 305.196 551.912 307.886C550.014 310.576 550.658 314.295 553.349 316.194Z" fill="#CFBD9A"/>
<path d="M576.095 332.244C578.786 334.143 582.506 333.502 584.404 330.812C586.302 328.122 585.659 324.403 582.967 322.504C580.276 320.605 576.556 321.246 574.658 323.936C572.761 326.625 573.404 330.345 576.095 332.244Z" fill="#CFBD9A"/>
<path d="M598.836 348.29C601.527 350.189 605.247 349.548 607.145 346.858C609.043 344.168 608.4 340.449 605.709 338.55C603.017 336.651 599.297 337.292 597.4 339.982C595.502 342.671 596.145 346.391 598.836 348.29Z" fill="#CFBD9A"/>
<path d="M621.577 364.336C624.268 366.235 627.988 365.594 629.886 362.904C631.784 360.215 631.141 356.495 628.45 354.596C625.759 352.697 622.039 353.338 620.141 356.028C618.243 358.718 618.886 362.437 621.577 364.336Z" fill="#CFBD9A"/>
<path d="M644.317 380.382C647.009 382.281 650.729 381.64 652.627 378.95C654.524 376.26 653.881 372.541 651.19 370.642C648.499 368.743 644.779 369.384 642.881 372.074C640.983 374.763 641.626 378.483 644.317 380.382Z" fill="#CFBD9A"/>
<path d="M667.059 396.428C669.75 398.327 673.47 397.686 675.368 394.996C677.266 392.307 676.622 388.587 673.931 386.688C671.24 384.789 667.52 385.43 665.622 388.12C663.724 390.81 664.367 394.529 667.059 396.428Z" fill="#CFBD9A"/>
<path d="M503.198 314.861C505.889 316.76 509.61 316.118 511.507 313.429C513.405 310.739 512.762 307.019 510.071 305.12C507.38 303.222 503.66 303.863 501.762 306.552C499.864 309.242 500.507 312.962 503.198 314.861Z" fill="#CFBD9A"/>
<path d="M525.94 330.907C528.631 332.806 532.351 332.165 534.249 329.475C536.146 326.785 535.503 323.065 532.812 321.167C530.121 319.268 526.401 319.909 524.503 322.598C522.605 325.288 523.248 329.008 525.94 330.907Z" fill="#CFBD9A"/>
<path d="M548.681 346.953C551.372 348.852 555.092 348.211 556.99 345.521C558.888 342.831 558.245 339.112 555.553 337.213C552.862 335.314 549.142 335.955 547.244 338.645C545.346 341.334 545.99 345.054 548.681 346.953Z" fill="#CFBD9A"/>
<path d="M571.422 362.999C574.113 364.898 577.833 364.257 579.731 361.567C581.629 358.877 580.986 355.158 578.295 353.259C575.603 351.36 571.883 352.001 569.986 354.691C568.088 357.381 568.731 361.1 571.422 362.999Z" fill="#CFBD9A"/>
<path d="M594.162 379.045C596.853 380.944 600.573 380.303 602.471 377.613C604.369 374.923 603.726 371.204 601.035 369.305C598.344 367.406 594.624 368.047 592.726 370.737C590.828 373.426 591.471 377.146 594.162 379.045Z" fill="#CFBD9A"/>
<path d="M616.909 395.095C619.6 396.994 623.32 396.352 625.218 393.663C627.116 390.973 626.473 387.253 623.782 385.354C621.091 383.456 617.371 384.097 615.473 386.786C613.575 389.476 614.218 393.196 616.909 395.095Z" fill="#CFBD9A"/>
<path d="M639.65 411.141C642.342 413.04 646.062 412.399 647.96 409.709C649.857 407.019 649.214 403.3 646.523 401.401C643.832 399.502 640.112 400.143 638.214 402.832C636.316 405.522 636.959 409.242 639.65 411.141Z" fill="#CFBD9A"/>
<path d="M521.27 361.657C523.961 363.556 527.681 362.914 529.579 360.225C531.477 357.535 530.833 353.816 528.142 351.917C525.451 350.018 521.731 350.659 519.833 353.349C517.936 356.038 518.578 359.758 521.27 361.657Z" fill="#CFBD9A"/>
<path d="M544.017 377.707C546.708 379.605 550.428 378.964 552.326 376.275C554.224 373.585 553.581 369.865 550.889 367.966C548.198 366.068 544.478 366.709 542.58 369.398C540.683 372.088 541.325 375.808 544.017 377.707Z" fill="#CFBD9A"/>
<path d="M566.757 393.752C569.448 395.651 573.168 395.01 575.066 392.32C576.964 389.631 576.321 385.911 573.63 384.012C570.938 382.113 567.218 382.754 565.321 385.444C563.423 388.133 564.066 391.853 566.757 393.752Z" fill="#CFBD9A"/>
<path d="M589.498 409.798C592.189 411.697 595.91 411.056 597.807 408.367C599.705 405.677 599.062 401.957 596.371 400.058C593.68 398.159 589.96 398.8 588.062 401.49C586.164 404.179 586.807 407.9 589.498 409.798Z" fill="#CFBD9A"/>
<path d="M516.606 392.41C519.297 394.309 523.017 393.668 524.915 390.978C526.812 388.288 526.169 384.569 523.478 382.67C520.787 380.771 517.067 381.412 515.169 384.102C513.271 386.791 513.914 390.511 516.606 392.41Z" fill="#CFBD9A"/>
<path d="M539.347 408.456C542.038 410.355 545.758 409.714 547.656 407.024C549.554 404.335 548.911 400.615 546.219 398.716C543.528 396.817 539.808 397.458 537.91 400.148C536.012 402.838 536.656 406.557 539.347 408.456Z" fill="#CFBD9A"/>
<path d="M562.088 424.502C564.779 426.401 568.499 425.76 570.397 423.07C572.295 420.381 571.652 416.661 568.961 414.762C566.269 412.863 562.549 413.504 560.652 416.194C558.754 418.884 559.397 422.603 562.088 424.502Z" fill="#CFBD9A"/>
</mask>
<g mask="url(#mask1_581_19906)">
<path d="M836.206 129.694C850.77 129.854 862.115 142.381 860.835 156.891L844.3 344.23C843.303 355.528 834.826 364.739 823.65 366.668L564.718 411.361C551.112 413.71 538.179 404.584 535.83 390.978L495.181 155.478C492.525 140.087 504.474 126.056 520.091 126.227L836.206 129.694Z" fill="#24364C"/>
</g>
</svg>
