<svg width="188" height="441" viewBox="0 0 188 441" fill="none" xmlns="http://www.w3.org/2000/svg">
<mask id="mask0_550_29514" style="mask-type:alpha" maskUnits="userSpaceOnUse" x="0" y="0" width="188" height="441">
<rect x="2.28882e-05" y="441" width="441" height="188" transform="rotate(-90 2.28882e-05 441)" fill="#FFFBFB"/>
</mask>
<g mask="url(#mask0_550_29514)">
<path d="M-142.34 22.6531C-134.993 -4.0897 -107.285 -19.744 -80.5872 -12.2346L148.529 52.2108C171.059 58.548 186.179 79.6654 184.918 103.035L169.995 379.758C168.508 407.332 144.95 428.48 117.375 426.993L-186.043 410.63C-217.893 408.913 -240.013 378.215 -231.564 347.458L-142.34 22.6531Z" fill="#F4F4F4"/>
<mask id="mask1_550_29514" style="mask-type:alpha" maskUnits="userSpaceOnUse" x="-149" y="39" width="338" height="394">
<path d="M0.49208 62.8497C2.29721 60.0948 1.52847 56.3991 -1.22499 54.5949C-3.97844 52.7908 -7.67376 53.5615 -9.47889 56.3165C-11.284 59.0714 -10.5153 62.7672 -7.76181 64.5713C-5.00836 66.3755 -1.31305 65.6047 0.49208 62.8497Z" fill="#CFBD9A"/>
<path d="M0.877066 113.018C2.68219 110.263 1.9129 106.567 -0.840018 104.763C-3.59347 102.959 -7.28878 103.729 -9.09391 106.484C-10.899 109.239 -10.1303 112.935 -7.37684 114.739C-4.62392 116.543 -0.92806 115.773 0.877066 113.018Z" fill="#CFBD9A"/>
<path d="M16.1308 89.7384C17.936 86.9834 17.1667 83.2873 14.4138 81.4836C11.6603 79.6794 7.96499 80.4502 6.15987 83.2051C4.35474 85.9601 5.12346 89.6558 7.87691 91.46C10.6298 93.2638 14.3257 92.4933 16.1308 89.7384Z" fill="#CFBD9A"/>
<path d="M31.3846 66.4572C33.1897 63.7022 32.4204 60.0061 29.6675 58.2023C26.914 56.3982 23.2187 57.169 21.4136 59.9239C19.6085 62.6789 20.3772 66.3746 23.1307 68.1787C25.8836 69.9825 29.5794 69.2121 31.3846 66.4572Z" fill="#CFBD9A"/>
<path d="M1.26203 163.186C3.06716 160.431 2.29842 156.735 -0.455036 154.931C-3.20849 153.127 -6.9038 153.897 -8.70893 156.652C-10.5141 159.407 -9.74532 163.103 -6.99187 164.907C-4.23841 166.711 -0.543093 165.941 1.26203 163.186Z" fill="#CFBD9A"/>
<path d="M16.5158 139.906C18.3209 137.151 17.5522 133.456 14.7987 131.652C12.0453 129.847 8.34995 130.618 6.54482 133.373C4.7397 136.128 5.50844 139.824 8.26189 141.628C11.0153 143.432 14.7107 142.661 16.5158 139.906Z" fill="#CFBD9A"/>
<path d="M31.7695 116.625C33.5747 113.87 32.8059 110.174 30.0525 108.37C27.299 106.566 23.6037 107.337 21.7986 110.092C19.9934 112.847 20.7622 116.543 23.5156 118.347C26.2691 120.151 29.9644 119.38 31.7695 116.625Z" fill="#CFBD9A"/>
<path d="M47.0268 93.34C48.8319 90.585 48.0631 86.8893 45.3097 85.0851C42.5562 83.281 38.8609 84.0518 37.0558 86.8067C35.2507 89.5617 36.0194 93.2574 38.7729 95.0615C41.5263 96.8657 45.2216 96.0949 47.0268 93.34Z" fill="#CFBD9A"/>
<path d="M62.2806 70.0607C64.0857 67.3057 63.317 63.61 60.5635 61.8059C57.81 60.0017 54.1147 60.7725 52.3096 63.5274C50.5045 66.2824 51.2732 69.9781 54.0267 71.7823C56.7801 73.5864 60.4754 72.8156 62.2806 70.0607Z" fill="#CFBD9A"/>
<path d="M1.65234 213.358C3.45747 210.603 2.68818 206.907 -0.0647423 205.103C-2.8182 203.299 -6.51351 204.069 -8.31863 206.824C-10.1238 209.579 -9.35502 213.275 -6.60156 215.079C-3.84864 216.883 -0.152784 216.113 1.65234 213.358Z" fill="#CFBD9A"/>
<path d="M16.9096 190.072C18.7147 187.317 17.9455 183.621 15.1925 181.818C12.4391 180.013 8.74377 180.784 6.93865 183.539C5.13352 186.294 5.90226 189.99 8.65571 191.794C11.4086 193.598 15.1045 192.827 16.9096 190.072Z" fill="#CFBD9A"/>
<path d="M32.1634 166.793C33.9685 164.038 33.1992 160.342 30.4463 158.538C27.6928 156.734 23.9975 157.505 22.1924 160.26C20.3873 163.015 21.156 166.711 23.9095 168.515C26.6624 170.318 30.3582 169.548 32.1634 166.793Z" fill="#CFBD9A"/>
<path d="M47.4171 143.512C49.2222 140.757 48.453 137.061 45.7 135.257C42.9466 133.453 39.2513 134.224 37.4461 136.979C35.641 139.734 36.4098 143.429 39.1632 145.233C41.9161 147.037 45.612 146.267 47.4171 143.512Z" fill="#CFBD9A"/>
<path d="M62.6709 120.233C64.476 117.478 63.7067 113.781 60.9538 111.978C58.2004 110.174 54.505 110.944 52.6999 113.699C50.8948 116.454 51.6635 120.15 54.417 121.954C57.1699 123.758 60.8658 122.987 62.6709 120.233Z" fill="#CFBD9A"/>
<path d="M77.9246 96.9513C79.7298 94.1964 78.9605 90.5003 76.2076 88.6965C73.4541 86.8923 69.7588 87.6631 67.9537 90.418C66.1485 93.173 66.9173 96.8687 69.6707 98.6729C72.4237 100.477 76.1195 99.7063 77.9246 96.9513Z" fill="#CFBD9A"/>
<path d="M93.1782 73.672C94.9834 70.9171 94.2141 67.221 91.4612 65.4172C88.7077 63.613 85.0124 64.3838 83.2073 67.1388C81.4021 69.8937 82.1709 73.5894 84.9243 75.3936C87.6773 77.1974 91.3731 76.427 93.1782 73.672Z" fill="#CFBD9A"/>
<path d="M2.04078 263.52C3.8459 260.765 3.07716 257.069 0.323709 255.265C-2.42975 253.461 -6.12506 254.231 -7.93018 256.986C-9.73531 259.741 -8.96657 263.437 -6.21311 265.241C-3.45966 267.045 0.235651 266.275 2.04078 263.52Z" fill="#CFBD9A"/>
<path d="M17.2945 240.24C19.0997 237.485 18.3309 233.79 15.5775 231.986C12.824 230.181 9.1287 230.952 7.32357 233.707C5.51844 236.462 6.28719 240.158 9.04064 241.962C11.7941 243.766 15.4894 242.995 17.2945 240.24Z" fill="#CFBD9A"/>
<path d="M32.5483 216.961C34.3534 214.206 33.5847 210.51 30.8312 208.706C28.0778 206.902 24.3825 207.673 22.5773 210.428C20.7722 213.183 21.5409 216.879 24.2944 218.683C27.0478 220.487 30.7432 219.716 32.5483 216.961Z" fill="#CFBD9A"/>
<path d="M47.802 193.68C49.6072 190.925 48.8384 187.229 46.085 185.425C43.3315 183.621 39.6362 184.392 37.8311 187.147C36.026 189.902 36.7947 193.597 39.5481 195.401C42.3016 197.206 45.9969 196.435 47.802 193.68Z" fill="#CFBD9A"/>
<path d="M63.0558 170.401C64.8609 167.646 64.0922 163.95 61.3387 162.146C58.5853 160.342 54.89 161.112 53.0848 163.867C51.2797 166.622 52.0484 170.318 54.8019 172.122C57.5554 173.926 61.2507 173.155 63.0558 170.401Z" fill="#CFBD9A"/>
<path d="M78.3095 147.121C80.1147 144.366 79.346 140.671 76.5925 138.866C73.839 137.062 70.1437 137.833 68.3386 140.588C66.5335 143.343 67.3022 147.039 70.0557 148.843C72.8091 150.647 76.5044 149.876 78.3095 147.121Z" fill="#CFBD9A"/>
<path d="M93.5668 123.834C95.372 121.079 94.6032 117.383 91.8498 115.579C89.0963 113.775 85.401 114.546 83.5959 117.301C81.7907 120.056 82.5595 123.752 85.3129 125.556C88.0664 127.36 91.7617 126.589 93.5668 123.834Z" fill="#CFBD9A"/>
<path d="M108.82 100.555C110.626 97.7999 109.857 94.1041 107.103 92.3C104.35 90.4958 100.655 91.2666 98.8495 94.0216C97.0444 96.7765 97.8131 100.472 100.567 102.276C103.32 104.081 107.015 103.31 108.82 100.555Z" fill="#CFBD9A"/>
<path d="M124.074 77.2755C125.879 74.5206 125.111 70.8248 122.357 69.0207C119.604 67.2166 115.908 67.9873 114.103 70.7423C112.298 73.4972 113.067 77.193 115.82 78.9971C118.574 80.8012 122.269 80.0305 124.074 77.2755Z" fill="#CFBD9A"/>
<path d="M2.42578 313.69C4.23091 310.935 3.46217 307.239 0.708711 305.435C-2.04474 303.631 -5.74005 304.401 -7.54518 307.156C-9.35031 309.911 -8.58157 313.607 -5.82811 315.411C-3.07466 317.215 0.620653 316.445 2.42578 313.69Z" fill="#CFBD9A"/>
<path d="M17.6795 290.408C19.4847 287.653 18.7159 283.958 15.9625 282.153C13.209 280.349 9.5137 281.12 7.70857 283.875C5.90344 286.63 6.67217 290.326 9.42563 292.13C12.1791 293.934 15.8744 293.163 17.6795 290.408Z" fill="#CFBD9A"/>
<path d="M32.9333 267.129C34.7384 264.374 33.9697 260.678 31.2162 258.874C28.4627 257.07 24.7674 257.841 22.9623 260.596C21.1572 263.351 21.9259 267.046 24.6794 268.851C27.4328 270.655 31.1281 269.884 32.9333 267.129Z" fill="#CFBD9A"/>
<path d="M48.1871 243.848C49.9922 241.093 49.2235 237.397 46.47 235.593C43.7166 233.789 40.0212 234.56 38.2161 237.315C36.411 240.069 37.1797 243.765 39.9332 245.569C42.6866 247.374 46.382 246.603 48.1871 243.848Z" fill="#CFBD9A"/>
<path d="M63.4443 220.563C65.2494 217.808 64.4807 214.112 61.7272 212.308C58.9738 210.504 55.2785 211.274 53.4733 214.029C51.6682 216.784 52.437 220.48 55.1904 222.284C57.9439 224.088 61.6392 223.318 63.4443 220.563Z" fill="#CFBD9A"/>
<path d="M78.6981 197.283C80.5032 194.528 79.7344 190.833 76.981 189.029C74.2275 187.224 70.5322 187.995 68.7271 190.75C66.922 193.505 67.6907 197.201 70.4442 199.005C73.1976 200.809 76.8929 200.038 78.6981 197.283Z" fill="#CFBD9A"/>
<path d="M93.9518 174.004C95.7569 171.249 94.9882 167.553 92.2347 165.749C89.4813 163.945 85.786 164.716 83.9808 167.471C82.1757 170.226 82.9445 173.921 85.6979 175.726C88.4514 177.53 92.1467 176.759 93.9518 174.004Z" fill="#CFBD9A"/>
<path d="M109.205 150.723C111.011 147.968 110.242 144.272 107.488 142.468C104.735 140.664 101.04 141.435 99.2345 144.19C97.4293 146.944 98.1981 150.64 100.952 152.444C103.705 154.249 107.4 153.478 109.205 150.723Z" fill="#CFBD9A"/>
<path d="M124.459 127.443C126.264 124.689 125.496 120.993 122.742 119.189C119.989 117.385 116.293 118.155 114.488 120.91C112.683 123.665 113.452 127.361 116.205 129.165C118.959 130.969 122.654 130.198 124.459 127.443Z" fill="#CFBD9A"/>
<path d="M139.713 104.164C141.518 101.409 140.749 97.7135 137.996 95.9094C135.242 94.1052 131.547 94.876 129.742 97.6309C127.937 100.386 128.706 104.082 131.459 105.886C134.213 107.69 137.908 106.919 139.713 104.164Z" fill="#CFBD9A"/>
<path d="M2.81077 363.858C4.6159 361.103 3.84661 357.407 1.09369 355.603C-1.65977 353.799 -5.35507 354.569 -7.1602 357.324C-8.96533 360.079 -8.19659 363.775 -5.44313 365.579C-2.69021 367.383 1.00565 366.613 2.81077 363.858Z" fill="#CFBD9A"/>
<path d="M18.0645 340.576C19.8696 337.821 19.1004 334.125 16.3474 332.321C13.594 330.517 9.89867 331.288 8.09354 334.043C6.28842 336.798 7.05715 340.494 9.81061 342.298C12.5635 344.102 16.2594 343.331 18.0645 340.576Z" fill="#CFBD9A"/>
<path d="M33.3183 317.297C35.1234 314.542 34.3541 310.846 31.6012 309.042C28.8477 307.238 25.1524 308.009 23.3473 310.764C21.5422 313.519 22.3109 317.214 25.0644 319.019C27.8173 320.822 31.5131 320.052 33.3183 317.297Z" fill="#CFBD9A"/>
<path d="M48.5755 294.012C50.3807 291.257 49.6114 287.561 46.8585 285.757C44.105 283.953 40.4097 284.724 38.6046 287.479C36.7994 290.234 37.5682 293.929 40.3216 295.733C43.0746 297.537 46.7704 296.767 48.5755 294.012Z" fill="#CFBD9A"/>
<path d="M63.8293 270.733C65.6344 267.978 64.8651 264.282 62.1122 262.478C59.3588 260.674 55.6634 261.444 53.8583 264.199C52.0532 266.954 52.8219 270.65 55.5754 272.454C58.3283 274.258 62.0242 273.488 63.8293 270.733Z" fill="#CFBD9A"/>
<path d="M79.083 247.451C80.8882 244.696 80.1189 241 77.366 239.196C74.6125 237.392 70.9172 238.163 69.1121 240.918C67.3069 243.673 68.0757 247.369 70.8291 249.173C73.5821 250.977 77.2779 250.206 79.083 247.451Z" fill="#CFBD9A"/>
<path d="M94.3368 224.172C96.1419 221.417 95.3726 217.721 92.6197 215.917C89.8662 214.113 86.1709 214.884 84.3658 217.639C82.5607 220.394 83.3294 224.089 86.0828 225.894C88.8358 227.697 92.5316 226.927 94.3368 224.172Z" fill="#CFBD9A"/>
<path d="M109.591 200.891C111.396 198.136 110.626 194.44 107.873 192.636C105.12 190.832 101.425 191.603 99.6196 194.358C97.8145 197.112 98.5832 200.808 101.337 202.612C104.09 204.416 107.785 203.646 109.591 200.891Z" fill="#CFBD9A"/>
<path d="M124.844 177.611C126.649 174.857 125.88 171.16 123.127 169.357C120.374 167.552 116.678 168.323 114.873 171.078C113.068 173.833 113.837 177.529 116.59 179.333C119.343 181.137 123.039 180.366 124.844 177.611Z" fill="#CFBD9A"/>
<path d="M140.101 154.326C141.907 151.571 141.137 147.875 138.384 146.071C135.631 144.267 131.936 145.038 130.13 147.793C128.325 150.548 129.094 154.244 131.848 156.048C134.6 157.852 138.296 157.081 140.101 154.326Z" fill="#CFBD9A"/>
<path d="M3.19574 414.026C5.00086 411.271 4.23159 407.574 1.47867 405.771C-1.27479 403.967 -4.9701 404.737 -6.77522 407.492C-8.58035 410.247 -7.81162 413.943 -5.05816 415.747C-2.30524 417.551 1.39061 416.78 3.19574 414.026Z" fill="#CFBD9A"/>
<path d="M18.4496 390.746C20.2547 387.991 19.4854 384.295 16.7325 382.491C13.979 380.687 10.2837 381.458 8.47859 384.213C6.67347 386.968 7.44221 390.664 10.1957 392.468C12.9486 394.272 16.6444 393.501 18.4496 390.746Z" fill="#CFBD9A"/>
<path d="M33.7067 367.459C35.5118 364.704 34.7426 361.008 31.9896 359.204C29.2362 357.4 25.5409 358.171 23.7357 360.926C21.9306 363.681 22.6994 367.377 25.4528 369.181C28.2057 370.984 31.9016 370.214 33.7067 367.459Z" fill="#CFBD9A"/>
<path d="M48.9605 344.18C50.7656 341.425 49.9964 337.729 47.2434 335.925C44.49 334.121 40.7947 334.892 38.9896 337.647C37.1844 340.402 37.9532 344.097 40.7066 345.901C43.4595 347.705 47.1554 346.935 48.9605 344.18Z" fill="#CFBD9A"/>
<path d="M64.2142 320.901C66.0193 318.146 65.2501 314.449 62.4972 312.646C59.7437 310.842 56.0484 311.612 54.2433 314.367C52.4381 317.122 53.2069 320.818 55.9603 322.622C58.7132 324.426 62.4091 323.655 64.2142 320.901Z" fill="#CFBD9A"/>
<path d="M79.468 297.619C81.2731 294.864 80.5038 291.168 77.7509 289.364C74.9974 287.56 71.3021 288.331 69.497 291.086C67.6919 293.841 68.4606 297.537 71.2141 299.341C73.967 301.145 77.6628 300.374 79.468 297.619Z" fill="#CFBD9A"/>
<path d="M94.7218 274.34C96.5269 271.585 95.7576 267.889 93.0047 266.085C90.2513 264.281 86.5559 265.052 84.7508 267.807C82.9457 270.562 83.7144 274.257 86.4679 276.062C89.2208 277.865 92.9167 277.095 94.7218 274.34Z" fill="#CFBD9A"/>
<path d="M109.979 251.055C111.784 248.3 111.015 244.604 108.262 242.8C105.508 240.996 101.813 241.767 100.008 244.522C98.2029 247.277 98.9716 250.972 101.725 252.776C104.478 254.58 108.174 253.81 109.979 251.055Z" fill="#CFBD9A"/>
<path d="M125.233 227.774C127.038 225.019 126.268 221.323 123.516 219.519C120.762 217.715 117.067 218.485 115.262 221.24C113.457 223.995 114.225 227.691 116.979 229.495C119.732 231.299 123.427 230.529 125.233 227.774Z" fill="#CFBD9A"/>
<path d="M140.486 204.494C142.292 201.739 141.522 198.043 138.769 196.239C136.016 194.435 132.321 195.206 130.515 197.961C128.71 200.716 129.479 204.412 132.233 206.216C134.985 208.02 138.681 207.249 140.486 204.494Z" fill="#CFBD9A"/>
<path d="M155.74 181.215C157.545 178.46 156.776 174.764 154.023 172.96C151.27 171.156 147.574 171.927 145.769 174.682C143.964 177.437 144.733 181.132 147.486 182.937C150.239 184.74 153.935 183.97 155.74 181.215Z" fill="#CFBD9A"/>
<path d="M49.3455 394.348C51.1506 391.593 50.3819 387.897 47.6284 386.093C44.875 384.289 41.1797 385.06 39.3745 387.815C37.5694 390.569 38.3382 394.265 41.0916 396.069C43.8451 397.874 47.5404 397.103 49.3455 394.348Z" fill="#CFBD9A"/>
<path d="M64.5993 371.068C66.4044 368.314 65.6356 364.618 62.8822 362.814C60.1287 361.01 56.4334 361.78 54.6283 364.535C52.8232 367.29 53.5919 370.986 56.3454 372.79C59.0988 374.594 62.7941 373.823 64.5993 371.068Z" fill="#CFBD9A"/>
<path d="M79.853 347.787C81.6581 345.032 80.8894 341.337 78.1359 339.532C75.3825 337.728 71.6872 338.499 69.882 341.254C68.0769 344.009 68.8457 347.705 71.5991 349.509C74.3526 351.313 78.0479 350.542 79.853 347.787Z" fill="#CFBD9A"/>
<path d="M95.1103 324.502C96.9154 321.747 96.1467 318.051 93.3932 316.247C90.6398 314.443 86.9444 315.214 85.1393 317.969C83.3342 320.724 84.1029 324.42 86.8564 326.224C89.6098 328.028 93.3052 327.257 95.1103 324.502Z" fill="#CFBD9A"/>
<path d="M110.364 301.223C112.169 298.468 111.4 294.772 108.647 292.968C105.893 291.164 102.198 291.935 100.393 294.69C98.5879 297.444 99.3566 301.14 102.11 302.944C104.864 304.749 108.559 303.978 110.364 301.223Z" fill="#CFBD9A"/>
<path d="M125.618 277.942C127.423 275.187 126.654 271.491 123.901 269.687C121.147 267.883 117.452 268.653 115.647 271.408C113.842 274.163 114.61 277.859 117.364 279.663C120.117 281.467 123.813 280.696 125.618 277.942Z" fill="#CFBD9A"/>
<path d="M140.871 254.662C142.677 251.907 141.908 248.212 139.154 246.407C136.401 244.603 132.706 245.374 130.9 248.129C129.095 250.884 129.864 254.58 132.618 256.384C135.371 258.188 139.066 257.417 140.871 254.662Z" fill="#CFBD9A"/>
<path d="M156.125 231.383C157.93 228.628 157.162 224.932 154.408 223.128C151.655 221.324 147.959 222.095 146.154 224.85C144.349 227.605 145.118 231.3 147.871 233.105C150.625 234.909 154.32 234.138 156.125 231.383Z" fill="#CFBD9A"/>
<path d="M80.2468 397.953C82.0519 395.198 81.2831 391.503 78.5297 389.698C75.7762 387.894 72.0809 388.665 70.2758 391.42C68.4707 394.175 69.2394 397.871 71.9929 399.675C74.7463 401.479 78.4417 400.708 80.2468 397.953Z" fill="#CFBD9A"/>
<path d="M95.5006 374.674C97.3057 371.919 96.5369 368.223 93.7835 366.419C91.03 364.615 87.3347 365.386 85.5296 368.141C83.7244 370.896 84.4932 374.591 87.2466 376.396C90.0001 378.2 93.6954 377.429 95.5006 374.674Z" fill="#CFBD9A"/>
<path d="M110.754 351.395C112.559 348.64 111.791 344.944 109.037 343.14C106.284 341.336 102.588 342.106 100.783 344.861C98.9782 347.616 99.7469 351.312 102.5 353.116C105.254 354.92 108.949 354.15 110.754 351.395Z" fill="#CFBD9A"/>
<path d="M126.008 328.113C127.813 325.358 127.044 321.663 124.291 319.859C121.538 318.054 117.842 318.825 116.037 321.58C114.232 324.335 115.001 328.031 117.754 329.835C120.508 331.639 124.203 330.868 126.008 328.113Z" fill="#CFBD9A"/>
<path d="M141.262 304.834C143.067 302.079 142.298 298.383 139.545 296.579C136.791 294.775 133.096 295.546 131.291 298.301C129.486 301.056 130.254 304.752 133.008 306.556C135.761 308.36 139.457 307.589 141.262 304.834Z" fill="#CFBD9A"/>
<path d="M156.519 281.549C158.324 278.794 157.555 275.098 154.802 273.294C152.048 271.49 148.353 272.261 146.548 275.016C144.743 277.771 145.512 281.466 148.265 283.271C151.018 285.075 154.714 284.304 156.519 281.549Z" fill="#CFBD9A"/>
<path d="M171.773 258.268C173.578 255.513 172.809 251.817 170.056 250.013C167.302 248.209 163.607 248.979 161.802 251.734C159.997 254.489 160.765 258.185 163.519 259.989C166.272 261.793 169.968 261.023 171.773 258.268Z" fill="#CFBD9A"/>
<path d="M126.393 378.281C128.198 375.526 127.429 371.83 124.676 370.027C121.923 368.222 118.227 368.993 116.422 371.748C114.617 374.503 115.386 378.199 118.139 380.003C120.892 381.807 124.588 381.036 126.393 378.281Z" fill="#CFBD9A"/>
<path d="M141.65 354.996C143.455 352.241 142.686 348.545 139.933 346.741C137.18 344.937 133.484 345.708 131.679 348.463C129.874 351.218 130.643 354.914 133.396 356.718C136.149 358.522 139.845 357.751 141.65 354.996Z" fill="#CFBD9A"/>
<path d="M156.904 331.717C158.709 328.962 157.94 325.266 155.187 323.462C152.433 321.658 148.738 322.429 146.933 325.184C145.128 327.939 145.897 331.634 148.65 333.439C151.403 335.242 155.099 334.472 156.904 331.717Z" fill="#CFBD9A"/>
<path d="M172.158 308.438C173.963 305.683 173.194 301.987 170.441 300.183C167.687 298.379 163.992 299.149 162.187 301.904C160.382 304.659 161.15 308.355 163.904 310.159C166.657 311.963 170.353 311.193 172.158 308.438Z" fill="#CFBD9A"/>
<path d="M157.289 381.885C159.094 379.13 158.325 375.434 155.572 373.63C152.818 371.826 149.123 372.597 147.318 375.352C145.513 378.107 146.282 381.802 149.035 383.606C151.788 385.411 155.484 384.64 157.289 381.885Z" fill="#CFBD9A"/>
<path d="M172.543 358.606C174.348 355.851 173.579 352.155 170.826 350.351C168.072 348.547 164.377 349.317 162.572 352.072C160.767 354.827 161.535 358.523 164.289 360.327C167.042 362.131 170.738 361.361 172.543 358.606Z" fill="#CFBD9A"/>
<path d="M187.796 335.324C189.602 332.569 188.833 328.874 186.079 327.07C183.326 325.265 179.631 326.036 177.825 328.791C176.02 331.546 176.789 335.242 179.542 337.046C182.296 338.85 185.991 338.079 187.796 335.324Z" fill="#CFBD9A"/>
</mask>
<g mask="url(#mask1_550_29514)">
<path d="M-116.274 71.5181C-116.616 56.9565 -104.486 45.1872 -89.9417 45.9675L97.8559 56.0425C109.181 56.6501 118.679 64.8054 120.991 75.9087L174.572 333.148C177.388 346.665 168.713 359.905 155.196 362.721L-78.7656 411.453C-94.0558 414.638 -108.49 403.179 -108.857 387.565L-116.274 71.5181Z" fill="#FCFCFC"/>
</g>
</g>
</svg>
