<svg width="430" height="525" viewBox="0 0 430 525" fill="none" xmlns="http://www.w3.org/2000/svg">
<path d="M87.8041 49.1694C93.6975 22.0645 120.529 4.93732 147.595 11.0025L389.933 65.3057C412.768 70.4228 429 90.694 429 114.096V403C429 430.614 406.614 453 379 453H62.0396C30.1459 453 6.40493 423.542 13.1812 392.377L87.8041 49.1694Z" fill="#F4F4F4"/>
<mask id="mask0_611_23550" style="mask-type:alpha" maskUnits="userSpaceOnUse" x="76" y="118" width="338" height="394">
<path d="M101.613 127.416C103.418 124.661 102.649 120.965 99.8956 119.161C97.1422 117.357 93.4468 118.127 91.6417 120.882C89.8366 123.637 90.6054 127.333 93.3588 129.137C96.1122 130.941 99.8075 130.171 101.613 127.416Z" fill="#CFBD9A"/>
<path d="M102.007 177.582C103.812 174.827 103.043 171.132 100.29 169.327C97.536 167.523 93.8406 168.294 92.0355 171.049C90.2304 173.804 90.9992 177.5 93.7528 179.304C96.5062 181.108 100.202 180.337 102.007 177.582Z" fill="#CFBD9A"/>
<path d="M117.26 154.302C119.066 151.547 118.297 147.851 115.543 146.047C112.79 144.243 109.094 145.014 107.289 147.769C105.484 150.524 106.253 154.219 109.007 156.024C111.76 157.828 115.455 157.057 117.26 154.302Z" fill="#CFBD9A"/>
<path d="M132.514 131.022C134.319 128.267 133.551 124.571 130.797 122.767C128.044 120.963 124.348 121.733 122.543 124.488C120.738 127.243 121.507 130.939 124.26 132.743C127.014 134.547 130.709 133.777 132.514 131.022Z" fill="#CFBD9A"/>
<path d="M102.392 227.751C104.197 224.996 103.428 221.3 100.675 219.496C97.9212 217.692 94.2259 218.462 92.4208 221.217C90.6156 223.972 91.3844 227.668 94.1378 229.472C96.8913 231.276 100.587 230.506 102.392 227.751Z" fill="#CFBD9A"/>
<path d="M117.645 204.47C119.451 201.715 118.682 198.02 115.928 196.216C113.175 194.411 109.48 195.182 107.674 197.937C105.869 200.692 106.638 204.388 109.391 206.192C112.145 207.996 115.84 207.225 117.645 204.47Z" fill="#CFBD9A"/>
<path d="M132.899 181.19C134.704 178.435 133.936 174.739 131.182 172.935C128.429 171.131 124.733 171.902 122.928 174.657C121.123 177.412 121.892 181.108 124.645 182.912C127.399 184.716 131.094 183.945 132.899 181.19Z" fill="#CFBD9A"/>
<path d="M148.153 157.91C149.958 155.155 149.189 151.46 146.436 149.655C143.682 147.851 139.987 148.622 138.182 151.377C136.377 154.132 137.146 157.828 139.899 159.632C142.653 161.436 146.348 160.665 148.153 157.91Z" fill="#CFBD9A"/>
<path d="M163.407 134.63C165.212 131.875 164.443 128.179 161.69 126.375C158.936 124.571 155.241 125.342 153.436 128.097C151.631 130.852 152.399 134.547 155.153 136.352C157.906 138.156 161.602 137.385 163.407 134.63Z" fill="#CFBD9A"/>
<path d="M87.5229 301.199C89.3281 298.444 88.5593 294.748 85.8059 292.944C83.0524 291.14 79.3571 291.911 77.552 294.666C75.7469 297.421 76.5156 301.116 79.269 302.92C82.0225 304.725 85.7178 303.954 87.5229 301.199Z" fill="#CFBD9A"/>
<path d="M102.777 277.919C104.582 275.164 103.813 271.468 101.06 269.664C98.3061 267.86 94.6108 268.63 92.8057 271.385C91.0005 274.14 91.7693 277.836 94.5227 279.64C97.2762 281.444 100.971 280.674 102.777 277.919Z" fill="#CFBD9A"/>
<path d="M118.03 254.638C119.836 251.883 119.067 248.188 116.313 246.383C113.56 244.579 109.865 245.35 108.059 248.105C106.254 250.86 107.023 254.556 109.776 256.36C112.53 258.164 116.225 257.393 118.03 254.638Z" fill="#CFBD9A"/>
<path d="M133.284 231.358C135.089 228.603 134.321 224.907 131.567 223.103C128.814 221.299 125.118 222.07 123.313 224.825C121.508 227.58 122.277 231.275 125.03 233.08C127.784 234.884 131.479 234.113 133.284 231.358Z" fill="#CFBD9A"/>
<path d="M148.541 208.073C150.347 205.318 149.578 201.622 146.824 199.818C144.071 198.014 140.376 198.785 138.57 201.54C136.765 204.295 137.534 207.99 140.287 209.794C143.041 211.599 146.736 210.828 148.541 208.073Z" fill="#CFBD9A"/>
<path d="M163.795 184.793C165.6 182.038 164.832 178.342 162.078 176.538C159.325 174.734 155.629 175.505 153.824 178.26C152.019 181.015 152.788 184.711 155.541 186.515C158.295 188.319 161.99 187.548 163.795 184.793Z" fill="#CFBD9A"/>
<path d="M179.049 161.513C180.854 158.758 180.085 155.062 177.332 153.258C174.578 151.454 170.883 152.225 169.078 154.98C167.273 157.735 168.042 161.43 170.795 163.234C173.549 165.039 177.244 164.268 179.049 161.513Z" fill="#CFBD9A"/>
<path d="M194.303 138.233C196.108 135.478 195.339 131.782 192.586 129.978C189.832 128.174 186.137 128.945 184.332 131.7C182.527 134.455 183.295 138.15 186.049 139.955C188.802 141.759 192.498 140.988 194.303 138.233Z" fill="#CFBD9A"/>
<path d="M87.908 351.367C89.7131 348.612 88.9443 344.916 86.1909 343.112C83.4374 341.308 79.7421 342.079 77.937 344.834C76.1319 347.589 76.9006 351.284 79.6541 353.088C82.4075 354.893 86.1028 354.122 87.908 351.367Z" fill="#CFBD9A"/>
<path d="M103.162 328.087C104.967 325.332 104.198 321.636 101.445 319.832C98.6911 318.028 94.9958 318.798 93.1907 321.553C91.3855 324.308 92.1543 328.004 94.9077 329.808C97.6612 331.612 101.356 330.842 103.162 328.087Z" fill="#CFBD9A"/>
<path d="M118.415 304.806C120.221 302.051 119.452 298.356 116.698 296.551C113.945 294.747 110.25 295.518 108.444 298.273C106.639 301.028 107.408 304.724 110.162 306.528C112.915 308.332 116.61 307.561 118.415 304.806Z" fill="#CFBD9A"/>
<path d="M133.673 281.521C135.478 278.766 134.709 275.07 131.956 273.266C129.202 271.462 125.507 272.233 123.702 274.988C121.897 277.743 122.665 281.439 125.419 283.243C128.172 285.047 131.868 284.276 133.673 281.521Z" fill="#CFBD9A"/>
<path d="M148.926 258.241C150.732 255.486 149.963 251.791 147.209 249.987C144.456 248.182 140.761 248.953 138.955 251.708C137.15 254.463 137.919 258.159 140.673 259.963C143.426 261.767 147.121 260.996 148.926 258.241Z" fill="#CFBD9A"/>
<path d="M164.18 234.961C165.985 232.206 165.217 228.51 162.463 226.706C159.71 224.902 156.014 225.673 154.209 228.428C152.404 231.183 153.173 234.879 155.926 236.683C158.68 238.487 162.375 237.716 164.18 234.961Z" fill="#CFBD9A"/>
<path d="M179.434 211.681C181.239 208.926 180.47 205.231 177.717 203.426C174.963 201.622 171.268 202.393 169.463 205.148C167.658 207.903 168.427 211.599 171.18 213.403C173.934 215.207 177.629 214.436 179.434 211.681Z" fill="#CFBD9A"/>
<path d="M194.688 188.401C196.493 185.646 195.724 181.95 192.971 180.146C190.217 178.342 186.522 179.113 184.717 181.868C182.912 184.623 183.68 188.318 186.434 190.123C189.187 191.927 192.883 191.156 194.688 188.401Z" fill="#CFBD9A"/>
<path d="M209.941 165.121C211.747 162.366 210.978 158.671 208.224 156.866C205.471 155.062 201.776 155.833 199.97 158.588C198.165 161.343 198.934 165.039 201.688 166.843C204.441 168.647 208.136 167.876 209.941 165.121Z" fill="#CFBD9A"/>
<path d="M225.199 141.836C227.004 139.081 226.235 135.385 223.482 133.581C220.728 131.777 217.033 132.547 215.228 135.302C213.423 138.057 214.191 141.753 216.945 143.557C219.698 145.361 223.394 144.591 225.199 141.836Z" fill="#CFBD9A"/>
<path d="M103.547 378.255C105.352 375.5 104.582 371.804 101.83 370C99.0761 368.196 95.3808 368.967 93.5757 371.722C91.7705 374.477 92.5393 378.172 95.2927 379.977C98.0457 381.78 101.742 381.01 103.547 378.255Z" fill="#CFBD9A"/>
<path d="M118.804 354.969C120.609 352.214 119.84 348.518 117.087 346.715C114.333 344.91 110.638 345.681 108.833 348.436C107.028 351.191 107.797 354.887 110.55 356.691C113.303 358.495 116.999 357.724 118.804 354.969Z" fill="#CFBD9A"/>
<path d="M134.058 331.69C135.863 328.935 135.094 325.239 132.341 323.435C129.587 321.631 125.892 322.401 124.087 325.156C122.282 327.911 123.05 331.607 125.804 333.411C128.557 335.215 132.253 334.445 134.058 331.69Z" fill="#CFBD9A"/>
<path d="M149.311 308.409C151.117 305.654 150.347 301.958 147.594 300.154C144.841 298.35 141.146 299.121 139.34 301.876C137.535 304.631 138.304 308.327 141.058 310.131C143.81 311.935 147.506 311.164 149.311 308.409Z" fill="#CFBD9A"/>
<path d="M164.565 285.13C166.37 282.375 165.601 278.678 162.848 276.875C160.095 275.071 156.399 275.841 154.594 278.596C152.789 281.351 153.558 285.047 156.311 286.851C159.064 288.655 162.76 287.884 164.565 285.13Z" fill="#CFBD9A"/>
<path d="M179.819 261.849C181.624 259.094 180.855 255.398 178.102 253.594C175.348 251.79 171.653 252.561 169.848 255.316C168.043 258.071 168.812 261.767 171.565 263.571C174.318 265.375 178.014 264.604 179.819 261.849Z" fill="#CFBD9A"/>
<path d="M195.076 238.564C196.881 235.809 196.112 232.113 193.359 230.309C190.606 228.505 186.91 229.275 185.105 232.03C183.3 234.785 184.069 238.481 186.822 240.285C189.575 242.089 193.271 241.319 195.076 238.564Z" fill="#CFBD9A"/>
<path d="M210.33 215.284C212.135 212.529 211.366 208.833 208.613 207.029C205.859 205.225 202.164 205.996 200.359 208.751C198.554 211.506 199.323 215.201 202.076 217.005C204.829 218.809 208.525 218.039 210.33 215.284Z" fill="#CFBD9A"/>
<path d="M225.584 192.004C227.389 189.249 226.62 185.553 223.867 183.749C221.113 181.945 217.418 182.715 215.613 185.47C213.808 188.225 214.576 191.921 217.33 193.725C220.083 195.529 223.779 194.759 225.584 192.004Z" fill="#CFBD9A"/>
<path d="M240.837 168.724C242.643 165.969 241.873 162.273 239.12 160.469C236.367 158.665 232.672 159.436 230.866 162.19C229.061 164.945 229.83 168.641 232.584 170.445C235.336 172.249 239.032 171.479 240.837 168.724Z" fill="#CFBD9A"/>
<path d="M256.091 145.444C257.896 142.689 257.127 138.992 254.374 137.189C251.621 135.385 247.925 136.155 246.12 138.91C244.315 141.665 245.084 145.361 247.837 147.165C250.59 148.969 254.286 148.198 256.091 145.444Z" fill="#CFBD9A"/>
<path d="M103.935 428.418C105.74 425.663 104.971 421.967 102.218 420.163C99.4645 418.359 95.7692 419.129 93.9641 421.884C92.159 424.639 92.9277 428.335 95.6812 430.139C98.4346 431.943 102.13 431.173 103.935 428.418Z" fill="#CFBD9A"/>
<path d="M119.189 405.137C120.994 402.382 120.225 398.687 117.472 396.883C114.718 395.078 111.023 395.849 109.218 398.604C107.413 401.359 108.181 405.055 110.935 406.859C113.688 408.663 117.384 407.892 119.189 405.137Z" fill="#CFBD9A"/>
<path d="M134.443 381.858C136.248 379.103 135.479 375.407 132.726 373.603C129.972 371.799 126.277 372.569 124.472 375.324C122.667 378.079 123.435 381.775 126.189 383.579C128.942 385.383 132.637 384.613 134.443 381.858Z" fill="#CFBD9A"/>
<path d="M149.696 358.577C151.501 355.822 150.733 352.127 147.979 350.322C145.226 348.518 141.531 349.289 139.725 352.044C137.92 354.799 138.689 358.495 141.442 360.299C144.196 362.103 147.891 361.332 149.696 358.577Z" fill="#CFBD9A"/>
<path d="M164.95 335.297C166.755 332.543 165.987 328.847 163.233 327.043C160.48 325.239 156.784 326.009 154.979 328.764C153.174 331.519 153.943 335.215 156.696 337.019C159.45 338.823 163.145 338.052 164.95 335.297Z" fill="#CFBD9A"/>
<path d="M180.207 312.012C182.013 309.257 181.244 305.562 178.49 303.758C175.737 301.953 172.042 302.724 170.236 305.479C168.431 308.234 169.2 311.93 171.953 313.734C174.707 315.538 178.402 314.767 180.207 312.012Z" fill="#CFBD9A"/>
<path d="M195.461 288.732C197.266 285.977 196.497 282.281 193.744 280.477C190.991 278.673 187.295 279.444 185.49 282.199C183.685 284.954 184.454 288.649 187.207 290.454C189.961 292.258 193.656 291.487 195.461 288.732Z" fill="#CFBD9A"/>
<path d="M210.715 265.452C212.52 262.697 211.751 259.001 208.998 257.197C206.244 255.393 202.549 256.164 200.744 258.919C198.939 261.673 199.708 265.369 202.461 267.173C205.214 268.978 208.91 268.207 210.715 265.452Z" fill="#CFBD9A"/>
<path d="M225.969 242.172C227.774 239.417 227.005 235.721 224.252 233.917C221.498 232.113 217.803 232.884 215.998 235.639C214.193 238.394 214.961 242.089 217.715 243.894C220.468 245.698 224.164 244.927 225.969 242.172Z" fill="#CFBD9A"/>
<path d="M241.222 218.892C243.028 216.137 242.259 212.441 239.505 210.637C236.752 208.833 233.057 209.604 231.251 212.358C229.446 215.113 230.215 218.809 232.969 220.613C235.722 222.417 239.417 221.647 241.222 218.892Z" fill="#CFBD9A"/>
<path d="M256.476 195.612C258.281 192.857 257.513 189.161 254.759 187.357C252.006 185.553 248.31 186.324 246.505 189.079C244.7 191.834 245.469 195.529 248.222 197.334C250.976 199.138 254.671 198.367 256.476 195.612Z" fill="#CFBD9A"/>
<path d="M271.733 172.326C273.539 169.571 272.77 165.876 270.016 164.071C267.263 162.267 263.568 163.038 261.762 165.793C259.957 168.548 260.726 172.244 263.479 174.048C266.233 175.852 269.928 175.081 271.733 172.326Z" fill="#CFBD9A"/>
<path d="M286.987 149.047C288.792 146.292 288.024 142.596 285.27 140.792C282.517 138.988 278.821 139.758 277.016 142.513C275.211 145.268 275.98 148.964 278.733 150.768C281.487 152.572 285.182 151.801 286.987 149.047Z" fill="#CFBD9A"/>
<path d="M119.579 455.309C121.384 452.554 120.615 448.858 117.862 447.055C115.109 445.25 111.413 446.021 109.608 448.776C107.803 451.531 108.572 455.227 111.325 457.031C114.078 458.835 117.774 458.064 119.579 455.309Z" fill="#CFBD9A"/>
<path d="M134.833 432.029C136.638 429.274 135.869 425.578 133.116 423.775C130.362 421.97 126.667 422.741 124.862 425.496C123.057 428.251 123.826 431.947 126.579 433.751C129.332 435.555 133.028 434.784 134.833 432.029Z" fill="#CFBD9A"/>
<path d="M150.087 408.749C151.892 405.994 151.123 402.298 148.37 400.494C145.616 398.69 141.921 399.461 140.116 402.216C138.311 404.971 139.079 408.667 141.833 410.471C144.586 412.275 148.282 411.504 150.087 408.749Z" fill="#CFBD9A"/>
<path d="M165.344 385.464C167.149 382.709 166.38 379.013 163.627 377.209C160.873 375.405 157.178 376.176 155.373 378.931C153.568 381.686 154.337 385.381 157.09 387.186C159.843 388.989 163.539 388.219 165.344 385.464Z" fill="#CFBD9A"/>
<path d="M180.598 362.184C182.403 359.429 181.634 355.733 178.881 353.929C176.127 352.125 172.432 352.896 170.627 355.65C168.822 358.405 169.59 362.101 172.344 363.905C175.097 365.709 178.793 364.939 180.598 362.184Z" fill="#CFBD9A"/>
<path d="M195.851 338.903C197.657 336.148 196.887 332.452 194.134 330.649C191.381 328.844 187.686 329.615 185.88 332.37C184.075 335.125 184.844 338.821 187.598 340.625C190.35 342.429 194.046 341.658 195.851 338.903Z" fill="#CFBD9A"/>
<path d="M211.105 315.624C212.91 312.869 212.141 309.173 209.388 307.369C206.635 305.565 202.939 306.335 201.134 309.09C199.329 311.845 200.098 315.541 202.851 317.345C205.604 319.149 209.3 318.379 211.105 315.624Z" fill="#CFBD9A"/>
<path d="M226.359 292.343C228.164 289.588 227.395 285.892 224.642 284.089C221.888 282.284 218.193 283.055 216.388 285.81C214.583 288.565 215.352 292.261 218.105 294.065C220.858 295.869 224.554 295.098 226.359 292.343Z" fill="#CFBD9A"/>
<path d="M241.616 269.058C243.421 266.303 242.652 262.607 239.899 260.803C237.146 258.999 233.45 259.77 231.645 262.525C229.84 265.28 230.609 268.976 233.362 270.78C236.115 272.584 239.811 271.813 241.616 269.058Z" fill="#CFBD9A"/>
<path d="M256.87 245.778C258.675 243.024 257.906 239.327 255.153 237.524C252.399 235.719 248.704 236.49 246.899 239.245C245.094 242 245.863 245.696 248.616 247.5C251.369 249.304 255.065 248.533 256.87 245.778Z" fill="#CFBD9A"/>
<path d="M272.124 222.498C273.929 219.743 273.16 216.047 270.407 214.243C267.653 212.439 263.958 213.21 262.153 215.965C260.348 218.72 261.116 222.416 263.87 224.22C266.623 226.024 270.319 225.253 272.124 222.498Z" fill="#CFBD9A"/>
<path d="M287.377 199.218C289.183 196.463 288.413 192.767 285.66 190.963C282.907 189.159 279.212 189.93 277.406 192.685C275.601 195.44 276.37 199.135 279.124 200.939C281.876 202.743 285.572 201.973 287.377 199.218Z" fill="#CFBD9A"/>
<path d="M302.631 175.938C304.436 173.183 303.667 169.487 300.914 167.683C298.161 165.879 294.465 166.649 292.66 169.404C290.855 172.159 291.624 175.855 294.377 177.659C297.13 179.463 300.826 178.693 302.631 175.938Z" fill="#CFBD9A"/>
<path d="M317.885 152.658C319.69 149.903 318.921 146.207 316.168 144.403C313.414 142.599 309.719 143.37 307.914 146.125C306.109 148.88 306.878 152.575 309.631 154.379C312.384 156.183 316.08 155.413 317.885 152.658Z" fill="#CFBD9A"/>
<path d="M119.964 505.477C121.769 502.722 121.001 499.026 118.247 497.222C115.494 495.418 111.798 496.189 109.993 498.944C108.188 501.699 108.957 505.395 111.71 507.199C114.464 509.003 118.159 508.232 119.964 505.477Z" fill="#CFBD9A"/>
<path d="M135.221 482.192C137.027 479.437 136.258 475.741 133.504 473.937C130.751 472.133 127.056 472.904 125.251 475.659C123.445 478.414 124.214 482.109 126.968 483.914C129.721 485.718 133.416 484.947 135.221 482.192Z" fill="#CFBD9A"/>
<path d="M150.475 458.912C152.28 456.157 151.512 452.462 148.758 450.657C146.005 448.853 142.309 449.624 140.504 452.379C138.699 455.134 139.468 458.83 142.221 460.634C144.975 462.438 148.67 461.667 150.475 458.912Z" fill="#CFBD9A"/>
<path d="M165.729 435.632C167.534 432.877 166.765 429.181 164.012 427.377C161.258 425.573 157.563 426.344 155.758 429.099C153.953 431.854 154.722 435.549 157.475 437.354C160.228 439.158 163.924 438.387 165.729 435.632Z" fill="#CFBD9A"/>
<path d="M180.983 412.352C182.788 409.597 182.019 405.901 179.266 404.097C176.512 402.293 172.817 403.064 171.012 405.819C169.207 408.574 169.975 412.27 172.729 414.074C175.482 415.878 179.178 415.107 180.983 412.352Z" fill="#CFBD9A"/>
<path d="M196.236 389.072C198.042 386.317 197.273 382.621 194.519 380.817C191.766 379.013 188.071 379.784 186.265 382.539C184.46 385.294 185.229 388.989 187.982 390.793C190.736 392.598 194.431 391.827 196.236 389.072Z" fill="#CFBD9A"/>
<path d="M211.49 365.792C213.295 363.037 212.527 359.341 209.773 357.537C207.02 355.733 203.324 356.503 201.519 359.258C199.714 362.013 200.483 365.709 203.236 367.513C205.99 369.317 209.685 368.547 211.49 365.792Z" fill="#CFBD9A"/>
<path d="M226.747 342.506C228.552 339.752 227.784 336.056 225.03 334.252C222.277 332.448 218.582 333.218 216.776 335.973C214.971 338.728 215.74 342.424 218.493 344.228C221.247 346.032 224.942 345.261 226.747 342.506Z" fill="#CFBD9A"/>
<path d="M242.001 319.226C243.806 316.471 243.038 312.776 240.284 310.971C237.531 309.167 233.835 309.938 232.03 312.693C230.225 315.448 230.994 319.144 233.747 320.948C236.501 322.752 240.196 321.981 242.001 319.226Z" fill="#CFBD9A"/>
<path d="M257.255 295.946C259.06 293.191 258.291 289.496 255.538 287.692C252.784 285.887 249.089 286.658 247.284 289.413C245.479 292.168 246.248 295.864 249.001 297.668C251.754 299.472 255.45 298.701 257.255 295.946Z" fill="#CFBD9A"/>
<path d="M272.509 272.666C274.314 269.911 273.545 266.215 270.792 264.411C268.038 262.607 264.343 263.378 262.538 266.133C260.733 268.888 261.501 272.584 264.255 274.388C267.008 276.192 270.704 275.421 272.509 272.666Z" fill="#CFBD9A"/>
<path d="M287.762 249.386C289.568 246.631 288.799 242.936 286.045 241.132C283.292 239.327 279.597 240.098 277.791 242.853C275.986 245.608 276.755 249.304 279.508 251.108C282.262 252.912 285.957 252.141 287.762 249.386Z" fill="#CFBD9A"/>
<path d="M303.016 226.106C304.821 223.351 304.053 219.655 301.299 217.851C298.546 216.047 294.85 216.818 293.045 219.573C291.24 222.328 292.009 226.024 294.762 227.828C297.516 229.632 301.211 228.861 303.016 226.106Z" fill="#CFBD9A"/>
<path d="M318.273 202.821C320.079 200.066 319.31 196.37 316.556 194.566C313.803 192.762 310.108 193.533 308.302 196.288C306.497 199.043 307.266 202.738 310.02 204.543C312.773 206.347 316.468 205.576 318.273 202.821Z" fill="#CFBD9A"/>
<path d="M333.527 179.541C335.332 176.786 334.564 173.09 331.81 171.286C329.057 169.482 325.361 170.252 323.556 173.007C321.751 175.762 322.52 179.458 325.273 181.262C328.027 183.066 331.722 182.296 333.527 179.541Z" fill="#CFBD9A"/>
<path d="M348.781 156.261C350.586 153.506 349.817 149.81 347.064 148.006C344.31 146.202 340.615 146.973 338.81 149.728C337.005 152.483 337.774 156.178 340.527 157.982C343.281 159.787 346.976 159.016 348.781 156.261Z" fill="#CFBD9A"/>
<path d="M150.86 509.08C152.665 506.325 151.897 502.63 149.143 500.825C146.39 499.021 142.694 499.792 140.889 502.547C139.084 505.302 139.853 508.998 142.606 510.802C145.36 512.606 149.055 511.835 150.86 509.08Z" fill="#CFBD9A"/>
<path d="M166.114 485.8C167.919 483.045 167.15 479.349 164.397 477.545C161.643 475.741 157.948 476.512 156.143 479.267C154.338 482.022 155.107 485.717 157.86 487.522C160.614 489.326 164.309 488.555 166.114 485.8Z" fill="#CFBD9A"/>
<path d="M181.368 462.52C183.173 459.765 182.404 456.069 179.651 454.265C176.897 452.461 173.202 453.232 171.397 455.987C169.592 458.742 170.36 462.438 173.114 464.242C175.867 466.046 179.563 465.275 181.368 462.52Z" fill="#CFBD9A"/>
<path d="M196.621 439.24C198.427 436.485 197.658 432.79 194.904 430.986C192.151 429.181 188.456 429.952 186.65 432.707C184.845 435.462 185.614 439.158 188.367 440.962C191.121 442.766 194.816 441.995 196.621 439.24Z" fill="#CFBD9A"/>
<path d="M211.879 415.955C213.684 413.2 212.915 409.504 210.162 407.7C207.408 405.896 203.713 406.667 201.908 409.421C200.103 412.176 200.871 415.872 203.625 417.676C206.378 419.48 210.073 418.71 211.879 415.955Z" fill="#CFBD9A"/>
<path d="M227.132 392.674C228.938 389.919 228.169 386.224 225.415 384.42C222.662 382.615 218.967 383.386 217.161 386.141C215.356 388.896 216.125 392.592 218.878 394.396C221.632 396.2 225.327 395.429 227.132 392.674Z" fill="#CFBD9A"/>
<path d="M242.386 369.395C244.191 366.64 243.422 362.944 240.669 361.14C237.916 359.336 234.22 360.106 232.415 362.861C230.61 365.616 231.379 369.312 234.132 371.116C236.886 372.92 240.581 372.15 242.386 369.395Z" fill="#CFBD9A"/>
<path d="M257.64 346.114C259.445 343.359 258.676 339.664 255.923 337.86C253.169 336.055 249.474 336.826 247.669 339.581C245.864 342.336 246.633 346.032 249.386 347.836C252.139 349.64 255.835 348.869 257.64 346.114Z" fill="#CFBD9A"/>
<path d="M272.894 322.835C274.699 320.08 273.93 316.384 271.177 314.58C268.423 312.776 264.728 313.546 262.923 316.301C261.118 319.056 261.886 322.752 264.64 324.556C267.393 326.36 271.089 325.59 272.894 322.835Z" fill="#CFBD9A"/>
<path d="M288.151 299.549C289.956 296.794 289.187 293.098 286.434 291.294C283.68 289.49 279.985 290.261 278.18 293.016C276.375 295.771 277.144 299.466 279.897 301.271C282.65 303.075 286.346 302.304 288.151 299.549Z" fill="#CFBD9A"/>
<path d="M303.405 276.269C305.21 273.514 304.441 269.818 301.688 268.014C298.934 266.21 295.239 266.981 293.434 269.736C291.629 272.491 292.397 276.187 295.151 277.991C297.904 279.795 301.6 279.024 303.405 276.269Z" fill="#CFBD9A"/>
<path d="M318.658 252.989C320.464 250.234 319.695 246.538 316.941 244.734C314.188 242.93 310.493 243.701 308.687 246.456C306.882 249.211 307.651 252.906 310.404 254.71C313.158 256.515 316.853 255.744 318.658 252.989Z" fill="#CFBD9A"/>
<path d="M333.912 229.709C335.717 226.954 334.949 223.258 332.195 221.454C329.442 219.65 325.746 220.421 323.941 223.176C322.136 225.931 322.905 229.627 325.658 231.431C328.412 233.235 332.107 232.464 333.912 229.709Z" fill="#CFBD9A"/>
<path d="M349.166 206.429C350.971 203.674 350.202 199.978 347.449 198.174C344.695 196.37 341 197.141 339.195 199.896C337.39 202.651 338.159 206.346 340.912 208.15C343.666 209.955 347.361 209.184 349.166 206.429Z" fill="#CFBD9A"/>
<path d="M364.42 183.149C366.225 180.394 365.456 176.698 362.703 174.894C359.949 173.09 356.254 173.861 354.449 176.616C352.644 179.371 353.412 183.066 356.166 184.871C358.919 186.675 362.615 185.904 364.42 183.149Z" fill="#CFBD9A"/>
<path d="M197.01 489.403C198.815 486.648 198.046 482.952 195.293 481.148C192.539 479.344 188.844 480.115 187.039 482.87C185.234 485.625 186.002 489.32 188.756 491.125C191.509 492.928 195.205 492.158 197.01 489.403Z" fill="#CFBD9A"/>
<path d="M212.264 466.123C214.069 463.368 213.299 459.672 210.547 457.868C207.793 456.064 204.098 456.834 202.293 459.589C200.488 462.344 201.256 466.04 204.01 467.844C206.763 469.648 210.458 468.878 212.264 466.123Z" fill="#CFBD9A"/>
<path d="M227.517 442.843C229.322 440.088 228.553 436.392 225.8 434.588C223.047 432.784 219.351 433.555 217.546 436.31C215.741 439.065 216.51 442.76 219.263 444.564C222.016 446.368 225.712 445.598 227.517 442.843Z" fill="#CFBD9A"/>
<path d="M242.771 419.563C244.576 416.808 243.807 413.112 241.054 411.308C238.301 409.504 234.605 410.274 232.8 413.029C230.995 415.784 231.764 419.48 234.517 421.284C237.27 423.088 240.966 422.318 242.771 419.563Z" fill="#CFBD9A"/>
<path d="M258.025 396.283C259.83 393.528 259.061 389.832 256.308 388.028C253.554 386.224 249.859 386.995 248.054 389.75C246.249 392.505 247.017 396.2 249.771 398.004C252.524 399.808 256.22 399.038 258.025 396.283Z" fill="#CFBD9A"/>
<path d="M273.282 372.997C275.087 370.242 274.318 366.546 271.565 364.742C268.812 362.938 265.116 363.709 263.311 366.464C261.506 369.219 262.275 372.915 265.028 374.719C267.781 376.523 271.477 375.752 273.282 372.997Z" fill="#CFBD9A"/>
<path d="M288.536 349.717C290.341 346.962 289.572 343.266 286.819 341.463C284.065 339.658 280.37 340.429 278.565 343.184C276.76 345.939 277.529 349.635 280.282 351.439C283.035 353.243 286.731 352.472 288.536 349.717Z" fill="#CFBD9A"/>
<path d="M303.79 326.437C305.595 323.682 304.825 319.986 302.073 318.182C299.319 316.378 295.624 317.149 293.819 319.904C292.014 322.659 292.782 326.355 295.536 328.159C298.289 329.963 301.984 329.192 303.79 326.437Z" fill="#CFBD9A"/>
<path d="M319.043 303.157C320.848 300.402 320.079 296.706 317.326 294.902C314.573 293.098 310.878 293.869 309.072 296.624C307.267 299.379 308.036 303.074 310.789 304.878C313.542 306.682 317.238 305.912 319.043 303.157Z" fill="#CFBD9A"/>
<path d="M334.297 279.877C336.102 277.122 335.333 273.426 332.58 271.622C329.827 269.818 326.131 270.589 324.326 273.344C322.521 276.099 323.29 279.795 326.043 281.599C328.796 283.402 332.492 282.632 334.297 279.877Z" fill="#CFBD9A"/>
<path d="M349.551 256.597C351.356 253.842 350.587 250.146 347.834 248.342C345.08 246.538 341.385 247.309 339.58 250.064C337.775 252.819 338.544 256.514 341.297 258.318C344.05 260.122 347.746 259.352 349.551 256.597Z" fill="#CFBD9A"/>
<path d="M364.808 233.312C366.613 230.557 365.844 226.861 363.091 225.057C360.338 223.253 356.642 224.023 354.837 226.778C353.032 229.533 353.801 233.229 356.554 235.033C359.307 236.837 363.003 236.067 364.808 233.312Z" fill="#CFBD9A"/>
<path d="M227.902 493.011C229.707 490.256 228.938 486.56 226.185 484.756C223.432 482.952 219.737 483.723 217.931 486.478C216.126 489.233 216.895 492.928 219.648 494.732C222.401 496.536 226.097 495.766 227.902 493.011Z" fill="#CFBD9A"/>
<path d="M243.156 469.731C244.961 466.976 244.192 463.28 241.439 461.476C238.686 459.672 234.99 460.443 233.185 463.198C231.38 465.953 232.149 469.649 234.902 471.453C237.655 473.256 241.351 472.486 243.156 469.731Z" fill="#CFBD9A"/>
<path d="M258.413 446.445C260.218 443.69 259.449 439.994 256.696 438.191C253.943 436.386 250.247 437.157 248.442 439.912C246.637 442.667 247.406 446.363 250.159 448.167C252.912 449.971 256.608 449.2 258.413 446.445Z" fill="#CFBD9A"/>
<path d="M273.667 423.166C275.472 420.411 274.703 416.715 271.95 414.911C269.197 413.107 265.501 413.877 263.696 416.632C261.891 419.387 262.66 423.083 265.413 424.887C268.166 426.691 271.862 425.921 273.667 423.166Z" fill="#CFBD9A"/>
<path d="M288.921 399.885C290.726 397.13 289.957 393.434 287.204 391.631C284.45 389.826 280.755 390.597 278.95 393.352C277.145 396.107 277.913 399.803 280.667 401.607C283.42 403.411 287.116 402.64 288.921 399.885Z" fill="#CFBD9A"/>
<path d="M304.175 376.605C305.98 373.85 305.21 370.154 302.457 368.35C299.704 366.546 296.009 367.317 294.204 370.072C292.398 372.827 293.167 376.523 295.921 378.327C298.674 380.13 302.369 379.36 304.175 376.605Z" fill="#CFBD9A"/>
<path d="M319.428 353.325C321.234 350.57 320.464 346.874 317.711 345.07C314.958 343.266 311.263 344.037 309.457 346.792C307.652 349.547 308.421 353.243 311.175 355.047C313.927 356.851 317.623 356.08 319.428 353.325Z" fill="#CFBD9A"/>
<path d="M334.686 330.04C336.491 327.285 335.721 323.589 332.969 321.785C330.215 319.981 326.52 320.752 324.715 323.507C322.91 326.262 323.678 329.958 326.432 331.762C329.185 333.566 332.88 332.795 334.686 330.04Z" fill="#CFBD9A"/>
<path d="M349.939 306.76C351.745 304.005 350.975 300.309 348.222 298.505C345.469 296.701 341.774 297.472 339.968 300.227C338.163 302.982 338.932 306.677 341.685 308.481C344.438 310.285 348.134 309.515 349.939 306.76Z" fill="#CFBD9A"/>
<path d="M365.193 283.48C366.998 280.725 366.229 277.029 363.476 275.225C360.723 273.421 357.027 274.191 355.222 276.946C353.417 279.701 354.186 283.397 356.939 285.201C359.692 287.005 363.388 286.235 365.193 283.48Z" fill="#CFBD9A"/>
<path d="M380.447 260.2C382.252 257.445 381.483 253.749 378.73 251.945C375.976 250.141 372.281 250.912 370.476 253.667C368.671 256.422 369.44 260.117 372.193 261.921C374.946 263.725 378.642 262.955 380.447 260.2Z" fill="#CFBD9A"/>
<path d="M274.052 473.334C275.857 470.579 275.089 466.883 272.335 465.079C269.582 463.275 265.886 464.045 264.081 466.8C262.276 469.555 263.045 473.251 265.798 475.055C268.552 476.859 272.247 476.089 274.052 473.334Z" fill="#CFBD9A"/>
<path d="M289.306 450.054C291.111 447.299 290.342 443.603 287.589 441.799C284.835 439.995 281.14 440.766 279.335 443.521C277.53 446.276 278.298 449.971 281.052 451.775C283.805 453.58 287.501 452.809 289.306 450.054Z" fill="#CFBD9A"/>
<path d="M304.56 426.774C306.365 424.019 305.596 420.323 302.843 418.519C300.089 416.715 296.394 417.485 294.589 420.24C292.784 422.995 293.552 426.691 296.306 428.495C299.059 430.299 302.754 429.529 304.56 426.774Z" fill="#CFBD9A"/>
<path d="M319.817 403.488C321.622 400.733 320.853 397.038 318.1 395.234C315.346 393.429 311.651 394.2 309.846 396.955C308.041 399.71 308.81 403.406 311.563 405.21C314.316 407.014 318.012 406.243 319.817 403.488Z" fill="#CFBD9A"/>
<path d="M335.071 380.208C336.876 377.453 336.107 373.757 333.353 371.953C330.6 370.149 326.905 370.92 325.1 373.675C323.294 376.43 324.063 380.126 326.817 381.93C329.57 383.734 333.265 382.963 335.071 380.208Z" fill="#CFBD9A"/>
<path d="M350.324 356.928C352.13 354.173 351.361 350.478 348.607 348.674C345.854 346.869 342.159 347.64 340.353 350.395C338.548 353.15 339.317 356.846 342.071 358.65C344.824 360.454 348.519 359.683 350.324 356.928Z" fill="#CFBD9A"/>
<path d="M365.578 333.648C367.383 330.893 366.615 327.197 363.861 325.393C361.108 323.589 357.412 324.36 355.607 327.115C353.802 329.87 354.571 333.566 357.324 335.37C360.078 337.174 363.773 336.403 365.578 333.648Z" fill="#CFBD9A"/>
<path d="M380.832 310.368C382.637 307.613 381.868 303.917 379.115 302.113C376.361 300.309 372.666 301.08 370.861 303.835C369.056 306.59 369.825 310.285 372.578 312.089C375.331 313.894 379.027 313.123 380.832 310.368Z" fill="#CFBD9A"/>
<path d="M304.953 476.94C306.759 474.185 305.99 470.489 303.236 468.685C300.483 466.881 296.788 467.652 294.982 470.407C293.177 473.162 293.946 476.858 296.699 478.662C299.453 480.466 303.148 479.695 304.953 476.94Z" fill="#CFBD9A"/>
<path d="M320.207 453.66C322.012 450.905 321.244 447.209 318.49 445.405C315.737 443.601 312.041 444.372 310.236 447.127C308.431 449.882 309.2 453.577 311.953 455.381C314.707 457.186 318.402 456.415 320.207 453.66Z" fill="#CFBD9A"/>
<path d="M335.461 430.38C337.266 427.625 336.497 423.929 333.744 422.125C330.99 420.321 327.295 421.092 325.49 423.847C323.685 426.602 324.454 430.297 327.207 432.102C329.96 433.906 333.656 433.135 335.461 430.38Z" fill="#CFBD9A"/>
<path d="M350.715 407.1C352.52 404.345 351.751 400.649 348.998 398.845C346.244 397.041 342.549 397.812 340.744 400.566C338.939 403.321 339.707 407.017 342.461 408.821C345.214 410.625 348.91 409.855 350.715 407.1Z" fill="#CFBD9A"/>
<path d="M365.968 383.82C367.774 381.065 367.005 377.369 364.251 375.565C361.498 373.761 357.803 374.532 355.997 377.287C354.192 380.042 354.961 383.737 357.715 385.542C360.468 387.346 364.163 386.575 365.968 383.82Z" fill="#CFBD9A"/>
<path d="M381.226 360.534C383.031 357.779 382.262 354.084 379.509 352.279C376.755 350.475 373.06 351.246 371.255 354.001C369.45 356.756 370.218 360.452 372.972 362.256C375.725 364.06 379.421 363.289 381.226 360.534Z" fill="#CFBD9A"/>
<path d="M396.479 337.254C398.285 334.499 397.516 330.803 394.762 328.999C392.009 327.195 388.314 327.966 386.508 330.721C384.703 333.476 385.472 337.171 388.225 338.976C390.979 340.78 394.674 340.009 396.479 337.254Z" fill="#CFBD9A"/>
<path d="M351.1 457.268C352.905 454.513 352.136 450.817 349.383 449.013C346.629 447.209 342.934 447.98 341.129 450.735C339.324 453.49 340.092 457.186 342.846 458.99C345.599 460.794 349.295 460.023 351.1 457.268Z" fill="#CFBD9A"/>
<path d="M366.357 433.983C368.162 431.228 367.393 427.532 364.64 425.728C361.886 423.924 358.191 424.694 356.386 427.449C354.581 430.204 355.35 433.9 358.103 435.704C360.856 437.508 364.552 436.738 366.357 433.983Z" fill="#CFBD9A"/>
<path d="M381.611 410.702C383.416 407.947 382.647 404.251 379.894 402.447C377.14 400.643 373.445 401.414 371.64 404.169C369.835 406.924 370.603 410.62 373.357 412.424C376.11 414.228 379.806 413.457 381.611 410.702Z" fill="#CFBD9A"/>
<path d="M396.864 387.422C398.67 384.668 397.9 380.971 395.147 379.168C392.394 377.364 388.699 378.134 386.893 380.889C385.088 383.644 385.857 387.34 388.611 389.144C391.363 390.948 395.059 390.177 396.864 387.422Z" fill="#CFBD9A"/>
<path d="M381.996 460.871C383.801 458.116 383.032 454.42 380.279 452.616C377.525 450.812 373.83 451.583 372.025 454.337C370.22 457.092 370.988 460.788 373.742 462.592C376.495 464.396 380.19 463.626 381.996 460.871Z" fill="#CFBD9A"/>
<path d="M397.249 437.59C399.055 434.836 398.286 431.14 395.532 429.336C392.779 427.531 389.084 428.302 387.278 431.057C385.473 433.812 386.242 437.508 388.995 439.312C391.749 441.116 395.444 440.345 397.249 437.59Z" fill="#CFBD9A"/>
<path d="M412.503 414.311C414.308 411.556 413.54 407.86 410.786 406.056C408.033 404.252 404.337 405.022 402.532 407.777C400.727 410.532 401.496 414.228 404.249 416.032C407.003 417.836 410.698 417.066 412.503 414.311Z" fill="#CFBD9A"/>
</mask>
<g mask="url(#mask0_611_23550)">
<path d="M108.432 150.504C108.091 135.943 120.22 124.174 134.765 124.954L322.562 135.029C333.888 135.636 343.385 143.792 345.698 154.895L399.279 412.134C402.094 425.651 393.419 438.891 379.902 441.707L145.941 490.439C130.651 493.624 116.216 482.165 115.85 466.551L108.432 150.504Z" fill="#FCFCFC"/>
</g>
</svg>
