<svg width="614" height="189" viewBox="0 0 614 189" fill="none" xmlns="http://www.w3.org/2000/svg">
<mask id="mask0_550_28399" style="mask-type:alpha" maskUnits="userSpaceOnUse" x="0" y="0" width="614" height="189">
<rect width="614" height="189" fill="#FFFBFB"/>
</mask>
<g mask="url(#mask0_550_28399)">
<path d="M466.316 -181.899C458.328 -202.841 437.38 -215.908 415.059 -213.872L106.794 -185.761C79.2934 -183.253 59.0331 -158.926 61.541 -131.426L86.6807 144.25C89.503 175.199 119.577 196.104 149.57 187.964L511.147 89.8353C539.691 82.0889 555.309 51.3941 544.768 23.7603L466.316 -181.899Z" fill="#FCFCFC"/>
<mask id="mask1_550_28399" style="mask-type:alpha" maskUnits="userSpaceOnUse" x="98" y="-261" width="421" height="406">
<path d="M168.095 132.96C164.875 132.27 161.705 134.32 161.015 137.538C160.326 140.757 162.377 143.926 165.598 144.616C168.818 145.306 171.988 143.256 172.678 140.037C173.368 136.818 171.316 133.65 168.095 132.96Z" fill="#CFBD9A"/>
<path d="M214.744 114.498C211.523 113.808 208.353 115.858 207.664 119.077C206.974 122.296 209.025 125.465 212.246 126.155C215.467 126.845 218.636 124.795 219.326 121.576C220.016 118.357 217.964 115.189 214.744 114.498Z" fill="#CFBD9A"/>
<path d="M187.529 108.668C184.308 107.978 181.139 110.028 180.449 113.247C179.759 116.466 181.811 119.635 185.031 120.325C188.252 121.015 191.422 118.965 192.111 115.746C192.801 112.527 190.75 109.358 187.529 108.668Z" fill="#CFBD9A"/>
<path d="M160.314 102.836C157.094 102.146 153.924 104.196 153.234 107.415C152.545 110.634 154.596 113.803 157.817 114.493C161.037 115.183 164.207 113.133 164.897 109.914C165.586 106.695 163.535 103.526 160.314 102.836Z" fill="#CFBD9A"/>
<path d="M261.397 96.0475C258.176 95.3575 255.006 97.4074 254.317 100.626C253.627 103.845 255.679 107.014 258.899 107.704C262.12 108.394 265.289 106.344 265.979 103.125C266.669 99.9062 264.617 96.7376 261.397 96.0475Z" fill="#CFBD9A"/>
<path d="M234.182 90.2155C230.961 89.5255 227.792 91.5753 227.102 94.7942C226.412 98.013 228.464 101.182 231.685 101.872C234.905 102.562 238.075 100.512 238.765 97.293C239.454 94.0742 237.403 90.9056 234.182 90.2155Z" fill="#CFBD9A"/>
<path d="M206.967 84.3854C203.747 83.6954 200.577 85.7453 199.887 88.9641C199.198 92.1829 201.249 95.3515 204.47 96.0416C207.69 96.7316 210.86 94.6818 211.55 91.4629C212.24 88.2441 210.188 85.0755 206.967 84.3854Z" fill="#CFBD9A"/>
<path d="M179.753 78.5534C176.532 77.8633 173.362 79.9132 172.673 83.132C171.983 86.3509 174.035 89.5195 177.255 90.2096C180.476 90.8996 183.646 88.8497 184.335 85.6309C185.025 82.4121 182.973 79.2435 179.753 78.5534Z" fill="#CFBD9A"/>
<path d="M152.538 72.7214C149.318 72.0313 146.148 74.0812 145.458 77.3C144.768 80.5188 146.82 83.6875 150.041 84.3775C153.261 85.0676 156.431 83.0177 157.121 79.7989C157.81 76.5801 155.759 73.4114 152.538 72.7214Z" fill="#CFBD9A"/>
<path d="M335.264 83.4264C332.044 82.7364 328.874 84.7863 328.184 88.0051C327.495 91.2239 329.546 94.3925 332.767 95.0826C335.987 95.7727 339.157 93.7228 339.847 90.504C340.536 87.2851 338.485 84.1165 335.264 83.4264Z" fill="#CFBD9A"/>
<path d="M308.05 77.5944C304.829 76.9043 301.659 78.9542 300.97 82.1731C300.28 85.3919 302.332 88.5605 305.552 89.2506C308.773 89.9406 311.943 87.8907 312.632 84.6719C313.322 81.4531 311.27 78.2845 308.05 77.5944Z" fill="#CFBD9A"/>
<path d="M280.835 71.7624C277.614 71.0723 274.445 73.1222 273.755 76.341C273.065 79.5598 275.117 82.7285 278.338 83.4185C281.558 84.1086 284.728 82.0587 285.418 78.8399C286.107 75.6211 284.056 72.4524 280.835 71.7624Z" fill="#CFBD9A"/>
<path d="M253.62 65.9323C250.4 65.2422 247.23 67.2921 246.54 70.511C245.851 73.7298 247.902 76.8984 251.123 77.5885C254.343 78.2785 257.513 76.2286 258.203 73.0098C258.892 69.791 256.841 66.6223 253.62 65.9323Z" fill="#CFBD9A"/>
<path d="M226.399 60.1003C223.179 59.4102 220.009 61.4601 219.319 64.6789C218.63 67.8977 220.681 71.0664 223.902 71.7564C227.123 72.4465 230.292 70.3966 230.982 67.1778C231.672 63.959 229.62 60.7903 226.399 60.1003Z" fill="#CFBD9A"/>
<path d="M199.185 54.2682C195.964 53.5782 192.795 55.6281 192.105 58.8469C191.415 62.0657 193.467 65.2343 196.687 65.9244C199.908 66.6145 203.078 64.5646 203.767 61.3458C204.457 58.1269 202.405 54.9583 199.185 54.2682Z" fill="#CFBD9A"/>
<path d="M171.97 48.4382C168.75 47.7481 165.58 49.798 164.89 53.0168C164.201 56.2356 166.252 59.4043 169.473 60.0943C172.693 60.7844 175.863 58.7345 176.553 55.5157C177.242 52.2969 175.191 49.1282 171.97 48.4382Z" fill="#CFBD9A"/>
<path d="M144.756 42.6061C141.535 41.9161 138.365 43.966 137.676 47.1848C136.986 50.4036 139.038 53.5722 142.258 54.2623C145.479 54.9523 148.648 52.9025 149.338 49.6836C150.028 46.4648 147.976 43.2962 144.756 42.6061Z" fill="#CFBD9A"/>
<path d="M381.917 64.9733C378.697 64.2833 375.527 66.3331 374.837 69.552C374.147 72.7708 376.199 75.9394 379.42 76.6295C382.64 77.3195 385.81 75.2696 386.5 72.0508C387.189 68.832 385.138 65.6634 381.917 64.9733Z" fill="#CFBD9A"/>
<path d="M354.703 59.1413C351.482 58.4512 348.312 60.5011 347.622 63.7199C346.933 66.9387 348.984 70.1074 352.205 70.7974C355.426 71.4875 358.595 69.4376 359.285 66.2188C359.975 63 357.923 59.8313 354.703 59.1413Z" fill="#CFBD9A"/>
<path d="M327.488 53.3112C324.267 52.6211 321.098 54.671 320.408 57.8898C319.718 61.1087 321.77 64.2773 324.99 64.9674C328.211 65.6574 331.381 63.6075 332.07 60.3887C332.76 57.1699 330.708 54.0013 327.488 53.3112Z" fill="#CFBD9A"/>
<path d="M300.267 47.4792C297.047 46.7891 293.877 48.839 293.187 52.0578C292.497 55.2766 294.549 58.4453 297.77 59.1353C300.99 59.8254 304.16 57.7755 304.85 54.5567C305.539 51.3379 303.488 48.1692 300.267 47.4792Z" fill="#CFBD9A"/>
<path d="M273.052 41.6471C269.832 40.9571 266.662 43.007 265.972 46.2258C265.283 49.4446 267.334 52.6133 270.555 53.3033C273.776 53.9934 276.945 51.9435 277.635 48.7246C278.325 45.5058 276.273 42.3372 273.052 41.6471Z" fill="#CFBD9A"/>
<path d="M245.838 35.8171C242.617 35.127 239.448 37.1769 238.758 40.3957C238.068 43.6145 240.12 46.7832 243.34 47.4732C246.561 48.1633 249.731 46.1134 250.42 42.8946C251.11 39.6758 249.058 36.5071 245.838 35.8171Z" fill="#CFBD9A"/>
<path d="M218.623 29.985C215.403 29.295 212.233 31.3449 211.543 34.5637C210.854 37.7825 212.905 40.9511 216.126 41.6412C219.346 42.3312 222.516 40.2814 223.206 37.0625C223.895 33.8437 221.844 30.6751 218.623 29.985Z" fill="#CFBD9A"/>
<path d="M191.409 24.153C188.188 23.4629 185.018 25.5128 184.329 28.7316C183.639 31.9505 185.691 35.1191 188.911 35.8092C192.132 36.4992 195.301 34.4493 195.991 31.2305C196.681 28.0117 194.629 24.8431 191.409 24.153Z" fill="#CFBD9A"/>
<path d="M164.194 18.3229C160.973 17.6329 157.804 19.6827 157.114 22.9016C156.424 26.1204 158.476 29.289 161.697 29.9791C164.917 30.6691 168.087 28.6192 168.777 25.4004C169.466 22.1816 167.415 19.013 164.194 18.3229Z" fill="#CFBD9A"/>
<path d="M136.973 12.4909C133.753 11.8008 130.583 13.8507 129.893 17.0695C129.203 20.2884 131.255 23.457 134.476 24.1471C137.696 24.8371 140.866 22.7872 141.556 19.5684C142.245 16.3496 140.194 13.1809 136.973 12.4909Z" fill="#CFBD9A"/>
<path d="M401.356 40.6901C398.135 40 394.965 42.0506 394.276 45.2688C393.586 48.4876 395.637 51.6562 398.858 52.3463C402.079 53.0363 405.248 50.9864 405.938 47.7676C406.628 44.5494 404.576 41.3802 401.356 40.6901Z" fill="#CFBD9A"/>
<path d="M374.135 34.8561C370.914 34.1661 367.744 36.2166 367.055 39.4348C366.365 42.6536 368.417 45.8222 371.637 46.5123C374.858 47.2023 378.028 45.1525 378.717 41.9336C379.407 38.7154 377.355 35.5462 374.135 34.8561Z" fill="#CFBD9A"/>
<path d="M346.92 29.026C343.7 28.336 340.53 30.3865 339.84 33.6047C339.15 36.8235 341.202 39.9922 344.423 40.6822C347.643 41.3723 350.813 39.3224 351.503 36.1036C352.192 32.8854 350.141 29.7161 346.92 29.026Z" fill="#CFBD9A"/>
<path d="M319.706 23.194C316.485 22.5039 313.315 24.5545 312.626 27.7727C311.936 30.9915 313.987 34.1601 317.208 34.8502C320.429 35.5402 323.598 33.4903 324.288 30.2715C324.978 27.0533 322.926 23.8841 319.706 23.194Z" fill="#CFBD9A"/>
<path d="M292.491 17.3639C289.27 16.6739 286.1 18.7244 285.411 21.9426C284.721 25.1614 286.773 28.33 289.993 29.0201C293.214 29.7102 296.384 27.6603 297.073 24.4415C297.763 21.2233 295.711 18.054 292.491 17.3639Z" fill="#CFBD9A"/>
<path d="M265.276 11.5319C262.056 10.8418 258.886 12.8924 258.196 16.1106C257.507 19.3294 259.558 22.498 262.779 23.1881C265.999 23.8781 269.169 21.8282 269.859 18.6094C270.548 15.3912 268.497 12.222 265.276 11.5319Z" fill="#CFBD9A"/>
<path d="M238.055 5.69987C234.835 5.00981 231.665 7.06034 230.975 10.2785C230.286 13.4973 232.337 16.666 235.558 17.356C238.778 18.0461 241.948 15.9962 242.638 12.7774C243.327 9.5592 241.276 6.38992 238.055 5.69987Z" fill="#CFBD9A"/>
<path d="M210.841 -0.130213C207.62 -0.820267 204.45 1.23026 203.761 4.44845C203.071 7.66727 205.123 10.8359 208.343 11.526C211.564 12.216 214.734 10.1661 215.423 6.94731C216.113 3.72912 214.061 0.559841 210.841 -0.130213Z" fill="#CFBD9A"/>
<path d="M183.626 -5.96224C180.406 -6.6523 177.236 -4.60177 176.546 -1.38358C175.856 1.83524 177.908 5.00388 181.129 5.69393C184.349 6.38398 187.519 4.3341 188.209 1.11528C188.898 -2.10291 186.847 -5.27219 183.626 -5.96224Z" fill="#CFBD9A"/>
<path d="M156.411 -11.7923C153.191 -12.4824 150.021 -10.4319 149.331 -7.21366C148.642 -3.99485 150.693 -0.826211 153.914 -0.136157C157.135 0.553897 160.304 -1.49598 160.994 -4.7148C161.684 -7.93299 159.632 -11.1023 156.411 -11.7923Z" fill="#CFBD9A"/>
<path d="M448.002 22.235C444.782 21.545 441.612 23.5949 440.922 26.8137C440.233 30.0325 442.284 33.2011 445.505 33.8912C448.725 34.5812 451.895 32.5314 452.585 29.3125C453.274 26.0937 451.223 22.9251 448.002 22.235Z" fill="#CFBD9A"/>
<path d="M420.788 16.405C417.567 15.7149 414.397 17.7648 413.708 20.9836C413.018 24.2024 415.07 27.3711 418.29 28.0611C421.511 28.7512 424.681 26.7013 425.37 23.4825C426.06 20.2637 424.008 17.095 420.788 16.405Z" fill="#CFBD9A"/>
<path d="M393.573 10.5729C390.352 9.88288 387.183 11.9328 386.493 15.1516C385.803 18.3704 387.855 21.539 391.076 22.2291C394.296 22.9191 397.466 20.8693 398.156 17.6504C398.845 14.4316 396.794 11.263 393.573 10.5729Z" fill="#CFBD9A"/>
<path d="M366.358 4.74285C363.138 4.0528 359.968 6.10268 359.278 9.3215C358.589 12.5403 360.64 15.709 363.861 16.399C367.081 17.0891 370.251 15.0392 370.941 11.8204C371.631 8.60154 369.579 5.4329 366.358 4.74285Z" fill="#CFBD9A"/>
<path d="M339.144 -1.08918C335.923 -1.77923 332.753 0.270647 332.064 3.48946C331.374 6.70828 333.426 9.87692 336.646 10.567C339.867 11.257 343.037 9.20715 343.726 5.98833C344.416 2.76951 342.364 -0.399126 339.144 -1.08918Z" fill="#CFBD9A"/>
<path d="M311.923 -6.92121C308.702 -7.61126 305.533 -5.56138 304.843 -2.34256C304.153 0.876255 306.205 4.04489 309.425 4.73495C312.646 5.425 315.816 3.37511 316.505 0.156297C317.195 -3.06252 315.144 -6.23116 311.923 -6.92121Z" fill="#CFBD9A"/>
<path d="M284.708 -12.7532C281.488 -13.4433 278.318 -11.3934 277.628 -8.17459C276.939 -4.95578 278.99 -1.78714 282.211 -1.09709C285.431 -0.407032 288.601 -2.45692 289.291 -5.67573C289.981 -8.89455 287.929 -12.0632 284.708 -12.7532Z" fill="#CFBD9A"/>
<path d="M467.442 -2.054C464.222 -2.74406 461.052 -0.693531 460.362 2.52466C459.672 5.74348 461.724 8.91212 464.945 9.60217C468.165 10.2922 471.335 8.2423 472.024 5.02349C472.714 1.80529 470.663 -1.36395 467.442 -2.054Z" fill="#CFBD9A"/>
<path d="M440.228 -7.88607C437.007 -8.57613 433.837 -6.5256 433.148 -3.30741C432.458 -0.0885908 434.509 3.08005 437.73 3.7701C440.951 4.46015 444.12 2.41027 444.81 -0.808546C445.5 -4.02674 443.448 -7.19602 440.228 -7.88607Z" fill="#CFBD9A"/>
</mask>
<g mask="url(#mask1_550_28399)">
<path d="M187.171 118.271C173.712 123.842 158.361 116.773 153.843 102.926L95.5098 -75.8665C91.9919 -86.6487 96.1731 -98.4482 105.695 -104.61L326.298 -247.359C337.89 -254.86 353.368 -251.544 360.868 -239.952L490.7 -39.3118C499.185 -26.1994 493.703 -8.60365 479.272 -2.63061L187.171 118.271Z" fill="#F4F4F4"/>
</g>
</g>
</svg>
