<svg width="595" height="581" viewBox="0 0 595 581" fill="none" xmlns="http://www.w3.org/2000/svg">
<path d="M177.585 54.9875C184.931 28.2447 212.64 12.5904 239.337 20.0998L550.605 107.653C573.134 113.99 588.254 135.107 586.994 158.477L566.932 530.487C565.445 558.061 541.886 579.209 514.312 577.722L102.957 555.539C71.1072 553.821 48.9866 523.124 57.4356 492.367L177.585 54.9875Z" fill="#F4F4F4"/>
<mask id="mask0_611_20056" style="mask-type:alpha" maskUnits="userSpaceOnUse" x="51" y="127" width="338" height="394">
<path d="M76.6127 136.416C78.4178 133.661 77.649 129.965 74.8956 128.161C72.1422 126.357 68.4468 127.127 66.6417 129.882C64.8366 132.637 65.6054 136.333 68.3588 138.137C71.1122 139.941 74.8075 139.171 76.6127 136.416Z" fill="#CFBD9A"/>
<path d="M77.0067 186.582C78.8118 183.827 78.0431 180.132 75.2896 178.327C72.536 176.523 68.8406 177.294 67.0355 180.049C65.2304 182.804 65.9992 186.5 68.7528 188.304C71.5062 190.108 75.2015 189.337 77.0067 186.582Z" fill="#CFBD9A"/>
<path d="M92.2603 163.302C94.0655 160.547 93.2967 156.851 90.5433 155.047C87.7897 153.243 84.0943 154.014 82.2892 156.769C80.484 159.524 81.2528 163.219 84.0064 165.024C86.7599 166.828 90.4552 166.057 92.2603 163.302Z" fill="#CFBD9A"/>
<path d="M107.514 140.022C109.319 137.267 108.551 133.571 105.797 131.767C103.044 129.963 99.3482 130.733 97.5431 133.488C95.7379 136.243 96.5067 139.939 99.2604 141.743C102.014 143.547 105.709 142.777 107.514 140.022Z" fill="#CFBD9A"/>
<path d="M77.3917 236.751C79.1968 233.996 78.4281 230.3 75.6746 228.496C72.9212 226.692 69.2259 227.462 67.4208 230.217C65.6156 232.972 66.3844 236.668 69.1378 238.472C71.8913 240.276 75.5866 239.506 77.3917 236.751Z" fill="#CFBD9A"/>
<path d="M92.6454 213.47C94.4505 210.715 93.6818 207.02 90.9283 205.216C88.1749 203.411 84.4795 204.182 82.6744 206.937C80.8693 209.692 81.638 213.388 84.3915 215.192C87.1449 216.996 90.8403 216.225 92.6454 213.47Z" fill="#CFBD9A"/>
<path d="M107.899 190.19C109.704 187.435 108.936 183.739 106.182 181.935C103.429 180.131 99.7335 180.902 97.9283 183.657C96.1232 186.412 96.8919 190.108 99.6454 191.912C102.399 193.716 106.094 192.945 107.899 190.19Z" fill="#CFBD9A"/>
<path d="M123.153 166.91C124.958 164.155 124.189 160.46 121.436 158.655C118.682 156.851 114.987 157.622 113.182 160.377C111.377 163.132 112.146 166.828 114.899 168.632C117.653 170.436 121.348 169.665 123.153 166.91Z" fill="#CFBD9A"/>
<path d="M138.407 143.63C140.212 140.875 139.443 137.179 136.69 135.375C133.936 133.571 130.241 134.342 128.436 137.097C126.631 139.852 127.4 143.547 130.153 145.352C132.906 147.156 136.602 146.385 138.407 143.63Z" fill="#CFBD9A"/>
<path d="M62.5231 310.199C64.3282 307.444 63.5594 303.748 60.806 301.944C58.0525 300.14 54.3572 300.911 52.5521 303.666C50.747 306.421 51.5157 310.116 54.2692 311.92C57.0226 313.725 60.7179 312.954 62.5231 310.199Z" fill="#CFBD9A"/>
<path d="M77.7767 286.919C79.5819 284.164 78.8131 280.468 76.0597 278.664C73.3062 276.86 69.6109 277.63 67.8058 280.385C66.0006 283.14 66.7694 286.836 69.5228 288.64C72.2763 290.444 75.9716 289.674 77.7767 286.919Z" fill="#CFBD9A"/>
<path d="M93.0304 263.638C94.8355 260.883 94.0668 257.188 91.3133 255.383C88.5599 253.579 84.8646 254.35 83.0594 257.105C81.2543 259.86 82.023 263.556 84.7765 265.36C87.53 267.164 91.2253 266.393 93.0304 263.638Z" fill="#CFBD9A"/>
<path d="M108.284 240.358C110.089 237.603 109.321 233.907 106.567 232.103C103.814 230.299 100.118 231.07 98.3133 233.825C96.5082 236.58 97.2769 240.275 100.03 242.08C102.784 243.884 106.479 243.113 108.284 240.358Z" fill="#CFBD9A"/>
<path d="M123.541 217.073C125.347 214.318 124.578 210.622 121.824 208.818C119.071 207.014 115.376 207.785 113.57 210.54C111.765 213.295 112.534 216.99 115.287 218.794C118.041 220.599 121.736 219.828 123.541 217.073Z" fill="#CFBD9A"/>
<path d="M138.795 193.793C140.6 191.038 139.832 187.342 137.078 185.538C134.325 183.734 130.629 184.505 128.824 187.26C127.019 190.015 127.788 193.711 130.541 195.515C133.295 197.319 136.99 196.548 138.795 193.793Z" fill="#CFBD9A"/>
<path d="M154.049 170.513C155.854 167.758 155.085 164.062 152.332 162.258C149.578 160.454 145.883 161.225 144.078 163.98C142.273 166.735 143.042 170.43 145.795 172.234C148.549 174.039 152.244 173.268 154.049 170.513Z" fill="#CFBD9A"/>
<path d="M169.303 147.233C171.108 144.478 170.339 140.782 167.586 138.978C164.832 137.174 161.137 137.945 159.332 140.7C157.527 143.455 158.295 147.15 161.049 148.955C163.802 150.759 167.498 149.988 169.303 147.233Z" fill="#CFBD9A"/>
<path d="M62.9078 360.367C64.713 357.612 63.9442 353.916 61.1908 352.112C58.4373 350.308 54.742 351.079 52.9369 353.834C51.1317 356.589 51.9005 360.284 54.6539 362.088C57.4074 363.893 61.1027 363.122 62.9078 360.367Z" fill="#CFBD9A"/>
<path d="M78.1617 337.087C79.9669 334.332 79.1981 330.636 76.4447 328.832C73.6912 327.028 69.9959 327.798 68.1908 330.553C66.3857 333.308 67.1544 337.004 69.9079 338.808C72.6613 340.612 76.3566 339.842 78.1617 337.087Z" fill="#CFBD9A"/>
<path d="M93.4154 313.806C95.2205 311.051 94.4518 307.356 91.6983 305.551C88.9449 303.747 85.2496 304.518 83.4444 307.273C81.6393 310.028 82.4081 313.724 85.1615 315.528C87.915 317.332 91.6103 316.561 93.4154 313.806Z" fill="#CFBD9A"/>
<path d="M108.673 290.521C110.478 287.766 109.709 284.07 106.956 282.266C104.202 280.462 100.507 281.233 98.7018 283.988C96.8966 286.743 97.6654 290.439 100.419 292.243C103.172 294.047 106.868 293.276 108.673 290.521Z" fill="#CFBD9A"/>
<path d="M123.926 267.241C125.732 264.486 124.963 260.791 122.209 258.987C119.456 257.182 115.761 257.953 113.955 260.708C112.15 263.463 112.919 267.159 115.673 268.963C118.426 270.767 122.121 269.996 123.926 267.241Z" fill="#CFBD9A"/>
<path d="M139.18 243.961C140.985 241.206 140.217 237.51 137.463 235.706C134.71 233.902 131.014 234.673 129.209 237.428C127.404 240.183 128.173 243.879 130.926 245.683C133.68 247.487 137.375 246.716 139.18 243.961Z" fill="#CFBD9A"/>
<path d="M154.434 220.681C156.239 217.926 155.47 214.231 152.717 212.426C149.963 210.622 146.268 211.393 144.463 214.148C142.658 216.903 143.427 220.599 146.18 222.403C148.934 224.207 152.629 223.436 154.434 220.681Z" fill="#CFBD9A"/>
<path d="M169.688 197.401C171.493 194.646 170.724 190.95 167.971 189.146C165.217 187.342 161.522 188.113 159.717 190.868C157.912 193.623 158.68 197.318 161.434 199.123C164.187 200.927 167.882 200.156 169.688 197.401Z" fill="#CFBD9A"/>
<path d="M184.942 174.121C186.747 171.366 185.978 167.671 183.224 165.866C180.471 164.062 176.776 164.833 174.971 167.588C173.165 170.343 173.934 174.039 176.688 175.843C179.441 177.647 183.136 176.876 184.942 174.121Z" fill="#CFBD9A"/>
<path d="M200.199 150.836C202.004 148.081 201.235 144.385 198.482 142.581C195.728 140.777 192.033 141.547 190.228 144.302C188.423 147.057 189.191 150.753 191.945 152.557C194.698 154.361 198.393 153.591 200.199 150.836Z" fill="#CFBD9A"/>
<path d="M78.5468 387.255C80.3519 384.5 79.5826 380.804 76.8297 379C74.0762 377.196 70.3809 377.967 68.5758 380.722C66.7707 383.477 67.5394 387.172 70.2929 388.977C73.0458 390.78 76.7416 390.01 78.5468 387.255Z" fill="#CFBD9A"/>
<path d="M93.8038 363.969C95.609 361.214 94.8397 357.518 92.0868 355.715C89.3333 353.91 85.638 354.681 83.8329 357.436C82.0277 360.191 82.7965 363.887 85.5499 365.691C88.3029 367.495 91.9987 366.724 93.8038 363.969Z" fill="#CFBD9A"/>
<path d="M109.058 340.69C110.863 337.935 110.094 334.239 107.341 332.435C104.587 330.631 100.892 331.401 99.0868 334.156C97.2816 336.911 98.0504 340.607 100.804 342.411C103.557 344.215 107.253 343.445 109.058 340.69Z" fill="#CFBD9A"/>
<path d="M124.311 317.409C126.117 314.654 125.347 310.958 122.594 309.154C119.841 307.35 116.146 308.121 114.34 310.876C112.535 313.631 113.304 317.327 116.058 319.131C118.81 320.935 122.506 320.164 124.311 317.409Z" fill="#CFBD9A"/>
<path d="M139.565 294.13C141.37 291.375 140.601 287.678 137.848 285.875C135.095 284.071 131.399 284.841 129.594 287.596C127.789 290.351 128.558 294.047 131.311 295.851C134.064 297.655 137.76 296.884 139.565 294.13Z" fill="#CFBD9A"/>
<path d="M154.819 270.849C156.624 268.094 155.855 264.398 153.102 262.594C150.348 260.79 146.653 261.561 144.848 264.316C143.043 267.071 143.812 270.767 146.565 272.571C149.318 274.375 153.014 273.604 154.819 270.849Z" fill="#CFBD9A"/>
<path d="M170.076 247.564C171.881 244.809 171.112 241.113 168.359 239.309C165.606 237.505 161.91 238.275 160.105 241.03C158.3 243.785 159.069 247.481 161.822 249.285C164.575 251.089 168.271 250.319 170.076 247.564Z" fill="#CFBD9A"/>
<path d="M185.33 224.284C187.135 221.529 186.366 217.833 183.613 216.029C180.859 214.225 177.164 214.996 175.359 217.751C173.554 220.506 174.323 224.201 177.076 226.005C179.829 227.809 183.525 227.039 185.33 224.284Z" fill="#CFBD9A"/>
<path d="M200.584 201.004C202.389 198.249 201.619 194.553 198.867 192.749C196.113 190.945 192.418 191.715 190.613 194.47C188.808 197.225 189.576 200.921 192.33 202.725C195.083 204.529 198.778 203.759 200.584 201.004Z" fill="#CFBD9A"/>
<path d="M215.838 177.724C217.643 174.969 216.873 171.273 214.12 169.469C211.367 167.665 207.672 168.436 205.867 171.19C204.061 173.945 204.83 177.641 207.584 179.445C210.337 181.249 214.032 180.479 215.838 177.724Z" fill="#CFBD9A"/>
<path d="M231.091 154.444C232.896 151.689 232.127 147.992 229.374 146.189C226.621 144.385 222.925 145.155 221.12 147.91C219.315 150.665 220.084 154.361 222.837 156.165C225.59 157.969 229.286 157.198 231.091 154.444Z" fill="#CFBD9A"/>
<path d="M78.9352 437.418C80.7403 434.663 79.9716 430.967 77.2181 429.163C74.4647 427.359 70.7693 428.129 68.9642 430.884C67.1591 433.639 67.9278 437.335 70.6813 439.139C73.4347 440.943 77.13 440.173 78.9352 437.418Z" fill="#CFBD9A"/>
<path d="M94.1888 414.137C95.994 411.382 95.2252 407.687 92.4718 405.883C89.7183 404.078 86.023 404.849 84.2179 407.604C82.4127 410.359 83.1815 414.055 85.9349 415.859C88.6884 417.663 92.3837 416.892 94.1888 414.137Z" fill="#CFBD9A"/>
<path d="M109.442 390.858C111.248 388.103 110.479 384.407 107.725 382.603C104.972 380.799 101.277 381.569 99.4715 384.324C97.6664 387.079 98.4352 390.775 101.189 392.579C103.942 394.383 107.637 393.613 109.442 390.858Z" fill="#CFBD9A"/>
<path d="M124.696 367.577C126.502 364.822 125.733 361.127 122.979 359.322C120.226 357.518 116.531 358.289 114.725 361.044C112.92 363.799 113.689 367.495 116.443 369.299C119.196 371.103 122.891 370.332 124.696 367.577Z" fill="#CFBD9A"/>
<path d="M139.95 344.297C141.755 341.543 140.986 337.847 138.233 336.043C135.48 334.239 131.784 335.009 129.979 337.764C128.174 340.519 128.943 344.215 131.696 346.019C134.45 347.823 138.145 347.052 139.95 344.297Z" fill="#CFBD9A"/>
<path d="M155.207 321.012C157.013 318.257 156.244 314.562 153.49 312.758C150.737 310.953 147.042 311.724 145.236 314.479C143.431 317.234 144.2 320.93 146.953 322.734C149.707 324.538 153.402 323.767 155.207 321.012Z" fill="#CFBD9A"/>
<path d="M170.461 297.732C172.266 294.977 171.497 291.281 168.744 289.477C165.991 287.673 162.295 288.444 160.49 291.199C158.685 293.954 159.454 297.649 162.207 299.454C164.961 301.258 168.656 300.487 170.461 297.732Z" fill="#CFBD9A"/>
<path d="M185.715 274.452C187.52 271.697 186.751 268.001 183.998 266.197C181.244 264.393 177.549 265.164 175.744 267.919C173.939 270.673 174.708 274.369 177.461 276.173C180.215 277.978 183.91 277.207 185.715 274.452Z" fill="#CFBD9A"/>
<path d="M200.969 251.172C202.774 248.417 202.005 244.721 199.252 242.917C196.498 241.113 192.803 241.884 190.998 244.639C189.193 247.394 189.961 251.089 192.715 252.894C195.468 254.698 199.164 253.927 200.969 251.172Z" fill="#CFBD9A"/>
<path d="M216.222 227.892C218.027 225.137 217.259 221.441 214.505 219.637C211.752 217.833 208.056 218.604 206.251 221.358C204.446 224.113 205.215 227.809 207.968 229.613C210.722 231.417 214.417 230.647 216.222 227.892Z" fill="#CFBD9A"/>
<path d="M231.476 204.612C233.281 201.857 232.513 198.161 229.759 196.357C227.006 194.553 223.31 195.324 221.505 198.079C219.7 200.834 220.469 204.529 223.222 206.334C225.976 208.138 229.671 207.367 231.476 204.612Z" fill="#CFBD9A"/>
<path d="M246.733 181.326C248.538 178.571 247.77 174.876 245.016 173.071C242.263 171.267 238.567 172.038 236.762 174.793C234.957 177.548 235.726 181.244 238.479 183.048C241.233 184.852 244.928 184.081 246.733 181.326Z" fill="#CFBD9A"/>
<path d="M261.987 158.047C263.792 155.292 263.024 151.596 260.27 149.792C257.517 147.988 253.821 148.758 252.016 151.513C250.211 154.268 250.98 157.964 253.733 159.768C256.487 161.572 260.182 160.801 261.987 158.047Z" fill="#CFBD9A"/>
<path d="M94.5791 464.309C96.3843 461.554 95.615 457.858 92.862 456.055C90.1086 454.25 86.4133 455.021 84.6082 457.776C82.803 460.531 83.5719 464.227 86.3253 466.031C89.0782 467.835 92.774 467.064 94.5791 464.309Z" fill="#CFBD9A"/>
<path d="M109.833 441.029C111.638 438.274 110.869 434.578 108.116 432.775C105.362 430.97 101.667 431.741 99.8619 434.496C98.0568 437.251 98.8255 440.947 101.579 442.751C104.332 444.555 108.028 443.784 109.833 441.029Z" fill="#CFBD9A"/>
<path d="M125.087 417.749C126.892 414.994 126.123 411.298 123.37 409.494C120.616 407.69 116.921 408.461 115.116 411.216C113.311 413.971 114.079 417.667 116.833 419.471C119.586 421.275 123.282 420.504 125.087 417.749Z" fill="#CFBD9A"/>
<path d="M140.344 394.464C142.149 391.709 141.38 388.013 138.627 386.209C135.873 384.405 132.178 385.176 130.373 387.931C128.568 390.686 129.337 394.381 132.09 396.186C134.843 397.989 138.539 397.219 140.344 394.464Z" fill="#CFBD9A"/>
<path d="M155.598 371.184C157.403 368.429 156.634 364.733 153.881 362.929C151.127 361.125 147.432 361.896 145.627 364.65C143.822 367.405 144.59 371.101 147.344 372.905C150.097 374.709 153.793 373.939 155.598 371.184Z" fill="#CFBD9A"/>
<path d="M170.851 347.903C172.657 345.148 171.887 341.452 169.134 339.649C166.381 337.844 162.686 338.615 160.88 341.37C159.075 344.125 159.844 347.821 162.598 349.625C165.35 351.429 169.046 350.658 170.851 347.903Z" fill="#CFBD9A"/>
<path d="M186.105 324.624C187.91 321.869 187.141 318.173 184.388 316.369C181.635 314.565 177.939 315.335 176.134 318.09C174.329 320.845 175.098 324.541 177.851 326.345C180.604 328.149 184.3 327.379 186.105 324.624Z" fill="#CFBD9A"/>
<path d="M201.359 301.343C203.164 298.588 202.395 294.892 199.642 293.089C196.888 291.284 193.193 292.055 191.388 294.81C189.583 297.565 190.352 301.261 193.105 303.065C195.858 304.869 199.554 304.098 201.359 301.343Z" fill="#CFBD9A"/>
<path d="M216.616 278.058C218.421 275.303 217.652 271.607 214.899 269.803C212.146 267.999 208.45 268.77 206.645 271.525C204.84 274.28 205.609 277.976 208.362 279.78C211.115 281.584 214.811 280.813 216.616 278.058Z" fill="#CFBD9A"/>
<path d="M231.87 254.778C233.675 252.024 232.906 248.327 230.153 246.524C227.399 244.719 223.704 245.49 221.899 248.245C220.094 251 220.863 254.696 223.616 256.5C226.369 258.304 230.065 257.533 231.87 254.778Z" fill="#CFBD9A"/>
<path d="M247.124 231.498C248.929 228.743 248.16 225.047 245.407 223.243C242.653 221.439 238.958 222.21 237.153 224.965C235.348 227.72 236.116 231.416 238.87 233.22C241.623 235.024 245.319 234.253 247.124 231.498Z" fill="#CFBD9A"/>
<path d="M262.378 208.218C264.183 205.463 263.413 201.767 260.661 199.963C257.907 198.159 254.212 198.93 252.407 201.685C250.601 204.44 251.37 208.135 254.124 209.939C256.877 211.743 260.572 210.973 262.378 208.218Z" fill="#CFBD9A"/>
<path d="M277.631 184.938C279.436 182.183 278.667 178.487 275.914 176.683C273.161 174.879 269.465 175.649 267.66 178.404C265.855 181.159 266.624 184.855 269.377 186.659C272.13 188.463 275.826 187.693 277.631 184.938Z" fill="#CFBD9A"/>
<path d="M292.885 161.658C294.69 158.903 293.921 155.207 291.168 153.403C288.414 151.599 284.719 152.37 282.914 155.125C281.109 157.88 281.878 161.575 284.631 163.379C287.384 165.183 291.08 164.413 292.885 161.658Z" fill="#CFBD9A"/>
<path d="M94.9642 514.477C96.7693 511.722 96.0006 508.026 93.2472 506.222C90.4937 504.418 86.7984 505.189 84.9933 507.944C83.1882 510.699 83.9569 514.395 86.7103 516.199C89.4638 518.003 93.1591 517.232 94.9642 514.477Z" fill="#CFBD9A"/>
<path d="M110.222 491.192C112.027 488.437 111.258 484.741 108.504 482.937C105.751 481.133 102.056 481.904 100.251 484.659C98.4455 487.414 99.2142 491.109 101.968 492.914C104.721 494.718 108.416 493.947 110.222 491.192Z" fill="#CFBD9A"/>
<path d="M125.475 467.912C127.28 465.157 126.512 461.462 123.758 459.657C121.005 457.853 117.309 458.624 115.504 461.379C113.699 464.134 114.468 467.83 117.221 469.634C119.975 471.438 123.67 470.667 125.475 467.912Z" fill="#CFBD9A"/>
<path d="M140.729 444.632C142.534 441.877 141.765 438.181 139.012 436.377C136.258 434.573 132.563 435.344 130.758 438.099C128.953 440.854 129.722 444.549 132.475 446.354C135.228 448.158 138.924 447.387 140.729 444.632Z" fill="#CFBD9A"/>
<path d="M155.983 421.352C157.788 418.597 157.019 414.901 154.266 413.097C151.512 411.293 147.817 412.064 146.012 414.819C144.207 417.574 144.975 421.27 147.729 423.074C150.482 424.878 154.178 424.107 155.983 421.352Z" fill="#CFBD9A"/>
<path d="M171.236 398.072C173.042 395.317 172.273 391.621 169.519 389.817C166.766 388.013 163.071 388.784 161.265 391.539C159.46 394.294 160.229 397.989 162.983 399.793C165.736 401.598 169.431 400.827 171.236 398.072Z" fill="#CFBD9A"/>
<path d="M186.49 374.792C188.295 372.037 187.526 368.341 184.773 366.537C182.02 364.733 178.324 365.503 176.519 368.258C174.714 371.013 175.483 374.709 178.236 376.513C180.99 378.317 184.685 377.547 186.49 374.792Z" fill="#CFBD9A"/>
<path d="M201.747 351.506C203.553 348.752 202.784 345.056 200.03 343.252C197.277 341.448 193.582 342.218 191.776 344.973C189.971 347.728 190.74 351.424 193.494 353.228C196.247 355.032 199.942 354.261 201.747 351.506Z" fill="#CFBD9A"/>
<path d="M217.001 328.226C218.806 325.471 218.037 321.776 215.284 319.971C212.531 318.167 208.835 318.938 207.03 321.693C205.225 324.448 205.994 328.144 208.747 329.948C211.501 331.752 215.196 330.981 217.001 328.226Z" fill="#CFBD9A"/>
<path d="M232.255 304.946C234.06 302.191 233.291 298.496 230.538 296.692C227.784 294.887 224.089 295.658 222.284 298.413C220.479 301.168 221.248 304.864 224.001 306.668C226.755 308.472 230.45 307.701 232.255 304.946Z" fill="#CFBD9A"/>
<path d="M247.509 281.666C249.314 278.911 248.545 275.215 245.792 273.411C243.038 271.607 239.343 272.378 237.538 275.133C235.733 277.888 236.501 281.584 239.255 283.388C242.008 285.192 245.704 284.421 247.509 281.666Z" fill="#CFBD9A"/>
<path d="M262.762 258.386C264.567 255.631 263.799 251.936 261.045 250.132C258.292 248.327 254.596 249.098 252.791 251.853C250.986 254.608 251.755 258.304 254.508 260.108C257.262 261.912 260.957 261.141 262.762 258.386Z" fill="#CFBD9A"/>
<path d="M278.016 235.106C279.821 232.351 279.053 228.655 276.299 226.851C273.546 225.047 269.85 225.818 268.045 228.573C266.24 231.328 267.009 235.024 269.762 236.828C272.516 238.632 276.211 237.861 278.016 235.106Z" fill="#CFBD9A"/>
<path d="M293.273 211.821C295.078 209.066 294.31 205.37 291.556 203.566C288.803 201.762 285.107 202.533 283.302 205.288C281.497 208.043 282.266 211.738 285.019 213.543C287.773 215.347 291.468 214.576 293.273 211.821Z" fill="#CFBD9A"/>
<path d="M308.527 188.541C310.332 185.786 309.564 182.09 306.81 180.286C304.057 178.482 300.361 179.252 298.556 182.007C296.751 184.762 297.52 188.458 300.273 190.262C303.027 192.066 306.722 191.296 308.527 188.541Z" fill="#CFBD9A"/>
<path d="M323.781 165.261C325.586 162.506 324.817 158.81 322.064 157.006C319.31 155.202 315.615 155.973 313.81 158.728C312.005 161.483 312.774 165.178 315.527 166.982C318.28 168.787 321.976 168.016 323.781 165.261Z" fill="#CFBD9A"/>
<path d="M125.86 518.08C127.665 515.325 126.897 511.63 124.143 509.825C121.39 508.021 117.694 508.792 115.889 511.547C114.084 514.302 114.853 517.998 117.606 519.802C120.36 521.606 124.055 520.835 125.86 518.08Z" fill="#CFBD9A"/>
<path d="M141.114 494.8C142.919 492.045 142.15 488.349 139.397 486.545C136.643 484.741 132.948 485.512 131.143 488.267C129.338 491.022 130.107 494.717 132.86 496.522C135.613 498.326 139.309 497.555 141.114 494.8Z" fill="#CFBD9A"/>
<path d="M156.368 471.52C158.173 468.765 157.404 465.069 154.65 463.265C151.897 461.461 148.202 462.232 146.397 464.987C144.591 467.742 145.36 471.438 148.114 473.242C150.867 475.046 154.562 474.275 156.368 471.52Z" fill="#CFBD9A"/>
<path d="M171.621 448.24C173.427 445.485 172.658 441.79 169.904 439.986C167.151 438.181 163.456 438.952 161.65 441.707C159.845 444.462 160.614 448.158 163.368 449.962C166.121 451.766 169.816 450.995 171.621 448.24Z" fill="#CFBD9A"/>
<path d="M186.879 424.955C188.684 422.2 187.915 418.504 185.161 416.7C182.408 414.896 178.713 415.667 176.908 418.421C175.102 421.176 175.871 424.872 178.625 426.676C181.378 428.48 185.073 427.71 186.879 424.955Z" fill="#CFBD9A"/>
<path d="M202.132 401.674C203.938 398.919 203.169 395.224 200.415 393.42C197.662 391.615 193.967 392.386 192.161 395.141C190.356 397.896 191.125 401.592 193.879 403.396C196.632 405.2 200.327 404.429 202.132 401.674Z" fill="#CFBD9A"/>
<path d="M217.386 378.395C219.191 375.64 218.422 371.944 215.669 370.14C212.916 368.336 209.22 369.106 207.415 371.861C205.61 374.616 206.379 378.312 209.132 380.116C211.886 381.92 215.581 381.15 217.386 378.395Z" fill="#CFBD9A"/>
<path d="M232.64 355.114C234.445 352.359 233.676 348.664 230.923 346.86C228.169 345.055 224.474 345.826 222.669 348.581C220.864 351.336 221.632 355.032 224.386 356.836C227.139 358.64 230.835 357.869 232.64 355.114Z" fill="#CFBD9A"/>
<path d="M247.894 331.835C249.699 329.08 248.93 325.384 246.177 323.58C243.423 321.776 239.728 322.546 237.923 325.301C236.118 328.056 236.886 331.752 239.64 333.556C242.393 335.36 246.089 334.59 247.894 331.835Z" fill="#CFBD9A"/>
<path d="M263.151 308.549C264.956 305.794 264.187 302.098 261.434 300.294C258.68 298.49 254.985 299.261 253.18 302.016C251.375 304.771 252.144 308.466 254.897 310.271C257.651 312.075 261.346 311.304 263.151 308.549Z" fill="#CFBD9A"/>
<path d="M278.405 285.269C280.21 282.514 279.441 278.818 276.688 277.014C273.934 275.21 270.239 275.981 268.434 278.736C266.629 281.491 267.397 285.187 270.151 286.991C272.904 288.795 276.6 288.024 278.405 285.269Z" fill="#CFBD9A"/>
<path d="M293.658 261.989C295.463 259.234 294.695 255.538 291.941 253.734C289.188 251.93 285.492 252.701 283.687 255.456C281.882 258.211 282.651 261.906 285.404 263.71C288.158 265.515 291.853 264.744 293.658 261.989Z" fill="#CFBD9A"/>
<path d="M308.912 238.709C310.717 235.954 309.949 232.258 307.195 230.454C304.442 228.65 300.746 229.421 298.941 232.176C297.136 234.931 297.905 238.627 300.658 240.431C303.412 242.235 307.107 241.464 308.912 238.709Z" fill="#CFBD9A"/>
<path d="M324.166 215.429C325.971 212.674 325.202 208.978 322.449 207.174C319.695 205.37 316 206.141 314.195 208.896C312.39 211.651 313.159 215.346 315.912 217.15C318.665 218.955 322.361 218.184 324.166 215.429Z" fill="#CFBD9A"/>
<path d="M339.42 192.149C341.225 189.394 340.456 185.698 337.703 183.894C334.949 182.09 331.254 182.861 329.449 185.616C327.644 188.371 328.412 192.066 331.166 193.871C333.919 195.675 337.615 194.904 339.42 192.149Z" fill="#CFBD9A"/>
<path d="M172.01 498.403C173.815 495.648 173.046 491.952 170.293 490.148C167.539 488.344 163.844 489.115 162.039 491.87C160.234 494.625 161.003 498.32 163.756 500.125C166.509 501.928 170.205 501.158 172.01 498.403Z" fill="#CFBD9A"/>
<path d="M187.264 475.123C189.069 472.368 188.299 468.672 185.546 466.868C182.793 465.064 179.098 465.834 177.293 468.589C175.487 471.344 176.256 475.04 179.01 476.844C181.763 478.648 185.458 477.878 187.264 475.123Z" fill="#CFBD9A"/>
<path d="M202.517 451.843C204.323 449.088 203.553 445.392 200.8 443.588C198.047 441.784 194.352 442.555 192.546 445.31C190.741 448.065 191.51 451.76 194.264 453.564C197.016 455.368 200.712 454.598 202.517 451.843Z" fill="#CFBD9A"/>
<path d="M217.771 428.563C219.576 425.808 218.807 422.112 216.054 420.308C213.301 418.504 209.605 419.274 207.8 422.029C205.995 424.784 206.764 428.48 209.517 430.284C212.27 432.088 215.966 431.318 217.771 428.563Z" fill="#CFBD9A"/>
<path d="M233.025 405.283C234.83 402.528 234.061 398.832 231.308 397.028C228.554 395.224 224.859 395.995 223.054 398.75C221.249 401.505 222.017 405.2 224.771 407.004C227.524 408.808 231.22 408.038 233.025 405.283Z" fill="#CFBD9A"/>
<path d="M248.282 381.997C250.087 379.242 249.318 375.546 246.565 373.742C243.812 371.938 240.116 372.709 238.311 375.464C236.506 378.219 237.275 381.915 240.028 383.719C242.781 385.523 246.477 384.752 248.282 381.997Z" fill="#CFBD9A"/>
<path d="M263.536 358.717C265.341 355.962 264.572 352.266 261.819 350.463C259.065 348.658 255.37 349.429 253.565 352.184C251.76 354.939 252.528 358.635 255.282 360.439C258.035 362.243 261.731 361.472 263.536 358.717Z" fill="#CFBD9A"/>
<path d="M278.79 335.437C280.595 332.682 279.826 328.986 277.073 327.182C274.319 325.378 270.624 326.149 268.819 328.904C267.014 331.659 267.782 335.355 270.536 337.159C273.289 338.963 276.985 338.192 278.79 335.437Z" fill="#CFBD9A"/>
<path d="M294.043 312.157C295.848 309.402 295.079 305.706 292.326 303.902C289.573 302.098 285.878 302.869 284.072 305.624C282.267 308.379 283.036 312.074 285.789 313.878C288.542 315.682 292.238 314.912 294.043 312.157Z" fill="#CFBD9A"/>
<path d="M309.297 288.877C311.102 286.122 310.333 282.426 307.58 280.622C304.827 278.818 301.131 279.589 299.326 282.344C297.521 285.099 298.29 288.795 301.043 290.599C303.796 292.402 307.492 291.632 309.297 288.877Z" fill="#CFBD9A"/>
<path d="M324.551 265.597C326.356 262.842 325.587 259.146 322.834 257.342C320.08 255.538 316.385 256.309 314.58 259.064C312.775 261.819 313.544 265.514 316.297 267.318C319.05 269.122 322.746 268.352 324.551 265.597Z" fill="#CFBD9A"/>
<path d="M339.808 242.312C341.613 239.557 340.844 235.861 338.091 234.057C335.338 232.253 331.642 233.023 329.837 235.778C328.032 238.533 328.801 242.229 331.554 244.033C334.307 245.837 338.003 245.067 339.808 242.312Z" fill="#CFBD9A"/>
<path d="M202.902 502.011C204.707 499.256 203.938 495.56 201.185 493.756C198.432 491.952 194.736 492.723 192.931 495.478C191.126 498.233 191.895 501.928 194.648 503.732C197.401 505.536 201.097 504.766 202.902 502.011Z" fill="#CFBD9A"/>
<path d="M218.156 478.731C219.961 475.976 219.192 472.28 216.439 470.476C213.686 468.672 209.99 469.443 208.185 472.198C206.38 474.953 207.149 478.649 209.902 480.453C212.655 482.256 216.351 481.486 218.156 478.731Z" fill="#CFBD9A"/>
<path d="M233.413 455.445C235.218 452.69 234.449 448.994 231.696 447.191C228.943 445.386 225.247 446.157 223.442 448.912C221.637 451.667 222.406 455.363 225.159 457.167C227.912 458.971 231.608 458.2 233.413 455.445Z" fill="#CFBD9A"/>
<path d="M248.667 432.166C250.472 429.411 249.703 425.715 246.95 423.911C244.197 422.107 240.501 422.877 238.696 425.632C236.891 428.387 237.66 432.083 240.413 433.887C243.166 435.691 246.862 434.921 248.667 432.166Z" fill="#CFBD9A"/>
<path d="M263.921 408.885C265.726 406.13 264.957 402.434 262.204 400.631C259.45 398.826 255.755 399.597 253.95 402.352C252.145 405.107 252.913 408.803 255.667 410.607C258.42 412.411 262.116 411.64 263.921 408.885Z" fill="#CFBD9A"/>
<path d="M279.175 385.605C280.98 382.85 280.211 379.154 277.458 377.35C274.704 375.546 271.009 376.317 269.204 379.072C267.399 381.827 268.167 385.523 270.921 387.327C273.674 389.13 277.37 388.36 279.175 385.605Z" fill="#CFBD9A"/>
<path d="M294.428 362.325C296.233 359.57 295.464 355.874 292.711 354.07C289.958 352.266 286.263 353.037 284.457 355.792C282.652 358.547 283.421 362.243 286.174 364.047C288.927 365.851 292.623 365.08 294.428 362.325Z" fill="#CFBD9A"/>
<path d="M309.686 339.04C311.491 336.285 310.722 332.589 307.969 330.785C305.215 328.981 301.52 329.752 299.715 332.507C297.91 335.262 298.678 338.958 301.432 340.762C304.185 342.566 307.881 341.795 309.686 339.04Z" fill="#CFBD9A"/>
<path d="M324.939 315.76C326.744 313.005 325.975 309.309 323.222 307.505C320.469 305.701 316.773 306.472 314.968 309.227C313.163 311.982 313.932 315.677 316.685 317.481C319.438 319.285 323.134 318.515 324.939 315.76Z" fill="#CFBD9A"/>
<path d="M340.193 292.48C341.998 289.725 341.229 286.029 338.476 284.225C335.723 282.421 332.027 283.191 330.222 285.946C328.417 288.701 329.186 292.397 331.939 294.201C334.692 296.005 338.388 295.235 340.193 292.48Z" fill="#CFBD9A"/>
<path d="M355.447 269.2C357.252 266.445 356.483 262.749 353.73 260.945C350.976 259.141 347.281 259.912 345.476 262.667C343.671 265.422 344.44 269.117 347.193 270.921C349.946 272.725 353.642 271.955 355.447 269.2Z" fill="#CFBD9A"/>
<path d="M249.052 482.334C250.857 479.579 250.089 475.883 247.335 474.079C244.582 472.275 240.886 473.045 239.081 475.8C237.276 478.555 238.045 482.251 240.798 484.055C243.552 485.859 247.247 485.089 249.052 482.334Z" fill="#CFBD9A"/>
<path d="M264.306 459.054C266.111 456.299 265.342 452.603 262.589 450.799C259.835 448.995 256.14 449.766 254.335 452.521C252.53 455.276 253.298 458.971 256.052 460.775C258.805 462.58 262.501 461.809 264.306 459.054Z" fill="#CFBD9A"/>
<path d="M279.56 435.774C281.365 433.019 280.596 429.323 277.843 427.519C275.089 425.715 271.394 426.485 269.589 429.24C267.784 431.995 268.552 435.691 271.306 437.495C274.059 439.299 277.755 438.529 279.56 435.774Z" fill="#CFBD9A"/>
<path d="M294.817 412.488C296.622 409.733 295.853 406.038 293.1 404.234C290.346 402.429 286.651 403.2 284.846 405.955C283.041 408.71 283.809 412.406 286.563 414.21C289.316 416.014 293.012 415.243 294.817 412.488Z" fill="#CFBD9A"/>
<path d="M310.071 389.208C311.876 386.453 311.107 382.757 308.354 380.953C305.6 379.149 301.905 379.92 300.1 382.675C298.295 385.43 299.063 389.126 301.817 390.93C304.57 392.734 308.266 391.963 310.071 389.208Z" fill="#CFBD9A"/>
<path d="M325.324 365.928C327.129 363.173 326.361 359.478 323.607 357.674C320.854 355.869 317.158 356.64 315.353 359.395C313.548 362.15 314.317 365.846 317.07 367.65C319.824 369.454 323.519 368.683 325.324 365.928Z" fill="#CFBD9A"/>
<path d="M340.578 342.648C342.383 339.893 341.615 336.197 338.861 334.393C336.108 332.589 332.412 333.36 330.607 336.115C328.802 338.87 329.571 342.566 332.324 344.37C335.078 346.174 338.773 345.403 340.578 342.648Z" fill="#CFBD9A"/>
<path d="M355.832 319.368C357.637 316.613 356.868 312.917 354.115 311.113C351.361 309.309 347.666 310.08 345.861 312.835C344.056 315.59 344.825 319.285 347.578 321.089C350.331 322.894 354.027 322.123 355.832 319.368Z" fill="#CFBD9A"/>
<path d="M279.953 485.94C281.758 483.185 280.99 479.489 278.236 477.685C275.483 475.881 271.787 476.652 269.982 479.407C268.177 482.162 268.946 485.858 271.699 487.662C274.453 489.466 278.148 488.695 279.953 485.94Z" fill="#CFBD9A"/>
<path d="M295.207 462.66C297.012 459.905 296.244 456.209 293.49 454.405C290.737 452.601 287.041 453.372 285.236 456.127C283.431 458.882 284.2 462.577 286.953 464.381C289.707 466.186 293.402 465.415 295.207 462.66Z" fill="#CFBD9A"/>
<path d="M310.461 439.38C312.266 436.625 311.497 432.929 308.744 431.125C305.99 429.321 302.295 430.092 300.49 432.847C298.685 435.602 299.453 439.297 302.207 441.102C304.96 442.906 308.656 442.135 310.461 439.38Z" fill="#CFBD9A"/>
<path d="M325.715 416.1C327.52 413.345 326.751 409.649 323.998 407.845C321.244 406.041 317.549 406.812 315.744 409.566C313.939 412.321 314.707 416.017 317.461 417.821C320.214 419.625 323.91 418.855 325.715 416.1Z" fill="#CFBD9A"/>
<path d="M340.968 392.82C342.774 390.065 342.005 386.369 339.251 384.565C336.498 382.761 332.803 383.532 330.997 386.287C329.192 389.042 329.961 392.737 332.714 394.542C335.468 396.346 339.163 395.575 340.968 392.82Z" fill="#CFBD9A"/>
<path d="M356.226 369.534C358.031 366.779 357.262 363.084 354.509 361.279C351.755 359.475 348.06 360.246 346.255 363.001C344.45 365.756 345.218 369.452 347.972 371.256C350.725 373.06 354.421 372.289 356.226 369.534Z" fill="#CFBD9A"/>
<path d="M371.479 346.254C373.285 343.499 372.516 339.803 369.762 337.999C367.009 336.195 363.314 336.966 361.508 339.721C359.703 342.476 360.472 346.171 363.225 347.976C365.979 349.78 369.674 349.009 371.479 346.254Z" fill="#CFBD9A"/>
<path d="M326.1 466.268C327.905 463.513 327.136 459.817 324.383 458.013C321.629 456.209 317.934 456.98 316.129 459.735C314.324 462.49 315.092 466.186 317.846 467.99C320.599 469.794 324.295 469.023 326.1 466.268Z" fill="#CFBD9A"/>
<path d="M341.357 442.983C343.162 440.228 342.393 436.532 339.64 434.728C336.886 432.924 333.191 433.694 331.386 436.449C329.581 439.204 330.349 442.9 333.103 444.704C335.856 446.508 339.552 445.738 341.357 442.983Z" fill="#CFBD9A"/>
<path d="M356.611 419.702C358.416 416.947 357.647 413.251 354.894 411.447C352.14 409.643 348.445 410.414 346.64 413.169C344.835 415.924 345.603 419.62 348.357 421.424C351.11 423.228 354.806 422.457 356.611 419.702Z" fill="#CFBD9A"/>
<path d="M371.864 396.422C373.669 393.668 372.9 389.971 370.147 388.168C367.394 386.364 363.699 387.134 361.893 389.889C360.088 392.644 360.857 396.34 363.61 398.144C366.363 399.948 370.059 399.177 371.864 396.422Z" fill="#CFBD9A"/>
<path d="M356.996 469.871C358.801 467.116 358.032 463.42 355.279 461.616C352.525 459.812 348.83 460.583 347.025 463.337C345.22 466.092 345.988 469.788 348.742 471.592C351.495 473.396 355.191 472.626 356.996 469.871Z" fill="#CFBD9A"/>
<path d="M372.249 446.59C374.055 443.836 373.286 440.14 370.532 438.336C367.779 436.531 364.084 437.302 362.278 440.057C360.473 442.812 361.242 446.508 363.995 448.312C366.749 450.116 370.444 449.345 372.249 446.59Z" fill="#CFBD9A"/>
<path d="M387.503 423.311C389.308 420.556 388.54 416.86 385.786 415.056C383.033 413.252 379.337 414.022 377.532 416.777C375.727 419.532 376.496 423.228 379.249 425.032C382.003 426.836 385.698 426.066 387.503 423.311Z" fill="#CFBD9A"/>
</mask>
<g mask="url(#mask0_611_20056)">
<path d="M83.4324 159.504C83.0906 144.943 95.2201 133.174 109.765 133.954L297.562 144.029C308.888 144.636 318.385 152.792 320.698 163.895L374.279 421.134C377.094 434.651 368.419 447.891 354.902 450.707L120.941 499.439C105.651 502.624 91.2163 491.165 90.8499 475.551L83.4324 159.504Z" fill="#FCFCFC"/>
</g>
</svg>
