<svg width="247" height="189" viewBox="0 0 247 189" fill="none" xmlns="http://www.w3.org/2000/svg">
<mask id="mask0_550_29514" style="mask-type:alpha" maskUnits="userSpaceOnUse" x="0" y="0" width="247" height="189">
<rect y="189" width="189" height="247" transform="rotate(-90 0 189)" fill="#FFFBFB"/>
</mask>
<g mask="url(#mask0_550_29514)">
<path d="M395.316 -182.901C387.328 -203.843 366.38 -216.91 344.059 -214.874L35.7933 -186.762C8.29322 -184.255 -11.967 -159.928 -9.45923 -132.428L15.6805 143.248C18.5029 174.197 48.5769 195.102 78.5697 186.962L440.147 88.8334C468.69 81.0869 484.309 50.3921 473.767 22.7583L395.316 -182.901Z" fill="#FCFCFC"/>
<mask id="mask1_550_29514" style="mask-type:alpha" maskUnits="userSpaceOnUse" x="13" y="-248" width="421" height="406">
<path d="M83.0952 145.966C79.8746 145.275 76.7048 147.325 76.0152 150.544C75.3255 153.763 77.3771 156.932 80.5977 157.622C83.8183 158.312 86.988 156.262 87.6777 153.043C88.3674 149.824 86.3158 146.656 83.0952 145.966Z" fill="#CFBD9A"/>
<path d="M129.743 127.506C126.523 126.816 123.353 128.866 122.663 132.085C121.974 135.304 124.025 138.473 127.246 139.163C130.466 139.853 133.636 137.803 134.326 134.584C135.016 131.365 132.964 128.196 129.743 127.506Z" fill="#CFBD9A"/>
<path d="M102.529 121.674C99.3082 120.984 96.1384 123.034 95.4488 126.253C94.7591 129.472 96.8107 132.641 100.031 133.331C103.252 134.021 106.422 131.971 107.111 128.752C107.801 125.533 105.749 122.364 102.529 121.674Z" fill="#CFBD9A"/>
<path d="M75.3141 115.842C72.0936 115.152 68.9238 117.202 68.2341 120.421C67.5444 123.64 69.596 126.809 72.8166 127.499C76.0372 128.189 79.2069 126.139 79.8967 122.92C80.5863 119.701 78.5347 116.532 75.3141 115.842Z" fill="#CFBD9A"/>
<path d="M176.397 109.053C173.176 108.363 170.006 110.413 169.317 113.632C168.627 116.851 170.678 120.02 173.899 120.71C177.12 121.4 180.289 119.35 180.979 116.131C181.669 112.912 179.617 109.743 176.397 109.053Z" fill="#CFBD9A"/>
<path d="M149.182 103.221C145.961 102.531 142.792 104.581 142.102 107.8C141.412 111.019 143.464 114.187 146.684 114.878C149.905 115.568 153.075 113.518 153.764 110.299C154.454 107.08 152.402 103.911 149.182 103.221Z" fill="#CFBD9A"/>
<path d="M121.967 97.3913C118.747 96.7012 115.577 98.7511 114.887 101.97C114.197 105.189 116.249 108.357 119.47 109.047C122.69 109.737 125.86 107.688 126.55 104.469C127.239 101.25 125.188 98.0813 121.967 97.3913Z" fill="#CFBD9A"/>
<path d="M94.7526 91.5593C91.532 90.8692 88.3623 92.9191 87.6726 96.1379C86.9829 99.3567 89.0345 102.525 92.2551 103.215C95.4757 103.905 98.6454 101.856 99.3351 98.6368C100.025 95.4179 97.9732 92.2493 94.7526 91.5593Z" fill="#CFBD9A"/>
<path d="M67.538 85.7292C64.3174 85.0391 61.1476 87.089 60.458 90.3078C59.7683 93.5266 61.8199 96.6953 65.0405 97.3853C68.2611 98.0754 71.4308 96.0255 72.1205 92.8067C72.8102 89.5879 70.7586 86.4192 67.538 85.7292Z" fill="#CFBD9A"/>
<path d="M250.264 96.4323C247.044 95.7422 243.874 97.7921 243.184 101.011C242.494 104.23 244.546 107.398 247.767 108.088C250.987 108.779 254.157 106.729 254.847 103.51C255.536 100.291 253.485 97.1223 250.264 96.4323Z" fill="#CFBD9A"/>
<path d="M223.05 90.6003C219.829 89.9102 216.659 91.9601 215.97 95.1789C215.28 98.3977 217.331 101.566 220.552 102.256C223.773 102.946 226.942 100.897 227.632 97.6778C228.322 94.459 226.27 91.2903 223.05 90.6003Z" fill="#CFBD9A"/>
<path d="M195.835 84.7702C192.614 84.0801 189.445 86.13 188.755 89.3488C188.065 92.5677 190.117 95.7363 193.337 96.4264C196.558 97.1164 199.728 95.0665 200.417 91.8477C201.107 88.6289 199.056 85.4602 195.835 84.7702Z" fill="#CFBD9A"/>
<path d="M168.62 78.9382C165.4 78.2481 162.23 80.298 161.54 83.5168C160.85 86.7356 162.902 89.9043 166.123 90.5943C169.343 91.2844 172.513 89.2345 173.203 86.0157C173.892 82.7969 171.841 79.6282 168.62 78.9382Z" fill="#CFBD9A"/>
<path d="M141.399 73.1061C138.179 72.4161 135.009 74.466 134.319 77.6848C133.63 80.9036 135.681 84.0722 138.902 84.7623C142.122 85.4523 145.292 83.4025 145.982 80.1836C146.672 76.9648 144.62 73.7962 141.399 73.1061Z" fill="#CFBD9A"/>
<path d="M114.185 67.2741C110.964 66.584 107.794 68.6339 107.105 71.8527C106.415 75.0716 108.467 78.2402 111.687 78.9303C114.908 79.6203 118.078 77.5704 118.767 74.3516C119.457 71.1328 117.405 67.9641 114.185 67.2741Z" fill="#CFBD9A"/>
<path d="M86.9701 61.444C83.7495 60.754 80.5797 62.8039 79.8901 66.0227C79.2004 69.2415 81.252 72.4101 84.4726 73.1002C87.6931 73.7902 90.8629 71.7403 91.5526 68.5215C92.2423 65.3027 90.1906 62.1341 86.9701 61.444Z" fill="#CFBD9A"/>
<path d="M59.7554 55.612C56.5348 54.9219 53.3651 56.9718 52.6754 60.1906C51.9857 63.4094 54.0373 66.5781 57.2579 67.2681C60.4785 67.9582 63.6483 65.9083 64.338 62.6895C65.0276 59.4707 62.976 56.302 59.7554 55.612Z" fill="#CFBD9A"/>
<path d="M242.488 66.3171C239.267 65.627 236.097 67.6769 235.408 70.8957C234.718 74.1145 236.77 77.2832 239.99 77.9732C243.211 78.6633 246.381 76.6134 247.07 73.3946C247.76 70.1758 245.708 67.0071 242.488 66.3171Z" fill="#CFBD9A"/>
<path d="M215.267 60.485C212.046 59.795 208.877 61.8449 208.187 65.0637C207.497 68.2825 209.549 71.4511 212.769 72.1412C215.99 72.8312 219.16 70.7814 219.849 67.5625C220.539 64.3437 218.488 61.1751 215.267 60.485Z" fill="#CFBD9A"/>
<path d="M188.052 54.653C184.832 53.9629 181.662 56.0128 180.972 59.2316C180.283 62.4505 182.334 65.6191 185.555 66.3092C188.775 66.9992 191.945 64.9493 192.635 61.7305C193.325 58.5117 191.273 55.3431 188.052 54.653Z" fill="#CFBD9A"/>
<path d="M160.838 48.8229C157.617 48.1329 154.447 50.1828 153.758 53.4016C153.068 56.6204 155.12 59.789 158.34 60.4791C161.561 61.1691 164.731 59.1192 165.42 55.9004C166.11 52.6816 164.058 49.513 160.838 48.8229Z" fill="#CFBD9A"/>
<path d="M133.623 42.9909C130.402 42.3008 127.233 44.3507 126.543 47.5695C125.853 50.7884 127.905 53.957 131.126 54.6471C134.346 55.3371 137.516 53.2872 138.206 50.0684C138.895 46.8496 136.844 43.6809 133.623 42.9909Z" fill="#CFBD9A"/>
<path d="M106.408 37.1608C103.188 36.4708 100.018 38.5206 99.3285 41.7395C98.6388 44.9583 100.69 48.1269 103.911 48.817C107.132 49.507 110.301 47.4571 110.991 44.2383C111.681 41.0195 109.629 37.8509 106.408 37.1608Z" fill="#CFBD9A"/>
<path d="M79.1939 31.3288C75.9733 30.6387 72.8035 32.6886 72.1138 35.9074C71.4241 39.1262 73.4758 42.2949 76.6964 42.9849C79.9169 43.675 83.0867 41.6251 83.7764 38.4063C84.466 35.1875 82.4144 32.0188 79.1939 31.3288Z" fill="#CFBD9A"/>
<path d="M51.9729 25.4967C48.7523 24.8067 45.5826 26.8566 44.8929 30.0754C44.2032 33.2942 46.2548 36.4629 49.4754 37.1529C52.696 37.843 55.8657 35.7931 56.5554 32.5743C57.2451 29.3554 55.1935 26.1868 51.9729 25.4967Z" fill="#CFBD9A"/>
<path d="M234.705 36.2018C231.485 35.5118 228.315 37.5623 227.625 40.7805C226.936 43.9993 228.987 47.1679 232.208 47.858C235.428 48.548 238.598 46.4982 239.288 43.2793C239.977 40.0611 237.926 36.8919 234.705 36.2018Z" fill="#CFBD9A"/>
<path d="M207.491 30.3698C204.27 29.6797 201.1 31.7303 200.411 34.9485C199.721 38.1673 201.773 41.3359 204.993 42.026C208.214 42.716 211.384 40.6661 212.073 37.4473C212.763 34.2291 210.711 31.0598 207.491 30.3698Z" fill="#CFBD9A"/>
<path d="M180.276 24.5378C177.056 23.8477 173.886 25.8982 173.196 29.1164C172.506 32.3352 174.558 35.5039 177.779 36.1939C180.999 36.884 184.169 34.8341 184.859 31.6153C185.548 28.3971 183.497 25.2278 180.276 24.5378Z" fill="#CFBD9A"/>
<path d="M153.055 18.7057C149.835 18.0157 146.665 20.0662 145.975 23.2844C145.285 26.5032 147.337 29.6718 150.558 30.3619C153.778 31.052 156.948 29.0021 157.638 25.7833C158.327 22.5651 156.276 19.3958 153.055 18.7057Z" fill="#CFBD9A"/>
<path d="M125.841 12.8756C122.62 12.1856 119.45 14.2361 118.761 17.4543C118.071 20.6731 120.122 23.8418 123.343 24.5318C126.564 25.2219 129.733 23.172 130.423 19.9532C131.113 16.735 129.061 13.5657 125.841 12.8756Z" fill="#CFBD9A"/>
<path d="M98.626 7.04362C95.4054 6.35356 92.2355 8.40409 91.5459 11.6223C90.8563 14.8411 92.9079 18.0097 96.1285 18.6998C99.349 19.3898 102.519 17.34 103.208 14.1211C103.898 10.9029 101.847 7.73367 98.626 7.04362Z" fill="#CFBD9A"/>
<path d="M71.4113 1.21353C68.1907 0.523475 65.0208 2.574 64.3312 5.7922C63.6416 9.01101 65.6932 12.1796 68.9138 12.8697C72.1343 13.5598 75.3041 11.5099 75.9938 8.29106C76.6833 5.07287 74.6318 1.90358 71.4113 1.21353Z" fill="#CFBD9A"/>
<path d="M44.1967 -4.61849C40.9761 -5.30855 37.8062 -3.25802 37.1167 -0.0398278C36.427 3.17899 38.4786 6.34763 41.6992 7.03768C44.9198 7.72773 48.0895 5.67785 48.7792 2.45903C49.4687 -0.759163 47.4173 -3.92844 44.1967 -4.61849Z" fill="#CFBD9A"/>
<path d="M254.144 11.9167C250.923 11.2266 247.753 13.2765 247.064 16.4953C246.374 19.7141 248.426 22.8828 251.646 23.5728C254.867 24.2629 258.036 22.213 258.726 18.9942C259.416 15.7754 257.364 12.6067 254.144 11.9167Z" fill="#CFBD9A"/>
<path d="M226.923 6.08465C223.702 5.3946 220.532 7.44448 219.843 10.6633C219.153 13.8821 221.205 17.0508 224.425 17.7408C227.646 18.4309 230.816 16.381 231.505 13.1622C232.195 9.94334 230.143 6.7747 226.923 6.08465Z" fill="#CFBD9A"/>
<path d="M199.708 0.254571C196.488 -0.435483 193.318 1.6144 192.628 4.83322C191.939 8.05204 193.99 11.2207 197.211 11.9107C200.431 12.6008 203.601 10.5509 204.291 7.33208C204.98 4.11326 202.929 0.944624 199.708 0.254571Z" fill="#CFBD9A"/>
<path d="M172.494 -5.57746C169.273 -6.26751 166.103 -4.21763 165.414 -0.998813C164.724 2.22 166.775 5.38864 169.996 6.0787C173.217 6.76875 176.386 4.71886 177.076 1.50005C177.766 -1.71877 175.714 -4.88741 172.494 -5.57746Z" fill="#CFBD9A"/>
<path d="M145.279 -11.4075C142.058 -12.0976 138.889 -10.0477 138.199 -6.82889C137.509 -3.61008 139.561 -0.441441 142.781 0.248613C146.002 0.938667 149.172 -1.11121 149.861 -4.33003C150.551 -7.54885 148.5 -10.7175 145.279 -11.4075Z" fill="#CFBD9A"/>
</mask>
<g mask="url(#mask1_550_29514)">
<path d="M102.171 131.277C88.7122 136.848 73.3604 129.779 68.8426 115.932L10.5095 -62.8602C6.99165 -73.6424 11.1729 -85.4419 20.6948 -91.6034L241.297 -234.353C252.889 -241.854 268.367 -238.537 275.868 -226.945L405.7 -26.3055C414.185 -13.1931 408.703 4.40264 394.272 10.3757L102.171 131.277Z" fill="#F4F4F4"/>
</g>
</g>
</svg>
