<svg width="68" height="68" viewBox="0 0 68 68" fill="none" xmlns="http://www.w3.org/2000/svg">
<rect width="68" height="68" rx="34" fill="#B68E34"/>
<path d="M34.0039 21.8179H38.9187C40.5964 21.8179 42.1244 22.7855 42.8569 24.3003L45.1489 29.051C45.5112 29.8203 45.5506 30.7007 45.2276 31.4938L42.4394 38.4572" stroke="white" stroke-linecap="round" stroke-linejoin="round"/>
<path d="M33.9971 37.8862V54.589" stroke="white" stroke-linecap="round" stroke-linejoin="round"/>
<path d="M25.568 38.4493L22.7798 31.4859C22.4569 30.6928 22.4884 29.8124 22.8586 29.0431L25.1506 24.2924C25.8831 22.7697 27.4111 21.81 29.0887 21.81H34.0035" stroke="white" stroke-linecap="round" stroke-linejoin="round"/>
<path d="M34.0039 37.8862V54.6365C34.0039 55.9451 35.0515 57 36.351 57C37.627 57 38.6667 55.9769 38.6982 54.692L39.3362 28.1627L48.0001 57" stroke="white" stroke-linecap="round" stroke-linejoin="round"/>
<path d="M33.9962 42.6052V44.0645C33.9962 45.27 33.0274 46.2455 31.8302 46.2455H31.2001C30.0265 46.2455 29.0656 45.3017 29.0341 44.12L28.6482 28.1707L20 57" stroke="white" stroke-linecap="round" stroke-linejoin="round"/>
<path d="M38.2258 15.259C38.2258 17.6066 36.3354 19.5179 33.9962 19.5179C31.6569 19.5179 29.7666 17.6145 29.7666 15.259C29.7666 12.9034 31.6648 11 33.9962 11C36.3276 11 38.2258 12.9034 38.2258 15.259Z" stroke="white" stroke-linecap="round" stroke-linejoin="round"/>
</svg>
