<svg width="50px" height="50px" viewBox="0 0 50 50" version="1.1" xmlns="http://www.w3.org/2000/svg" xmlns:xlink="http://www.w3.org/1999/xlink">
    <g id="Page-1" stroke="none" stroke-width="1" fill="none" fill-rule="evenodd">
        <g id="Artboard" transform="translate(-849, -928)">
            <g id="Group" transform="translate(849, 928)">
                <circle id="Oval" fill="#D8D8D8" cx="25" cy="25" r="25"></circle>
                <path d="M38.7909664,27.0329252 L30.0878051,35.6579791 C28.9549058,36.7806736 27.1178973,36.7806736 25.9849981,35.6579791 C24.8518957,34.5352846 24.8518957,32.7148232 25.984708,31.5921287 L29.7356054,27.875018 L13.0424407,27.875018 C11.4401643,27.875018 10.1412902,26.5878724 10.1412902,25 C10.1412902,23.4121276 11.4401643,22.124982 13.0424407,22.124982 L29.7356054,22.124982 L25.984708,18.4078713 C24.8518957,17.2851768 24.8518957,15.4647154 25.9849981,14.3420209 C27.1178973,13.2193264 28.9549058,13.2193264 30.0878051,14.3420209 L38.7909664,22.9670748 C39.9238656,24.0897693 39.9238656,25.9102307 38.7909664,27.0329252 Z" id="Shape-path" fill="#FFFFFF" transform="translate(24.891, 25) rotate(-90) translate(-24.891, -25)"></path>
            </g>
        </g>
    </g>
</svg>