<svg width="68" height="68" viewBox="0 0 68 68" fill="none" xmlns="http://www.w3.org/2000/svg">
<rect width="68" height="68" rx="34" fill="#B68E34"/>
<path d="M39.83 18.9675C40.5403 15.9782 38.6764 12.983 35.6669 12.2774C32.6574 11.5719 29.6419 13.4232 28.9316 16.4125C28.2213 19.4018 30.0852 22.397 33.0947 23.1026C36.1042 23.8081 39.1197 21.9568 39.83 18.9675Z" stroke="white" stroke-linecap="round" stroke-linejoin="round"/>
<path d="M45.9885 40.4546C46.271 38.9722 45.2902 37.5429 43.7977 37.2623C42.3053 36.9817 40.8664 37.9559 40.5838 39.4383C40.3013 40.9207 41.2821 42.3499 42.7746 42.6306C44.267 42.9112 45.7059 41.937 45.9885 40.4546Z" stroke="white" stroke-linecap="round" stroke-linejoin="round"/>
<path d="M29.1958 33.6891L28.1365 43.4894L37.8964 45.5294C39.395 45.8431 40.3299 47.3326 39.9513 48.8076C39.5978 50.1829 38.2237 51.045 36.8214 50.7708L24.0006 48.2612C22.4268 47.8987 21.3653 46.4373 21.5138 44.8397L22.6662 32.4842C23.0176 28.7137 26.1705 25.8105 29.9822 25.7471C32.0026 25.7139 33.9498 26.4939 35.3814 27.9097L38.3858 30.8815C39.5591 32.0417 39.693 33.8823 38.7016 35.1984L37.362 37.0026C37.9487 37.1221 38.5029 37.3205 39.03 37.5708" stroke="white" stroke-linecap="round" stroke-linejoin="round"/>
<path d="M23.6434 57C23.3474 56.0018 23.1885 54.9454 23.1885 53.8516C23.1885 52.7578 23.3349 51.7846 23.6089 50.8206" stroke="white" stroke-linecap="round" stroke-linejoin="round"/>
<path d="M43.9328 42.6791C48.6689 53.5805 40.8008 55.8002 40.8008 55.8002V56.9999" stroke="white" stroke-linecap="round" stroke-linejoin="round"/>
</svg>
