<svg width="68" height="68" viewBox="0 0 68 68" fill="none" xmlns="http://www.w3.org/2000/svg">
<rect width="68" height="68" rx="34" fill="#B68E34"/>
<g clip-path="url(#clip0_670_678)">
<path d="M42.6143 23.8633C45.3055 26.2851 46.9879 29.7457 46.9879 33.5926C46.9879 34.097 46.9596 34.6033 46.9011 35.0971C46.8727 35.3441 46.917 35.5928 47.0411 35.8097L49.7802 40.5932C50.1117 41.1612 49.7802 41.8755 49.142 42.0113L46.3249 42.5899V47.1282C46.3249 47.9113 45.6867 48.5463 44.8889 48.5463H38.8789" stroke="white" stroke-linecap="round" stroke-linejoin="round"/>
<path d="M38.8811 53.9118H24.1487V43.4171C21.3883 40.9901 19.6562 37.4836 19.6562 33.5926C19.6562 26.2639 25.7797 20.3304 33.3285 20.3304" stroke="white" stroke-linecap="round" stroke-linejoin="round"/>
<path d="M34.0693 46.0011L35.048 46.9694C36.062 47.9783 37.4431 48.5463 38.8791 48.5463" stroke="white" stroke-linecap="round" stroke-linejoin="round"/>
<path d="M40.0529 48.5445V53.9118H38.2109" stroke="white" stroke-linecap="round" stroke-linejoin="round"/>
<path d="M29.7377 29.407C29.7377 29.407 28.9062 29.6592 28.9062 30.7493C28.9062 31.8393 29.8441 32.372 30.4876 33.044C31.1312 33.716 32.3385 36.8203 34.8045 36.8203C37.2706 36.8203 38.2102 34.7778 38.2102 32.6789C38.2102 30.5799 36.1998 29.377 35.3417 29.8532C34.4836 30.3295 35.2619 31.6717 36.12 32.148" stroke="white" stroke-linecap="round" stroke-linejoin="round"/>
<path d="M35.1963 29.9556H35.1998" stroke="white" stroke-linecap="round" stroke-linejoin="round"/>
<path d="M41.0984 27.5091C42.2543 27.4827 44.0839 28.0806 44.0839 30.4406C44.0839 33.5202 41.937 35.1147 40.2226 35.1147C39.6518 35.1147 38.6714 35.1147 37.8984 34.6209" stroke="white" stroke-linecap="round" stroke-linejoin="round"/>
<path d="M27.8887 25.74C27.8887 25.74 28.0925 25.2832 28.5819 24.7276C29.2644 23.9444 30.5089 22.9726 32.5389 22.7891C32.686 22.7768 32.8314 22.7733 32.9768 22.775" stroke="white" stroke-linecap="round" stroke-linejoin="round"/>
<path d="M25.8253 28.8496C25.5523 29.4899 24.9105 29.855 24.3468 29.5763C23.7848 29.2959 23.471 27.5814 25.1251 25.8441C26.6036 24.2954 28.0981 24.5635 28.5804 24.7293" stroke="white" stroke-linecap="round" stroke-linejoin="round"/>
<path d="M23.9535 28.9625C23.1167 29.5269 22.4501 30.7334 22.3632 31.8428C22.1718 34.2628 23.2762 35.7003 25.1555 35.7286C27.0294 35.755 28.7473 33.746 30.2241 36.6546" stroke="white" stroke-linecap="round" stroke-linejoin="round"/>
<path d="M34.6437 36.815C34.6437 36.815 35.1277 38.3037 32.339 38.2473C29.5503 38.1908 28.5043 41.5774 28.5043 41.5774H26.6003C26.6003 41.5774 27.6994 39.6742 27.4317 38.5277C27.164 37.3812 26.4124 37.9968 24.9639 37.577C23.5155 37.1572 23.964 35.4516 23.964 35.4516" stroke="white" stroke-linecap="round" stroke-linejoin="round"/>
<path d="M31.4521 31.0632C31.4521 31.0632 32.1187 30.0914 32.7977 31.0914C33.475 32.0915 33.7037 34.3933 34.7071 34.5556C35.7105 34.7179 35.7744 34.1058 35.7531 33.7936" stroke="white" stroke-width="0.7" stroke-linecap="round" stroke-linejoin="round"/>
<path d="M33.067 29.594C33.067 29.594 32.3579 29.7968 32.5848 30.8393" stroke="white" stroke-width="0.7" stroke-linecap="round" stroke-linejoin="round"/>
<path d="M27.3692 30.968C27.3692 30.968 26.0591 30.3224 25.6176 31.1144C25.2648 31.7458 26.5466 33.2574 24.2773 33.6296" stroke="white" stroke-width="0.7" stroke-linecap="round" stroke-linejoin="round"/>
<path d="M24.0986 31.4301C24.0986 31.4301 24.6252 32.4584 25.6215 31.9892" stroke="white" stroke-width="0.7" stroke-linecap="round" stroke-linejoin="round"/>
<path d="M33.5583 26.8794C33.5583 26.8794 31.9415 26.0275 30.8192 26.8794C29.697 27.7314 28.8283 27.9942 27.7451 27.6696" stroke="white" stroke-width="0.7" stroke-linecap="round" stroke-linejoin="round"/>
<path d="M31.2985 24.9622C31.2985 24.9622 31.7045 25.5336 31.1992 26.6607" stroke="white" stroke-width="0.7" stroke-linecap="round" stroke-linejoin="round"/>
<path d="M27.1904 33.2398C27.1904 33.2398 28.4421 31.6912 30.4879 33.044" stroke="white" stroke-linecap="round" stroke-linejoin="round"/>
<path d="M42.5098 31.3102C42.5098 31.3102 41.5436 32.0862 40.8646 31.3102C40.1856 30.5341 39.9321 29.8956 38.7549 30.3489" stroke="white" stroke-width="0.7" stroke-linecap="round" stroke-linejoin="round"/>
<path d="M40.8665 31.3102C40.8665 31.3102 41.3133 32.6577 40.4375 32.8641" stroke="white" stroke-width="0.7" stroke-linecap="round" stroke-linejoin="round"/>
<path d="M42.7152 19.8982H39.2422L41.8164 14.0882H36.1982L34.7959 21.9937H37.8878L36.8294 27.8037L42.7152 19.8982Z" stroke="white" stroke-linecap="round" stroke-linejoin="round"/>
<path d="M23.381 21.3833L21.8262 18.6688" stroke="white" stroke-linecap="round" stroke-linejoin="round"/>
<path d="M22.1044 22.3605L19.6543 20.4062" stroke="white" stroke-linecap="round" stroke-linejoin="round"/>
<path d="M21.2215 23.6287L18.0889 23.4117" stroke="white" stroke-linecap="round" stroke-linejoin="round"/>
</g>
<defs>
<clipPath id="clip0_670_678">
<rect width="32" height="40" fill="white" transform="translate(18 14)"/>
</clipPath>
</defs>
</svg>
