<svg width="68" height="68" viewBox="0 0 68 68" fill="none" xmlns="http://www.w3.org/2000/svg">
<rect width="68" height="68" rx="34" fill="#B68E34"/>
<g clip-path="url(#clip0_672_589)">
<path d="M15.249 39.3695L28.8734 39.3819H31.8543C32.409 39.3819 32.9211 39.1517 33.3051 38.7473L34.9937 36.9554C35.4631 36.4639 36.0422 36.0719 36.67 35.8106L43.912 32.8116C44.6374 32.513 45.4786 32.7494 45.9419 33.3902C46.1797 33.7076 46.2894 34.0809 46.2955 34.4355C46.3077 35.0328 46.0334 35.6364 45.4664 35.9723L41.626 38.3864L53.19 38.1687C54.0434 38.15 54.7627 38.8593 54.7749 39.7304V39.861C54.7932 40.7259 54.1043 41.4601 53.2448 41.4725L54.6164 41.4476C55.4881 41.429 56.1891 42.1258 56.2013 43.0155V43.1462C56.2196 44.0111 55.543 44.7328 54.6713 44.7515L53.1412 44.7826" stroke="white" stroke-linecap="round" stroke-linejoin="round"/>
<path d="M44.2838 44.9443L53.1351 44.7763C54.0007 44.7701 54.7078 45.467 54.7261 46.3443V46.45C54.7444 47.346 54.0556 48.0677 53.19 48.0864L50.2822 48.1424C51.1783 48.1237 51.9037 48.8455 51.922 49.7539C51.9403 50.6623 51.2454 51.4214 50.3432 51.44L36.5847 51.6951C35.7069 51.7138 34.8108 51.4773 34.0427 51.0169L33.4148 50.6249C33.0796 50.4321 32.7077 50.3325 32.3115 50.345L30.0743 50.4258L15.249 50.3201" stroke="white" stroke-linecap="round" stroke-linejoin="round"/>
<path d="M53.2385 41.4725L44.2227 41.6405" stroke="white" stroke-linecap="round" stroke-linejoin="round"/>
<path d="M53.1347 44.7764L44.2773 44.9444" stroke="white" stroke-linecap="round" stroke-linejoin="round"/>
<path d="M50.2885 48.1362L44.3389 48.2482" stroke="white" stroke-linecap="round" stroke-linejoin="round"/>
<path d="M17.7484 50.3263C17.7057 50.2516 16.8157 48.5655 17.7484 46.9229C17.7545 46.9105 17.7667 46.8918 17.7728 46.8794C18.6811 45.3425 20.8085 45.3674 21.9119 46.7674C22.2837 47.234 22.747 47.626 23.3322 47.8251C24.9416 48.3664 26.1851 46.9851 27.7518 47.514C28.4711 47.7566 29.3672 48.4411 30.0743 50.4072" stroke="white" stroke-linecap="round" stroke-linejoin="round"/>
<path d="M30.0742 39.3882C32.0615 39.4193 32.7869 39.9544 33.0673 40.477C33.4757 41.2423 33.0246 42.132 33.5367 42.5987C33.7683 42.8102 34.1036 42.8476 34.4572 42.804C34.9814 42.7418 35.4752 42.5302 35.9019 42.2129C36.4627 41.8023 37.2247 41.0556 37.56 39.8548C38.1696 37.6647 36.7797 35.9412 36.6639 35.7981" stroke="white" stroke-linecap="round" stroke-linejoin="round"/>
<path d="M16.5655 37.3785C15.8584 36.271 14.5356 33.8569 14.3893 30.5344C14.2856 28.2572 14.7672 26.4279 15.1695 25.3018C15.3158 26.6893 15.8096 27.4234 16.2546 27.8341C16.852 28.3878 17.3824 28.3816 18.059 28.9851C18.7783 29.6198 19.1075 30.4411 19.2782 31.057C19.2233 29.4145 19.2965 27.467 19.6378 25.308C20.2413 21.494 21.4666 18.4514 22.5395 16.3173C22.4115 19.2105 23.0333 21.2326 23.6368 22.5641C24.2646 23.9329 25.0144 24.5862 25.6118 26.2599C26.2275 27.9772 26.2946 29.5451 26.2458 30.6215C26.4653 30.1797 26.8615 29.5576 27.5381 29.0909C28.1294 28.6865 28.4342 28.7363 28.8427 28.3567C29.7449 27.5168 29.4523 26.1355 29.6656 26.1106C29.9643 26.0795 31.1835 29.1345 30.5129 32.5005C30.0253 34.9208 28.739 36.5821 28.0136 37.3909" stroke="white" stroke-linecap="round" stroke-linejoin="round"/>
<path d="M18.8033 37.3785C18.4193 36.7998 18.0169 36.1279 17.639 35.3564C17.1269 34.3111 16.7734 33.3342 16.5234 32.4881C16.9136 32.9858 17.3037 33.2098 17.5841 33.328C18.0901 33.5333 18.4132 33.4525 18.9374 33.7076C19.3276 33.9004 19.5958 34.168 19.7482 34.3546C19.9676 33.7698 20.309 32.8987 20.7723 31.8534C21.1807 30.9326 21.3331 30.6713 21.516 30.2046C21.8147 29.4393 22.1256 28.3007 22.1195 26.7328C22.6072 27.6412 22.9607 28.4251 23.2046 29.0038C23.7105 30.2108 23.9665 30.833 24.0763 31.7103C24.1921 32.6498 24.0885 33.44 23.9787 33.9502C25.0699 33.7387 25.7344 33.3218 26.1428 32.9547C26.4415 32.6872 26.7463 32.3263 27.3376 32.0587C27.7521 31.8721 28.13 31.8099 28.3983 31.7912C28.3007 32.1085 28.1605 32.5938 28.0264 33.1974C27.874 33.9004 27.8192 34.3733 27.7887 34.5786C27.685 35.2381 27.301 36.1839 26.0513 37.3847" stroke="white" stroke-linecap="round" stroke-linejoin="round"/>
<path d="M31.5127 35.8106L34.9874 32.0463" stroke="white" stroke-linecap="round" stroke-linejoin="round"/>
<path d="M31.793 32.457L33.9936 29.1469" stroke="white" stroke-linecap="round" stroke-linejoin="round"/>
<path d="M13.8834 36.7252L11.8047 35.8106" stroke="white" stroke-linecap="round" stroke-linejoin="round"/>
</g>
<defs>
<clipPath id="clip0_672_589">
<rect width="45" height="36" fill="white" transform="translate(11.5 16)"/>
</clipPath>
</defs>
</svg>
