<svg width="68" height="68" viewBox="0 0 68 68" fill="none" xmlns="http://www.w3.org/2000/svg">
<rect width="68" height="68" rx="34" fill="#B68E34"/>
<path d="M21.9043 29.9237C22.1208 29.8814 22.336 29.992 22.5512 30.1721C22.5994 30.2117 22.6767 30.1803 22.6767 30.1216C22.7056 28.451 23.0008 27.4546 23.5663 26.4515C23.7028 26.2099 23.9966 26.0939 24.2711 26.1716C25.6986 26.577 27.3096 26.7545 28.8227 26.7545H28.824C30.3357 26.7545 31.9467 26.577 33.3756 26.1716C33.6501 26.0939 33.9438 26.2099 34.0804 26.4515C34.6473 27.456 34.941 28.451 34.97 30.1216C34.97 30.1803 35.0486 30.2117 35.0955 30.1721C35.3107 29.9933 35.5231 29.8801 35.7396 29.9224" stroke="white" stroke-linecap="round" stroke-linejoin="round"/>
<path d="M23.3556 52.3121H24.328L24.3087 51.2898C24.3004 49.888 23.9211 47.0668 21.3998 47.0668C21.3902 47.0668 21.3805 47.0668 21.3695 47.0668C18.942 47.0668 18.4537 49.8771 18.462 51.2884L18.4813 52.3093H19.444" stroke="white" stroke-linecap="round" stroke-linejoin="round"/>
<path d="M33.2549 38.1527V41.2728L40.9208 44.1555C42.4242 44.7724 43.5248 46.0813 43.8655 47.6564L45.0213 53" stroke="white" stroke-linecap="round" stroke-linejoin="round"/>
<path d="M24.3914 38.1527V41.2728L16.7255 44.1555C15.2221 44.7724 14.1215 46.0813 13.7808 47.6564L12.625 53" stroke="white" stroke-linecap="round" stroke-linejoin="round"/>
<path d="M33.2549 41.2742L30.0536 45.7797C29.764 46.1878 29.2909 46.4294 28.7875 46.4266C28.284 46.4239 27.8137 46.1782 27.5268 45.7688L24.3945 41.2755" stroke="white" stroke-linecap="round" stroke-linejoin="round"/>
<path d="M34.2467 36.2022C32.6702 41.5512 24.9767 41.5512 23.4002 36.2022C23.2912 35.8815 22.5368 33.8382 22.5368 33.8382C21.9975 33.8055 21.4182 33.0766 21.1892 32.0925C20.9382 31.0143 21.2044 30.0479 21.7837 29.9333C21.8251 29.9265 21.8651 29.921 21.9065 29.9224C21.6527 28.7595 21.592 27.6307 21.592 26.5524C21.592 25.9123 21.6541 25.2913 21.803 24.6853C22.3975 22.2421 25.8994 20.5933 28.8248 20.5933C29.7765 20.5933 31.3282 20.7667 31.9433 21.6811C32.004 21.7712 32.1157 21.8149 32.2178 21.7753C33.1778 21.4 34.2301 22.3677 34.7336 22.855C35.2853 23.3832 35.6811 23.9974 35.8494 24.6853C35.9956 25.2899 36.0604 25.9137 36.0604 26.5524C36.0604 27.6307 35.9997 28.7568 35.7432 29.921C35.7859 29.921 35.8259 29.9237 35.8673 29.9333C36.4466 30.0493 36.7114 31.0143 36.4618 32.0925C36.2328 33.0766 35.6549 33.8041 35.1156 33.8382C35.1156 33.8382 34.3612 35.8815 34.2508 36.2022H34.2467Z" stroke="white" stroke-linecap="round" stroke-linejoin="round"/>
<path d="M21.3994 47.0668V42.4193" stroke="white" stroke-linecap="round" stroke-linejoin="round"/>
<path d="M36.2969 47.0668V42.4193" stroke="white" stroke-linecap="round" stroke-linejoin="round"/>
<path d="M38.2655 49.1796C38.2655 50.2552 37.3842 51.1273 36.2973 51.1273C35.2104 51.1273 34.3291 50.2552 34.3291 49.1796C34.3291 48.1041 35.2104 47.2319 36.2973 47.2319C37.3842 47.2319 38.2655 48.1041 38.2655 49.1796Z" stroke="white" stroke-linecap="round" stroke-linejoin="round"/>
<path d="M55.3748 16.6297C55.3748 15.7289 54.6369 15 53.728 15H40.8168C39.9064 15 39.1699 15.7302 39.1699 16.6297V26.1676C39.1699 27.0684 39.9078 27.7973 40.8168 27.7973H41.6719V32.0052L45.9255 27.7973H53.7266C54.6369 27.7973 55.3734 27.067 55.3734 26.1676V16.6297H55.3748Z" stroke="white" stroke-linecap="round" stroke-linejoin="round"/>
<path d="M43.2266 24.714H51.2552" stroke="white" stroke-linecap="round" stroke-linejoin="round"/>
<path d="M48.3086 22.3623H51.2547" stroke="white" stroke-linecap="round" stroke-linejoin="round"/>
<path d="M44.5723 17.7066V22.0251" stroke="white" stroke-linejoin="round"/>
<path d="M42.3682 19.8659H46.7763" stroke="white" stroke-linejoin="round"/>
</svg>
