<svg width="68" height="68" viewBox="0 0 68 68" fill="none" xmlns="http://www.w3.org/2000/svg">
<rect width="68" height="68" rx="34" fill="#B68E34"/>
<path d="M42.0903 31.6328H48.5596C49.3403 31.6328 50.0198 32.1796 50.2222 32.9638L51.5955 38.2159C51.6317 38.3454 51.6895 38.4677 51.7762 38.5684L54.0893 41.4319C54.3134 41.7125 54.4362 42.065 54.4362 42.4319V46.4393C54.4362 47.5833 53.5472 48.5186 52.4629 48.5186H52.434" stroke="white" stroke-width="1.2" stroke-linecap="round" stroke-linejoin="round"/>
<path d="M48.2561 48.5186H42.0903" stroke="white" stroke-width="1.2" stroke-linecap="round" stroke-linejoin="round"/>
<path d="M51.27 36.9784H54.0457C54.5733 36.9784 54.9998 37.4245 54.9998 37.9785V38.2663C54.9998 38.7555 54.6673 39.1728 54.2047 39.2519L52.5567 39.5469" stroke="white" stroke-width="1.2" stroke-linecap="round" stroke-linejoin="round"/>
<path d="M51.5955 38.2159H42.0903" stroke="white" stroke-width="1.2" stroke-linecap="round" stroke-linejoin="round"/>
<path d="M42.0903 48.5186H35.9174" stroke="white" stroke-width="1.2" stroke-linecap="round" stroke-linejoin="round"/>
<path d="M31.7538 48.5186H31.7249C30.6334 48.5186 29.7516 47.5905 29.7516 46.4393V42.4319C29.7516 42.0722 29.8745 41.7125 30.0985 41.4319L32.4116 38.5684C32.4983 38.4677 32.5562 38.3454 32.5923 38.2159L33.9657 32.9638C34.1681 32.1724 34.8548 31.6328 35.6282 31.6328H42.0975" stroke="white" stroke-width="1.2" stroke-linecap="round" stroke-linejoin="round"/>
<path d="M36.2066 43.9716V43.7054C36.2066 43.2377 35.903 42.8276 35.4693 42.691L33.1852 42.0003C32.3756 41.7557 31.5588 42.3744 31.5588 43.2377V43.9716C31.5588 44.5544 32.0214 45.0292 32.5925 45.0292H35.1658C35.7368 45.0292 36.1994 44.5544 36.1994 43.9716H36.2066Z" stroke="white" stroke-width="1.2" stroke-linecap="round" stroke-linejoin="round"/>
<path d="M47.9742 43.9716V43.7054C47.9742 43.2377 48.2778 42.8276 48.7115 42.691L50.9957 42.0003C51.8052 41.7557 52.622 42.3744 52.622 43.2377V43.9716C52.622 44.5544 52.1594 45.0292 51.5884 45.0292H49.0151C48.4441 45.0292 47.9815 44.5544 47.9815 43.9716H47.9742Z" stroke="white" stroke-width="1.2" stroke-linecap="round" stroke-linejoin="round"/>
<path d="M32.9105 36.9784H30.1348C29.6071 36.9784 29.1807 37.4245 29.1807 37.9785V38.2663C29.1807 38.7555 29.5132 39.1728 29.9758 39.2519L31.6238 39.5469" stroke="white" stroke-width="1.2" stroke-linecap="round" stroke-linejoin="round"/>
<path d="M32.5851 38.2159H42.0903" stroke="white" stroke-width="1.2" stroke-linecap="round" stroke-linejoin="round"/>
<path d="M52.4268 48.5186V50.7849C52.4268 51.3676 51.9497 51.8497 51.357 51.8497H47.9163C47.3308 51.8497 46.8538 51.3748 46.8538 50.7849V48.5186H52.4195H52.4268Z" stroke="white" stroke-width="1.2" stroke-linecap="round" stroke-linejoin="round"/>
<path d="M37.3195 48.5186V50.7849C37.3195 51.3676 36.8496 51.8497 36.2569 51.8497H32.8162C32.2308 51.8497 31.7465 51.3748 31.7465 50.7849V48.5186H37.3122H37.3195Z" stroke="white" stroke-width="1.2" stroke-linecap="round" stroke-linejoin="round"/>
<path d="M45.2779 45.4249H38.8954C38.2087 45.4249 37.6521 44.8709 37.6521 44.1874C37.6521 43.5039 38.2087 42.95 38.8954 42.95H45.2779C45.9646 42.95 46.5212 43.5039 46.5212 44.1874C46.5212 44.8709 45.9646 45.4249 45.2779 45.4249Z" stroke="white" stroke-width="1.2" stroke-linecap="round" stroke-linejoin="round"/>
<path d="M32.9103 30.7047C32.7946 30.6544 32.6934 30.5896 32.5995 30.5033L28.754 26.6614C28.183 26.0858 27.3156 25.9563 26.6434 26.352L21.0559 29.604" stroke="white" stroke-width="1.2" stroke-linecap="round" stroke-linejoin="round"/>
<path d="M31.6962 29.5968L34.0887 28.201C34.5441 27.9348 35.1368 28.1075 35.4187 28.5895L35.5633 28.8413C35.8091 29.2658 35.7368 29.791 35.3826 30.0932" stroke="white" stroke-width="1.2" stroke-linecap="round" stroke-linejoin="round"/>
<path d="M32.6068 30.5033L24.4027 35.2805" stroke="white" stroke-width="1.2" stroke-linecap="round" stroke-linejoin="round"/>
<path d="M27.6555 45.3242L24.3088 47.2739" stroke="white" stroke-width="1.2" stroke-linecap="round" stroke-linejoin="round"/>
<path d="M20.7091 49.3675L20.6874 49.3819C19.7477 49.9287 18.5117 49.569 17.9262 48.5833L15.8951 45.1299C15.7071 44.8134 15.6421 44.4464 15.6854 44.0939L16.2276 40.4606C16.2493 40.3311 16.2348 40.1944 16.1987 40.0649L14.7169 34.8416C14.4928 34.0574 14.8036 33.2444 15.4758 32.8559L21.0561 29.604" stroke="white" stroke-width="1.2" stroke-linecap="round" stroke-linejoin="round"/>
<path d="M22.2413 43.2018L22.1112 42.9715C21.8727 42.5686 21.4029 42.36 20.9547 42.4679L18.6344 43.0147C17.8104 43.209 17.4201 44.1587 17.861 44.8997L18.2296 45.5328C18.526 46.0364 19.1693 46.2091 19.6609 45.9213L21.8872 44.6263C22.3787 44.3385 22.5377 43.6982 22.2413 43.1946V43.2018Z" stroke="white" stroke-width="1.2" stroke-linecap="round" stroke-linejoin="round"/>
<path d="M15.8516 38.8203L13.4591 40.216C13.0037 40.4822 12.8664 41.0794 13.141 41.5614L13.2856 41.8132C13.5314 42.2377 14.0373 42.4248 14.471 42.2665L16.0396 41.6981" stroke="white" stroke-width="1.2" stroke-linecap="round" stroke-linejoin="round"/>
<path d="M16.1986 40.0577L24.4027 35.2805" stroke="white" stroke-width="1.2" stroke-linecap="round" stroke-linejoin="round"/>
<path d="M25.5159 46.5688L26.6652 48.5258C26.9615 49.0294 26.7953 49.6769 26.2893 49.9791L23.3257 51.7058C22.8197 52.0008 22.162 51.8281 21.8656 51.3245L20.7163 49.3675L25.5231 46.5688H25.5159Z" stroke="white" stroke-width="1.2" stroke-linecap="round" stroke-linejoin="round"/>
<path d="M27.5905 38.8994L24.0486 40.9642C23.6511 41.1945 23.427 41.6046 23.427 42.029C23.427 42.2449 23.4848 42.4607 23.6005 42.655C23.9474 43.2449 24.7136 43.4464 25.3064 43.101L27.7351 41.6837" stroke="white" stroke-width="1.2" stroke-linecap="round" stroke-linejoin="round"/>
<path d="M29.3759 32.3811L26.9833 31.9854L26.6364 30.5033L23.7595 30.2443" stroke="white" stroke-width="1.2" stroke-linecap="round" stroke-linejoin="round"/>
<path d="M26.6364 30.5033L27.258 29.3162V28.4097" stroke="white" stroke-width="1.2" stroke-linecap="round" stroke-linejoin="round"/>
<path d="M35.8668 25.2224L31.5732 22.2223L36.8137 22.0208L35.9102 16.8767L39.7629 20.4236L42.7699 16.1501L42.9795 21.3661L48.1405 20.4668L44.5842 24.2943L48.8778 27.2945L43.6373 27.5031" stroke="white" stroke-width="1.2" stroke-linecap="round" stroke-linejoin="round"/>
</svg>
