<svg width="68" height="68" viewBox="0 0 68 68" fill="none" xmlns="http://www.w3.org/2000/svg">
<rect width="68" height="68" rx="34" fill="#B68E34"/>
<path d="M43.7379 34.4368C43.2998 34.6462 42.5888 35.0615 41.9879 35.8381C41.6997 36.2099 41.5076 36.5735 41.3776 36.8759C41.2991 37.2595 41.2417 37.7043 41.237 38.1973C41.2206 39.5998 41.6306 40.7211 41.9598 41.413C37.4383 38.7315 34.2183 36.0982 32.1133 34.1767C30.2485 32.4741 29.1768 31.2552 28.2444 29.9479C26.6209 27.6711 25.6955 25.5073 25.159 23.9706C23.8014 20.5984 24.3028 16.8238 26.499 14.1752C28.9179 11.2572 32.371 10.9383 33.0586 10.8889C33.9571 10.9065 36.9815 11.0783 39.0478 13.3422C39.9649 14.347 40.3983 15.4413 40.6455 16.0802C41.4244 18.0934 41.3998 19.8972 41.3061 20.9185C41.2804 20.6984 40.5858 15.3883 36.5867 13.9081C35.5454 13.5234 34.5275 13.4892 33.6654 13.5928C33.1758 13.661 31.4222 13.9693 30.1384 15.5083C28.1401 17.9063 29.1803 21.0161 29.2377 21.1797C30.0002 23.0376 31.5956 26.2415 34.7653 29.2243C38.1938 32.4494 41.7864 33.8379 43.7367 34.4368H43.7379Z" stroke="white" stroke-miterlimit="10" stroke-linejoin="round"/>
<path d="M41.289 20.782C41.2984 22.0198 41.1649 23.9565 40.3578 26.1509C39.4559 28.6077 38.1135 30.295 37.2373 31.241" stroke="white" stroke-miterlimit="10"/>
<path d="M33.2852 27.6935C34.077 27.0346 36.2791 25.0273 37.1752 21.5597C38.1357 17.8428 36.9808 14.8271 36.5872 13.9081" stroke="white" stroke-miterlimit="10"/>
<path d="M29.0188 30.9692C28.528 31.4058 27.8779 31.907 27.0568 32.3647C25.9967 32.9554 25.0116 33.2743 24.2607 33.4531C24.4751 33.8473 24.7316 34.4168 24.8898 35.138C25.0362 35.8087 25.0514 36.3923 25.0292 36.823C24.7726 38.3526 24.5161 39.8834 24.2607 41.413C26.0225 40.4611 27.9575 39.268 29.957 37.7701C31.1436 36.8818 32.2142 35.9887 33.1759 35.1216" stroke="white" stroke-miterlimit="10" stroke-linejoin="round"/>
<path d="M37.0518 57.1111V48.6616C37.0518 48.1035 37.3378 47.5829 37.8093 47.286L45.3202 42.5358C45.9614 42.13 46.796 42.225 47.3326 42.7614C48.0054 43.4364 47.958 44.5447 47.228 45.1583L43.1421 48.5983" stroke="white" stroke-linecap="round" stroke-linejoin="round"/>
<path d="M30.9473 57.1111V48.6616C30.9473 48.1035 30.6612 47.5829 30.1897 47.286L22.6788 42.5358C22.0376 42.13 21.203 42.225 20.6664 42.7614C19.9937 43.4364 20.0411 44.5447 20.771 45.1583L24.8569 48.5983" stroke="white" stroke-linecap="round" stroke-linejoin="round"/>
<path d="M47.7824 44.268L50.5405 36.0819C50.7982 35.3169 51.609 34.8735 52.4079 35.0599C53.2547 35.258 53.7779 36.0898 53.5802 36.9235L51.5132 45.6274C51.3893 46.1492 51.1177 46.6259 50.7322 47.0026L44.3193 53.2584L44.4131 57.1111" stroke="white" stroke-linecap="round" stroke-linejoin="round"/>
<path d="M20.2166 44.268L17.4585 36.0819C17.2009 35.3169 16.39 34.8735 15.5911 35.0599C14.7443 35.258 14.2211 36.0898 14.4189 36.9235L16.4859 45.6274C16.6097 46.1492 16.8813 46.6259 17.2668 47.0026L23.6797 53.2584L23.5859 57.1111" stroke="white" stroke-linecap="round" stroke-linejoin="round"/>
</svg>
