<svg width="68" height="68" viewBox="0 0 68 68" fill="none" xmlns="http://www.w3.org/2000/svg">
<rect width="68" height="68" rx="34" fill="#B68E34"/>
<path d="M42.1254 24.6253C48.3754 32.7503 44.6254 34.0003 42.7504 37.7503C42.0098 39.2331 41.7395 40.9581 41.2129 42.7503C41.2129 42.7503 41.8254 48.3472 42.1254 50.8753" stroke="white" stroke-linecap="round" stroke-linejoin="round"/>
<path d="M35.875 49.0003C35.875 44.0003 35.875 36.5003 39.625 31.5003M39.625 31.5003C37.1359 35.2347 38.2969 38.1128 37.8328 41.6003M39.625 31.5003C37.1359 35.2347 38.2984 38.1144 37.8328 41.6003M37.8328 41.6003C37.7797 41.9941 37.7672 42.3925 37.8078 42.7878M37.8078 42.7878C38.1578 46.1488 39.2906 48.966 39.625 50.8753C39.2922 48.966 38.1578 46.1488 37.8078 42.7878Z" stroke="white" stroke-linecap="round" stroke-linejoin="round"/>
<path d="M25.25 23.3753C23.375 29.0003 27.125 34.0003 24 40.8753L25.25 42.1253H27.75C28.825 42.1253 29.3687 43.0394 29 44.0003C28.5031 45.0753 28.375 45.8847 27.125 45.8753L24.0031 45.8784L21.5 43.3753C21.8531 42.3066 22.0563 41.0503 22.125 39.6253C22.125 39.6253 14 30.2503 14 26.5003C14 24.0003 22.2672 20.13 27.1844 19.1425M27.1844 19.1425C28.5312 18.8722 29.9203 18.9175 31.2484 19.2722M27.1844 19.1425C28.5312 18.8722 29.9219 18.9191 31.2484 19.2722M31.2484 19.2722L35.3547 20.3659M35.3547 20.3659C37.3625 20.8253 39.2578 20.605 40.6438 19.2191M35.3547 20.3659C37.3609 20.8253 39.2578 20.605 40.6438 19.2191M40.6438 19.2191L43.6813 16.1816M43.6813 16.1816C45.8438 14.0191 49.4078 14.1113 51.4516 16.4566M43.6813 16.1816C45.8438 14.0175 49.4078 14.1097 51.4516 16.4566M51.4516 16.4566C52.2859 17.4144 52.75 18.6128 52.75 19.8191M51.4516 16.4566C52.2859 17.4159 52.75 18.6128 52.75 19.8191M52.75 19.8191C52.75 21.1113 52.3406 22.3972 51.4516 23.4191L48.9969 25.8738L47.75 25.2519L45.875 26.5019" stroke="white" stroke-linecap="round" stroke-linejoin="round"/>
<path d="M20.25 45.8753H16.5" stroke="white" stroke-linecap="round" stroke-linejoin="round"/>
<path d="M24 49.6253V53.3753" stroke="white" stroke-linecap="round" stroke-linejoin="round"/>
<path d="M29.3029 51.1784L26.6514 48.5269" stroke="white" stroke-linecap="round" stroke-linejoin="round"/>
<path d="M21.3488 48.5269L18.6973 51.1784" stroke="white" stroke-linecap="round" stroke-linejoin="round"/>
<path d="M31.1777 43.3753H33.9902" stroke="white" stroke-linecap="round" stroke-linejoin="round"/>
<path d="M27.7402 39.6253V36.8128" stroke="white" stroke-linecap="round" stroke-linejoin="round"/>
<path d="M30.2363 40.8753L32.2816 38.8441" stroke="white" stroke-linecap="round" stroke-linejoin="round"/>
<path d="M24.7062 26.5003L19.625 27.7503C19.625 31.5003 22.8703 35.9035 24.7047 39.0003" stroke="white" stroke-linecap="round" stroke-linejoin="round"/>
</svg>
