<svg width="68" height="68" viewBox="0 0 68 68" fill="none" xmlns="http://www.w3.org/2000/svg">
<rect width="68" height="68" rx="34" fill="#B68E34"/>
<path d="M39.1063 16.5047C37.5048 15.8593 35.7865 15.509 33.9978 15.509C26.1577 15.509 19.6614 22.2454 18.5049 31.0416C18.267 30.9953 18.0203 30.9689 17.7691 30.9689C15.6874 30.9689 14 32.6563 14 34.738C14 36.8197 15.6874 38.5071 17.7691 38.5071C18.126 38.5071 18.4719 38.4565 18.8001 38.3639C20.5183 46.3164 26.671 52.2003 34 52.2003C41.329 52.2003 47.4817 46.3164 49.1999 38.3639C49.5281 38.4565 49.874 38.5071 50.2309 38.5071C52.3126 38.5071 54 36.8197 54 34.738C54 32.6563 52.3126 30.9689 50.2309 30.9689C49.9797 30.9689 49.733 30.9931 49.4929 31.0416C48.9686 27.0543 47.3473 23.4901 45.0012 20.7849" stroke="white" stroke-linecap="round" stroke-linejoin="round"/>
<circle cx="27.7579" cy="34" r="0.786176" fill="white"/>
<circle cx="40.7295" cy="34" r="0.786176" fill="white"/>
<path d="M31.8232 38.5576C33.0613 39.7957 35.0064 39.8551 36.1717 38.692" stroke="white" stroke-linecap="round" stroke-linejoin="round"/>
<path d="M29.6468 36.1346C28.5255 37.2559 26.761 37.311 25.708 36.2558" stroke="white" stroke-linecap="round" stroke-linejoin="round"/>
<path d="M29.6475 44.457C32.1257 46.9353 36.0204 47.0542 38.3489 44.728" stroke="white" stroke-linecap="round" stroke-linejoin="round"/>
<path d="M49.491 31.0416C41.6002 31.4315 37.917 25.7723 37.917 25.7723" stroke="white" stroke-linecap="round" stroke-linejoin="round"/>
<path d="M39.9018 24.0053C39.9018 24.0053 32.6873 32.1648 18.5029 31.0413" stroke="white" stroke-linecap="round" stroke-linejoin="round"/>
<path d="M33.998 14V54" stroke="white" stroke-linecap="round" stroke-linejoin="round"/>
<path d="M28.427 42.0601C28.427 42.0601 27.233 42.439 26.8145 43.5625" stroke="white" stroke-linecap="round" stroke-linejoin="round"/>
<path d="M18.7998 38.3659L18.4033 36.6763" stroke="white" stroke-linecap="round" stroke-linejoin="round"/>
<path d="M51.4404 20.4213V17.0906" stroke="white" stroke-linecap="round" stroke-linejoin="round"/>
<path d="M53.1054 18.7558H49.7725" stroke="white" stroke-linecap="round" stroke-linejoin="round"/>
<path d="M48.3457 52.6077V49.277" stroke="white" stroke-linecap="round" stroke-linejoin="round"/>
<path d="M50.0104 50.9422H46.6797" stroke="white" stroke-linecap="round" stroke-linejoin="round"/>
<circle cx="42.3312" cy="18.2978" r="0.440577" fill="white"/>
</svg>
