<svg width="68" height="68" viewBox="0 0 68 68" fill="none" xmlns="http://www.w3.org/2000/svg">
<rect width="68" height="68" rx="34" fill="#B68E34"/>
<path d="M44.5209 41.4653V13.0297C44.5209 11.9109 43.6043 11 42.4785 11H20.3807C19.8427 11 19.3246 11.2178 18.9361 11.5941L13.0978 17.396C12.7192 17.7723 12.5 18.2871 12.5 18.8317V50.396C12.5 51.5149 13.4166 52.4257 14.5424 52.4257H17.9398" stroke="white" stroke-width="1.2" stroke-linecap="round" stroke-linejoin="round"/>
<path d="M19.7133 18.0792H12.6794L19.7133 11.0891V18.0792Z" stroke="white" stroke-width="1.2" stroke-linecap="round" stroke-linejoin="round"/>
<path d="M20.3607 20.7426H36.8195" stroke="white" stroke-width="1.2" stroke-miterlimit="10" stroke-linecap="round"/>
<path d="M20.3607 25.4257H36.8195" stroke="white" stroke-width="1.2" stroke-miterlimit="10" stroke-linecap="round"/>
<path d="M20.3607 30.1188H36.8195" stroke="white" stroke-width="1.2" stroke-miterlimit="10" stroke-linecap="round"/>
<path d="M20.3607 34.8119H36.8195" stroke="white" stroke-width="1.2" stroke-miterlimit="10" stroke-linecap="round"/>
<path d="M34.8269 44.9208L34.2191 38.8713" stroke="white" stroke-width="1.2" stroke-linecap="round" stroke-linejoin="round"/>
<path d="M45.1585 45.5148L24.4854 44.3267C24.4854 44.3267 25.2326 41 28.7395 39.495" stroke="white" stroke-width="1.2" stroke-linecap="round" stroke-linejoin="round"/>
<path d="M25.402 57C27.2508 57 28.7495 55.5106 28.7495 53.6733C28.7495 51.836 27.2508 50.3465 25.402 50.3465C23.5532 50.3465 22.0544 51.836 22.0544 53.6733C22.0544 55.5106 23.5532 57 25.402 57Z" stroke="white" stroke-width="1.2" stroke-linecap="round" stroke-linejoin="round"/>
<path d="M47.8982 57C49.747 57 51.2458 55.5106 51.2458 53.6733C51.2458 51.836 49.747 50.3465 47.8982 50.3465C46.0494 50.3465 44.5507 51.836 44.5507 53.6733C44.5507 55.5106 46.0494 57 47.8982 57Z" stroke="white" stroke-width="1.2" stroke-linecap="round" stroke-linejoin="round"/>
<path d="M28.62 54.5742H44.6803" stroke="white" stroke-width="1.2" stroke-linecap="round" stroke-linejoin="round"/>
<path d="M51.1163 54.5743H53.6768C54.6831 54.5743 55.5 53.7624 55.5 52.7624V50.5644C55.5 48.3168 53.9359 46.3564 51.734 45.8515L47.5994 44.901C43.2058 41 40.9143 38.8614 36.0524 38.8614H32.4059C26.9363 38.8614 21.4666 43.6832 21.4666 43.6832L19.2549 44.1584C18.418 44.3366 17.8202 45.0792 17.8202 45.9307V51.2673C17.8202 52.4752 18.7069 53.4951 19.9124 53.6634L22.0943 53.9703" stroke="white" stroke-width="1.2" stroke-linecap="round" stroke-linejoin="round"/>
<path d="M17.8002 47.3267H19.6234" stroke="white" stroke-width="1.2" stroke-linecap="round" stroke-linejoin="round"/>
<path d="M53.0691 49.1386H54.8923" stroke="white" stroke-width="1.2" stroke-linecap="round" stroke-linejoin="round"/>
</svg>
