<svg width="68" height="68" viewBox="0 0 68 68" fill="none" xmlns="http://www.w3.org/2000/svg">
<rect width="68" height="68" rx="34" fill="#B68E34"/>
<g clip-path="url(#clip0_671_696)">
<path d="M16.8242 30.5763L48.7988 24.8004" stroke="white" stroke-linecap="round" stroke-linejoin="round"/>
<path d="M18.6875 53.6733H51.175" stroke="white" stroke-linecap="round" stroke-linejoin="round"/>
<path d="M26.394 42.2653L31.3217 49.1846C32.0033 50.1385 33.2629 50.4718 34.3211 49.9687L40.4304 47.0611L45.0139 52.2032C45.2931 52.5168 45.6696 52.6998 46.0592 52.7521C46.5201 52.8043 47.0006 52.6671 47.3771 52.3274C48.0653 51.7132 48.1237 50.6416 47.5005 49.9556L42.1378 43.9575C41.6769 43.4348 40.9368 43.2584 40.2875 43.5132L35.5157 45.3688C34.7236 44.1013 32.685 40.9585 31.7047 39.4427L34.6976 36.888C35.0742 36.5743 35.2884 36.1039 35.2949 35.6139L35.3274 30.2953C35.3274 29.3675 34.5938 28.6031 33.6589 28.6031C32.737 28.6031 31.9839 29.3545 31.9774 30.2823L31.9514 34.8233L26.9069 39.116L26.7835 39.2336C25.8941 39.9915 25.7123 41.3114 26.381 42.2718L26.394 42.2653Z" stroke="white" stroke-linecap="round" stroke-linejoin="round"/>
<path d="M35.7627 42.703L37.7753 39.7367C38.048 39.3381 38.483 39.0702 38.9634 39.0114L47.0853 38.0444C48.0072 37.9333 48.8382 38.5933 48.9486 39.5211C49.0589 40.4423 48.4032 41.2787 47.4813 41.3963L42.9302 41.9386L40.7098 42.2065L39.8074 43.7027" stroke="white" stroke-linecap="round" stroke-linejoin="round"/>
<path d="M22.1936 34.0392C21.9859 35.7837 23.2259 37.3714 24.9593 37.5805C26.6928 37.7896 28.2704 36.5416 28.4782 34.7971C28.6859 33.0526 27.4459 31.4649 25.7125 31.2558C23.979 31.0467 22.4014 32.2947 22.1936 34.0392Z" stroke="white" stroke-linecap="round" stroke-linejoin="round"/>
<path d="M28.1988 25.1728L23.8555 23.7419L27.9781 21.9647L25.0111 18.5148L29.322 18.9526L30.2893 14.3267L32.659 18.1881L36.6258 16.6004L35.0028 20.5207L38.58 21.5923L34.7301 23.7615" stroke="white" stroke-linecap="round" stroke-linejoin="round"/>
<path d="M19.8242 46.0483H21.4733" stroke="white" stroke-linecap="round" stroke-linejoin="round"/>
<path d="M20.915 48.7011L22.0837 47.525" stroke="white" stroke-linecap="round" stroke-linejoin="round"/>
<path d="M20.915 43.3891L22.0837 44.5652" stroke="white" stroke-linecap="round" stroke-linejoin="round"/>
</g>
<defs>
<clipPath id="clip0_671_696">
<rect width="35" height="40" fill="white" transform="translate(16.5 14)"/>
</clipPath>
</defs>
</svg>
