<svg width="68" height="68" viewBox="0 0 68 68" fill="none" xmlns="http://www.w3.org/2000/svg">
<rect width="68" height="68" rx="34" fill="#B68E34"/>
<path d="M36.0482 24.1655C38.8553 24.1655 41.131 21.8899 41.131 19.0828C41.131 16.2756 38.8553 14 36.0482 14C33.2411 14 30.9655 16.2756 30.9655 19.0828C30.9655 21.8899 33.2411 24.1655 36.0482 24.1655Z" stroke="white" stroke-width="1.2" stroke-linecap="round" stroke-linejoin="round"/>
<path d="M48.9172 37.0345C51.7244 37.0345 54 34.7589 54 31.9517C54 29.1446 51.7244 26.869 48.9172 26.869C46.1101 26.869 43.8345 29.1446 43.8345 31.9517C43.8345 34.7589 46.1101 37.0345 48.9172 37.0345Z" stroke="white" stroke-width="1.2" stroke-linecap="round" stroke-linejoin="round"/>
<path d="M36.0482 19.0828L32.0068 27.8414L38.5103 34.3448L48.9172 31.9517L42.5999 25.6345" stroke="white" stroke-width="1.2" stroke-linecap="round" stroke-linejoin="round"/>
<path d="M37.6482 36.1448L42.6068 25.6345L32.0068 27.8414" stroke="white" stroke-width="1.2" stroke-linecap="round" stroke-linejoin="round"/>
<path d="M32.0069 27.8414L30.8897 30.269L28.1172 27.4965C27.6276 27.0069 27.6276 26.2138 28.1172 25.7241C28.6069 25.2345 29.4 25.2345 29.8897 25.7241L30.1586 25.9931" stroke="white" stroke-width="1.2" stroke-linecap="round" stroke-linejoin="round"/>
<path d="M42.6 25.6345L44.4069 23.8345L43.6827 23.1103" stroke="white" stroke-width="1.2" stroke-linecap="round" stroke-linejoin="round"/>
<path d="M36.3655 34.8621L38.869 37.3655C39.2759 37.7724 39.0759 38.3241 38.6138 38.7862C37.9655 39.4345 36.8276 38.931 36.5173 38.2345L35.3448 35.669C35.0483 34.9241 36 34.5034 36.3724 34.869L36.3655 34.8621Z" stroke="white" stroke-width="1.2" stroke-linecap="round" stroke-linejoin="round"/>
<path d="M18.9104 46.9586L23.9173 52.4414C24.6069 53.2 25.7448 53.3517 26.6138 52.8069L31.6414 49.6552L36.1724 53.6345C36.4483 53.8759 36.7931 54 37.1448 54C37.5517 54 37.9586 53.8276 38.2483 53.4965C38.7862 52.8897 38.7241 51.9586 38.1104 51.4276L32.8138 46.7862C32.3517 46.3793 31.6966 46.3034 31.1586 46.5931L27.1862 48.6966C26.3655 47.6759 24.2621 45.1655 23.2483 43.9586L25.5931 41.4345C25.8897 41.1241 26.0276 40.6966 25.9793 40.269L25.4552 35.6552C25.3586 34.8483 24.6414 34.269 23.8276 34.3586C23.0207 34.4552 22.4483 35.1793 22.5311 35.9862L22.9793 39.9241L19.0276 44.1655L18.9311 44.2759C18.2345 45.0207 18.2138 46.1862 18.8966 46.9517L18.9104 46.9586Z" stroke="white" stroke-width="1.2" stroke-linecap="round" stroke-linejoin="round"/>
<path d="M30.7517 46.8069L31.3862 45.4138L33.2966 44.9517L37.2069 44.0069C37.9931 43.8138 38.4828 43.0207 38.2897 42.2345C38.1035 41.4483 37.3104 40.9586 36.5173 41.1517L29.538 42.8345C29.1242 42.9379 28.7724 43.2138 28.5793 43.5862L26.4138 47.7379" stroke="white" stroke-width="1.2" stroke-linecap="round" stroke-linejoin="round"/>
<path d="M14 39.9793C14 41.5103 15.2414 42.7586 16.7793 42.7586C18.3172 42.7586 19.5586 41.5172 19.5586 39.9793C19.5586 38.4414 18.3172 37.2 16.7793 37.2C15.2414 37.2 14 38.4414 14 39.9793Z" stroke="white" stroke-width="1.2" stroke-linecap="round" stroke-linejoin="round"/>
<path d="M16.9103 53.1724L18.1861 52.069" stroke="white" stroke-width="1.2" stroke-linecap="round" stroke-linejoin="round"/>
<path d="M15.9862 50.4069L17.669 50.531" stroke="white" stroke-width="1.2" stroke-linecap="round" stroke-linejoin="round"/>
<path d="M40.6759 49.3172C40.9931 49.1793 41.3035 49.0276 41.6138 48.8758" stroke="white" stroke-width="1.2" stroke-linecap="round" stroke-linejoin="round"/>
<path d="M43.4552 47.7724C45.5242 46.3517 47.2552 44.469 48.5035 42.2827" stroke="white" stroke-width="1.2" stroke-linecap="round" stroke-linejoin="round" stroke-dasharray="3.11 3.11"/>
<path d="M49.0068 41.3379C49.1586 41.0276 49.3034 40.7172 49.4344 40.3931" stroke="white" stroke-width="1.2" stroke-linecap="round" stroke-linejoin="round"/>
<path d="M17.4414 31.8C17.4897 31.4552 17.5449 31.1173 17.6069 30.7793" stroke="white" stroke-width="1.2" stroke-linecap="round" stroke-linejoin="round"/>
<path d="M18.131 28.7793C19.3379 25.1104 21.7793 22.0069 24.9655 19.9517" stroke="white" stroke-width="1.2" stroke-linecap="round" stroke-linejoin="round" stroke-dasharray="3 3"/>
<path d="M25.8483 19.4207C26.1448 19.2552 26.4552 19.0966 26.7655 18.9448" stroke="white" stroke-width="1.2" stroke-linecap="round" stroke-linejoin="round"/>
</svg>
