<svg width="68" height="68" viewBox="0 0 68 68" fill="none" xmlns="http://www.w3.org/2000/svg">
<rect width="68" height="68" rx="34" fill="#B68E34"/>
<path d="M47.1923 34.5349C47.1923 34.6982 47.0601 34.8305 46.897 34.8305C46.7339 34.8305 46.6017 34.6982 46.6017 34.5349C46.6017 34.3717 46.7339 34.2393 46.897 34.2393C47.0601 34.2393 47.1923 34.3717 47.1923 34.5349Z" fill="white"/>
<path d="M52.4797 41.8737C52.4797 42.0369 52.3474 42.1693 52.1843 42.1693C52.0212 42.1693 51.889 42.0369 51.889 41.8737C51.889 41.7104 52.0212 41.5781 52.1843 41.5781C52.3474 41.5781 52.4797 41.7104 52.4797 41.8737Z" fill="white"/>
<path d="M49.6326 48.397C49.6326 48.5603 49.5004 48.6926 49.3373 48.6926C49.1742 48.6926 49.042 48.5603 49.042 48.397C49.042 48.2338 49.1742 48.1014 49.3373 48.1014C49.5004 48.1014 49.6326 48.2338 49.6326 48.397Z" fill="white"/>
<path d="M37.5183 41.1005C37.5183 41.2637 37.3861 41.3961 37.223 41.3961C37.0599 41.3961 36.9276 41.2637 36.9276 41.1005C36.9276 40.9372 37.0599 40.8049 37.223 40.8049C37.3861 40.8049 37.5183 40.9372 37.5183 41.1005Z" fill="white"/>
<path d="M46.3463 42.1513L46.8426 42.0903L46.3463 42.1513ZM44.8786 44.033L44.9397 44.5293L44.8786 44.033ZM42.9986 42.564L43.4948 42.5029L42.9986 42.564ZM44.4663 40.6823L44.5275 41.1785L44.4663 40.6823ZM51.6113 45.4842L52.0709 45.681L52.0711 45.6806L51.6113 45.4842ZM52.6853 44.6288L52.5952 44.1369L52.5948 44.137L52.6853 44.6288ZM55.0896 42.874L54.6182 42.7073L54.6182 42.7074L55.0896 42.874ZM53.5575 39.0307L53.7605 38.5738L53.7604 38.5737L53.5575 39.0307ZM49.5492 40.5642L50.0086 40.7615L50.0088 40.7611L49.5492 40.5642ZM49.9546 43.4659L50.3855 43.2124L50.385 43.2115L49.9546 43.4659ZM50.0652 44.8202L49.6055 44.6234L49.6053 44.6238L50.0652 44.8202ZM48.9911 45.6756L49.0812 46.1675L49.0816 46.1674L48.9911 45.6756ZM46.9378 47.4304L47.4092 47.5971L47.4093 47.597L46.9378 47.4304ZM48.2944 50.7467L48.0748 51.1959L48.075 51.196L48.2944 50.7467ZM51.9517 49.3889L51.4924 49.1916L51.4922 49.192L51.9517 49.3889ZM51.7218 46.8385L52.1389 46.5627L52.1388 46.5625L51.7218 46.8385ZM41.2211 31.3388C41.2211 31.615 41.4449 31.8388 41.7211 31.8388C41.9972 31.8388 42.2211 31.615 42.2211 31.3388H41.2211ZM42.2211 29.708C42.2211 29.4318 41.9972 29.208 41.7211 29.208C41.4449 29.208 41.2211 29.4318 41.2211 29.708H42.2211ZM42.9132 32.101C42.7768 32.3411 42.8608 32.6463 43.1009 32.7828C43.3409 32.9192 43.6462 32.8352 43.7826 32.5951L42.9132 32.101ZM44.588 31.1782C44.7244 30.9381 44.6404 30.6329 44.4004 30.4964C44.1603 30.36 43.8551 30.444 43.7186 30.684L44.588 31.1782ZM37.5433 34.4726C37.274 34.5337 37.1052 34.8015 37.1663 35.0708C37.2273 35.3401 37.4951 35.509 37.7644 35.4479L37.5433 34.4726ZM39.3512 35.0881C39.6205 35.027 39.7894 34.7592 39.7283 34.4899C39.6672 34.2206 39.3994 34.0518 39.1301 34.1128L39.3512 35.0881ZM40.0109 38.1374C39.9559 38.408 40.1307 38.672 40.4013 38.727C40.6719 38.782 40.9359 38.6072 40.9909 38.3366L40.0109 38.1374ZM41.3157 36.7386C41.3707 36.468 41.1959 36.204 40.9253 36.149C40.6547 36.094 40.3907 36.2688 40.3357 36.5394L41.3157 36.7386ZM43.2918 37.8997C43.4253 38.1415 43.7295 38.2291 43.9712 38.0956C44.2129 37.9621 44.3006 37.6579 44.1671 37.4162L43.2918 37.8997ZM43.3789 35.9895C43.2453 35.7478 42.9411 35.6601 42.6994 35.7937C42.4577 35.9272 42.37 36.2314 42.5036 36.4731L43.3789 35.9895ZM38.9373 49.7699C39.209 49.7205 39.3893 49.4602 39.3399 49.1885C39.2905 48.9169 39.0302 48.7366 38.7585 48.786L38.9373 49.7699ZM37.1578 49.077C36.8861 49.1263 36.7058 49.3866 36.7552 49.6583C36.8046 49.93 37.0649 50.1102 37.3366 50.0608L37.1578 49.077ZM41.3124 51.415C41.3668 51.1443 41.1915 50.8807 40.9207 50.8263C40.65 50.7719 40.3864 50.9472 40.332 51.2179L41.3124 51.415ZM40.0107 52.8167C39.9563 53.0874 40.1317 53.351 40.4024 53.4054C40.6731 53.4598 40.9367 53.2844 40.9911 53.0137L40.0107 52.8167ZM42.9393 44.484C42.9937 44.2132 42.8183 43.9496 42.5476 43.8952C42.2769 43.8408 42.0133 44.0162 41.9589 44.2869L42.9393 44.484ZM41.6376 45.8856C41.5832 46.1563 41.7585 46.4199 42.0293 46.4743C42.3 46.5288 42.5636 46.3534 42.618 46.0827L41.6376 45.8856ZM45.3784 46.8354C45.6056 46.6784 45.6625 46.367 45.5055 46.1398C45.3486 45.9126 45.0371 45.8557 44.81 46.0126L45.3784 46.8354ZM43.4704 46.9381C43.2432 47.0951 43.1863 47.4065 43.3433 47.6337C43.5003 47.8609 43.8117 47.9178 44.0389 47.7609L43.4704 46.9381ZM39.6313 46.8693C39.7648 47.111 40.069 47.1987 40.3107 47.0652C40.5524 46.9316 40.6401 46.6274 40.5066 46.3857L39.6313 46.8693ZM39.7184 44.9591C39.5849 44.7174 39.2807 44.6297 39.039 44.7632C38.7973 44.8968 38.7096 45.201 38.8431 45.4427L39.7184 44.9591ZM44.6492 51.5432C44.8568 51.7253 45.1727 51.7047 45.3548 51.4971C45.5369 51.2895 45.5163 50.9736 45.3087 50.7915L44.6492 51.5432ZM44.0844 49.7175C43.8768 49.5354 43.5609 49.5561 43.3788 49.7636C43.1967 49.9712 43.2173 50.2871 43.4249 50.4692L44.0844 49.7175ZM39.3962 32.7668C39.6081 32.9439 39.9234 32.9157 40.1005 32.7038C40.2776 32.4919 40.2494 32.1766 40.0375 31.9995L39.3962 32.7668ZM38.788 30.9552C38.5761 30.7781 38.2608 30.8063 38.0837 31.0182C37.9066 31.2301 37.9348 31.5454 38.1467 31.7225L38.788 30.9552ZM40.5622 22.9532C40.7619 23.1439 41.0784 23.1367 41.2691 22.937C41.4599 22.7374 41.4527 22.4209 41.253 22.2301L40.5622 22.9532ZM28.9735 11.19L29.3189 10.8285L29.3166 10.8263L28.9735 11.19ZM28.005 11.19L27.6619 10.8263L27.6595 10.8286L28.005 11.19ZM8.22059 30.1066L8.56531 30.4688L8.56613 30.468L8.22059 30.1066ZM12.5876 31.3053H13.0876C13.0876 31.0291 12.8638 30.8053 12.5876 30.8053V31.3053ZM12.5876 50.2998H12.0876C12.0876 50.576 12.3115 50.7998 12.5876 50.7998V50.2998ZM28.9035 50.7998C29.1796 50.7998 29.4035 50.576 29.4035 50.2998C29.4035 50.0237 29.1796 49.7998 28.9035 49.7998V50.7998ZM19.0414 13.5938H19.5414V13.0938H19.0414V13.5938ZM19.0414 19.7558L19.3874 20.1168L19.5414 19.9692V19.7558H19.0414ZM18.5042 20.2707L18.8498 20.6321L18.8502 20.6316L18.5042 20.2707ZM12.5892 25.926H12.0892V27.0958L12.9348 26.2874L12.5892 25.926ZM12.5892 13.5938V13.0938H12.0892V13.5938H12.5892ZM22.0488 17.2152C21.8397 17.0349 21.524 17.0582 21.3436 17.2673C21.1632 17.4764 21.1866 17.7921 21.3957 17.9725L22.0488 17.2152ZM27.1389 22.2657H27.6389V22.0367L27.4655 21.8871L27.1389 22.2657ZM26.6389 25.1407C26.6389 25.4169 26.8627 25.6407 27.1389 25.6407C27.415 25.6407 27.6389 25.4169 27.6389 25.1407H26.6389ZM26.4167 21.047C26.1405 21.047 25.9167 21.2708 25.9167 21.547C25.9167 21.8231 26.1405 22.047 26.4167 22.047V21.047ZM31.8333 21.547L32.1448 21.1558L32.0081 21.047H31.8333V21.547ZM33.3275 23.3757C33.5435 23.5477 33.8581 23.512 34.0301 23.2959C34.2021 23.0799 34.1664 22.7653 33.9503 22.5933L33.3275 23.3757ZM24.1111 50.297C24.1111 50.5731 24.335 50.797 24.6111 50.797C24.8873 50.797 25.1111 50.5731 25.1111 50.297H24.1111ZM24.6111 44.547H25.1111V44.306L24.9225 44.1558L24.6111 44.547ZM23.117 42.7183C22.9009 42.5463 22.5864 42.582 22.4144 42.7981C22.2424 43.0141 22.2781 43.3287 22.4941 43.5007L23.117 42.7183ZM60 41.5426H59.5C59.5 49.8038 52.8091 56.5 44.5564 56.5V57V57.5C53.3622 57.5 60.5 50.3552 60.5 41.5426H60ZM44.5564 57V56.5C36.3037 56.5 29.6128 49.8038 29.6128 41.5426H29.1128H28.6128C28.6128 50.3552 35.7506 57.5 44.5564 57.5V57ZM29.1128 41.5426H29.6128C29.6128 33.2814 36.3037 26.5852 44.5564 26.5852V26.0852V25.5852C35.7506 25.5852 28.6128 32.73 28.6128 41.5426H29.1128ZM44.5564 26.0852V26.5852C52.8091 26.5852 59.5 33.2814 59.5 41.5426H60H60.5C60.5 32.73 53.3622 25.5852 44.5564 25.5852V26.0852ZM46.3463 42.1513L45.8501 42.2124C45.9302 42.864 45.4674 43.4567 44.8174 43.5368L44.8786 44.033L44.9397 44.5293C46.1386 44.3815 46.9901 43.2892 46.8426 42.0903L46.3463 42.1513ZM44.8786 44.033L44.8174 43.5368C44.1675 43.6169 43.575 43.1545 43.4948 42.5029L42.9986 42.564L42.5023 42.625C42.6498 43.824 43.7408 44.677 44.9397 44.5293L44.8786 44.033ZM42.9986 42.564L43.4948 42.5029C43.4147 41.8512 43.8775 41.2586 44.5275 41.1785L44.4663 40.6823L44.4052 40.186C43.2063 40.3338 42.3548 41.4261 42.5023 42.625L42.9986 42.564ZM44.4663 40.6823L44.5275 41.1785C45.1774 41.0984 45.7699 41.5608 45.8501 42.2124L46.3463 42.1513L46.8426 42.0903C46.6951 40.8913 45.6041 40.0383 44.4052 40.186L44.4663 40.6823ZM51.6113 45.4842L52.0711 45.6806C52.1956 45.3891 52.4608 45.1785 52.7758 45.1205L52.6853 44.6288L52.5948 44.137C51.9551 44.2547 51.4096 44.6835 51.1515 45.2878L51.6113 45.4842ZM52.6853 44.6288L52.7754 45.1206C53.2972 45.025 53.8783 44.7991 54.3812 44.4617C54.8814 44.1261 55.345 43.652 55.5611 43.0405L55.0896 42.874L54.6182 42.7074C54.4972 43.0498 54.2141 43.3696 53.8241 43.6313C53.4368 43.8911 52.9843 44.0657 52.5952 44.1369L52.6853 44.6288ZM55.0896 42.874L55.561 43.0407C56.0721 41.5956 55.688 39.4298 53.7605 38.5738L53.5575 39.0307L53.3546 39.4877C54.6702 40.072 55.0092 41.6019 54.6182 42.7073L55.0896 42.874ZM53.5575 39.0307L53.7604 38.5737C52.9081 38.1953 51.9171 38.2433 51.0705 38.5662C50.2243 38.8889 49.4562 39.5117 49.0896 40.3672L49.5492 40.5642L50.0088 40.7611C50.2459 40.2079 50.7739 39.7496 51.4268 39.5005C52.0794 39.2517 52.7908 39.2373 53.3546 39.4877L53.5575 39.0307ZM49.5492 40.5642L49.0898 40.3668C48.8775 40.861 48.7698 41.3616 48.8376 41.9282C48.904 42.4833 49.134 43.0603 49.5242 43.7204L49.9546 43.4659L50.385 43.2115C50.0328 42.6157 49.8742 42.1748 49.8305 41.8094C49.7881 41.4556 49.8489 41.1333 50.0086 40.7615L49.5492 40.5642ZM49.9546 43.4659L49.5237 43.7195C49.6972 44.0143 49.725 44.3444 49.6055 44.6234L50.0652 44.8202L50.5248 45.017C50.7844 44.4107 50.6999 43.7467 50.3855 43.2124L49.9546 43.4659ZM50.0652 44.8202L49.6053 44.6238C49.4809 44.9153 49.2156 45.1259 48.9007 45.1839L48.9911 45.6756L49.0816 46.1674C49.7213 46.0497 50.2669 45.6209 50.525 45.0166L50.0652 44.8202ZM48.9911 45.6756L48.901 45.1838C47.8218 45.3816 46.8656 46.1339 46.4664 47.2639L46.9378 47.4304L47.4093 47.597C47.684 46.8194 48.3389 46.3035 49.0812 46.1675L48.9911 45.6756ZM46.9378 47.4304L46.4665 47.2637C45.9306 48.7787 46.6325 50.4908 48.0748 51.1959L48.2944 50.7467L48.514 50.2975C47.5274 49.8152 47.043 48.6326 47.4092 47.5971L46.9378 47.4304ZM48.2944 50.7467L48.075 51.196C49.7249 52.0019 51.6957 51.2559 52.4113 49.5859L51.9517 49.3889L51.4922 49.192C51.0004 50.3394 49.6473 50.8511 48.5139 50.2975L48.2944 50.7467ZM51.9517 49.3889L52.4111 49.5863C52.8526 48.5589 52.7121 47.4295 52.1389 46.5627L51.7218 46.8385L51.3048 47.1143C51.7003 47.7124 51.795 48.487 51.4924 49.1916L51.9517 49.3889ZM51.7218 46.8385L52.1388 46.5625C51.9717 46.31 51.944 45.9774 52.0709 45.681L51.6113 45.4842L51.1517 45.2874C50.8995 45.8762 50.942 46.566 51.3049 47.1144L51.7218 46.8385ZM40.262 41.6831H40.762C40.762 40.6933 40.2619 39.7386 39.5665 39.0425C38.871 38.3464 37.9169 37.8457 36.9276 37.8457V38.3457V38.8457C37.5862 38.8457 38.2993 39.189 38.859 39.7493C39.4188 40.3095 39.762 41.0235 39.762 41.6831H40.262ZM36.9276 38.3457V37.8457C35.9261 37.8457 35.0507 38.3579 34.4387 39.07C33.8276 39.7811 33.4442 40.7289 33.4442 41.6831H33.9442H34.4442C34.4442 40.9879 34.7285 40.267 35.1971 39.7218C35.6649 39.1775 36.2811 38.8457 36.9276 38.8457V38.3457ZM33.9442 41.6831H33.4442C33.4442 43.6082 35.0031 45.1692 36.9276 45.1692V44.6692V44.1692C35.5562 44.1692 34.4442 43.0567 34.4442 41.6831H33.9442ZM36.9276 44.6692V45.1692C37.8813 45.1692 38.8285 44.7853 39.539 44.1736C40.2505 43.561 40.762 42.6849 40.762 41.6831H40.262H39.762C39.762 42.3306 39.4302 42.9476 38.8865 43.4157C38.3418 43.8847 37.6218 44.1692 36.9276 44.1692V44.6692ZM50.4407 34.8326H50.9407C50.9407 33.8308 50.4292 32.9548 49.7177 32.3422C49.0072 31.7305 48.0599 31.3466 47.1063 31.3466V31.8466V32.3466C47.8005 32.3466 48.5205 32.631 49.0652 33.1C49.6089 33.5681 49.9407 34.1851 49.9407 34.8326H50.4407ZM47.1063 31.8466V31.3466C45.1818 31.3466 43.6228 32.9075 43.6228 34.8326H44.1228H44.6228C44.6228 33.459 45.7349 32.3466 47.1063 32.3466V31.8466ZM44.1228 34.8326H43.6228C43.6228 35.7868 44.0063 36.7347 44.6174 37.4457C45.2294 38.1578 46.1048 38.67 47.1063 38.67V38.17V37.67C46.4598 37.67 45.8435 37.3382 45.3758 36.794C44.9072 36.2487 44.6228 35.5279 44.6228 34.8326H44.1228ZM47.1063 38.17V38.67C48.0956 38.67 49.0497 38.1693 49.7451 37.4733C50.4406 36.7772 50.9407 35.8224 50.9407 34.8326H50.4407H49.9407C49.9407 35.4923 49.5975 36.2062 49.0377 36.7665C48.4779 37.3267 47.7648 37.67 47.1063 37.67V38.17ZM44.1229 34.1301H44.6229C44.6229 33.3196 44.1875 32.5799 43.6164 32.0584C43.0444 31.536 42.2708 31.171 41.4905 31.171V31.671V32.171C41.9703 32.171 42.5129 32.4049 42.9421 32.7968C43.3721 33.1895 43.6229 33.6794 43.6229 34.1301H44.1229ZM41.4905 31.671V31.171C39.9076 31.171 38.7091 32.6419 38.7091 34.1301H39.2091H39.7091C39.7091 33.0959 40.5533 32.171 41.4905 32.171V31.671ZM39.2091 34.1301H38.7091C38.7091 35.667 39.9539 36.9136 41.4905 36.9136V36.4136V35.9136C40.507 35.9136 39.7091 35.1156 39.7091 34.1301H39.2091ZM41.4905 36.4136V36.9136C42.2479 36.9136 43.0164 36.6101 43.5975 36.1304C44.1788 35.6506 44.6229 34.9494 44.6229 34.1301H44.1229H43.6229C43.6229 34.572 43.3809 35.0125 42.9609 35.3592C42.5409 35.7059 41.9932 35.9136 41.4905 35.9136V36.4136ZM43.9474 48.7092H44.4474C44.4474 47.9287 44.0828 47.1546 43.561 46.582C43.0399 46.0105 42.3007 45.5744 41.4904 45.5744V46.0744V46.5744C41.9402 46.5744 42.4295 46.8252 42.8219 47.2557C43.2135 47.6853 43.4474 48.2286 43.4474 48.7092H43.9474ZM41.4904 46.0744V45.5744C40.6802 45.5744 39.941 46.0105 39.4199 46.582C38.8981 47.1546 38.5335 47.9287 38.5335 48.7092H39.0335H39.5335C39.5335 48.2286 39.7674 47.6853 40.159 47.2557C40.5514 46.8252 41.0407 46.5744 41.4904 46.5744V46.0744ZM39.0335 48.7092H38.5335C38.5335 49.4964 38.9038 50.2327 39.4357 50.7651C39.9676 51.2975 40.7035 51.6683 41.4904 51.6683V51.1683V50.6683C41.0173 50.6683 40.5247 50.4402 40.1432 50.0583C39.7616 49.6764 39.5335 49.1832 39.5335 48.7092H39.0335ZM41.4904 51.1683V51.6683C42.2774 51.6683 43.0133 51.2975 43.5451 50.7651C44.077 50.2327 44.4474 49.4964 44.4474 48.7092H43.9474H43.4474C43.4474 49.1832 43.2193 49.6764 42.8377 50.0583C42.4562 50.4402 41.9636 50.6683 41.4904 50.6683V51.1683ZM47.1923 34.5349H46.6923C46.6923 34.4225 46.7835 34.3305 46.897 34.3305V34.8305V35.3305C47.3367 35.3305 47.6923 34.9739 47.6923 34.5349H47.1923ZM46.897 34.8305V34.3305C47.0105 34.3305 47.1017 34.4225 47.1017 34.5349H46.6017H46.1017C46.1017 34.9739 46.4573 35.3305 46.897 35.3305V34.8305ZM46.6017 34.5349H47.1017C47.1017 34.6474 47.0105 34.7393 46.897 34.7393V34.2393V33.7393C46.4573 33.7393 46.1017 34.096 46.1017 34.5349H46.6017ZM46.897 34.2393V34.7393C46.7835 34.7393 46.6923 34.6474 46.6923 34.5349H47.1923H47.6923C47.6923 34.096 47.3367 33.7393 46.897 33.7393V34.2393ZM52.4797 41.8737H51.9797C51.9797 41.7612 52.0709 41.6693 52.1843 41.6693V42.1693V42.6693C52.624 42.6693 52.9797 42.3126 52.9797 41.8737H52.4797ZM52.1843 42.1693V41.6693C52.2978 41.6693 52.389 41.7612 52.389 41.8737H51.889H51.389C51.389 42.3127 51.7447 42.6693 52.1843 42.6693V42.1693ZM51.889 41.8737H52.389C52.389 41.9862 52.2978 42.0781 52.1843 42.0781V41.5781V41.0781C51.7447 41.0781 51.389 41.4347 51.389 41.8737H51.889ZM52.1843 41.5781V42.0781C52.0709 42.0781 51.9797 41.9862 51.9797 41.8737H52.4797H52.9797C52.9797 41.4347 52.624 41.0781 52.1843 41.0781V41.5781ZM49.6326 48.397H49.1326C49.1326 48.2845 49.2239 48.1926 49.3373 48.1926V48.6926V49.1926C49.777 49.1926 50.1326 48.836 50.1326 48.397H49.6326ZM49.3373 48.6926V48.1926C49.4508 48.1926 49.542 48.2845 49.542 48.397H49.042H48.542C48.542 48.836 48.8977 49.1926 49.3373 49.1926V48.6926ZM49.042 48.397H49.542C49.542 48.5095 49.4508 48.6014 49.3373 48.6014V48.1014V47.6014C48.8977 47.6014 48.542 47.958 48.542 48.397H49.042ZM49.3373 48.1014V48.6014C49.2239 48.6014 49.1326 48.5095 49.1326 48.397H49.6326H50.1326C50.1326 47.958 49.777 47.6014 49.3373 47.6014V48.1014ZM37.5183 41.1005H37.0183C37.0183 40.988 37.1095 40.8961 37.223 40.8961V41.3961V41.8961C37.6626 41.8961 38.0183 41.5394 38.0183 41.1005H37.5183ZM37.223 41.3961V40.8961C37.3364 40.8961 37.4276 40.988 37.4276 41.1005H36.9276H36.4276C36.4276 41.5394 36.7833 41.8961 37.223 41.8961V41.3961ZM36.9276 41.1005H37.4276C37.4276 41.2129 37.3364 41.3049 37.223 41.3049V40.8049V40.3049C36.7833 40.3049 36.4276 40.6615 36.4276 41.1005H36.9276ZM37.223 40.8049V41.3049C37.1095 41.3049 37.0183 41.2129 37.0183 41.1005H37.5183H38.0183C38.0183 40.6615 37.6626 40.3049 37.223 40.3049V40.8049ZM41.7211 31.3388H42.2211V29.708H41.7211H41.2211V31.3388H41.7211ZM43.3479 32.3481L43.7826 32.5951L44.588 31.1782L44.1533 30.9311L43.7186 30.684L42.9132 32.101L43.3479 32.3481ZM37.6539 34.9603L37.7644 35.4479L39.3512 35.0881L39.2407 34.6005L39.1301 34.1128L37.5433 34.4726L37.6539 34.9603ZM40.5009 38.237L40.9909 38.3366L41.3157 36.7386L40.8257 36.639L40.3357 36.5394L40.0109 38.1374L40.5009 38.237ZM43.7294 37.658L44.1671 37.4162L43.3789 35.9895L42.9412 36.2313L42.5036 36.4731L43.2918 37.8997L43.7294 37.658ZM38.8479 49.278L38.7585 48.786L37.1578 49.077L37.2472 49.5689L37.3366 50.0608L38.9373 49.7699L38.8479 49.278ZM40.8222 51.3165L40.332 51.2179L40.0107 52.8167L40.5009 52.9152L40.9911 53.0137L41.3124 51.415L40.8222 51.3165ZM42.4491 44.3854L41.9589 44.2869L41.6376 45.8856L42.1278 45.9841L42.618 46.0827L42.9393 44.484L42.4491 44.3854ZM45.0942 46.424L44.81 46.0126L43.4704 46.9381L43.7547 47.3495L44.0389 47.7609L45.3784 46.8354L45.0942 46.424ZM40.0689 46.6275L40.5066 46.3857L39.7184 44.9591L39.2808 45.2009L38.8431 45.4427L39.6313 46.8693L40.0689 46.6275ZM44.9789 51.1674L45.3087 50.7915L44.0844 49.7175L43.7547 50.0934L43.4249 50.4692L44.6492 51.5432L44.9789 51.1674ZM39.7169 32.3831L40.0375 31.9995L38.788 30.9552L38.4673 31.3388L38.1467 31.7225L39.3962 32.7668L39.7169 32.3831ZM40.9076 22.5916L41.253 22.2301L29.3189 10.8285L28.9735 11.19L28.6281 11.5516L40.5622 22.9532L40.9076 22.5916ZM28.9735 11.19L29.3166 10.8263C28.8554 10.3912 28.1231 10.3912 27.6619 10.8263L28.005 11.19L28.3481 11.5537C28.424 11.4821 28.5545 11.4821 28.6304 11.5537L28.9735 11.19ZM8.22059 30.1066L7.87586 29.7445C7.08947 30.493 7.61508 31.8053 8.70074 31.8053V31.3053V30.8053C8.51682 30.8053 8.43369 30.5941 8.56531 30.4688L8.22059 30.1066ZM8.70074 31.3053V31.8053H12.5876V31.3053V30.8053H8.70074V31.3053ZM12.5876 31.3053H12.0876V50.2998H12.5876H13.0876V31.3053H12.5876ZM12.5876 50.2998V50.7998H28.9035V50.2998V49.7998H12.5876V50.2998ZM19.0414 13.5938H18.5414V19.7558H19.0414H19.5414V13.5938H19.0414ZM19.0414 19.7558L18.6954 19.3949L18.1582 19.9097L18.5042 20.2707L18.8502 20.6316L19.3874 20.1168L19.0414 19.7558ZM18.5042 20.2707L18.1587 19.9093L12.2437 25.5646L12.5892 25.926L12.9348 26.2874L18.8498 20.6321L18.5042 20.2707ZM12.5892 25.926H13.0892V13.5938H12.5892H12.0892V25.926H12.5892ZM12.5892 13.5938V14.0938H19.0414V13.5938V13.0938H12.5892V13.5938ZM21.7222 17.5939L21.3957 17.9725L26.8123 22.6444L27.1389 22.2657L27.4655 21.8871L22.0488 17.2152L21.7222 17.5939ZM27.1389 22.2657H26.6389V25.1407H27.1389H27.6389V22.2657H27.1389ZM26.4167 21.547V22.047H31.8333V21.547V21.047H26.4167V21.547ZM31.8333 21.547L31.5219 21.9382L33.3275 23.3757L33.6389 22.9845L33.9503 22.5933L32.1448 21.1558L31.8333 21.547ZM24.6111 50.297H25.1111V44.547H24.6111H24.1111V50.297H24.6111ZM24.6111 44.547L24.9225 44.1558L23.117 42.7183L22.8056 43.1095L22.4941 43.5007L24.2997 44.9382L24.6111 44.547ZM28.005 11.19L27.6595 10.8286L7.87505 29.7452L8.22059 30.1066L8.56613 30.468L28.3505 11.5514L28.005 11.19Z" fill="white"/>
</svg>
