<svg width="68" height="68" viewBox="0 0 68 68" fill="none" xmlns="http://www.w3.org/2000/svg">
<rect width="68" height="68" rx="34" fill="#B68E34"/>
<path d="M23.1963 23.2983C23.1963 23.2983 27.0894 19.7888 31.2488 20.9297C35.4083 22.0705 36.0276 21.7196 38.9474 20.7548C41.8672 19.79 46.8235 22.1586 48.5924 25.053C50.3625 27.9474 50.2737 34.7022 46.7347 39.1764C43.1956 43.6507 46.3807 51.1062 43.4609 53.2119C40.5411 55.3175 38.9474 52.8609 38.3281 49.8785C37.7089 46.896 36.0276 39.1764 33.9923 42.4218C31.9569 45.6671 32.0457 52.4219 30.3644 53.3867C28.6831 54.3516 26.2049 53.2987 26.0285 49.6144C25.8521 45.9301 24.3472 39.7891 21.2498 35.667C18.1524 31.5437 20.6305 24.614 23.1963 23.2983Z" stroke="white" stroke-miterlimit="10" stroke-linecap="round"/>
<path d="M32.4001 22.4215C32.4001 22.4215 32.0461 24.3511 36.2055 25.8429C40.365 27.3347 41.9575 27.8605 42.6656 30.3171C43.3736 32.7738 48.3287 33.4756 48.3287 33.4756" stroke="white" stroke-miterlimit="10" stroke-linecap="round"/>
<path d="M43.7275 24.8769C43.7275 24.8769 44.7896 24.8769 44.4356 26.1046" stroke="white" stroke-miterlimit="10" stroke-linecap="round"/>
<path d="M44.9658 28.4744C44.9658 28.4744 45.4963 30.1411 46.5583 30.0531" stroke="white" stroke-miterlimit="10" stroke-linecap="round"/>
<path d="M26.6479 22.3335C26.6479 22.3335 28.418 26.4568 27.3559 28.2103C26.2938 29.965 26.3826 31.1927 26.2938 33.7362C26.205 36.2797 23.374 36.9816 23.374 36.9816" stroke="white" stroke-miterlimit="10" stroke-linecap="round"/>
<path d="M23.9932 25.5788C23.9932 25.5788 24.8776 26.7197 24.082 27.2455" stroke="white" stroke-miterlimit="10" stroke-linecap="round"/>
<path d="M23.7288 30.1411C23.7288 30.1411 22.4015 31.4568 22.8443 32.0707" stroke="white" stroke-miterlimit="10" stroke-linecap="round"/>
<path d="M46.9121 14V19.6139" stroke="white" stroke-miterlimit="10" stroke-linecap="round"/>
<path d="M50.54 21.1926L54.4343 17.3334" stroke="white" stroke-miterlimit="10" stroke-linecap="round"/>
<path d="M51.6904 24.4391H56.9996" stroke="white" stroke-miterlimit="10" stroke-linecap="round"/>
<path d="M21.0879 16.8252V22.4391" stroke="white" stroke-miterlimit="10" stroke-linecap="round"/>
<path d="M17.4604 24.0189L13.5674 20.1585" stroke="white" stroke-miterlimit="10" stroke-linecap="round"/>
<path d="M16.3092 27.2643H11" stroke="white" stroke-miterlimit="10" stroke-linecap="round"/>
</svg>
