<svg width="68" height="68" viewBox="0 0 68 68" fill="none" xmlns="http://www.w3.org/2000/svg">
<rect width="68" height="68" rx="34" fill="#B68E34"/>
<path d="M25.8003 19.8016V18.6657C25.8003 18.2177 25.4644 17.8577 25.0565 17.8577H21.4893C21.0814 17.8577 20.7455 18.2177 20.7455 18.6657V23.0415" stroke="white" stroke-width="1.2" stroke-miterlimit="10" stroke-linecap="round"/>
<path d="M43.948 50.9119H49.1548C49.5627 50.9119 49.8986 50.5519 49.8986 50.104V44.4323" stroke="white" stroke-width="1.2" stroke-miterlimit="10" stroke-linecap="round"/>
<path d="M49.8987 34.7048V33.0809H53.2419C53.5538 33.0809 53.8338 32.8649 53.9377 32.545C54.0417 32.225 53.9537 31.865 53.7138 31.649L34.4782 14.1859C34.2063 13.9379 33.7984 13.9379 33.5264 14.1859L14.2669 31.657C14.027 31.873 13.939 32.233 14.0429 32.553C14.1469 32.8729 14.4269 33.0889 14.7388 33.0889H18.066V50.1041C18.066 50.552 18.4019 50.912 18.8098 50.912H24.0166" stroke="white" stroke-width="1.2" stroke-linecap="round" stroke-linejoin="round"/>
<path d="M40.3091 48.7443V47.7043C40.3091 46.6724 39.5733 45.8724 38.6295 45.8724H29.3197C28.3759 45.8724 27.664 46.6644 27.664 47.7043V48.7443C26.1764 48.9923 25.0726 50.2962 25.0726 51.9121V53.1201C25.0726 53.608 25.4326 54 25.8804 54H42.1007C42.5486 54 42.9085 53.608 42.9085 53.1201V51.9121C42.9085 50.3042 41.8048 49.0083 40.3171 48.7523L40.3091 48.7443Z" stroke="white" stroke-width="1.2" stroke-miterlimit="10"/>
<path d="M34.3343 27.8971C34.1823 28.3131 34.2383 28.6971 34.2863 29.0411C34.3263 29.329 34.3663 29.593 34.2863 29.841C34.1983 30.081 34.0143 30.249 33.7904 30.433C33.5185 30.673 33.2385 30.913 33.0786 31.3609L31.263 36.3527C31.103 36.8007 31.159 37.1686 31.215 37.5206C31.263 37.8086 31.295 38.0486 31.215 38.2886C31.127 38.5286 30.9271 38.7126 30.7111 38.9046C30.4552 39.1365 30.1672 39.3925 30.0153 39.8085L29.5994 40.9605L37.3976 43.8003L37.8135 42.6484C37.9654 42.2324 37.9094 41.8484 37.8615 41.5044C37.8215 41.2164 37.7815 40.9525 37.8615 40.7045C37.9494 40.4645 38.1334 40.3045 38.3573 40.1125C38.6293 39.8805 38.9092 39.6325 39.0692 39.1845L40.8848 34.1928C41.0447 33.7448 40.9887 33.3768 40.9327 33.0249C40.8848 32.7369 40.8528 32.4969 40.9327 32.2569C41.0207 32.0169 41.2207 31.8329 41.4366 31.6409C41.6926 31.4089 41.9805 31.1529 42.1325 30.737L42.5484 29.585L34.7502 26.7452L34.3343 27.8971ZM39.6291 37.8726L51.5063 42.6164C51.7223 42.7044 51.9542 42.7444 52.1862 42.7444C52.4421 42.7444 52.69 42.6884 52.922 42.5844C53.3699 42.3844 53.7138 42.0164 53.8898 41.5444C54.0577 41.0725 54.0337 40.5685 53.8178 40.1285C53.6018 39.6805 53.2179 39.3525 52.746 39.1925L40.5968 35.1847L39.6211 37.8726H39.6291Z" stroke="white" stroke-width="1.2" stroke-linecap="round" stroke-linejoin="round"/>
<path d="M35.8461 30.3611L39.3813 31.633" stroke="white" stroke-width="1.2" stroke-miterlimit="10" stroke-linecap="round"/>
<path d="M32.7429 38.9126L36.2701 40.2246" stroke="white" stroke-width="1.2" stroke-miterlimit="10" stroke-linecap="round"/>
<path d="M27.5359 48.3042H34.8142" stroke="white" stroke-width="1.2" stroke-miterlimit="10" stroke-linecap="round"/>
</svg>
