<svg width="68" height="68" viewBox="0 0 68 68" fill="none" xmlns="http://www.w3.org/2000/svg">
<rect width="68" height="68" rx="34" fill="#B68E34"/>
<path d="M11.5 33.25C16.0675 26.68 23.6425 22.75 31.75 22.75C39.8575 22.75 47.4325 26.68 52 33.25" stroke="white" stroke-linecap="round" stroke-linejoin="round"/>
<path d="M14.5 35.5C18.64 40.705 25.0075 43.75 31.75 43.75C38.4925 43.75 44.86 40.705 49 35.5" stroke="white" stroke-linecap="round" stroke-linejoin="round"/>
<path d="M38.26 31.465C38.4175 32.035 38.5 32.635 38.5 33.25C38.5 36.9775 35.4775 40 31.75 40C28.0225 40 25 36.9775 25 33.25C25 29.5225 28.0225 26.5 31.75 26.5C32.7325 26.5 33.6625 26.71 34.5025 27.0925" stroke="white" stroke-linecap="round" stroke-linejoin="round"/>
<path d="M34.5025 27.0925C34.1875 27.5725 34 28.1425 34 28.75C34 30.4075 35.3425 31.75 37 31.75C37.45 31.75 37.8775 31.6525 38.26 31.465" stroke="white" stroke-linecap="round" stroke-linejoin="round"/>
<path d="M31.75 18.25V16" stroke="white" stroke-linecap="round" stroke-linejoin="round"/>
<path d="M21.7455 20.0125L20.9805 17.8975" stroke="white" stroke-linecap="round" stroke-linejoin="round"/>
<path d="M41.7549 20.0125L42.5199 17.8975" stroke="white" stroke-linecap="round" stroke-linejoin="round"/>
<path d="M12.9475 25.09L11.5 23.3725" stroke="white" stroke-linecap="round" stroke-linejoin="round"/>
<path d="M50.5527 25.09L52.0002 23.3725" stroke="white" stroke-linecap="round" stroke-linejoin="round"/>
<path d="M52.75 44.5C54.4069 44.5 55.75 43.1569 55.75 41.5C55.75 39.8431 54.4069 38.5 52.75 38.5C51.0931 38.5 49.75 39.8431 49.75 41.5C49.75 43.1569 51.0931 44.5 52.75 44.5Z" stroke="white" stroke-linecap="round" stroke-linejoin="round"/>
<path d="M49.7575 41.635C49.525 41.545 49.27 41.5 49 41.5C47.755 41.5 46.75 42.505 46.75 43.75C46.75 44.995 47.755 46 49 46C50.1325 46 51.07 45.1675 51.22 44.08" stroke="white" stroke-linecap="round" stroke-linejoin="round"/>
<path d="M43 48.25C43.8284 48.25 44.5 47.5784 44.5 46.75C44.5 45.9216 43.8284 45.25 43 45.25C42.1716 45.25 41.5 45.9216 41.5 46.75C41.5 47.5784 42.1716 48.25 43 48.25Z" stroke="white" stroke-linecap="round" stroke-linejoin="round"/>
<path d="M54.25 52C55.4926 52 56.5 50.9926 56.5 49.75C56.5 48.5074 55.4926 47.5 54.25 47.5C53.0074 47.5 52 48.5074 52 49.75C52 50.9926 53.0074 52 54.25 52Z" stroke="white" stroke-linecap="round" stroke-linejoin="round"/>
</svg>
