<svg width="68" height="68" viewBox="0 0 68 68" fill="none" xmlns="http://www.w3.org/2000/svg">
<rect width="68" height="68" rx="34" fill="#B68E34"/>
<path d="M12.5767 39.6345C11.9126 38.9908 11.5 38.0865 11.5 37.0857C11.5 35.1307 13.0768 33.5448 15.0229 33.5448C16.969 33.5448 18.5457 35.1296 18.5457 37.0857C18.5457 37.5742 18.4474 38.0399 18.2692 38.4643" stroke="white" stroke-linecap="round" stroke-linejoin="round"/>
<path d="M33.0023 37.4331L40.7565 39.0537H54.2236C55.6038 39.0537 56.6794 40.2565 56.5347 41.6361C56.4095 42.8237 55.4127 43.7257 54.2236 43.7257H24.4955C21.4834 43.7257 19.6572 40.3846 21.2729 37.8293C22.058 36.5875 23.4814 35.9058 24.9361 36.0751L28.8995 36.6841" stroke="white" stroke-linecap="round" stroke-linejoin="round"/>
<path d="M25.4458 39.8874H27.6846L28.8995 36.6841C29.2559 35.7451 30.216 35.1839 31.2042 35.337C32.5045 35.5389 33.3101 36.8686 32.8911 38.1224L31.7906 41.4136C31.3284 42.7944 30.0411 43.7257 28.5918 43.7257H25.0938" stroke="white" stroke-linecap="round" stroke-linejoin="round"/>
<path d="M18.4341 19.073C18.881 17.1697 17.7082 15.2626 15.8147 14.8134C13.9211 14.3642 12.0237 15.5429 11.5768 17.4462C11.1299 19.3495 12.3026 21.2566 14.1962 21.7058C16.0898 22.155 17.9872 20.9763 18.4341 19.073Z" stroke="white" stroke-linecap="round" stroke-linejoin="round" stroke-dasharray="40.6 27.2"/>
<path d="M27.0653 21.4241L34.5 26C35.2149 26.4407 38.9579 29.3722 38.7948 30.1993C38.5162 31.6105 36.8995 32.2835 35.7105 31.4824L29.3322 27.1827L25.0372 25.6565C22.2044 25.3352 20.7638 22.0168 22.5004 19.746C23.373 18.6051 24.8266 18.0797 26.2219 18.401L35.6348 20.571C37.1868 20.9292 44.4146 21.152 46 21L54.5839 19.5256C55.8777 19.4019 57.0181 20.3777 57.1035 21.6814C57.1812 22.8668 51.1653 24.8003 50 25L40.0519 26.716" stroke="white" stroke-linecap="round" stroke-linejoin="round" stroke-dasharray="27.6 14.2"/>
<path d="M57.5 43.7258H10.5" stroke="white" stroke-linecap="round" stroke-linejoin="round"/>
<path d="M17.0562 43.7257C17.8154 43.6335 18.444 43.0332 18.5444 42.2354C18.6632 41.2942 17.999 40.4345 17.0627 40.3162L12.4729 39.7333C12.1921 39.6975 11.908 39.8169 11.6478 40.0025C10.9479 40.4996 10.5635 41.3355 10.5635 42.1963V43.7257" stroke="white" stroke-linecap="round" stroke-linejoin="round"/>
<path d="M10.5635 46.8336H57.4998" stroke="white" stroke-linecap="round" stroke-linejoin="round"/>
<path d="M15.0215 47.296V54" stroke="white" stroke-linecap="round" stroke-linejoin="round"/>
<path d="M12.5234 47.296V54" stroke="white" stroke-linecap="round" stroke-linejoin="round"/>
<path d="M55.207 47.296V54" stroke="white" stroke-linecap="round" stroke-linejoin="round"/>
<path d="M52.709 47.296V54" stroke="white" stroke-linecap="round" stroke-linejoin="round"/>
</svg>
