<svg width="68" height="68" viewBox="0 0 68 68" fill="none" xmlns="http://www.w3.org/2000/svg">
<rect width="68" height="68" rx="34" fill="#B68E34"/>
<path d="M44 23.8995C44 25.1579 43.4498 26.1787 42.7729 26.1787C42.6502 26.1787 42.5295 26.1453 42.417 26.0805C41.2962 30.2307 37.8746 33.25 33.8271 33.25C29.7797 33.25 26.4092 30.2778 25.2598 26.1767C25.2496 26.1787 25.2373 26.1787 25.2271 26.1787C24.5502 26.1787 24 25.1579 24 23.8995C24 22.8256 24.3988 21.9245 24.9367 21.685C25.5564 16.7752 29.2991 13 33.8271 13C38.3552 13 42.0652 16.7438 42.7074 21.6222C42.7299 21.6202 42.7504 21.6183 42.7729 21.6183C43.4498 21.6183 44 22.6391 44 23.8995Z" stroke="white" stroke-miterlimit="10" stroke-linecap="round"/>
<path d="M54 55V49.4661C54 42.9949 48.6598 37.75 42.071 37.75H38.6692C38.6692 37.75 33.9314 43.4343 28.8894 37.75H25.929C19.3402 37.75 14 42.9949 14 49.4661V54.6016" stroke="white" stroke-miterlimit="10" stroke-linecap="round"/>
<path d="M37.0771 33.25L39.3848 37" stroke="white" stroke-miterlimit="10" stroke-linecap="round"/>
<path d="M30.9229 33.25L28.6152 37" stroke="white" stroke-miterlimit="10" stroke-linecap="round"/>
<path d="M42.4619 38.5V44.5" stroke="white" stroke-miterlimit="10" stroke-linecap="round"/>
<path d="M44.61 50.2308C45.7803 49.0905 45.7803 47.2417 44.61 46.1014C43.4397 44.9611 41.5423 44.9611 40.372 46.1014C39.2016 47.2417 39.2017 49.0905 40.372 50.2308C41.5423 51.3712 43.4397 51.3712 44.61 50.2308Z" stroke="white" stroke-miterlimit="10" stroke-linecap="round"/>
<path d="M24.7695 38.5V43" stroke="white" stroke-miterlimit="10" stroke-linecap="round"/>
<path d="M21.6284 51.25H20.1533V47.3698C20.3076 46.9216 20.7957 45.7265 22.1313 44.7938C23.2746 43.9952 24.4475 43.8055 24.9737 43.75C25.4787 43.7672 26.7953 43.8745 28.0675 44.7287C29.6039 45.761 30.0434 47.1878 30.1533 47.5977V51.2481H28.4627" stroke="white" stroke-miterlimit="10" stroke-linecap="round"/>
</svg>
