<svg width="68" height="68" viewBox="0 0 68 68" fill="none" xmlns="http://www.w3.org/2000/svg">
<rect width="68" height="68" rx="34" fill="#B68E34"/>
<g clip-path="url(#clip0_672_740)">
<path d="M48.8876 47.8113C46.5164 49.0766 46.5029 53.5708 40.3887 53.5708C33.5932 53.5708 34.622 47.2596 34.349 44.1569C34.1685 42.1035 32.5667 38.904 28.7177 34.1148C24.1941 28.4904 25.6674 22.9402 30.4233 21.2537C35.1793 19.5673 37.44 22.0958 40.3887 25.8898" stroke="white" stroke-linecap="round" stroke-linejoin="round"/>
<path d="M48.5442 28.3147C46.2069 28.3147 44.4448 26.9142 43.4521 25.865C42.7978 25.1737 41.681 25.0499 40.8733 25.5835C39.3437 26.599 37.8659 28.2359 38.2336 29.8931C38.9127 32.9485 42.2338 33.3268 43.1859 36.4722C43.6394 37.9673 41.6675 41.3447 48.542 40.4643C48.6593 40.4711 48.7721 40.4778 48.8849 40.4846" stroke="white" stroke-linecap="round" stroke-linejoin="round"/>
<path d="M40.7655 33.7591C37.1421 35.5153 38.9651 39.2935 40.0864 40.6084C43.1051 44.1569 47.4843 42.2588 48.5447 44.578" stroke="white" stroke-linecap="round" stroke-linejoin="round"/>
<path d="M44.0862 46.7755C44.1832 45.4674 41.3021 44.1862 38.8135 45.0125C36.325 45.8389 37.593 50.6303 39.7724 50.4884C40.9569 50.4118 41.1622 49.4504 42.2451 48.4417C42.9671 47.7707 44.0095 47.8045 44.0862 46.7755Z" stroke="white" stroke-linecap="round" stroke-linejoin="round"/>
<path d="M48.5443 20.4499H46.6018C45.9046 20.4477 45.221 20.263 44.6186 19.914C43.547 19.2926 42.7438 18.6892 42.1459 18.6892C41.0584 18.6892 41.187 20.236 42.4099 21.1502C43.2266 21.7603 44.1561 22.3705 45.2955 22.6858C44.9345 24.7842 46.1438 25.2526 47.0778 25.2526H48.5443" stroke="white" stroke-linecap="round" stroke-linejoin="round"/>
<path d="M48.5443 12.8733H46.6018C45.9046 12.8711 45.221 12.6864 44.6186 12.3374C43.547 11.716 42.7438 11.1126 42.1459 11.1126C41.0584 11.1126 41.187 12.6594 42.4099 13.5736C43.2266 14.1837 44.1561 14.7939 45.2955 15.1092C44.9345 17.2076 46.1438 17.676 47.0778 17.676H48.5443" stroke="white" stroke-linecap="round" stroke-linejoin="round"/>
<path d="M28.6341 56.8874C28.0295 52.8188 27.9528 50.1799 27.9212 49.7837C27.8039 48.3449 26.5968 47.1155 26.0937 46.4986C24.8596 44.9855 24.7107 42.0742 26.8586 41.4933C28.6364 41.0137 29.6697 41.9211 30.4052 41.8783C31.0618 41.84 31.7973 41.025 33.2412 41.0407" stroke="white" stroke-linecap="round" stroke-linejoin="round"/>
<path d="M34.3624 47.1898C33.9947 47.836 31.7543 51.0108 32.5101 56.8874" stroke="white" stroke-linecap="round" stroke-linejoin="round"/>
<path d="M32.672 20.9205L33.4391 23.0167L32.5254 25.9731L33.3241 29.5846" stroke="white" stroke-linecap="round" stroke-linejoin="round"/>
<path d="M32.9833 28.049L31.6025 29.3482" stroke="white" stroke-linecap="round" stroke-linejoin="round"/>
<path d="M32.8613 24.8833L34.1631 24.9914L35.1152 26.5607" stroke="white" stroke-linecap="round" stroke-linejoin="round"/>
<path d="M23.431 22.9312C23.731 23.1338 23.9183 23.4851 23.8912 23.8723C23.8484 24.4465 23.3497 24.8765 22.7744 24.836L20.0806 24.6401C19.5053 24.5973 19.0743 24.0997 19.115 23.5256C19.1578 22.9514 19.6564 22.5214 20.2317 22.5619L22.9256 22.7578C23.1128 22.7713 23.2843 22.8344 23.431 22.9312Z" fill="white"/>
<path d="M22.8417 18.1465C22.8417 18.1465 22.8485 18.151 22.853 18.1533L25.3054 19.842C25.7792 20.1685 25.8988 20.8169 25.5716 21.2897C25.2445 21.7626 24.597 21.8842 24.1209 21.5554L21.6685 19.8667C21.1947 19.5403 21.0751 18.8918 21.4023 18.419C21.7272 17.9506 22.3679 17.8291 22.8417 18.1443V18.1465Z" fill="white"/>
<path d="M26.405 14.5733C26.5562 14.6746 26.6803 14.8142 26.7638 14.9898L27.9888 17.5544C28.237 18.0722 28.0159 18.6937 27.497 18.9413C26.9781 19.189 26.3554 18.9684 26.1072 18.4505L24.8821 15.8859C24.634 15.3681 24.8551 14.7466 25.374 14.499C25.7192 14.3346 26.1095 14.3774 26.405 14.5755V14.5733Z" fill="white"/>
<path d="M30.6143 36.5826L31.8416 35.7292L33.9173 35.817L36.126 34.6845" stroke="white" stroke-linecap="round" stroke-linejoin="round"/>
<path d="M35.1855 35.1663L36.2662 35.8373" stroke="white" stroke-linecap="round" stroke-linejoin="round"/>
<path d="M33.1531 35.7833L33.002 34.9232L33.857 34.0405" stroke="white" stroke-linecap="round" stroke-linejoin="round"/>
</g>
<defs>
<clipPath id="clip0_672_740">
<rect width="30" height="46" fill="white" transform="translate(19 11)"/>
</clipPath>
</defs>
</svg>
