<svg width="68" height="68" viewBox="0 0 68 68" fill="none" xmlns="http://www.w3.org/2000/svg">
<rect width="68" height="68" rx="34" fill="#B68E34"/>
<path d="M29.1507 47.6284C29.1507 49.961 27.2446 51.85 24.8909 51.85C22.5373 51.85 20.6312 49.961 20.6312 47.6284C20.6312 45.2958 22.5373 43.4068 24.8909 43.4068C27.2446 43.4068 29.1507 45.2958 29.1507 47.6284Z" stroke="white" stroke-width="1.2" stroke-linecap="round" stroke-linejoin="round"/>
<path d="M20.6386 47.7143H13" stroke="white" stroke-width="1.2" stroke-linecap="round" stroke-linejoin="round"/>
<path d="M34.9917 37.5752L36.3346 37.9473C37.1576 38.1763 37.7208 38.9276 37.7208 39.7647V46.0686C37.7208 47.1132 36.8688 47.9576 35.8147 47.9576H29.1364" stroke="white" stroke-width="1.2" stroke-linecap="round" stroke-linejoin="round"/>
<path d="M13 27.3288H15.5919C16.6894 27.3288 17.7579 27.7295 18.5882 28.4522L26.0607 34.9063C26.2773 35.0995 26.53 35.2426 26.8044 35.307L34.9845 37.5681" stroke="white" stroke-width="1.2" stroke-linecap="round" stroke-linejoin="round"/>
<path d="M37.7209 42.4265H34.3204C33.4107 42.4265 32.602 41.7396 32.14 40.7021C31.9162 40.2012 32.2338 39.5858 32.6887 39.5858H35.2806" stroke="white" stroke-width="1.2" stroke-linecap="round" stroke-linejoin="round"/>
<path d="M23.3533 36.2078L13 36.0368" stroke="white" stroke-width="1.2" stroke-linecap="round" stroke-linejoin="round"/>
<path d="M32.01 27.9728L30.8548 25.1035L29.8441 27.6508L25.8659 25.8548L28.0535 29.7473L25.6421 30.7634L28.3134 31.9082" stroke="white" stroke-width="1.2" stroke-linecap="round" stroke-linejoin="round"/>
<path d="M45.3594 17.2327C44.5869 17.1897 43.9227 17.7979 43.8071 18.5636L43.5256 20.4239L40.125 21.025C39.4969 21.1395 38.8904 21.3684 38.3561 21.7119L36.8761 22.6421C35.8364 23.2932 35.0855 24.3093 34.7679 25.4899L33.5549 29.9476C33.425 30.4199 33.5477 30.9279 33.8726 31.3L36.479 34.248C37.006 34.849 37.9374 34.9993 38.5727 34.5056C38.7027 34.4054 38.8182 34.2838 38.9048 34.1478C39.2586 33.6112 39.2225 32.8813 38.7749 32.3733L36.645 29.962L37.4898 26.8494L39.6774 29.2178C40.3127 29.9047 40.9047 30.6346 41.439 31.4073L43.771 34.756L41.208 38.6485C40.8037 39.2638 40.8542 40.1082 41.4029 40.6019C42.1032 41.2315 43.1718 41.0813 43.6627 40.33L46.8106 35.5502C47.1427 35.0494 47.1283 34.3982 46.7889 33.9045L44.3414 30.3841L48.8466 29.4038L52.637 31.851C53.2579 32.2516 54.1099 32.2016 54.6081 31.6649C55.2434 30.978 55.0773 29.919 54.3193 29.4325L49.944 26.6061C49.6119 26.3915 49.2004 26.3128 48.8105 26.3986L44.262 27.386L41.1863 23.8299L45.1284 23.1286C45.7493 23.0213 46.233 22.5276 46.3269 21.9051L46.7817 18.9213C46.9117 18.0698 46.2763 17.2685 45.3738 17.2255L45.3594 17.2327Z" stroke="white" stroke-width="1.2" stroke-linecap="round" stroke-linejoin="round"/>
<path d="M36.4647 16.603C37.757 17.433 38.1252 19.1432 37.2877 20.4097C36.4502 21.6761 34.7319 22.0339 33.4395 21.1967C32.1472 20.3667 31.779 18.6566 32.6165 17.3901C33.454 16.1236 35.1723 15.7659 36.4647 16.603Z" stroke="white" stroke-width="1.2" stroke-linecap="round" stroke-linejoin="round"/>
<path d="M22.4941 33.9546L20.2848 33.0602C20.2054 33.0387 20.1188 33.0244 20.0393 33.0244C19.3462 33.0244 18.7831 33.5825 18.7831 34.2694V34.8919" stroke="white" stroke-width="1.2" stroke-linecap="round" stroke-linejoin="round"/>
</svg>
