<svg width="68" height="68" viewBox="0 0 68 68" fill="none" xmlns="http://www.w3.org/2000/svg">
<rect width="68" height="68" rx="34" fill="#B68E34"/>
<path d="M38.2309 18.404H42.6211C43.947 18.404 45.0216 19.4924 45.0216 20.8352V50.5688C45.0216 51.9116 43.947 53 42.6211 53H26.2951C24.9692 53 23.8945 51.9116 23.8945 50.5688V20.8352C23.8945 19.4924 24.9692 18.404 26.2951 18.404H30.0686" stroke="white" stroke-miterlimit="10" stroke-linecap="round"/>
<path d="M30.2559 52.3756V44.1093H38.0071V52.445" stroke="white" stroke-miterlimit="10" stroke-linecap="round"/>
<path d="M34.1318 44.6642V52.585" stroke="white" stroke-miterlimit="10" stroke-linecap="round"/>
<path d="M36.6157 15H31.8146C31.0756 15 30.4766 15.6067 30.4766 16.3551V21.2175C30.4766 21.9658 31.0756 22.5725 31.8146 22.5725H36.6157C37.3547 22.5725 37.9537 21.9658 37.9537 21.2175V16.3551C37.9537 15.6067 37.3547 15 36.6157 15Z" stroke="white" stroke-miterlimit="10" stroke-linecap="round"/>
<path d="M34.1143 16.7376V20.7661" stroke="white" stroke-miterlimit="10" stroke-linecap="round"/>
<path d="M33.6 18.751H32.125" stroke="white" stroke-miterlimit="10" stroke-linecap="round"/>
<path d="M36.1041 18.751H34.5605" stroke="white" stroke-miterlimit="10" stroke-linecap="round"/>
<path d="M39.9017 25.2814H37.1586C36.9879 25.2814 36.8496 25.4215 36.8496 25.5943V28.7194C36.8496 28.8922 36.9879 29.0323 37.1586 29.0323H39.9017C40.0724 29.0323 40.2107 28.8922 40.2107 28.7194V25.5943C40.2107 25.4215 40.0724 25.2814 39.9017 25.2814Z" stroke="white" stroke-miterlimit="10" stroke-linecap="round"/>
<path d="M39.9017 31.2907H37.1586C36.9879 31.2907 36.8496 31.4308 36.8496 31.6036V34.7287C36.8496 34.9015 36.9879 35.0416 37.1586 35.0416H39.9017C40.0724 35.0416 40.2107 34.9015 40.2107 34.7287V31.6036C40.2107 31.4308 40.0724 31.2907 39.9017 31.2907Z" stroke="white" stroke-miterlimit="10" stroke-linecap="round"/>
<path d="M39.9017 37.4401H37.1586C36.9879 37.4401 36.8496 37.5802 36.8496 37.753V40.8781C36.8496 41.0509 36.9879 41.191 37.1586 41.191H39.9017C40.0724 41.191 40.2107 41.0509 40.2107 40.8781V37.753C40.2107 37.5802 40.0724 37.4401 39.9017 37.4401Z" stroke="white" stroke-miterlimit="10" stroke-linecap="round"/>
<path d="M31.4301 25.2814H28.6869C28.5163 25.2814 28.3779 25.4215 28.3779 25.5943V28.7194C28.3779 28.8922 28.5163 29.0323 28.6869 29.0323H31.4301C31.6007 29.0323 31.739 28.8922 31.739 28.7194V25.5943C31.739 25.4215 31.6007 25.2814 31.4301 25.2814Z" stroke="white" stroke-miterlimit="10" stroke-linecap="round"/>
<path d="M31.4301 31.2907H28.6869C28.5163 31.2907 28.3779 31.4308 28.3779 31.6036V34.7287C28.3779 34.9015 28.5163 35.0416 28.6869 35.0416H31.4301C31.6007 35.0416 31.739 34.9015 31.739 34.7287V31.6036C31.739 31.4308 31.6007 31.2907 31.4301 31.2907Z" stroke="white" stroke-miterlimit="10" stroke-linecap="round"/>
<path d="M31.4301 37.4401H28.6869C28.5163 37.4401 28.3779 37.5802 28.3779 37.753V40.8781C28.3779 41.0509 28.5163 41.191 28.6869 41.191H31.4301C31.6007 41.191 31.739 41.0509 31.739 40.8781V37.753C31.739 37.5802 31.6007 37.4401 31.4301 37.4401Z" stroke="white" stroke-miterlimit="10" stroke-linecap="round"/>
<path d="M47.444 24.7958H56.4997V52.26H46.9873" stroke="white" stroke-miterlimit="10" stroke-linecap="round"/>
<path d="M49.7314 27.8528H54.6697" stroke="white" stroke-miterlimit="10" stroke-linecap="round"/>
<path d="M51.8089 31.3261H50.0719C49.6045 31.3261 49.2256 31.7099 49.2256 32.1833V33.9886C49.2256 34.462 49.6045 34.8457 50.0719 34.8457H51.8089C52.2763 34.8457 52.6552 34.462 52.6552 33.9886V32.1833C52.6552 31.7099 52.2763 31.3261 51.8089 31.3261Z" stroke="white" stroke-miterlimit="10" stroke-linecap="round"/>
<path d="M51.8089 36.2824H50.0719C49.6045 36.2824 49.2256 36.6662 49.2256 37.1395V38.9449C49.2256 39.4183 49.6045 39.802 50.0719 39.802H51.8089C52.2763 39.802 52.6552 39.4183 52.6552 38.9449V37.1395C52.6552 36.6662 52.2763 36.2824 51.8089 36.2824Z" stroke="white" stroke-miterlimit="10" stroke-linecap="round"/>
<path d="M51.8089 41.2373H50.0719C49.6045 41.2373 49.2256 41.6211 49.2256 42.0944V43.8998C49.2256 44.3732 49.6045 44.7569 50.0719 44.7569H51.8089C52.2763 44.7569 52.6552 44.3732 52.6552 43.8998V42.0944C52.6552 41.6211 52.2763 41.2373 51.8089 41.2373Z" stroke="white" stroke-miterlimit="10" stroke-linecap="round"/>
<path d="M20.5543 24.7958H11.5V52.26H21.0124" stroke="white" stroke-miterlimit="10" stroke-linecap="round"/>
<path d="M18.2683 27.8528H13.3301" stroke="white" stroke-miterlimit="10" stroke-linecap="round"/>
<path d="M16.1911 34.8457H17.9281C18.3955 34.8457 18.7744 34.462 18.7744 33.9886V32.1833C18.7744 31.7099 18.3955 31.3261 17.9281 31.3261H16.1911C15.7237 31.3261 15.3448 31.7099 15.3448 32.1833V33.9886C15.3448 34.462 15.7237 34.8457 16.1911 34.8457Z" stroke="white" stroke-miterlimit="10" stroke-linecap="round"/>
<path d="M16.1911 39.8007H17.9281C18.3955 39.8007 18.7744 39.4169 18.7744 38.9435V37.1382C18.7744 36.6648 18.3955 36.2811 17.9281 36.2811H16.1911C15.7237 36.2811 15.3448 36.6648 15.3448 37.1382V38.9435C15.3448 39.4169 15.7237 39.8007 16.1911 39.8007Z" stroke="white" stroke-miterlimit="10" stroke-linecap="round"/>
<path d="M16.1911 44.7569H17.9281C18.3955 44.7569 18.7744 44.3732 18.7744 43.8998V42.0944C18.7744 41.6211 18.3955 41.2373 17.9281 41.2373H16.1911C15.7237 41.2373 15.3448 41.6211 15.3448 42.0944V43.8998C15.3448 44.3732 15.7237 44.7569 16.1911 44.7569Z" stroke="white" stroke-miterlimit="10" stroke-linecap="round"/>
</svg>
