<svg width="65" height="72" viewBox="0 0 65 72" fill="none" xmlns="http://www.w3.org/2000/svg">
<path d="M20.8227 29.4413C20.8962 29.8089 20.9404 30.1913 20.9404 30.5736C20.9404 33.6913 18.3668 36.2207 15.1757 36.2207C11.9845 36.2207 9.41095 33.6913 9.41095 30.5736C9.41095 30.2207 9.44036 29.8825 9.49918 29.5442L15.058 16.6913L20.808 29.4413H20.8227Z" stroke="#B68E34" stroke-width="1.8" stroke-linecap="round" stroke-linejoin="round"/>
<path d="M9.94037 29.75H20.3668" stroke="#B68E34" stroke-width="1.8" stroke-linecap="round" stroke-linejoin="round"/>
<path d="M38.4257 29.4413C38.3522 29.8089 38.308 30.1913 38.308 30.5736C38.308 33.6913 40.8816 36.2207 44.0728 36.2207C47.2639 36.2207 49.8375 33.6913 49.8375 30.5736C49.8375 30.2207 49.808 29.8825 49.7492 29.5442L44.1904 16.6913L38.4404 29.4413H38.4257Z" stroke="#B68E34" stroke-width="1.8" stroke-linecap="round" stroke-linejoin="round"/>
<path d="M49.3081 29.75H38.8816" stroke="#B68E34" stroke-width="1.8" stroke-linecap="round" stroke-linejoin="round"/>
<path d="M44.7197 15.6469C44.7197 15.6469 41.6168 15.9263 40.3227 15.7204C36.9109 15.1763 35.9697 13.691 34.0139 13.3969C32.058 13.1028 29.6315 13.6028 29.6315 13.6028C29.6315 13.6028 27.1168 13.1028 25.2492 13.3969C23.2933 13.7057 22.3374 15.1763 18.9403 15.7204C17.6462 15.9263 14.5433 15.6469 14.5433 15.6469" stroke="#B68E34" stroke-width="1.8" stroke-linecap="round" stroke-linejoin="round"/>
<path d="M29.6168 12.1174V38.7498" stroke="#B68E34" stroke-width="1.8" stroke-linecap="round" stroke-linejoin="round"/>
<path d="M29.6168 11.8528C30.3234 11.8528 30.8962 11.28 30.8962 10.5734C30.8962 9.86676 30.3234 9.29395 29.6168 9.29395C28.9102 9.29395 28.3374 9.86676 28.3374 10.5734C28.3374 11.28 28.9102 11.8528 29.6168 11.8528Z" fill="#B68E34" stroke="#B68E34" stroke-width="1.8" stroke-miterlimit="10"/>
<path d="M22.7933 43.2205H36.4551" stroke="#B68E34" stroke-width="1.8" stroke-miterlimit="10" stroke-linecap="round"/>
<path d="M25.2492 42.7499V42.1616C25.2492 40.4264 26.6757 38.9999 28.411 38.9999H30.8227C32.558 38.9999 33.9845 40.4264 33.9845 42.1616V42.8087" stroke="#B68E34" stroke-width="1.8" stroke-miterlimit="10" stroke-linecap="round"/>
<path d="M10.8072 70.1405C10.8072 70.1405 14.5966 65.731 14.1419 58.6069C13.9489 55.4513 13.6045 51.6757 10.5454 47.652C3.93108 38.957 1.36805 32.701 1.39561 26.3485C1.40939 23.3445 1.51962 20.0787 3.73816 15.4349C11.5788 -1.01806 39.3174 -1.85863 49.0873 6.56079C57.2724 13.616 57.5618 21.9803 57.9477 29.0355C58.0992 31.7364 63.7903 36.9176 63.4733 38.957C63.184 40.7897 57.9477 40.3074 57.6996 41.2031C57.4516 42.0987 58.5815 43.6007 58.0854 44.5102C57.7272 45.1578 57.989 44.772 57.5067 45.3783C56.8315 46.2464 57.2862 45.0889 57.6721 46.3705C58.0579 47.652 57.0657 48.5477 56.8039 49.4571C56.5421 50.3666 57.3827 53.7564 54.9161 56.0438C53.4968 57.3529 46.8274 56.7604 44.9947 56.7879C42.9415 56.8155 40.2131 59.227 39.9789 61.666C39.6619 65.0007 40.3647 67.5086 41.3982 70.2094L10.8209 70.1405H10.8072Z" stroke="#B68E34" stroke-width="1.8" stroke-linecap="round" stroke-linejoin="round"/>
</svg>
