<svg width="75" height="73" viewBox="0 0 75 73" fill="none" xmlns="http://www.w3.org/2000/svg">
<g clip-path="url(#clip0_408_1147)">
<path d="M46.7796 61.956V59.9854C46.7796 58.0443 45.3825 56.5295 43.6178 56.5295H26.0884C24.309 56.5295 22.9707 58.0148 22.9707 59.9854V61.9413C20.1619 62.4119 18.0884 64.8531 18.0884 67.8972V70.1619C18.0884 71.0737 18.7648 71.8237 19.6178 71.8237H50.1472C50.9854 71.8237 51.6766 71.0737 51.6766 70.1619V67.8972C51.6766 64.8678 49.6031 62.4266 46.7943 61.9413L46.7796 61.956Z" stroke="#B68E34" stroke-width="1.8" stroke-miterlimit="10" stroke-linejoin="bevel"/>
<path d="M37.2501 22.7205C36.9707 23.4999 37.0736 24.2352 37.1618 24.8675C37.2354 25.397 37.3089 25.9117 37.1618 26.3675C37.0001 26.8234 36.6471 27.1322 36.2354 27.4852C35.7207 27.9264 35.206 28.3822 34.8971 29.2205L31.4707 38.6175C31.1618 39.4558 31.2795 40.1469 31.3824 40.8087C31.4707 41.3381 31.5442 41.8087 31.3824 42.2646C31.2207 42.7205 30.8383 43.0587 30.4265 43.4264C29.9413 43.8528 29.3971 44.3381 29.1177 45.1322L28.3236 47.294L43.0148 52.6322L43.8089 50.4705C44.0883 49.6911 43.9854 48.9558 43.8971 48.3234C43.8236 47.794 43.7501 47.2793 43.8971 46.8234C44.0589 46.3675 44.4118 46.0587 44.8236 45.7058C45.3383 45.2646 45.853 44.8087 46.1618 43.9705L49.5883 34.5734C49.8971 33.7352 49.7795 33.044 49.6765 32.3822C49.5883 31.8528 49.5148 31.3822 49.6765 30.9264C49.8383 30.4705 50.2207 30.1322 50.6324 29.7646C51.1177 29.3381 51.6618 28.8528 51.9413 28.0587L52.7354 25.897L38.0442 20.5587L37.2501 22.7205ZM47.206 41.4999L69.5589 50.4264C69.9707 50.5881 70.3971 50.6764 70.8383 50.6764C71.3236 50.6764 71.7942 50.5734 72.2354 50.3822C73.0883 49.9999 73.7354 49.3087 74.0442 48.4264C74.3677 47.544 74.3236 46.6028 73.9118 45.7646C73.5001 44.9264 72.7942 44.3087 71.8971 44.0146L49.0295 36.4705L47.1913 41.5293L47.206 41.4999Z" stroke="#B68E34" stroke-width="1.8" stroke-linecap="round" stroke-linejoin="round"/>
<path d="M40.0884 27.3674L46.7501 29.7498" stroke="#B68E34" stroke-width="1.8" stroke-miterlimit="10" stroke-linecap="round"/>
<path d="M34.2648 43.4558L40.8824 45.9264" stroke="#B68E34" stroke-width="1.8" stroke-miterlimit="10" stroke-linecap="round"/>
<path d="M48.0001 41.5001V59.2501C48.0001 60.9118 46.6471 62.2648 44.9854 62.2648H3.75006C2.08829 62.2648 0.735352 60.9118 0.735352 59.2501V12.3677C0.735352 11.5736 1.05888 10.8089 1.6177 10.2354L10.2354 1.6177C10.7942 1.05888 11.5589 0.735352 12.3677 0.735352H45.0001C46.6618 0.735352 48.0148 2.08829 48.0148 3.75006V23.5442" stroke="#B68E34" stroke-width="1.8" stroke-linecap="round" stroke-linejoin="round"/>
<path d="M11.3825 11.25H1.00012L11.3825 0.867676V11.25Z" stroke="#B68E34" stroke-width="1.8" stroke-linecap="round" stroke-linejoin="round"/>
<path d="M8.69116 20.4999H32.9706" stroke="#B68E34" stroke-width="1.8" stroke-miterlimit="10" stroke-linecap="round"/>
<path d="M8.69116 27.2793H32.9706" stroke="#B68E34" stroke-width="1.8" stroke-miterlimit="10" stroke-linecap="round"/>
<path d="M8.69116 34.0441H28.7353" stroke="#B68E34" stroke-width="1.8" stroke-miterlimit="10" stroke-linecap="round"/>
<path d="M8.69116 42H26.3382" stroke="#B68E34" stroke-width="1.8" stroke-miterlimit="10" stroke-linecap="round"/>
</g>
<defs>
<clipPath id="clip0_408_1147">
<rect width="75" height="72.5735" fill="white"/>
</clipPath>
</defs>
</svg>
