<svg width="68" height="68" viewBox="0 0 68 68" fill="none" xmlns="http://www.w3.org/2000/svg">
<rect width="68" height="68" rx="34" fill="#B68E34"/>
<path d="M49.0139 26.9489C49.0139 33.2699 47.5449 38.3979 45.7242 38.3979C43.9035 38.3979 42.4346 33.2699 42.4346 26.9489C42.4346 20.628 43.9173 15.5 45.7311 15.5C47.5449 15.5 49.0208 20.628 49.0208 26.9489H49.0139Z" stroke="white" stroke-width="1.2" stroke-linecap="round" stroke-linejoin="round"/>
<path d="M36.2483 38.3979C34.4345 38.3979 32.9656 33.2699 32.9656 26.9489C32.9656 20.628 34.4345 15.5 36.2483 15.5" stroke="white" stroke-width="1.2" stroke-linecap="round" stroke-linejoin="round"/>
<path d="M26.7655 38.3979C24.9518 38.3979 23.4828 33.2699 23.4828 26.9489C23.4828 20.628 24.9518 15.5 26.7655 15.5" stroke="white" stroke-width="1.2" stroke-linecap="round" stroke-linejoin="round"/>
<path d="M45.7311 31.6382V34.0651" stroke="white" stroke-width="1.2" stroke-linecap="round" stroke-linejoin="round"/>
<path d="M17.2828 38.3979H45.7311" stroke="white" stroke-width="1.2" stroke-linecap="round" stroke-linejoin="round"/>
<path d="M46.9517 37.5821H50.9517C52.6345 37.5821 54 38.9395 54 40.6123C54 42.2851 52.6345 43.6425 50.9517 43.6425H45.1586C44.0483 43.6425 43.1448 44.5406 43.1448 45.6443C43.1448 46.7481 42.2414 47.6462 41.131 47.6462H37.9931C36.6414 47.6462 35.5517 48.7362 35.5517 50.0731C35.5517 51.4168 34.4552 52.5 33.1103 52.5H21.7724C20.1655 52.5 18.8621 51.2043 18.8621 49.6069C18.8621 48.0095 20.1655 46.7138 21.7724 46.7138H27.3931C28.5517 46.7138 29.4896 45.7815 29.4896 44.6297C29.4896 43.478 28.5517 42.5456 27.3931 42.5456H25.5724C24.4138 42.5456 23.4759 41.6132 23.4759 40.4615C23.4759 39.3097 24.4138 38.3773 25.5724 38.3773" stroke="white" stroke-width="1.2" stroke-linecap="round" stroke-linejoin="round"/>
<path d="M45.731 15.5H17.2828C15.469 15.5 14 20.628 14 26.9489C14 33.2699 15.469 38.3979 17.2828 38.3979" stroke="white" stroke-width="1.2" stroke-linecap="round" stroke-linejoin="round"/>
</svg>
