<svg width="68" height="68" viewBox="0 0 68 68" fill="none" xmlns="http://www.w3.org/2000/svg">
<rect width="68" height="68" rx="34" fill="#B68E34"/>
<g clip-path="url(#clip0_672_775)">
<path d="M49.866 26.5114C49.866 33.218 48.3136 38.659 46.3895 38.659C44.4655 38.659 42.9131 33.218 42.9131 26.5114C42.9131 19.8047 44.48 14.3637 46.3968 14.3637C48.3136 14.3637 49.8733 19.8047 49.8733 26.5114H49.866Z" stroke="white" stroke-linecap="round" stroke-linejoin="round"/>
<path d="M36.3764 38.659C34.4596 38.659 32.9072 33.218 32.9072 26.5114C32.9072 19.8047 34.4596 14.3637 36.3764 14.3637" stroke="white" stroke-linecap="round" stroke-linejoin="round"/>
<path d="M26.3549 38.659C24.4381 38.659 22.8857 33.218 22.8857 26.5114C22.8857 19.8047 24.4381 14.3637 26.3549 14.3637" stroke="white" stroke-linecap="round" stroke-linejoin="round"/>
<path d="M46.3975 31.4868V34.0618" stroke="white" stroke-linecap="round" stroke-linejoin="round"/>
<path d="M16.334 38.6591H46.3975" stroke="white" stroke-linecap="round" stroke-linejoin="round"/>
<path d="M47.6875 37.7934H51.9146C53.6929 37.7934 55.136 39.2337 55.136 41.0085C55.136 42.7834 53.6929 44.2237 51.9146 44.2237H45.7926C44.6192 44.2237 43.6645 45.1766 43.6645 46.3477C43.6645 47.5188 42.7097 48.4717 41.5363 48.4717H38.2202C36.7917 48.4717 35.6402 49.6283 35.6402 51.0467C35.6402 52.4724 34.4814 53.6217 33.0602 53.6217H21.0785C19.3804 53.6217 18.0029 52.2469 18.0029 50.5521C18.0029 48.8572 19.3804 47.4824 21.0785 47.4824H27.0184C28.2428 47.4824 29.2339 46.4932 29.2339 45.2711C29.2339 44.0491 28.2428 43.0598 27.0184 43.0598H25.0943C23.8699 43.0598 22.8787 42.0705 22.8787 40.8485C22.8787 39.6265 23.8699 38.6372 25.0943 38.6372" stroke="white" stroke-linecap="round" stroke-linejoin="round"/>
<path d="M46.397 14.3637H16.3334C14.4166 14.3637 12.8643 19.8047 12.8643 26.5114C12.8643 33.218 14.4166 38.659 16.3334 38.659" stroke="white" stroke-linecap="round" stroke-linejoin="round"/>
</g>
<defs>
<clipPath id="clip0_672_775">
<rect width="43" height="40" fill="white" transform="translate(12.5 14)"/>
</clipPath>
</defs>
</svg>
