<svg width="68" height="68" viewBox="0 0 68 68" fill="none" xmlns="http://www.w3.org/2000/svg">
<rect width="68" height="68" rx="34" fill="#B68E34"/>
<path d="M26.1191 43.3182C26.4816 43.6756 26.5131 44.2506 26.1664 44.6391L21.0285 50.5132C20.3508 51.7874 20.6345 53.3259 21.6747 54.2583C21.9426 54.5069 22.2578 54.6934 22.6045 54.8177C23.7866 55.2839 25.142 54.8177 25.9773 53.8542C28.4044 51.1348 30.8315 48.4153 33.2586 45.6958C34.4249 44.3905 34.3146 42.4169 33.0065 41.2359L28.8615 37.5063C28.499 37.18 28.4674 36.6205 28.7984 36.2476L32.8961 31.6478C33.1326 31.3836 33.5108 31.3525 33.7945 31.5545L37.8449 34.5227C38.2862 34.849 38.7433 35.1132 39.2476 35.3152L44.4801 37.5529C45.5361 37.9259 46.7023 37.584 47.3328 36.7449C48.042 35.8125 48.105 34.3051 47.1279 33.5747C45.2997 32.1761 43.0301 31.4302 40.997 30.3735C40.3824 30.0472 39.8465 29.5965 39.4368 29.0526L35.8434 24.3441C35.607 24.0177 34.5037 22.6036 32.4864 22.2462C32.4864 22.2462 32.4549 22.2462 32.4391 22.2462C30.9261 21.9975 29.3973 22.6502 28.4044 23.8157C25.8985 26.7217 23.3926 29.6431 20.8866 32.5491C20.1459 33.4038 19.6731 34.4916 19.7046 35.6104C19.7046 35.6104 19.7046 35.626 19.7046 35.6415C19.7046 35.6415 19.7046 35.6571 19.7046 35.6726C19.7519 36.7293 20.2877 37.6928 21.0443 38.4387C22.7306 40.0704 24.417 41.7021 26.1034 43.3337L26.1191 43.3182Z" stroke="white" stroke-miterlimit="10"/>
<path d="M29.8711 49.5187C29.8711 49.5187 30.7694 52.751 31.3211 53.7144C31.7939 54.538 32.8813 54.7867 33.7797 54.6002C34.8514 54.3671 35.8443 53.4036 35.7498 52.2537C35.5134 49.6896 34.4889 47.2499 33.8585 44.7635" stroke="white" stroke-miterlimit="10"/>
<path d="M38.4443 34.9267V41.7642C38.4443 42.2615 38.8541 42.65 39.3427 42.65H53.1016C53.6059 42.65 53.9999 42.246 53.9999 41.7642V30.0006C53.9999 29.5033 53.5902 29.1148 53.1016 29.1148H39.4372" stroke="white" stroke-miterlimit="10"/>
<path d="M37.6717 21.9199C40.1698 21.9199 42.195 19.9231 42.195 17.4599C42.195 14.9968 40.1698 13 37.6717 13C35.1736 13 33.1484 14.9968 33.1484 17.4599C33.1484 19.9231 35.1736 21.9199 37.6717 21.9199Z" stroke="white" stroke-miterlimit="10"/>
<path d="M44.9385 29.3635V32.2539" stroke="white" stroke-miterlimit="10"/>
<path d="M47.8691 29.3635V35.1287" stroke="white" stroke-miterlimit="10"/>
<path d="M32.8975 31.6634L38.4452 37.7861" stroke="white" stroke-miterlimit="10"/>
<path d="M21.5968 27.0325L17.1523 22.6347" stroke="white" stroke-linecap="round" stroke-linejoin="round"/>
<path d="M23.8496 25.9136V19.7132" stroke="white" stroke-linecap="round" stroke-linejoin="round"/>
<path d="M20.3042 28.9128H14" stroke="white" stroke-linecap="round" stroke-linejoin="round"/>
</svg>
