<svg width="68" height="68" viewBox="0 0 68 68" fill="none" xmlns="http://www.w3.org/2000/svg">
<rect width="68" height="68" rx="34" fill="#B68E34"/>
<path d="M25.5367 34.7806C27.9975 34.7806 29.9923 32.6934 29.9923 30.1187C29.9923 27.544 27.9975 25.4568 25.5367 25.4568C23.0759 25.4568 21.0811 27.544 21.0811 30.1187C21.0811 32.6934 23.0759 34.7806 25.5367 34.7806Z" stroke="white" stroke-linecap="round" stroke-linejoin="round"/>
<path d="M35.2487 42.116C35.1942 41.5485 35.1565 41.1692 35.1551 41.1678C35.0029 39.6563 34.3003 38.3811 31.4328 37.4131C31.1143 37.29 30.7134 37.1753 30.2832 37.0692C29.6016 36.9008 28.8544 36.755 28.2733 36.6319L25.3779 39.8587L22.4824 36.6319C21.5354 36.8314 20.1456 37.0961 19.3243 37.4131C16.4568 38.3811 15.7542 39.6563 15.6006 41.1678C15.6006 41.1706 15 47.2535 15 47.2535H30.3182" stroke="white" stroke-linecap="round" stroke-linejoin="round"/>
<path d="M22.1765 44.3309H22.8818L22.8679 43.5568C22.8623 42.4967 22.5871 40.3625 20.756 40.3625C20.749 40.3625 20.742 40.3625 20.7336 40.3625C18.9709 40.3625 18.6162 42.4882 18.6231 43.5568L18.6371 44.3295H19.3355" stroke="white" stroke-linecap="round" stroke-linejoin="round"/>
<path d="M20.7529 40.3625V37.0026" stroke="white" stroke-linecap="round" stroke-linejoin="round"/>
<path d="M30.2832 40.6765V37.069" stroke="white" stroke-linecap="round" stroke-linejoin="round"/>
<path d="M31.5628 41.9859C31.5628 42.7091 30.9901 43.2964 30.2833 43.2964C29.5766 43.2964 29.0039 42.7091 29.0039 41.9859C29.0039 41.2627 29.5766 40.6753 30.2833 40.6753C30.9901 40.6753 31.5628 41.2612 31.5628 41.9859Z" stroke="white" stroke-linecap="round" stroke-linejoin="round"/>
<path d="M42.7799 41.2797C45.2406 41.2797 47.2355 39.1925 47.2355 36.6178C47.2355 34.0431 45.2406 31.9559 42.7799 31.9559C40.3191 31.9559 38.3242 34.0431 38.3242 36.6178C38.3242 39.1925 40.3191 41.2797 42.7799 41.2797Z" stroke="white" stroke-linecap="round" stroke-linejoin="round"/>
<path d="M43.8176 43.6261C45.1641 43.6261 46.5078 43.7902 47.8109 44.137C48.1322 44.2219 48.4297 44.3125 48.6769 44.4073C51.5444 45.3753 52.247 46.0306 52.3992 47.5435C52.3992 47.5464 52.9998 54 52.9998 54H32.2441C32.2441 54 32.8433 47.5449 32.8447 47.5435C32.9984 46.032 33.6996 45.3753 36.5671 44.4073C36.8143 44.3125 37.1118 44.2219 37.4331 44.137C38.7362 43.7902 40.0799 43.6261 41.4264 43.6261H43.819H43.8176Z" stroke="white" stroke-linecap="round" stroke-linejoin="round"/>
<path d="M48.8283 15.7507C48.8283 14.7841 48.0629 14 47.1187 14H33.9557C33.0115 14 32.2461 14.7841 32.2461 15.7507V25.8402C32.2461 26.8068 33.0115 27.5908 33.9557 27.5908H35.0019L34.9516 31.2408L39.762 27.5908H47.1201C48.0643 27.5908 48.8297 26.8068 48.8297 25.8402V15.7507H48.8283Z" stroke="white" stroke-linecap="round" stroke-linejoin="round"/>
<path d="M44.0059 19.7929H41.6063V17.3077H39.465V19.7929H37.0654V22.0092H39.465V24.4944H41.6063V22.0092H44.0059V19.7929Z" stroke="white" stroke-linecap="round" stroke-linejoin="round"/>
</svg>
