<svg width="68" height="68" viewBox="0 0 68 68" fill="none" xmlns="http://www.w3.org/2000/svg">
<rect width="68" height="68" rx="34" fill="#B68E34"/>
<path d="M49.3346 20.7874H42.0015V18.8046C42.0015 16.9796 40.5084 15.5 38.6669 15.5H29.3331C27.4916 15.5 25.9985 16.9796 25.9985 18.8046V20.7874H18.6654C16.0879 20.7874 14 22.8595 14 25.4109V32.6782C14 33.6547 14.5407 34.4972 15.3338 34.9557V47.8765C15.3338 50.4309 17.4217 52.5 19.9992 52.5H48.0008C50.5783 52.5 52.6662 50.4279 52.6662 47.8765V34.9557C53.4593 34.4972 54 33.6547 54 32.6782V25.4109C54 22.8565 51.9091 20.7874 49.3346 20.7874ZM27.3323 18.8046C27.3323 17.712 28.2306 16.8219 29.3331 16.8219H38.6669C39.7694 16.8219 40.6677 17.712 40.6677 18.8046V20.7874H27.3353V18.8046H27.3323ZM51.3353 47.8765C51.3353 49.6985 49.8393 51.1811 48.0008 51.1811H19.9992C18.1607 51.1811 16.6647 49.6985 16.6647 47.8765V35.3219H23.424C23.3699 35.7565 23.3308 36.1942 23.3308 36.6437C23.3308 42.4819 28.1074 47.2156 33.9985 47.2156C39.8896 47.2156 44.6662 42.4819 44.6662 36.6437C44.6662 36.1942 44.6301 35.7565 44.573 35.3219H51.3323V47.8765H51.3353ZM24.6677 36.6437C24.6677 31.5439 28.8554 27.3937 34.0015 27.3937C39.1476 27.3937 43.3353 31.5439 43.3353 36.6437C43.3353 41.7436 39.1476 45.8937 34.0015 45.8937C28.8554 45.8937 24.6677 41.7436 24.6677 36.6437ZM52.6692 32.6811C52.6692 33.4105 52.0714 34.003 51.3353 34.003H44.3177C43.1311 29.445 38.9703 26.0748 34.0015 26.0748C29.0327 26.0748 24.8689 29.445 23.6853 34.003H16.6677C15.9317 34.003 15.3338 33.4105 15.3338 32.6811V25.4139C15.3338 23.5919 16.8299 22.1093 18.6684 22.1093H49.3346C51.1731 22.1093 52.6692 23.5919 52.6692 25.4139V32.6811ZM31.3338 39.2874V42.1931C31.3338 43.1428 32.1089 43.9109 33.0672 43.9109H34.9328C35.8911 43.9109 36.6662 43.1428 36.6662 42.1931V39.2874H39.5982C40.5565 39.2874 41.3316 38.5193 41.3316 37.5696V35.7208C41.3316 34.7711 40.5565 34.003 39.5982 34.003H36.6662V31.0973C36.6662 30.1476 35.8911 29.3795 34.9328 29.3795H33.0672C32.1089 29.3795 31.3338 30.1476 31.3338 31.0973V34.003H28.4018C27.4435 34.003 26.6684 34.7711 26.6684 35.7208V37.5696C26.6684 38.5193 27.4435 39.2874 28.4018 39.2874H31.3338ZM27.9992 37.4356V35.8488C27.9992 35.557 28.2366 35.3189 28.534 35.3189H32.6677V31.2223C32.6677 30.9306 32.905 30.6924 33.2024 30.6924H34.8036C35.098 30.6924 35.3383 30.9276 35.3383 31.2223V35.3189H39.472C39.7664 35.3189 40.0068 35.5541 40.0068 35.8488V37.4356C40.0068 37.7274 39.7694 37.9656 39.472 37.9656H35.3383V42.0621C35.3383 42.3539 35.101 42.5921 34.8036 42.5921H33.2024C32.908 42.5921 32.6677 42.3569 32.6677 42.0621V37.9656H28.534C28.2396 37.9656 27.9992 37.7304 27.9992 37.4356Z" fill="white"/>
</svg>
