<svg width="68" height="68" viewBox="0 0 68 68" fill="none" xmlns="http://www.w3.org/2000/svg">
<rect width="68" height="68" rx="34" fill="#B68E34"/>
<path d="M34.0039 22.6124H38.7212C40.3314 22.6124 41.798 23.5169 42.5011 24.9329L44.7009 29.3738C45.0487 30.0929 45.0865 30.9158 44.7765 31.6572L42.1004 38.1665" stroke="white" stroke-width="1.2" stroke-linecap="round" stroke-linejoin="round"/>
<path d="M33.9961 37.6328V53.2462" stroke="white" stroke-width="1.2" stroke-linecap="round" stroke-linejoin="round"/>
<path d="M25.9073 38.1591L23.2312 31.6498C22.9212 30.9084 22.9515 30.0855 23.3068 29.3663L25.5067 24.9255C26.2097 23.502 27.6763 22.6049 29.2865 22.6049H34.0038" stroke="white" stroke-width="1.2" stroke-linecap="round" stroke-linejoin="round"/>
<path d="M34.0039 37.6328V53.2907C34.0039 54.514 35.0094 55.5 36.2567 55.5C37.4814 55.5 38.4793 54.5436 38.5095 53.3426L39.1219 28.5435L47.4376 55.5" stroke="white" stroke-width="1.2" stroke-linecap="round" stroke-linejoin="round"/>
<path d="M33.9962 42.044V43.4081C33.9962 44.535 33.0663 45.4469 31.9172 45.4469H31.3125C30.1861 45.4469 29.2638 44.5647 29.2335 43.46L28.8631 28.5509L20.5625 55.5" stroke="white" stroke-width="1.2" stroke-linecap="round" stroke-linejoin="round"/>
<path d="M38.0558 16.4812C38.0558 18.6757 36.2415 20.4624 33.9962 20.4624C31.751 20.4624 29.9366 18.6831 29.9366 16.4812C29.9366 14.2793 31.7585 12.5 33.9962 12.5C36.2339 12.5 38.0558 14.2793 38.0558 16.4812Z" stroke="white" stroke-width="1.2" stroke-linecap="round" stroke-linejoin="round"/>
</svg>
