<svg width="68" height="68" viewBox="0 0 68 68" fill="none" xmlns="http://www.w3.org/2000/svg">
<rect width="68" height="68" rx="34" fill="#B68E34"/>
<path d="M25.0778 34.7289C22.0605 36.7642 20.3301 38.9748 19.5351 41.121C17.7432 45.9635 20.7209 50.4807 24.4761 51.9375C25.3961 52.2745 27.8996 52.5671 30.5536 51.0417M26.4862 28.0819C26.4862 28.0819 22.7325 21.8217 24.6181 16.7289C26.6999 11.1026 33.2997 9.83319 38.8658 11.9929C44.877 14.3249 49.6819 20.6571 46.2912 29.8175C45.4686 31.5957 43.5745 35.6182 42.5793 37.4826" stroke="white" stroke-linecap="round" stroke-linejoin="round"/>
<path d="M37.4811 37.2378C40.1353 34.6614 41.7897 32.1105 42.6812 29.7021C45.2886 22.6595 41.3695 16.8263 36.8194 15.0608C33.4141 13.7404 29.656 14.6966 28.0149 19.1299C27.8201 19.656 27.6547 20.23 27.5244 20.855" stroke="white" stroke-linecap="round" stroke-linejoin="round"/>
<path d="M31.4199 24.906C32.3934 24.6363 33.3845 24.7082 34.282 25.0559C36.7971 26.0316 38.5686 29.182 37.1265 33.0772C35.1252 38.4832 27.8287 36.8765 26.7145 39.8875C26.5696 40.2817 26.5286 40.7538 26.6194 41.3308" stroke="white" stroke-linecap="round" stroke-linejoin="round"/>
<path d="M40.3991 57C45.1494 57 49.0002 53.0577 49.0002 48.1947C49.0002 43.3316 45.1494 39.3894 40.3991 39.3894C35.6487 39.3894 31.7979 43.3316 31.7979 48.1947C31.7979 53.0577 35.6487 57 40.3991 57Z" stroke="white" stroke-linecap="round" stroke-linejoin="round"/>
<path d="M36.1436 43.8379L44.6536 52.551" stroke="white" stroke-linecap="round" stroke-linejoin="round"/>
<path d="M44.6536 43.8379L36.1436 52.551" stroke="white" stroke-linecap="round" stroke-linejoin="round"/>
</svg>
