<svg width="68" height="68" viewBox="0 0 68 68" fill="none" xmlns="http://www.w3.org/2000/svg">
<rect width="68" height="68" rx="34" fill="#B68E34"/>
<path d="M53.7543 50.4438C53.7543 53.2314 51.5195 55.5 48.7571 55.5C45.9947 55.5 43.7599 53.2388 43.7599 50.4438C43.7599 47.6488 45.9947 45.3876 48.7571 45.3876C51.5195 45.3876 53.7543 47.6488 53.7543 50.4438Z" stroke="white" stroke-width="1.2" stroke-linecap="round" stroke-linejoin="round"/>
<path d="M50.904 50.4438C50.904 51.6374 49.9441 52.6086 48.7644 52.6086C47.5848 52.6086 46.6249 51.6374 46.6249 50.4438C46.6249 49.2502 47.5848 48.279 48.7644 48.279C49.9441 48.279 50.904 49.2502 50.904 50.4438Z" stroke="white" stroke-width="1.2" stroke-linecap="round" stroke-linejoin="round"/>
<path d="M24.9509 49.0945C25.0681 49.5245 25.1341 49.9767 25.1341 50.4438C25.1341 53.2314 22.8992 55.5 20.1442 55.5C17.3891 55.5 15.147 53.2314 15.147 50.4438C15.147 49.9767 15.2129 49.5245 15.3302 49.0945" stroke="white" stroke-width="1.2" stroke-linecap="round" stroke-linejoin="round"/>
<path d="M21.822 49.0945C22.1078 49.4652 22.2837 49.9322 22.2837 50.4438C22.2837 51.6374 21.3311 52.6086 20.1441 52.6086C18.9571 52.6086 18.0045 51.6374 18.0045 50.4438C18.0045 49.9322 18.1804 49.4652 18.4735 49.0945" stroke="white" stroke-width="1.2" stroke-linecap="round" stroke-linejoin="round"/>
<path d="M19.4334 40.4871H22.6647C25.5956 40.4871 27.977 42.8965 27.977 45.8621V46.7072C27.977 48.0269 26.9145 49.1019 25.6103 49.1019H13V46.9964C13 43.4007 15.8796 40.4871 19.4334 40.4871Z" stroke="white" stroke-width="1.2" stroke-linecap="round" stroke-linejoin="round"/>
<path d="M25.3611 49.9619H39.7226C42.8587 43.5638 46.0021 41.4435 46.0021 41.4435V38.9376C40.5359 37.7366 39.1071 31.4793 39.1071 31.4793C40.6312 32.0057 42.1039 31.7166 42.1039 31.7166V27.0978C39.0631 27.0978 38.2498 29.4109 38.2498 29.4109H36.2641V32.3467C36.2641 32.3467 40.1769 38.1221 40.1769 40.791C40.1769 43.1709 39.1217 46.6405 34.8353 46.6405H32.0362C32.0362 46.6405 29.2152 46.8333 29.2152 43.1709C29.2152 41.3397 30.0945 40.0941 30.9738 39.3009C31.4134 38.9005 31.157 38.1666 30.5635 38.1666H18.9424L17.1912 40.8874" stroke="white" stroke-width="1.2" stroke-linecap="round" stroke-linejoin="round"/>
<path d="M20.1367 35.201H29.7062C30.4902 35.201 31.1277 35.846 31.1277 36.6393V37.2843C31.1277 37.7736 30.732 38.174 30.2484 38.174H18.9424V36.4169C18.9424 35.7496 19.4773 35.201 20.1441 35.201H20.1367Z" stroke="white" stroke-width="1.2" stroke-linecap="round" stroke-linejoin="round"/>
<path d="M46.0021 41.4435C46.0021 41.4435 50.1273 39.9236 53.0436 43.89C53.2707 44.194 53.0729 44.6388 52.6992 44.6684C51.373 44.7722 48.7278 45.054 46.94 45.7286" stroke="white" stroke-width="1.2" stroke-linecap="round" stroke-linejoin="round"/>
<path d="M40.2429 48.9462H44.0897" stroke="white" stroke-width="1.2" stroke-linecap="round" stroke-linejoin="round"/>
<path d="M36.2641 29.4183H33.8461" stroke="white" stroke-width="1.2" stroke-linecap="round" stroke-linejoin="round"/>
<path d="M38.9166 24.9329L35.524 20.5069L40.873 21.9452L41.5691 16.3848L44.3461 21.2334L48.7205 17.8009L47.299 23.2129L52.7945 23.9172L48.0024 26.7271L51.395 31.1605L46.046 29.7148" stroke="white" stroke-width="1.2" stroke-linecap="round" stroke-linejoin="round"/>
<path d="M54.729 28.2914L52.4868 27.7428" stroke="white" stroke-width="1.2" stroke-linecap="round" stroke-linejoin="round"/>
<path d="M46.1926 12.5L46.024 14.9984" stroke="white" stroke-width="1.2" stroke-linecap="round" stroke-linejoin="round"/>
<path d="M36.3594 15.1541L37.8395 17.4302" stroke="white" stroke-width="1.2" stroke-linecap="round" stroke-linejoin="round"/>
<path d="M51.4389 20.6255L51.0725 20.8479" stroke="white" stroke-width="1.2" stroke-linecap="round" stroke-linejoin="round"/>
<path d="M55.0001 18.5052L53.1096 19.6321" stroke="white" stroke-width="1.2" stroke-linecap="round" stroke-linejoin="round"/>
</svg>
