<svg width="68" height="68" viewBox="0 0 68 68" fill="none" xmlns="http://www.w3.org/2000/svg">
<rect width="68" height="68" rx="34" fill="#B68E34"/>
<path d="M37.7652 36.0182C40.0334 36.0182 41.8721 34.1895 41.8721 31.9336C41.8721 29.6777 40.0334 27.849 37.7652 27.849C35.4969 27.849 33.6582 29.6777 33.6582 31.9336C33.6582 34.1895 35.4969 36.0182 37.7652 36.0182Z" stroke="white" stroke-linecap="round" stroke-linejoin="round"/>
<path d="M32.51 19.8519C33.031 17.6564 31.6638 15.4565 29.4562 14.9383C27.2487 14.4201 25.0367 15.7798 24.5157 17.9754C23.9946 20.1709 25.3619 22.3708 27.5694 22.889C29.777 23.4072 31.9889 22.0474 32.51 19.8519Z" stroke="white" stroke-linecap="round" stroke-linejoin="round"/>
<path d="M28.8136 37.247L29.426 37.1612C31.8691 36.818 34.3774 37.1326 36.6125 38.1716C37.2365 38.4614 37.8163 38.7931 38.3205 39.1601C39.4888 40.0114 39.7035 41.6614 38.7911 42.7795L36.4544 45.9347C35.6694 46.8965 34.3333 47.214 33.1966 46.7078L26.0207 43.5126C25.067 43.0884 24.7354 41.9064 25.3315 41.0523C25.7964 40.385 26.6763 40.1486 27.4152 40.4937C29.5804 41.5079 33.7352 43.4582 33.7352 43.4582L35.5831 41.0018" stroke="white" stroke-linecap="round" stroke-linejoin="round"/>
<path d="M32.3761 31.9336L31.5221 31.0919L31.2231 29.1511C30.993 27.6603 30.0605 26.3687 28.7129 25.6766C27.2848 24.9436 25.7014 24.5604 24.0951 24.5604C21.0443 24.5604 18.6443 27.1541 18.8983 30.1778L19.1427 33.0956C19.2309 34.1518 19.7609 35.1222 20.6025 35.7713L24.3251 38.6415C24.9318 39.1095 25.7982 39.0314 26.311 38.4633C26.8631 37.8522 26.7979 36.9085 26.1672 36.3785L22.2702 33.1004L22.6392 28.6478" stroke="white" stroke-linecap="round" stroke-linejoin="round"/>
<path d="M28.4707 31.4484L29.3429 33.2319C29.7292 34.0212 30.4662 34.5836 31.3326 34.7514" stroke="white" stroke-linecap="round" stroke-linejoin="round"/>
<path d="M18.8767 29.2999L18.0851 31.9927C17.3806 34.331 16.9493 36.7398 16.7988 39.1725" stroke="white" stroke-linecap="round" stroke-linejoin="round"/>
<path d="M26.541 35.7189L27.3001 32.5342L28.7234 29.0425" stroke="white" stroke-linecap="round" stroke-linejoin="round"/>
<path d="M42.5477 25.6738V28.339C42.5477 29.053 42.3138 29.7126 41.918 30.2464" stroke="white" stroke-linecap="round" stroke-linejoin="round"/>
<path d="M43.5954 25.7357H41.5117" stroke="white" stroke-linecap="round" stroke-linejoin="round"/>
<path d="M45.178 18.1756C44.8626 20.3871 44.8626 22.5986 45.178 24.8111C45.178 24.8111 42.4071 25.2715 39.9189 24.8111C40.2343 22.5996 40.2343 20.3871 39.9189 18.1756" stroke="white" stroke-linecap="round" stroke-linejoin="round"/>
<path d="M44.8164 18.1003C44.9372 18.1232 45.057 18.1479 45.1777 18.1756" stroke="white" stroke-linecap="round" stroke-linejoin="round"/>
<path d="M43.4961 16.7076C44.1057 16.8726 44.56 17.4111 44.5983 18.0603C44.6712 18.0736 44.744 18.087 44.8178 18.1003" stroke="white" stroke-linecap="round" stroke-linejoin="round"/>
<path d="M39.9189 18.1756C40.1126 18.1318 40.3062 18.0946 40.4988 18.0603C40.5343 17.4598 40.9263 16.9536 41.4669 16.7505" stroke="white" stroke-linecap="round" stroke-linejoin="round"/>
<path d="M44.9578 19.5549H44.0654" stroke="white" stroke-linecap="round" stroke-linejoin="round"/>
<path d="M44.7843 21.4471H44.0654" stroke="white" stroke-linecap="round" stroke-linejoin="round"/>
<path d="M44.9578 23.3393H44.0654" stroke="white" stroke-linecap="round" stroke-linejoin="round"/>
<path d="M50.5789 15.6448H44.9806C43.9742 15.6448 43.1586 16.456 43.1586 17.4569V17.8754C43.1586 18.066 43.0033 18.2204 42.8116 18.2204H42.248" stroke="white" stroke-linecap="round" stroke-linejoin="round"/>
<path d="M40.9824 16.6857V15.6629" stroke="white" stroke-linecap="round" stroke-linejoin="round"/>
<path d="M48.2607 15.8707L48.5032 31.5685" stroke="white" stroke-linecap="round" stroke-linejoin="round"/>
<path d="M41.6855 30.1873L51.4445 32.2644C52.9349 32.5818 53.9997 33.8916 53.9997 35.4072V53.2555" stroke="white" stroke-linecap="round" stroke-linejoin="round"/>
<path d="M41.7744 32.6038L46.283 33.6971C47.8232 34.0708 48.4941 35.8743 47.5712 37.1554L44.0028 42.1037C43.3281 43.0397 42.0457 43.3085 41.0479 42.7233L39.3984 41.7138" stroke="white" stroke-linecap="round" stroke-linejoin="round"/>
<path d="M45.7197 41.0017L48.6162 41.9616C49.5574 42.2733 50.1928 43.1503 50.1928 44.1369V53.5739" stroke="white" stroke-linecap="round" stroke-linejoin="round"/>
<path d="M21.4673 39.7969L14 42.3496" stroke="white" stroke-linecap="round" stroke-linejoin="round"/>
<path d="M47.9558 44.5906L45.6689 45.8927" stroke="white" stroke-linecap="round" stroke-linejoin="round"/>
<path d="M50.0167 49.0089L42.1162 54" stroke="white" stroke-linecap="round" stroke-linejoin="round"/>
<path d="M38.2344 43.7118L42.4755 45.7822C43.4416 46.2531 44.0723 47.2111 44.1202 48.2806L44.3138 52.6102" stroke="white" stroke-linecap="round" stroke-linejoin="round"/>
<path d="M28.4707 38.9456L34.1582 41.7224" stroke="white" stroke-linecap="round" stroke-linejoin="round"/>
<path d="M24.9499 40.3545C24.9001 40.4975 24.8292 40.6357 24.7362 40.7653C24.2148 41.4917 23.1998 41.6594 22.4695 41.1409C21.7391 40.6223 21.5704 39.6128 22.0918 38.8865" stroke="white" stroke-linecap="round" stroke-linejoin="round"/>
</svg>
