<svg width="68" height="68" viewBox="0 0 68 68" fill="none" xmlns="http://www.w3.org/2000/svg">
<rect width="68" height="68" rx="34" fill="#B68E34"/>
<path d="M54.8201 35.4333C54.3972 34.4922 53.3004 34.0724 52.3685 34.4995L50.1105 35.5346L46.5622 31.7559C46.3973 31.5822 46.1966 31.4374 45.9815 31.3361L41.6949 29.3816C41.2719 29.1934 40.7988 29.1644 40.3615 29.3092L33.2291 31.6401C32.6412 31.8356 32.1825 32.3133 32.0176 32.9142L30.6556 37.7859C30.3761 38.7849 30.9495 39.8201 31.9388 40.0951C32.1036 40.1458 32.2757 40.1675 32.4405 40.1675C33.2506 40.1675 33.9961 39.6246 34.2255 38.7994L35.315 34.8904L39.487 33.5295L37.7308 39.2844L35.1143 45.7053H29.1431C28.118 45.7053 27.2865 46.545 27.2865 47.5801C27.2865 48.6153 28.118 49.455 29.1431 49.455H36.3616C37.1143 49.455 37.7881 48.999 38.0748 48.2968L40.1178 43.2875L44.2325 47.3557V53.1251C44.2325 54.1603 45.064 55 46.0891 55C47.1141 55 47.9456 54.1603 47.9456 53.1251V46.5667C47.9456 46.06 47.7449 45.5822 47.3865 45.2275L42.8203 40.7177L44.4833 34.9917L48.3327 39.0962C48.8775 39.6753 49.7234 39.849 50.4474 39.516L53.9097 37.9307C54.8416 37.5036 55.2574 36.3961 54.8344 35.455L54.8201 35.4333Z" stroke="white" stroke-width="1.2" stroke-linecap="round" stroke-linejoin="round"/>
<path d="M49.3148 25.4654C49.3148 27.3981 47.7664 28.9617 45.8524 28.9617C43.9385 28.9617 42.3901 27.3981 42.3901 25.4654C42.3901 23.5326 43.9385 21.969 45.8524 21.969C47.7664 21.969 49.3148 23.5326 49.3148 25.4654Z" stroke="white" stroke-width="1.2" stroke-linecap="round" stroke-linejoin="round"/>
<path d="M25.265 38.2999L15.2652 36.8087L25.265 32.7694L13 19.3268L30.1395 26.971L31.5302 13L36.0534 23.6267" stroke="white" stroke-width="1.2" stroke-linecap="round" stroke-linejoin="round"/>
<path d="M39.7952 14.2306L39.3077 18.4074" stroke="white" stroke-width="1.2" stroke-linecap="round" stroke-linejoin="round"/>
<path d="M38.9709 21.3899L38.8347 22.5698" stroke="white" stroke-width="1.2" stroke-linecap="round" stroke-linejoin="round"/>
<path d="M25.3295 16.1272L24.5266 14.2306" stroke="white" stroke-width="1.2" stroke-linecap="round" stroke-linejoin="round"/>
<path d="M28.0463 22.5698L26.3761 18.6174" stroke="white" stroke-width="1.2" stroke-linecap="round" stroke-linejoin="round"/>
<path d="M17.5232 31.5388L13 31.0103" stroke="white" stroke-width="1.2" stroke-linecap="round" stroke-linejoin="round"/>
<path d="M20.3906 43.2223L15.6953 45.4157" stroke="white" stroke-width="1.2" stroke-linecap="round" stroke-linejoin="round"/>
<path d="M24.5267 41.2823L23.2937 41.8614" stroke="white" stroke-width="1.2" stroke-linecap="round" stroke-linejoin="round"/>
</svg>
