<svg width="68" height="68" viewBox="0 0 68 68" fill="none" xmlns="http://www.w3.org/2000/svg">
<rect width="68" height="68" rx="34" fill="#B68E34"/>
<path d="M14.0002 53.8077C14.0002 53.8077 14.0002 50.1031 15.3202 48.8628C16.6402 47.6226 20.4962 46.7744 22.7282 45.8223C24.9602 44.8701 27.9522 43.0137 28.4642 42.5336" stroke="white" stroke-width="1.2" stroke-linecap="round" stroke-linejoin="round"/>
<path d="M26.2802 53.9997L23.6482 45.5341L28.2162 50.295L33.7922 47.9106L26.7922 44.1099" stroke="white" stroke-width="1.2" stroke-linecap="round" stroke-linejoin="round"/>
<path d="M31.5602 53.9996L32.5762 51.6232L31.6642 48.8627" stroke="white" stroke-width="1.2" stroke-miterlimit="10" stroke-linecap="round"/>
<path d="M53.9998 53.8081C53.9998 53.8081 53.9998 50.1034 52.6798 48.8632C51.3598 47.6229 47.5038 46.7748 45.2718 45.8226C43.0398 44.8704 39.9118 43.0461 39.3998 42.574" stroke="white" stroke-width="1.2" stroke-linecap="round" stroke-linejoin="round"/>
<path d="M41.7199 54L44.3599 45.5345L39.7919 50.2953L34.2079 47.9109L41.2079 44.1102" stroke="white" stroke-width="1.2" stroke-linecap="round" stroke-linejoin="round"/>
<path d="M36.4398 54L35.4238 51.6235L36.3358 48.863" stroke="white" stroke-width="1.2" stroke-miterlimit="10" stroke-linecap="round"/>
<path d="M32.5764 51.6233H35.4244" stroke="white" stroke-width="1.2" stroke-linecap="round" stroke-linejoin="round"/>
<path d="M43.7443 29.3712C45.3683 33.364 42.9283 35.8364 42.9283 35.8364C42.9283 35.8364 42.3203 37.1647 40.2883 40.7814C38.2563 44.398 33.6963 44.086 33.6963 44.086C33.6963 44.086 29.3283 44.398 27.2963 40.7814C25.2643 37.1647 24.6563 35.8364 24.6563 35.8364C24.6563 35.8364 22.2163 33.364 23.8403 29.3712C23.8403 29.3712 24.2483 27.1868 24.0403 26.0426C23.8323 24.8984 22.9923 20.7536 24.1443 19.2894C25.5683 17.481 28.1043 17.577 29.1203 17.105C30.1363 16.6329 31.3843 14.7925 32.4003 14.6005C33.4163 14.4085 34.4003 14.3444 35.6163 14.1604C36.8323 13.9764 37.7043 13.8003 38.7603 14.5445C40.7923 15.9687 41.9043 15.6887 43.1283 16.9209C44.3523 18.1532 45.0563 20.3456 44.9523 21.4818C44.8483 22.618 44.8483 26.5227 44.2403 27.6589C43.6323 28.7951 43.7363 29.3712 43.7363 29.3712H43.7443Z" stroke="white" stroke-width="1.2" stroke-linecap="round" stroke-linejoin="round"/>
<path d="M23.9841 28.515C23.9841 28.515 25.4401 30.4194 25.8801 29.9393C26.3201 29.4592 26.4881 25.2504 26.8241 24.4903C27.1601 23.7301 28.3441 22.2419 27.9441 20.5295C27.9441 20.5295 31.6001 21.3537 33.8001 21.6098C36.0001 21.8658 40.3281 21.8338 40.7041 22.2099C41.0801 22.5859 41.5201 22.6179 41.7201 24.2102C41.8801 25.4745 41.6321 28.187 41.5601 29.3312C41.5441 29.5632 41.8081 29.7233 42.0241 29.6112C42.5041 29.3632 43.3361 28.9471 43.7761 28.6511" stroke="white" stroke-width="1.2" stroke-linecap="round" stroke-linejoin="round"/>
</svg>
