<svg width="68" height="68" viewBox="0 0 68 68" fill="none" xmlns="http://www.w3.org/2000/svg">
<rect width="68" height="68" rx="34" fill="#B68E34"/>
<path d="M23.3584 22.3129L30.8759 20.9293" stroke="white" stroke-width="1.2" stroke-linecap="round" stroke-linejoin="round"/>
<path d="M17.549 25.9416L40.1016 21.791" stroke="white" stroke-width="1.2" stroke-linecap="round" stroke-linejoin="round"/>
<path d="M27.7439 42.6228L34.0085 41.4698" stroke="white" stroke-width="1.2" stroke-linecap="round" stroke-linejoin="round"/>
<path d="M39.7034 44.2611L40.0452 46.1179C40.171 46.8019 40.8337 47.2526 41.5259 47.1252L42.7788 46.8947C43.4711 46.7673 43.9298 46.1101 43.8039 45.4262L43.3078 42.7307" stroke="white" stroke-width="1.2" stroke-linecap="round" stroke-linejoin="round"/>
<path d="M19.5021 47.1103L19.9984 49.8074C20.1243 50.4913 20.787 50.9421 21.4792 50.8147L22.7321 50.5841C23.4244 50.4567 23.8831 49.7995 23.7572 49.1156L23.4155 47.2588" stroke="white" stroke-width="1.2" stroke-linecap="round" stroke-linejoin="round"/>
<path d="M21.593 44.3946C20.9007 44.522 20.2381 44.0713 20.1122 43.3873C19.9864 42.7034 20.4451 42.0463 21.1373 41.9189L23.0167 41.573C23.709 41.4456 24.3716 41.8963 24.4975 42.5803C24.6233 43.2642 24.1646 43.9213 23.4724 44.0487L21.593 44.3946Z" stroke="white" stroke-width="1.2" stroke-linecap="round" stroke-linejoin="round"/>
<path d="M38.5072 41.2817C37.8149 41.4091 37.1523 40.9583 37.0264 40.2744C36.9005 39.5904 37.3593 38.9333 38.0515 38.8059L39.9309 38.46C40.6231 38.3326 41.2858 38.7834 41.4116 39.4673C41.5375 40.1512 41.0788 40.8084 40.3865 40.9358L38.5072 41.2817Z" stroke="white" stroke-width="1.2" stroke-linecap="round" stroke-linejoin="round"/>
<path d="M14.5311 34.176C13.8388 34.3034 13.1762 33.8526 13.0503 33.1687L12.3669 29.455C12.241 28.7711 12.6997 28.1139 13.392 27.9865L15.2714 27.6406" stroke="white" stroke-width="1.2" stroke-linecap="round" stroke-linejoin="round"/>
<path d="M40.3296 23.0289L42.209 22.683C42.9012 22.5556 43.5639 23.0063 43.6897 23.6903L44.3732 27.4039C44.4991 28.0879 44.0403 28.745 43.3481 28.8724" stroke="white" stroke-width="1.2" stroke-linecap="round" stroke-linejoin="round"/>
<path d="M17.2877 38.596C17.2877 38.596 22.2596 38.5129 29.9651 37.0947C37.6705 35.6766 42.3462 33.9842 42.3462 33.9842" stroke="white" stroke-width="1.2" stroke-linecap="round" stroke-linejoin="round"/>
<path d="M39.9814 21.1349C39.6439 19.3013 38.0038 17.9825 36.1187 18.0511C33.9394 18.1307 30.7351 18.3956 26.6616 19.1453C22.588 19.895 19.4994 20.7882 17.4345 21.4898C15.6485 22.0968 14.5854 23.9131 14.9229 25.7467L18.5749 45.5901C18.8266 46.9579 20.1519 47.8595 21.5364 47.6047L41.5832 43.9152C42.9677 43.6604 43.8851 42.3461 43.6334 40.9783L39.9814 21.1349Z" stroke="white" stroke-width="1.2" stroke-linecap="round" stroke-linejoin="round"/>
<path d="M44.7327 38.9342L45.5146 34.6391L47.4965 38.528L51.0895 36.043L49.7383 40.1967L54.0335 40.9786L50.1446 42.9605L52.6295 46.5535L48.4758 45.2023L47.6896 49.5013L45.712 45.6086" stroke="white" stroke-width="1.2" stroke-linecap="round" stroke-linejoin="round"/>
<path d="M51.1091 49.9656L50.2468 48.3637" stroke="white" stroke-width="1.2" stroke-linecap="round" stroke-linejoin="round"/>
<path d="M55.7781 36.7357L54.2396 37.937" stroke="white" stroke-width="1.2" stroke-linecap="round" stroke-linejoin="round"/>
<path d="M49.0601 32.3438L48.5187 34.3973" stroke="white" stroke-width="1.2" stroke-linecap="round" stroke-linejoin="round"/>
<path d="M53.825 44.0446L53.503 43.9452" stroke="white" stroke-width="1.2" stroke-linecap="round" stroke-linejoin="round"/>
<path d="M56.9305 45.032L55.2812 44.5085" stroke="white" stroke-width="1.2" stroke-linecap="round" stroke-linejoin="round"/>
</svg>
