<svg width="68" height="68" viewBox="0 0 68 68" fill="none" xmlns="http://www.w3.org/2000/svg">
<rect width="68" height="68" rx="34" fill="#B68E34"/>
<path d="M40.4152 18.8419C39.2396 18.4342 37.9619 19.0526 37.561 20.2282L36.5892 23.0689H30.3371C30.0449 23.0621 29.7594 23.1164 29.4876 23.232L24.2141 25.3862C23.6976 25.5969 23.2763 25.9911 23.0384 26.5007L19.1648 34.6965C18.8454 35.376 18.8862 36.1712 19.2735 36.8168L22.4132 42.0427C23.052 43.1097 24.4383 43.463 25.5053 42.8242C25.6888 42.7155 25.8451 42.5864 25.9878 42.4369C26.6606 41.7233 26.8033 40.6224 26.2732 39.7389L23.7588 35.5527L26.0218 30.7549L29.6099 37.0546L33.0622 44.6591L28.1081 49.9122C27.2586 50.8161 27.3062 52.2364 28.21 53.0927C29.1138 53.9489 30.541 53.9082 31.3904 53.0111L37.3707 46.6706C37.9959 46.0115 38.1522 45.0329 37.7785 44.2038L35.0805 38.2643L42.053 38.006L47.1091 42.7767C48.0129 43.6329 49.44 43.5922 50.2895 42.6951C51.139 41.7913 51.0914 40.3709 50.1876 39.5147L44.4383 34.0916C43.9966 33.6771 43.4054 33.4528 42.8006 33.4732L35.0601 33.7586L31.4176 27.5677H38.2066C39.1648 27.5745 40.0143 26.9697 40.3201 26.0658L41.8084 21.7097C42.2093 20.534 41.5773 19.2564 40.4016 18.8487L40.4152 18.8419Z" stroke="white" stroke-width="1.2" stroke-linecap="round" stroke-linejoin="round"/>
<path d="M27.1159 15.444C28.8081 17.041 28.8964 19.6982 27.3062 21.3835C25.7228 23.0689 23.0588 23.1368 21.3667 21.5398C19.6745 19.9428 19.5862 17.2857 21.1764 15.6003C22.7598 13.9149 25.4238 13.847 27.1159 15.444Z" stroke="white" stroke-width="1.2" stroke-linecap="round" stroke-linejoin="round"/>
<path d="M14 53.7043H54" stroke="white" stroke-width="1.2" stroke-linecap="round" stroke-linejoin="round"/>
<path d="M14.4553 46.8813C14.4553 46.8813 17.4591 50.3064 24.2481 51.3801" stroke="white" stroke-width="1.2" stroke-linecap="round" stroke-linejoin="round"/>
<path d="M19.8784 45.9027C19.8784 45.9027 21.3395 47.7172 23.6569 48.723" stroke="white" stroke-width="1.2" stroke-linecap="round" stroke-linejoin="round"/>
</svg>
