<svg width="68" height="68" viewBox="0 0 68 68" fill="none" xmlns="http://www.w3.org/2000/svg">
<rect width="68" height="68" rx="34" fill="#B68E34"/>
<path d="M27.7049 43.7199C27.7049 43.9154 27.6976 44.1036 27.6687 44.2918C27.3863 46.6811 25.3518 48.5418 22.8829 48.5418C20.414 48.5418 18.394 46.6811 18.1044 44.2918C18.0755 44.1036 18.0682 43.9154 18.0682 43.7199C18.0682 41.0555 20.2258 38.8979 22.8829 38.8979C25.5401 38.8979 27.7049 41.0555 27.7049 43.7199Z" stroke="white" stroke-width="1.2" stroke-linecap="round" stroke-linejoin="round"/>
<path d="M13 24.2295H13.6806C14.6073 24.2295 15.5051 24.606 16.1639 25.2648L22.8538 31.9692C23.0348 32.1647 23.2448 32.3167 23.4765 32.4253H23.4837C23.6068 32.5049 23.7444 32.5484 23.8819 32.5846L32.4035 34.677C33.3303 34.9087 33.9891 35.734 33.9891 36.697V42.2067C33.9891 43.3579 33.0552 44.2919 31.904 44.2919H27.6613C27.6902 44.1036 27.6975 43.9154 27.6975 43.7199C27.6975 41.0555 25.5399 38.898 22.8755 38.898C20.2112 38.898 18.0609 41.0555 18.0609 43.7199C18.0609 43.9154 18.0681 44.1036 18.0971 44.2919H13" stroke="white" stroke-width="1.2" stroke-linecap="round" stroke-linejoin="round"/>
<path d="M23.4909 32.4181H23.4837H13" stroke="white" stroke-width="1.2" stroke-linecap="round" stroke-linejoin="round"/>
<path d="M40.2878 43.7199C40.2878 43.9154 40.2951 44.1036 40.324 44.2918C40.6064 46.6811 42.6409 48.5418 45.1098 48.5418C47.5787 48.5418 49.5987 46.6811 49.8883 44.2918C49.9172 44.1036 49.9245 43.9154 49.9245 43.7199C49.9245 41.0555 47.7669 38.8979 45.1098 38.8979C42.4526 38.8979 40.2878 41.0555 40.2878 43.7199Z" stroke="white" stroke-width="1.2" stroke-linecap="round" stroke-linejoin="round"/>
<path d="M54.9928 24.2295H54.3122C53.3855 24.2295 52.4877 24.606 51.8289 25.2648L45.139 31.9692C44.958 32.1647 44.748 32.3167 44.5163 32.4253H44.5091C44.386 32.5049 44.2484 32.5484 44.1109 32.5846L35.5893 34.677C34.6625 34.9087 34.0037 35.734 34.0037 36.697V42.2067C34.0037 43.3579 34.9376 44.2919 36.0888 44.2919H40.3315C40.3026 44.1036 40.2953 43.9154 40.2953 43.7199C40.2953 41.0555 42.4529 38.898 45.1173 38.898C47.7816 38.898 49.9319 41.0555 49.9319 43.7199C49.9319 43.9154 49.9247 44.1036 49.8957 44.2919H55" stroke="white" stroke-width="1.2" stroke-linecap="round" stroke-linejoin="round"/>
<path d="M44.5017 32.4181H44.509H54.9927" stroke="white" stroke-width="1.2" stroke-linecap="round" stroke-linejoin="round"/>
<path d="M29.7971 30.5429L24.6494 28.8052L29.7971 27.0676L27.3862 22.195L32.2588 24.606L33.9964 19.4582L35.7341 24.606L40.6067 22.195L38.1957 27.0676L43.3434 28.8052L38.1957 30.5429" stroke="white" stroke-width="1.2" stroke-linecap="round" stroke-linejoin="round"/>
</svg>
