<svg width="68" height="68" viewBox="0 0 68 68" fill="none" xmlns="http://www.w3.org/2000/svg">
<rect width="68" height="68" rx="34" fill="#B68E34"/>
<path d="M30.1164 27.4455C29.0981 27.8569 28.605 29.0103 29.0172 30.0266L30.0114 32.4867L25.8489 36.1002C25.6549 36.2696 25.4933 36.4712 25.3801 36.7051L23.1171 41.1978C22.8988 41.6414 22.8422 42.1415 22.9796 42.6174L25.1296 50.3364C25.3074 50.9736 25.7923 51.4818 26.4228 51.6915L31.5228 53.3611C32.5654 53.6999 33.6889 53.1353 34.0283 52.0948C34.0849 51.9174 34.1173 51.7399 34.1253 51.5625C34.1577 50.6994 33.6242 49.8767 32.7594 49.5944L28.6697 48.2554L27.4088 43.7466L33.4222 45.876L40.1063 48.9572L39.8396 55.3373C39.7911 56.4342 40.6479 57.3538 41.739 57.4021C42.8382 57.4505 43.7596 56.5956 43.8081 55.5067L44.1314 47.8038C44.1637 47.0052 43.7111 46.2551 42.9756 45.9244L37.7624 43.5208L42.2482 39.3104L48.3585 39.5685C49.4577 39.6169 50.3791 38.7619 50.4276 37.673C50.4761 36.5761 49.6194 35.6566 48.5282 35.6082L41.5854 35.3178C41.052 35.2936 40.5347 35.4872 40.1387 35.8582L35.1518 40.5364L29.1627 38.5119L33.6808 34.5838C34.3193 34.0273 34.5375 33.1319 34.2142 32.3496L32.6947 28.5828C32.2825 27.5665 31.1268 27.0745 30.1084 27.4858L30.1164 27.4455Z" stroke="white" stroke-width="1.2" stroke-linecap="round" stroke-linejoin="round"/>
<path d="M19.3102 32.8819C21.3551 32.9706 22.9473 34.6887 22.8584 36.7374C22.7695 38.7781 21.0479 40.367 18.995 40.2783C16.9501 40.1896 15.3579 38.4715 15.4468 36.4228C15.5357 34.3822 17.2573 32.7932 19.3102 32.8819Z" stroke="white" stroke-width="1.2" stroke-linecap="round" stroke-linejoin="round"/>
<path d="M39.7749 16.363H36.3399L38.8858 10.5959H33.3251L31.9349 18.444H34.9982L33.9475 24.2191L39.7749 16.363Z" stroke="white" stroke-width="1.2" stroke-linecap="round" stroke-linejoin="round"/>
<path d="M52.4643 23.6384L49.1586 22.5737L53.3938 17.823L48.0513 16.1049L44.293 23.211L47.2269 24.1547L44.4304 29.3733L52.4643 23.6384Z" stroke="white" stroke-width="1.2" stroke-linecap="round" stroke-linejoin="round"/>
<path d="M15.5438 21.9527L18.8414 20.888L14.6062 16.1372L19.9487 14.4191L23.707 21.5332L20.7731 22.4769L23.5696 27.6875L15.5438 21.9527Z" stroke="white" stroke-width="1.2" stroke-linecap="round" stroke-linejoin="round"/>
</svg>
