<svg width="68" height="68" viewBox="0 0 68 68" fill="none" xmlns="http://www.w3.org/2000/svg">
<rect width="68" height="68" rx="34" fill="#B68E34"/>
<path d="M20.6357 15.0214V14.4184C20.6357 13.083 21.697 12 23.0056 12H32.0087C33.3174 12 34.3786 13.083 34.3786 14.4184V15.4826" stroke="white" stroke-linecap="round" stroke-linejoin="round"/>
<path d="M34.3785 17.6047V19.251C34.3785 19.2823 34.3785 19.3136 34.3765 19.3449C34.3152 20.5135 33.0515 21.1916 32.0455 20.6282C31.1519 20.1274 29.3934 19.3032 27.5081 19.3032C25.6228 19.3032 23.8643 20.1274 22.9708 20.6282C21.9668 21.1916 20.7011 20.5135 20.6397 19.3449C20.6397 19.3136 20.6377 19.2823 20.6377 19.251V16.8785" stroke="white" stroke-linecap="round" stroke-linejoin="round"/>
<path d="M34.5176 15.1863L36.0593 14.8441C36.6625 14.8441 37.1533 15.3428 37.1533 15.9604V16.8639C37.1533 17.4795 36.6646 17.9803 36.0593 17.9803L34.6035 17.6381" stroke="white" stroke-linecap="round" stroke-linejoin="round"/>
<path d="M20.6357 15.1863L19.094 14.8441C18.4907 14.8441 18 15.3428 18 15.9604V16.8639C18 17.4795 18.4887 17.9803 19.094 17.9803L20.5498 17.6381" stroke="white" stroke-linecap="round" stroke-linejoin="round"/>
<path d="M22.2675 28.355L22.0712 27.7854C21.6356 26.5251 22.2838 25.1458 23.5189 24.7013L32.0108 21.6486C33.2458 21.2041 34.5974 21.8656 35.0329 23.1259L35.3785 24.1296" stroke="white" stroke-linecap="round" stroke-linejoin="round"/>
<path d="M36.07 26.1348L36.6057 27.6873C36.6159 27.7165 36.6262 27.7478 36.6343 27.777C36.9574 28.8996 35.9841 29.968 34.8533 29.7781C33.8473 29.6091 31.9191 29.4275 30.1422 30.0681C28.3632 30.7066 26.9728 32.0817 26.2939 32.8559C25.5292 33.7281 24.1163 33.5173 23.6787 32.4365C23.6664 32.4073 23.6562 32.378 23.646 32.3488L22.873 30.112" stroke="white" stroke-linecap="round" stroke-linejoin="round"/>
<path d="M35.4131 23.8062L36.7565 22.959C37.3249 22.7545 37.9506 23.0592 38.151 23.6413L38.4455 24.4927C38.6459 25.0728 38.3473 25.7113 37.7768 25.9158L36.2923 26.0848" stroke="white" stroke-linecap="round" stroke-linejoin="round"/>
<path d="M22.3205 28.5115L20.7542 28.7119C20.1858 28.9163 19.8852 29.5528 20.0856 30.1349L20.38 30.9863C20.5804 31.5664 21.2041 31.8731 21.7745 31.6686L23.0362 30.8507" stroke="white" stroke-linecap="round" stroke-linejoin="round"/>
<path d="M23.4502 37.5425L23.4768 36.9395C23.5361 35.6061 24.6423 34.5712 25.9489 34.6317L34.9438 35.0407C36.2504 35.1012 37.2647 36.23 37.2054 37.5634L37.1583 38.6255" stroke="white" stroke-linecap="round" stroke-linejoin="round"/>
<path d="M37.0658 40.7497L36.9942 42.394C36.9942 42.4253 36.9901 42.4566 36.9881 42.4879C36.8756 43.6522 35.5833 44.272 34.6039 43.6647C33.7328 43.1243 32.0111 42.2208 30.1279 42.1352C28.2446 42.0497 26.4514 42.7925 25.5374 43.2516C24.5088 43.767 23.2758 43.0325 23.2656 41.864C23.2656 41.8327 23.2656 41.8014 23.2656 41.7701L23.3699 39.3997" stroke="white" stroke-linecap="round" stroke-linejoin="round"/>
<path d="M37.3115 38.3396L38.8675 38.0663C39.4707 38.0934 39.9369 38.6151 39.9104 39.2306L39.8715 40.1321C39.8449 40.7476 39.3337 41.2234 38.7305 41.1962L37.291 40.7873" stroke="white" stroke-linecap="round" stroke-linejoin="round"/>
<path d="M23.4436 37.7095L21.9182 37.2963C21.315 37.2692 20.8038 37.745 20.7772 38.3605L20.7384 39.2619C20.7118 39.8775 21.178 40.3992 21.7812 40.4263L23.2494 40.1488" stroke="white" stroke-linecap="round" stroke-linejoin="round"/>
<path d="M22.3682 46.3564L22.5624 45.7868C22.9898 44.5244 24.3393 43.8566 25.5764 44.2927L34.0847 47.2975C35.3218 47.7336 35.9761 49.1108 35.5487 50.3732L35.2073 51.379" stroke="white" stroke-linecap="round" stroke-linejoin="round"/>
<path d="M34.5258 53.3842L33.9983 54.9409C33.9881 54.9701 33.9778 55.0014 33.9656 55.0306C33.5341 56.1136 32.1212 56.3327 31.3524 55.4667C30.6674 54.6947 29.2708 53.33 27.4877 52.6998C25.7068 52.0718 23.7806 52.2637 22.7746 52.4369C21.6438 52.6331 20.6664 51.571 20.9833 50.4463C20.9915 50.417 21.0017 50.3857 21.012 50.3565L21.7726 48.1134" stroke="white" stroke-linecap="round" stroke-linejoin="round"/>
<path d="M35.432 51.1453L36.9983 51.3351C37.5688 51.5375 37.8714 52.1719 37.6731 52.7541L37.3827 53.6075C37.1844 54.1897 36.5628 54.4985 35.9923 54.2961L34.7266 53.4865" stroke="white" stroke-linecap="round" stroke-linejoin="round"/>
<path d="M22.3147 46.5129L20.9672 45.6741C20.3967 45.4717 19.7751 45.7805 19.5768 46.3627L19.2864 47.2161C19.0881 47.7983 19.3907 48.4326 19.9612 48.635L21.4457 48.7957" stroke="white" stroke-linecap="round" stroke-linejoin="round"/>
<path d="M22.3145 20.8306C22.3145 20.8306 23.4575 23.5787 23.5168 24.7013" stroke="white" stroke-linecap="round" stroke-linejoin="round"/>
<path d="M35.3789 30.1204C35.3789 30.1204 36.4074 32.9457 36.2336 35.5018" stroke="white" stroke-linecap="round" stroke-linejoin="round"/>
<path d="M35.3781 44.1592C35.3781 44.1592 35.1777 46.3752 34.5254 47.5083" stroke="white" stroke-linecap="round" stroke-linejoin="round"/>
<path d="M22.3675 52.752C22.3675 52.752 21.6293 54.2836 20.7705 55.2142" stroke="white" stroke-linecap="round" stroke-linejoin="round"/>
<path d="M43.5261 28.5616C43.0211 28.6451 42.4854 28.4573 42.1398 28.0212C41.6286 27.3743 41.7267 26.427 42.3606 25.9053L45.3317 23.4577C45.9656 22.9361 46.8939 23.0362 47.4051 23.6831C47.9163 24.3299 47.8181 25.2773 47.1842 25.7989L44.2132 28.2465C44.0067 28.4156 43.7695 28.5199 43.5241 28.5616H43.5261Z" stroke="white" stroke-linecap="round" stroke-linejoin="round"/>
<path d="M48.7628 33.0333C48.7628 33.0333 48.7505 33.0354 48.7423 33.0354L44.5751 33.6697C43.7694 33.7928 43.019 33.2252 42.8984 32.4031C42.7777 31.581 43.3298 30.8152 44.1395 30.6921L48.3068 30.0577C49.1124 29.9346 49.8629 30.5022 49.9835 31.3243C50.1021 32.1402 49.5561 32.8997 48.7628 33.0312V33.0333Z" stroke="white" stroke-linecap="round" stroke-linejoin="round"/>
<path d="M48.5421 40.3177C48.2906 40.3594 48.0228 40.3344 47.7692 40.2322L44.0211 38.7319C43.2625 38.4293 42.8904 37.555 43.1869 36.7809C43.4834 36.0067 44.3401 35.6249 45.0987 35.9295L48.8468 37.4298C49.6054 37.7324 49.9776 38.6067 49.6811 39.3808C49.4848 39.8941 49.041 40.2342 48.5442 40.3177H48.5421Z" stroke="white" stroke-linecap="round" stroke-linejoin="round"/>
</svg>
