<svg width="68" height="68" viewBox="0 0 68 68" fill="none" xmlns="http://www.w3.org/2000/svg">
<rect width="68" height="68" rx="34" fill="#B68E34"/>
<g clip-path="url(#clip0_679_916)">
<path d="M26.6688 22.661C25.7825 22.3559 24.8194 22.8186 24.5172 23.6983L23.7846 25.8237H19.0715C18.8512 25.8186 18.636 25.8593 18.4311 25.9458L14.4557 27.5576C14.0663 27.7153 13.7487 28.0102 13.5694 28.3915L10.6493 34.5237C10.4085 35.0322 10.4393 35.6271 10.7313 36.1102L13.0981 40.0203C13.5797 40.8186 14.6247 41.0831 15.429 40.6051C15.5674 40.5237 15.6852 40.4271 15.7928 40.3153C16.2999 39.7814 16.4075 38.9576 16.0079 38.2966L14.1124 35.1644L15.8184 31.5746L18.5233 36.2881L21.1258 41.978L17.3911 45.9085C16.7508 46.5847 16.7866 47.6475 17.468 48.2881C18.1493 48.9288 19.2251 48.8983 19.8655 48.2271L24.3737 43.4831C24.845 42.9898 24.9629 42.2576 24.6811 41.6373L22.6473 37.1932L27.9034 37L31.7149 40.5695C32.3963 41.2102 33.4721 41.1797 34.1124 40.5085C34.7528 39.8322 34.7169 38.7695 34.0356 38.1288L29.7016 34.0712C29.3686 33.761 28.9229 33.5932 28.4669 33.6085L22.6319 33.822L19.886 29.1898H25.0038C25.7262 29.1949 26.3665 28.7424 26.5971 28.0661L27.719 24.8068C28.0213 23.9271 27.5448 22.9712 26.6585 22.6661L26.6688 22.661Z" stroke="white" stroke-linecap="round" stroke-linejoin="round"/>
<path d="M16.6429 20.1186C17.9185 21.3136 17.9851 23.3017 16.7864 24.5627C15.5927 25.8237 13.5845 25.8746 12.3089 24.6797C11.0333 23.4847 10.9667 21.4966 12.1655 20.2356C13.3642 18.9746 15.3673 18.9237 16.6429 20.1186Z" stroke="white" stroke-linecap="round" stroke-linejoin="round"/>
<path d="M6.75586 48.7458H61.2436" stroke="white" stroke-linecap="round" stroke-linejoin="round"/>
<path d="M7.09961 43.6407C7.09961 43.6407 9.36395 46.2034 14.4818 47.0068" stroke="white" stroke-linecap="round" stroke-linejoin="round"/>
<path d="M11.1875 42.9084C11.1875 42.9084 12.2889 44.2661 14.0359 45.0186" stroke="white" stroke-linecap="round" stroke-linejoin="round"/>
<path d="M32.4277 25.539H34.0056C34.7945 25.539 35.4605 26.1085 35.5835 26.8814L37.8171 41.2407C37.981 42.2983 38.898 43.0763 39.9738 43.0763H57.1665C57.5917 43.0763 57.9861 43.3356 58.1245 43.7373C58.1859 43.9153 58.2013 44.1085 58.1757 44.2966C58.1757 44.3017 58.1757 44.3068 58.1757 44.3119C58.0937 44.8 57.6326 45.1356 57.1357 45.1356H37.9964" stroke="white" stroke-miterlimit="10"/>
<path d="M35.7734 28.1169L60.2919 30.4305L58.5091 40.0305H37.6279" stroke="white" stroke-miterlimit="10"/>
<path d="M57.4435 31.895L56.0654 38.5661" stroke="white" stroke-miterlimit="10"/>
<path d="M52.7557 31.4932L52.1973 38.5661" stroke="white" stroke-miterlimit="10"/>
<path d="M48.0322 31.1373V38.5661" stroke="white" stroke-miterlimit="10"/>
<path d="M43.4883 30.8831L44.0006 38.5661" stroke="white" stroke-miterlimit="10"/>
<path d="M38.8057 30.3289L40.0762 38.5661" stroke="white" stroke-miterlimit="10"/>
<path d="M55.4349 48.7458C56.4393 48.7458 57.2535 47.9376 57.2535 46.9407C57.2535 45.9438 56.4393 45.1356 55.4349 45.1356C54.4304 45.1356 53.6162 45.9438 53.6162 46.9407C53.6162 47.9376 54.4304 48.7458 55.4349 48.7458Z" stroke="white" stroke-miterlimit="10"/>
<path d="M40.4192 48.7458C41.4236 48.7458 42.2379 47.9376 42.2379 46.9407C42.2379 45.9438 41.4236 45.1356 40.4192 45.1356C39.4148 45.1356 38.6006 45.9438 38.6006 46.9407C38.6006 47.9376 39.4148 48.7458 40.4192 48.7458Z" stroke="white" stroke-miterlimit="10"/>
</g>
<defs>
<clipPath id="clip0_679_916">
<rect width="55" height="30" fill="white" transform="translate(6.5 19)"/>
</clipPath>
</defs>
</svg>
