<svg width="68" height="68" viewBox="0 0 68 68" fill="none" xmlns="http://www.w3.org/2000/svg">
<rect width="68" height="68" rx="34" fill="#B68E34"/>
<path d="M32.3125 30.0593L37.9039 31.2518C39.2065 31.55 40.5066 30.7424 40.805 29.4513C41.1058 28.1602 40.2911 26.8714 38.9886 26.5757L33.3972 25.3831" stroke="white" stroke-linecap="round" stroke-linejoin="round"/>
<path d="M31.2285 34.7355L36.8199 35.928C38.1225 36.2261 39.4226 35.4186 39.721 34.1275C40.0218 32.8364 39.2071 31.5476 37.9046 31.2518L32.3132 30.0593" stroke="white" stroke-linecap="round" stroke-linejoin="round"/>
<path d="M31.2278 34.7355L36.599 35.8787C37.9015 36.1768 38.7162 37.4632 38.4154 38.7544C38.1147 40.0455 36.8169 40.853 35.5143 40.5549L23.9526 38.0008C19.8745 37.0712 16.2795 31.7941 16.1824 31.5781L15.9219 31.1368" stroke="white" stroke-linecap="round" stroke-linejoin="round"/>
<path d="M32.3602 20.214L36.751 17.9252C38.0416 17.2515 38.5863 15.6998 37.9919 14.3782C37.4117 13.0871 35.9386 12.4439 34.5864 12.8922L28.7794 14.8148C22.0868 15.0895 20.159 18.2773 19.1904 19.0144" stroke="white" stroke-linecap="round" stroke-linejoin="round"/>
<path d="M32.3604 20.214L46.2761 23.2376C46.9274 23.3854 47.4555 23.7822 47.7847 24.3033C48.1139 24.8244 48.2418 25.4677 48.0926 26.1132C47.7918 27.4043 46.4916 28.2189 45.1891 27.9208L33.7292 25.4512" stroke="white" stroke-linecap="round" stroke-linejoin="round"/>
<path d="M46.0605 28.0827L53.4447 41.8554C53.537 42.0267 53.5631 42.2263 53.5181 42.4164L52.431 47.0081L47.9859 45.3296C47.8011 45.2592 47.6496 45.1278 47.5572 44.954L40.0049 30.8692" stroke="white" stroke-linecap="round" stroke-linejoin="round"/>
<path d="M49.9468 35.9163L47.9717 36.9562" stroke="white" stroke-linecap="round" stroke-linejoin="round"/>
<path d="M48.0278 32.2565L46.0527 33.2965" stroke="white" stroke-linecap="round" stroke-linejoin="round"/>
<path d="M51.83 39.576L49.8525 40.6159" stroke="white" stroke-linecap="round" stroke-linejoin="round"/>
<path d="M38.459 17.3078L40.8699 21.815" stroke="white" stroke-linecap="round" stroke-linejoin="round"/>
<path d="M52.4307 47.0081L55.4999 52.75" stroke="white" stroke-linecap="round" stroke-linejoin="round"/>
<path d="M18.6693 21.0074L19.2946 18.6177C19.548 17.6107 18.9204 16.5918 17.902 16.3571L17.8689 16.3501C16.8671 16.1177 15.863 16.728 15.619 17.7163L12.5545 29.5875C12.3059 30.5922 12.9311 31.6063 13.9494 31.8434C14.9488 32.0758 15.9506 31.4701 16.1993 30.4819L16.7061 28.5405" stroke="white" stroke-linecap="round" stroke-linejoin="round"/>
<ellipse cx="17.6797" cy="24.7728" rx="0.473648" ry="0.469495" fill="white"/>
<path d="M32.3604 20.214L40.7771 15.8242" stroke="white" stroke-linecap="round" stroke-linejoin="round"/>
<path d="M52.5 53.75L46 50.25" stroke="white" stroke-linecap="round"/>
<path d="M49.5 55.25L44 53.75" stroke="white" stroke-linecap="round"/>
</svg>
