<svg width="68" height="68" viewBox="0 0 68 68" fill="none" xmlns="http://www.w3.org/2000/svg">
<rect width="68" height="68" rx="34" fill="#B68E34"/>
<path d="M52.0928 36.7795L49.2145 46.9331C48.8206 48.335 47.4779 49.2507 46.0388 49.1048L37.7095 48.2783L34.4855 56.2034C34.2845 56.6815 33.9308 57.0624 33.4886 57.2812C32.974 57.5405 32.355 57.581 31.7761 57.3379C30.7229 56.9084 30.2083 55.6848 30.6425 54.6151L34.4132 45.3529C34.7348 44.5426 35.5227 44.032 36.3829 44.0564L42.7183 44.2184C43.1203 42.4033 44.1896 37.8734 44.7122 35.7017L40.1617 33.9757C39.5908 33.765 39.1486 33.3112 38.9396 32.7358L36.7045 26.5367C36.3186 25.4508 36.8573 24.2596 37.9507 23.8545C39.028 23.4655 40.2099 24.0246 40.6119 25.1105L42.5173 30.402L50.1713 33.295L50.3562 33.376C51.7069 33.8865 52.4626 35.3533 52.0847 36.7633L52.0928 36.7795Z" stroke="white" stroke-width="1.2" stroke-linecap="round" stroke-linejoin="round"/>
<path d="M41.3435 41.2202L37.7738 38.6028C37.2914 38.2543 36.6804 38.1247 36.0935 38.2543L26.2206 40.5314C25.095 40.7826 24.4036 41.909 24.6609 43.0354C24.9181 44.1617 26.0276 44.8586 27.1452 44.6074L32.6766 43.3352L35.378 42.7112L37.0503 44.0807" stroke="white" stroke-width="1.2" stroke-linecap="round" stroke-linejoin="round"/>
<path d="M53.5881 25.4103C54.5529 27.3633 53.765 29.7295 51.8274 30.7019C49.8898 31.6743 47.5422 30.8802 46.5774 28.9272C45.6126 26.9743 46.4005 24.6081 48.3381 23.6357C50.2757 22.6633 52.6233 23.4574 53.5881 25.4103Z" stroke="white" stroke-width="1.2" stroke-linecap="round" stroke-linejoin="round"/>
<path d="M31.0605 36.9253V28.0683V16.2048V10.5" stroke="white" stroke-width="1.2" stroke-linecap="round" stroke-linejoin="round"/>
<path d="M31.0605 47.1843V46.2038" stroke="white" stroke-width="1.2" stroke-linecap="round" stroke-linejoin="round"/>
<path d="M14 10.5V57.5" stroke="white" stroke-width="1.2" stroke-linecap="round" stroke-linejoin="round"/>
<path d="M31.0605 16.2048H14" stroke="white" stroke-width="1.2" stroke-linecap="round" stroke-linejoin="round"/>
<path d="M31.0605 28.0683H14" stroke="white" stroke-width="1.2" stroke-linecap="round" stroke-linejoin="round"/>
<path d="M23.0287 39.9317H14" stroke="white" stroke-width="1.2" stroke-linecap="round" stroke-linejoin="round"/>
<path d="M29.1873 51.7952H14" stroke="white" stroke-width="1.2" stroke-linecap="round" stroke-linejoin="round"/>
<path d="M37.6451 14.4383V19.0977" stroke="white" stroke-width="1.2" stroke-linecap="round" stroke-linejoin="round"/>
<path d="M40.459 12.6393V16.4398" stroke="white" stroke-width="1.2" stroke-linecap="round" stroke-linejoin="round"/>
<path d="M51.4736 13.4416V17.7283" stroke="white" stroke-width="1.2" stroke-linecap="round" stroke-linejoin="round"/>
<path d="M53.958 17.5662V19.3895" stroke="white" stroke-width="1.2" stroke-linecap="round" stroke-linejoin="round"/>
</svg>
