
<svg width="192.7px" height="36px" viewBox="0 0 192.7 36" version="1.1" xmlns="http://www.w3.org/2000/svg" xmlns:xlink="http://www.w3.org/1999/xlink">
  <g id="Page-1" stroke="none" stroke-width="1" fill="none" fill-rule="evenodd">
    <g id="localiq" transform="translate(-34.3, -34.2)" fill-rule="nonzero">
      <path fill="#ffffff" d="M42.7,61.5 L55.4,61.5 L55.4,68.3 L34.3,68.3 L34.3,37.7 L42.7,37.7 L42.7,61.6 L42.7,61.5 Z M73.1,68.9 C70,68.9 67.3,68.2 64.9,66.9 C62.5,65.5 60.6,63.7 59.3,61.3 C57.9,58.9 57.2,56.2 57.2,53.1 C57.2,50 57.6,48.6 58.4,46.7 C59.2,44.8 60.3,43.1 61.7,41.7 C63.1,40.3 64.8,39.2 66.7,38.4 C68.6,37.6 70.7,37.2 73,37.2 C75.3,37.2 77.4,37.6 79.4,38.4 C81.3,39.2 83,40.3 84.4,41.7 C85.8,43.1 86.9,44.8 87.7,46.7 C88.5,48.6 88.9,50.8 88.9,53.1 C88.9,55.4 88.2,58.9 86.8,61.3 C85.4,63.7 83.5,65.5 81.2,66.9 C78.8,68.3 76.1,68.9 73,68.9 L73.1,68.9 Z M73.1,61.9 C74.6,61.9 75.9,61.5 77,60.8 C78.1,60 79,59 79.6,57.7 C80.2,56.4 80.6,54.8 80.6,53 C80.6,51.2 80.3,49.7 79.6,48.3 C79,46.9 78.1,45.9 77,45.1 C75.9,44.3 74.6,44 73.1,44 C71.6,44 70.3,44.4 69.2,45.1 C68.1,45.8 67.2,46.9 66.6,48.3 C66,49.7 65.6,51.2 65.6,53 C65.6,54.8 65.9,56.3 66.6,57.7 C67.2,59 68.1,60.1 69.2,60.8 C70.3,61.6 71.6,61.9 73.1,61.9 L73.1,61.9 Z M108,68.9 C104.9,68.9 102.1,68.2 99.8,66.9 C97.4,65.5 95.6,63.7 94.3,61.3 C93,58.9 92.3,56.2 92.3,53 C92.3,49.8 93,47.1 94.3,44.7 C95.6,42.3 97.5,40.5 99.8,39.1 C102.2,37.8 104.9,37.1 108,37.1 C111.1,37.1 113,37.6 115.1,38.7 C117.2,39.8 119,41.3 120.5,43.3 L113.9,47.2 C113.1,46.2 112.2,45.4 111.3,44.9 C110.3,44.3 109.2,44 107.9,44 C105.8,44 104,44.8 102.7,46.4 C101.4,48 100.7,50.2 100.7,52.9 C100.7,55.6 101.4,57.8 102.7,59.4 C104,61 105.7,61.9 107.9,61.9 C110.1,61.9 110.4,61.6 111.4,60.9 C112.4,60.3 113.3,59.5 114,58.6 L120.6,62.5 C119.1,64.5 117.3,66.1 115.2,67.2 C113.1,68.3 110.7,68.8 108.1,68.8 L108,68.9 Z M145.7,68.3 L143.8,62.6 L132.3,62.6 L130.4,68.3 L122.1,68.3 L133.3,37.7 L143,37.7 L154.2,68.3 L145.7,68.3 L145.7,68.3 Z M134.4,56.4 L141.6,56.4 L138,45.7 L134.4,56.4 L134.4,56.4 Z M166.6,61.5 L179.3,61.5 L179.3,68.3 L158.2,68.3 L158.2,37.7 L166.6,37.7 L166.6,61.6 L166.6,61.5 Z M183.1,68.3 L183.1,45.4 C184.4,45.7 185.6,45.8 186.9,45.8 C188.2,45.8 189.6,45.7 190.9,45.4 L190.9,68.3 L183.1,68.3 Z M211.2,68.9 C208.1,68.9 205.4,68.2 203,66.9 C200.6,65.5 198.7,63.7 197.4,61.3 C196,58.9 195.3,56.2 195.3,53.1 C195.3,50 195.7,48.6 196.5,46.7 C197.3,44.8 198.4,43.1 199.8,41.7 C201.2,40.3 202.9,39.2 204.8,38.4 C206.7,37.6 208.8,37.2 211.1,37.2 C213.4,37.2 215.5,37.6 217.5,38.4 C219.4,39.2 221.1,40.3 222.5,41.7 C223.9,43.1 225,44.8 225.8,46.7 C226.6,48.6 227,50.8 227,53.1 C227,55.4 226.5,58.1 225.5,60.2 C224.5,62.3 223.1,64.1 221.4,65.5 L225,70.2 L217.5,70.2 L216.1,68.3 C214.6,68.8 212.9,69 211.1,69 L211.2,68.9 Z M211.2,61.9 L211.5,61.9 L207,55.8 L214.3,55.8 L216.7,59.1 C217.3,58.3 217.7,57.5 218,56.4 C218.3,55.4 218.5,54.2 218.5,53 C218.5,51.2 218.2,49.7 217.5,48.3 C216.9,46.9 216,45.9 214.9,45.1 C213.8,44.3 212.5,44 211,44 C209.5,44 208.2,44.4 207.1,45.1 C206,45.8 205.1,46.9 204.5,48.3 C203.9,49.7 203.5,51.2 203.5,53 C203.5,54.8 203.8,56.3 204.5,57.7 C205.1,59 206,60.1 207.1,60.8 C208.2,61.6 209.5,61.9 211,61.9 L211.2,61.9 Z" id="Shape"></path>
      <path fill="#cccccc" d="M186.9,43.6 C185.6,43.6 184.5,43.1 183.6,42.2 C182.7,41.3 182.2,40.2 182.2,38.9 C182.2,37.6 182.7,36.5 183.6,35.6 C184.5,34.7 185.6,34.2 186.9,34.2 C188.2,34.2 189.3,34.7 190.2,35.6 C191.1,36.5 191.6,37.6 191.6,38.9 C191.6,40.2 191.1,41.3 190.2,42.2 C189.3,43.1 188.2,43.6 186.9,43.6 Z" id="Path"></path>
    </g>
  </g>
</svg>