<svg xmlns="http://www.w3.org/2000/svg" viewBox="0 0 26.357 26.36">
  <path fill="currentColor" d="M13.647 4.656a8.057 8.057 0 0 1 8.057 8.058 1.03 1.03 0 0 1-2.06 0 5.997 5.997 0 0 0-5.997-5.998 1.03 1.03 0 1 1 0-2.06Z"/>
  <path fill="currentColor" d="M13.647 0c7.019 0 12.71 5.692 12.71 12.711a1.03 1.03 0 0 1-2.06 0c0-5.881-4.769-10.651-10.65-10.651a1.03 1.03 0 1 1 0-2.06ZM1.75 1.962C-1.856 5.57.29 13.562 6.546 19.816c6.254 6.254 14.246 8.4 17.849 4.794 1.093-1.094 1.589-3.574 1.589-3.574.082-.408-.156-.865-.528-1.015l-6.547-2.615c-.372-.15-.923-.024-1.225.278l-1.894 1.894c-.363.361-.885.452-1.296.267-.032-.014-.064-.032-.097-.05-.014-.008-.029-.014-.04-.023-1.443-.786-2.967-1.93-4.401-3.363-1.437-1.434-2.577-2.962-3.363-4.401-.006-.015-.015-.027-.02-.038-.018-.033-.036-.065-.053-.1-.188-.413-.097-.935.264-1.296l1.9-1.9c.301-.302.425-.853.278-1.226L6.347.904c-.15-.372-.604-.61-1.015-.528 0 0-2.48.496-3.573 1.59l-.01-.004Z"/>
</svg>
