<svg width="27" height="27" viewBox="0 0 27 27" fill="none" xmlns="http://www.w3.org/2000/svg">
  <path d="M13.647 6.32623C17.5286 6.32623 20.6744 9.47236 20.6744 13.3544" stroke="#1F735D" stroke-width="2.06" stroke-linecap="round" stroke-linejoin="round"/>
  <path d="M13.647 1.67008C20.0969 1.67008 25.3271 6.90092 25.3271 13.3515" stroke="#1F735D" stroke-width="2.06" stroke-linecap="round" stroke-linejoin="round"/>
  <path d="M1.74981 2.60249C-1.85626 6.20895 0.289793 14.2018 6.54618 20.4559C12.7996 26.7101 20.7916 28.8564 24.3948 25.2499C25.4883 24.1562 25.9838 21.6757 25.9838 21.6757C26.0659 21.2681 25.8284 20.8107 25.4561 20.6612L18.9094 18.0458C18.5371 17.8962 17.9859 18.0223 17.6839 18.3243L15.79 20.2184C15.4265 20.5791 14.9046 20.67 14.4942 20.4853C14.4619 20.4706 14.4297 20.453 14.3974 20.4354C14.3828 20.4266 14.3681 20.4208 14.3564 20.412C12.914 19.6262 11.3895 18.4826 9.95582 17.0489C8.51925 15.6151 7.3788 14.0875 6.59309 12.6478C6.58722 12.6331 6.57843 12.6214 6.57257 12.6097C6.55498 12.5774 6.53738 12.5452 6.51979 12.51C6.33216 12.0966 6.42304 11.5747 6.78365 11.214L8.68343 9.31403C8.98541 9.01202 9.10854 8.46079 8.96195 8.08841L6.34682 1.54401C6.1973 1.17163 5.74287 0.934134 5.33243 1.01623C5.33243 1.01623 2.85215 1.51175 1.75861 2.60542L1.74981 2.60249Z" fill="#1F735D"/>
</svg>
