<svg width="26" height="26" viewBox="0 0 26 26" fill="none" xmlns="http://www.w3.org/2000/svg">
  <path fill="currentColor" d="M22.5554 18.867C22.5593 19.3844 22.4613 19.8974 22.2668 20.3769C22.0724 20.8563 21.7853 21.2927 21.4221 21.6611C21.0589 22.0295 20.6266 22.3228 20.15 22.524C19.6734 22.7253 19.1617 22.8306 18.6444 22.834C14.4659 22.8041 10.4703 21.1157 7.53655 18.1402C4.60279 15.1646 2.97111 11.1455 3.00039 6.967C2.99643 6.44964 3.09449 5.93658 3.28894 5.45715C3.4834 4.97772 3.77045 4.54132 4.13367 4.17289C4.4969 3.80446 4.92918 3.51124 5.4058 3.30999C5.88242 3.10874 6.39403 3.0034 6.91138 3C7.12898 3.0008 7.3461 3.0202 7.56039 3.058L7.66038 3.074C7.8512 3.11187 8.02588 3.20716 8.161 3.34711C8.29613 3.48706 8.38524 3.66497 8.41638 3.857L9.40438 9.757C9.41547 9.8248 9.40444 9.89438 9.37293 9.95543C9.34141 10.0165 9.29108 10.0658 9.22939 10.096C9.22939 10.096 8.28238 10.555 7.81838 10.785C7.74886 10.822 7.695 10.8828 7.66671 10.9563C7.63842 11.0297 7.63759 11.111 7.66439 11.185C8.25411 12.7575 9.16787 14.1885 10.3464 15.385C11.5137 16.5737 12.9215 17.4993 14.4754 18.1C14.5484 18.1272 14.6289 18.1262 14.7013 18.0971C14.7736 18.0681 14.8324 18.0131 14.8664 17.943C15.0984 17.478 15.5614 16.513 15.5614 16.513C15.5912 16.4522 15.6397 16.4025 15.6998 16.3714C15.76 16.3403 15.8285 16.3292 15.8954 16.34L21.7104 17.34C21.902 17.3738 22.0786 17.4654 22.2166 17.6025C22.3546 17.7396 22.4474 17.9156 22.4824 18.107C22.4874 18.144 22.4924 18.175 22.4984 18.207C22.5357 18.425 22.5548 18.6458 22.5554 18.867Z" stroke-miterlimit="10"/>
</svg>
