<svg enable-background="new 0 0 100 100" viewBox="0 0 100 100" xmlns="http://www.w3.org/2000/svg">
  <path fill="currentColor" d="m50 2.5c-26.1917572 0-47.5 21.3082409-47.5 47.5s21.3082428 47.5 47.5 47.5 47.5-21.3082428 47.5-47.5-21.3082428-47.5-47.5-47.5zm28.8339462 76.1135483c-3.6421967-7.4900131-11.3205719-12.6594467-20.2055969-12.6594467h-17.2566986c-8.8850288 0-16.5634041 5.1694336-20.2055988 12.6594467-7.2950278-7.3506775-11.81038-17.4638176-11.81038-28.6135483 0-22.4114799 18.2333269-40.64433 40.6443281-40.64433s40.6443253 18.2328501 40.6443253 40.64433c0 11.1497307-4.5153504 21.2628708-11.8103791 28.6135483z"/>
  <circle fill="currentColor" cx="50" cy="40.869" r="18.263"/>
</svg>